<svg width="58" height="59" viewBox="0 0 58 59" fill="none" xmlns="http://www.w3.org/2000/svg">
<mask id="mask0_1269_47846" style="mask-type:luminance" maskUnits="userSpaceOnUse" x="0" y="0" width="58" height="59">
<path d="M58 0H0V58.9802H58V0Z" fill="white"/>
</mask>
<g mask="url(#mask0_1269_47846)">
<path d="M58 29.5C58 45.7854 45.0051 59 28.9903 59C12.9755 59 -0.0194702 45.8052 -0.0194702 29.5C-0.0194702 13.1948 12.956 0 28.9903 0C45.0245 0 58 13.2146 58 29.5Z" fill="white"/>
</g>
<mask id="mask1_1269_47846" style="mask-type:luminance" maskUnits="userSpaceOnUse" x="0" y="0" width="58" height="59">
<path d="M29.0097 0C12.995 0 0 13.1948 0 29.5C0 45.8052 12.9365 58.9406 28.8928 59H29.0877C45.0635 58.9406 57.9805 45.7656 57.9805 29.5C57.9805 13.2344 45.005 0 28.9708 0H29.0097Z" fill="white"/>
</mask>
<g mask="url(#mask1_1269_47846)">
<path d="M37.4263 27.083C37.4263 27.083 37.212 26.9443 37.1145 27.0433C37.0171 27.1424 37.0366 27.2613 37.1145 27.3603C37.1925 27.4594 37.3289 27.4792 37.4263 27.4C37.5237 27.3009 37.5042 27.182 37.4263 27.083ZM59.4612 2.89257C58.6429 2.04066 57.474 2.21896 56.6557 2.97182C55.8374 3.72467 55.5647 4.87377 56.3635 5.72568C57.1622 6.57759 58.3312 6.39928 59.1495 5.64643C59.9678 4.89358 60.26 3.74448 59.4417 2.89257M83.4444 -46.5184C83.5418 -46.3996 83.6782 -46.3798 83.7951 -46.4788C83.912 -46.5779 83.8925 -46.7166 83.7951 -46.8354C83.6977 -46.9345 83.5613 -46.9741 83.4444 -46.8751C83.3275 -46.776 83.347 -46.6373 83.4444 -46.5184ZM47.9859 18.1081C47.4404 17.4345 46.5637 17.3751 45.9012 17.8902C45.2193 18.4053 45.1414 19.2176 45.6675 19.8912C46.213 20.5648 47.0702 20.6639 47.7521 20.1488C48.434 19.6337 48.5314 18.7818 47.9859 18.1081ZM60.1431 25.2206C59.3833 24.3489 58.2533 24.2697 57.396 25.0423C56.5388 25.815 56.5583 27.0433 57.2986 27.9151C58.039 28.7868 59.2079 28.9651 60.0457 28.1528C60.8834 27.3405 60.9224 26.1122 60.1431 25.2405M51.5902 15.3543C50.9667 14.6014 49.9731 14.5222 49.1938 15.1165C48.4145 15.7109 48.3171 16.6223 48.9405 17.3751C49.564 18.1478 50.5186 18.2468 51.2785 17.6525C52.0383 17.0581 52.2136 16.1071 51.5902 15.3543ZM55.9154 6.20117C55.1555 5.38888 54.084 5.50775 53.3242 6.20117C52.5643 6.89458 52.35 7.86537 53.0514 8.69748C53.7333 9.52958 54.8438 9.50976 55.6426 8.79653C56.4414 8.0833 56.6752 7.01346 55.9154 6.20117ZM37.3483 20.7233C37.3483 20.7233 37.1925 20.6243 37.1145 20.7035C37.0366 20.763 37.0561 20.862 37.1145 20.9413C37.173 21.0205 37.2704 21.0403 37.3483 20.9809C37.4263 20.9214 37.4068 20.8224 37.3483 20.7431M59.734 2.63501C60.5912 3.52655 61.7796 3.28881 62.5979 2.45671C63.4162 1.6246 63.689 0.37645 62.8122 -0.495274C61.9355 -1.367 60.7471 -1.12926 59.9483 -0.297153C59.1495 0.534946 58.8962 1.74348 59.7534 2.63501M52.2721 9.31165C51.6681 8.59841 50.733 8.53898 49.9926 9.11352C49.2523 9.66826 49.0964 10.5796 49.7004 11.3127C50.3043 12.0457 51.259 12.0853 51.9798 11.5108C52.7202 10.956 52.8761 10.0447 52.2721 9.31165ZM62.9876 -0.693394C63.8838 0.178329 65.0722 -0.0792236 65.871 -0.97076C66.6698 -1.8623 66.9036 -3.15007 65.9879 -4.0218C65.0722 -4.89352 63.8838 -4.57653 63.1045 -3.685C62.3252 -2.81327 62.0914 -1.56512 62.9876 -0.693394ZM41.05 17.811C40.7968 17.5138 40.4266 17.4544 40.1149 17.6723C39.8032 17.8902 39.7642 18.2468 40.0175 18.544C40.2513 18.8412 40.6409 18.9006 40.9526 18.6827C41.2644 18.4648 41.3033 18.1082 41.05 17.811ZM56.2271 0.277393C55.5841 -0.35659 54.6295 -0.297157 54.006 0.317017C53.3826 0.931187 53.2657 1.7831 53.8891 2.43689C54.5126 3.07088 55.4283 2.97182 56.0712 2.39727C56.7141 1.82273 56.87 0.931187 56.2271 0.277393ZM44.8492 15.0967C44.479 14.6411 43.8556 14.542 43.3685 14.8986C42.8814 15.2552 42.823 15.81 43.2126 16.2656C43.6023 16.7213 44.2063 16.8204 44.6933 16.4638C45.1609 16.1071 45.2388 15.5524 44.8492 15.0967ZM48.5509 12.1646C48.0443 11.5504 47.2456 11.5108 46.6416 11.9863C46.0181 12.4617 45.9207 13.274 46.4273 13.8684C46.9338 14.4826 47.7131 14.542 48.3366 14.0467C48.96 13.5712 49.0574 12.7589 48.5509 12.1448M50.6355 27.9547C50.09 27.3207 49.2523 27.1028 48.5899 27.6971C47.9274 28.2717 48.0054 29.1434 48.5509 29.7972C49.0964 30.4312 49.9536 30.6095 50.5771 30.0151C51.2005 29.4208 51.1811 28.6085 50.6355 27.9745M57.2791 21.912C56.5193 21.0403 55.3504 20.8224 54.4541 21.6149C53.5579 22.4073 53.6164 23.6357 54.3762 24.5272C55.136 25.4188 56.305 25.5971 57.1817 24.8046C58.0779 24.0121 58.0195 22.8036 57.2597 21.9319M53.9866 24.864C53.3242 24.0914 52.2721 23.9131 51.4928 24.6065C50.7135 25.2999 50.7719 26.4094 51.4538 27.1622C52.1357 27.9151 53.1293 28.0537 53.8891 27.3603C54.649 26.6669 54.649 25.6169 53.9671 24.864M46.739 37.7418C46.5442 37.5239 46.2519 37.4446 46.0181 37.6626C45.7843 37.8607 45.8233 38.1777 46.0181 38.3956C46.213 38.6135 46.5052 38.6928 46.7195 38.4748C46.9533 38.2767 46.9143 37.9597 46.7195 37.7418M55.3114 12.3627C54.571 11.4513 53.4021 11.4117 52.4864 12.1249C51.5707 12.8184 51.4148 13.9675 52.1552 14.8986C52.8955 15.8298 53.9476 15.8892 54.8633 15.176C55.779 14.4627 56.0517 13.274 55.3114 12.3627ZM50.1874 34.5323C49.8173 34.0964 49.2523 33.9973 48.8236 34.3936C48.395 34.7898 48.434 35.3842 48.8236 35.82C49.1938 36.2559 49.7588 36.355 50.1874 35.9587C50.6161 35.5625 50.5771 34.9483 50.1874 34.5323ZM53.5774 31.3227C53.0514 30.7086 52.2526 30.6095 51.6486 31.184C51.0447 31.7586 51.0836 32.6105 51.6292 33.2247C52.1747 33.8388 52.9735 33.9379 53.5579 33.3634C54.1619 32.7888 54.1229 31.9369 53.5774 31.3227ZM56.8895 28.2717C56.2466 27.5188 55.2529 27.3603 54.4931 28.0537C53.7333 28.7472 53.7917 29.7576 54.4347 30.5104C55.0971 31.2633 56.0712 31.402 56.8116 30.7284C57.5519 30.035 57.5324 29.0245 56.8895 28.2717ZM44.0114 27.4C43.6412 26.9641 43.0568 26.8254 42.6087 27.2216C42.1606 27.6179 42.219 28.2122 42.6087 28.6481C42.9788 29.084 43.5633 29.2227 44.0114 28.8264C44.4595 28.4302 44.4011 27.8358 44.0114 27.4ZM40.7188 30.5501C40.5435 30.3519 40.2902 30.2727 40.0759 30.4708C39.8616 30.6491 39.9006 30.9265 40.0759 31.1246C40.2513 31.3227 40.524 31.3822 40.7188 31.2038C40.9332 31.0255 40.8942 30.7482 40.7188 30.5501ZM47.1676 31.0057C46.778 30.5501 46.174 30.3916 45.7064 30.8076C45.2388 31.2237 45.2973 31.8378 45.6869 32.2935C46.0766 32.7492 46.6805 32.8879 47.1481 32.4718C47.6157 32.0558 47.5573 31.4416 47.1676 30.9859M47.4988 24.3687C46.9728 23.7546 46.1545 23.5564 45.5116 24.1112C44.8687 24.6659 44.9466 25.5178 45.4726 26.132C45.9987 26.7462 46.8169 26.9443 47.4599 26.3895C48.1028 25.8348 48.0249 24.9829 47.4988 24.3687ZM43.6218 34.1162C43.4269 33.8983 43.1347 33.819 42.9009 34.0172C42.6671 34.2153 42.7061 34.5323 42.9009 34.7502C43.0957 34.9681 43.388 35.0474 43.6218 34.8493C43.8556 34.6511 43.8166 34.3341 43.6218 34.1162ZM50.8304 21.4167C50.2069 20.6837 49.2912 20.5054 48.5119 21.1196C47.7326 21.7535 47.8495 22.7838 48.473 23.497C49.0964 24.2102 50.0511 24.4678 50.8109 23.7942C51.5512 23.1206 51.4733 22.13 50.8304 21.3969M54.3372 18.544C53.6943 17.6921 52.6033 17.593 51.7655 18.2666C50.9083 18.9403 50.7135 20.0299 51.4343 20.8818C52.1552 21.7337 53.3047 21.9715 54.1424 21.2384C54.9607 20.5054 54.9802 19.3959 54.3372 18.544ZM40.7383 23.9329C40.4656 23.6159 40.0369 23.5168 39.7057 23.7942C39.3745 24.0715 39.4135 24.5272 39.6863 24.8442C39.959 25.1612 40.3876 25.2801 40.7188 24.9829C41.0501 24.6857 41.0111 24.2499 40.7383 23.9329ZM58.1753 -18.7817C58.1753 -18.7817 58.0195 -18.8213 57.9805 -18.7421C57.9416 -18.6628 57.9805 -18.6034 58.039 -18.5638C58.0974 -18.5242 58.1948 -18.5242 58.2338 -18.6034C58.2728 -18.6826 58.2338 -18.7421 58.1753 -18.7817ZM64.8579 -23.9724C65.384 -23.596 66.0074 -23.6951 66.3776 -24.2498C66.7477 -24.7847 66.6308 -25.4385 66.1048 -25.7951C65.5788 -26.1716 64.9358 -26.0527 64.5657 -25.5178C64.1955 -24.9828 64.3319 -24.3489 64.8384 -23.9724M57.961 -14.8589C57.6493 -15.1363 57.2597 -15.1363 57.0064 -14.7995C56.7531 -14.4627 56.831 -14.0665 57.1233 -13.7891C57.435 -13.5315 57.8247 -13.5117 58.0779 -13.8485C58.3312 -14.1853 58.2533 -14.5816 57.961 -14.8589ZM60.5327 -22.2884C60.3769 -22.3875 60.1821 -22.3875 60.0652 -22.229C59.9483 -22.0705 60.0457 -21.8922 60.2015 -21.8129C60.3574 -21.7139 60.5522 -21.7139 60.6691 -21.8724C60.786 -22.0309 60.6886 -22.2092 60.5327 -22.2884ZM63.6889 -20.545C64.0396 -21.0205 63.9227 -21.595 63.4357 -21.9516C62.9486 -22.2884 62.3641 -22.229 61.994 -21.7535C61.6433 -21.278 61.7602 -20.6837 62.2472 -20.3469C62.7343 -20.01 63.3188 -20.0695 63.6889 -20.545ZM60.9224 -17.0184C61.2341 -17.4345 61.1367 -17.91 60.7081 -18.2072C60.2795 -18.5043 59.7729 -18.3657 59.4807 -17.9694C59.1884 -17.5534 59.2664 -17.0779 59.695 -16.8005C60.1236 -16.5231 60.6302 -16.6222 60.9419 -17.0184M82.0417 -45.3892C82.2755 -45.191 82.5872 -45.1712 82.782 -45.3892C82.9768 -45.6269 82.9184 -45.9241 82.6846 -46.1222C82.4508 -46.3203 82.1391 -46.3401 81.9442 -46.1024C81.7494 -45.8646 81.8274 -45.5675 82.0417 -45.3693M72.3588 -39.2871C72.5536 -39.5644 72.4367 -39.8418 72.1639 -40.0003C71.8912 -40.1588 71.56 -40.139 71.3846 -39.8814C71.1898 -39.6239 71.3067 -39.3267 71.5794 -39.1682C71.8522 -39.0097 72.1834 -39.0295 72.3588 -39.2871ZM52.6423 3.46712C52.0967 2.91238 51.298 2.97182 50.7135 3.4473C50.1485 3.92279 50.0705 4.63602 50.5966 5.19076C51.1031 5.72568 51.8824 5.7653 52.4864 5.28981C53.0709 4.81433 53.2073 4.02185 52.6423 3.46712ZM68.3258 -20.961C69.0662 -20.4459 69.9429 -20.6638 70.43 -21.3969C70.9365 -22.1497 70.8001 -23.0611 70.0598 -23.5762C69.3195 -24.0913 68.4427 -23.8734 67.9362 -23.1205C67.4296 -22.3677 67.566 -21.4563 68.3064 -20.9412M65.0527 -29.3217C64.78 -29.4802 64.4488 -29.4604 64.2734 -29.183C64.0981 -28.9056 64.2345 -28.6084 64.5072 -28.4499C64.78 -28.2914 65.1112 -28.3113 65.2865 -28.5886C65.4619 -28.866 65.3255 -29.1632 65.0527 -29.3217ZM62.8317 -25.7951C62.5979 -25.9338 62.3057 -25.9338 62.1498 -25.6763C61.994 -25.4385 62.1108 -25.181 62.3446 -25.0423C62.5784 -24.9036 62.8707 -24.9036 63.0265 -25.1612C63.1824 -25.3989 63.0655 -25.6565 62.8317 -25.7951ZM67.566 -32.0953C67.7608 -32.3925 67.6245 -32.7095 67.3322 -32.8878C67.04 -33.0661 66.6698 -33.0265 66.475 -32.7293C66.2801 -32.4321 66.4165 -32.0953 66.7088 -31.9368C67.001 -31.7783 67.3712 -31.7982 67.566 -32.0953ZM69.9234 -35.6813C70.1182 -35.9785 70.0014 -36.3153 69.7091 -36.4936C69.4169 -36.6719 69.0467 -36.6323 68.8324 -36.3351C68.6376 -36.0379 68.7544 -35.7209 69.0467 -35.5426C69.3389 -35.3643 69.7091 -35.4039 69.9234 -35.7011M74.7162 -42.8532C74.872 -43.0712 74.7551 -43.3089 74.5408 -43.4476C74.3265 -43.5863 74.0538 -43.5665 73.8979 -43.3485C73.7615 -43.1306 73.8589 -42.8929 74.0732 -42.7542C74.2875 -42.6155 74.5603 -42.6353 74.6967 -42.8532M63.3577 -7.1719C64.1565 -6.47848 65.2281 -6.69641 65.8905 -7.48889C66.5724 -8.28137 66.6308 -9.39084 65.7541 -10.0644C64.8969 -10.7381 63.8643 -10.5003 63.2019 -9.68802C62.52 -8.89554 62.559 -7.86532 63.3577 -7.1719ZM66.2607 -10.6984C67.1179 -10.005 68.17 -10.322 68.8129 -11.1739C69.4558 -12.0258 69.4558 -13.0957 68.5791 -13.7891C67.7024 -14.4825 66.6114 -14.2448 66.0074 -13.3532C65.4034 -12.4617 65.384 -11.3918 66.2412 -10.6984M40.4851 11.4513C40.3876 11.3325 40.2318 11.2928 40.1149 11.4117C39.998 11.5306 40.0175 11.6891 40.1149 11.8079C40.2123 11.9268 40.3682 11.9664 40.5045 11.8476C40.6214 11.7287 40.6019 11.5702 40.5045 11.4513M57.0843 -0.594334C57.8247 0.0792732 58.7988 -0.0197868 59.4807 -0.733017C60.1626 -1.42643 60.2795 -2.41703 59.5391 -3.11045C58.7988 -3.80387 57.7857 -3.66519 57.1038 -2.97177C56.4024 -2.27835 56.3635 -1.28775 57.1038 -0.614147M55.8764 -5.54732C55.4088 -5.94356 54.7659 -5.94356 54.3178 -5.5077C53.8697 -5.07183 53.9281 -4.37842 54.3957 -3.98218C54.8633 -3.56613 55.5062 -3.62556 55.9348 -4.06142C56.3635 -4.49729 56.344 -5.15108 55.8764 -5.54732ZM48.9405 6.4191C48.5119 5.98323 47.908 5.94361 47.4599 6.32004C47.0118 6.71628 46.9143 7.2512 47.3235 7.70687C47.7326 8.14274 48.3561 8.16255 48.8236 7.80593C49.2912 7.44932 49.3497 6.87477 48.9405 6.43891M45.2194 9.37108C44.9466 9.0739 44.5375 9.05409 44.2257 9.29183C43.914 9.52958 43.875 9.92581 44.1283 10.223C44.4011 10.5202 44.8102 10.54 45.1025 10.3022C45.4142 10.0645 45.4726 9.66825 45.1999 9.37108M45.1219 4.23978C45.1219 4.23978 45.005 4.18035 44.9661 4.23978C44.9076 4.27941 44.9271 4.35866 44.9661 4.39828C45.005 4.4379 45.083 4.45771 45.1414 4.39828C45.1804 4.35866 45.1804 4.27941 45.1414 4.23978M54.5516 -8.45968C54.3567 -8.61818 54.1035 -8.6578 53.9281 -8.45968C53.7528 -8.26156 53.8307 -8.04363 54.006 -7.90495C54.1814 -7.76626 54.4541 -7.72664 54.6295 -7.90495C54.8048 -8.08325 54.7269 -8.321 54.5321 -8.45968M52.5643 -2.1991C52.2136 -2.5359 51.746 -2.49628 51.4148 -2.15948C51.0836 -1.82268 51.0642 -1.367 51.4148 -1.05001C51.746 -0.713203 52.2136 -0.752827 52.5643 -1.06982C52.915 -1.38681 52.9345 -1.8623 52.5643 -2.1991ZM51.5512 -5.52751C51.5512 -5.52751 51.4343 -5.56713 51.3759 -5.52751C51.3369 -5.48788 51.3369 -5.40864 51.3759 -5.36901C51.4343 -5.32939 51.4928 -5.32939 51.5512 -5.36901C51.5902 -5.40864 51.5902 -5.48788 51.5512 -5.52751ZM62.2667 -10.4805C62.8317 -11.1343 62.6953 -11.9862 62.0329 -12.5211C61.3705 -13.0561 60.5133 -12.9966 59.9872 -12.323C59.4612 -11.6494 59.5586 -10.8965 60.2015 -10.3616C60.8445 -9.8267 61.7017 -9.8267 62.2667 -10.4805ZM59.1884 -7.29078C59.6755 -7.86532 59.6171 -8.57855 59.0521 -9.07385C58.4871 -9.56915 57.7078 -9.56915 57.2012 -8.9946C56.6947 -8.43987 56.7726 -7.64739 57.3571 -7.15209C57.9416 -6.65679 58.7014 -6.71623 59.2079 -7.29078M49.038 1.01043C48.8236 0.812313 48.5314 0.812313 48.3366 1.01043C48.1418 1.20855 48.1223 1.4463 48.3366 1.64442C48.5314 1.84254 48.8236 1.80291 49.038 1.64442C49.2328 1.46611 49.2717 1.22837 49.0574 1.03025M65.7151 -17.2562C66.436 -16.7609 67.3127 -16.8798 67.8582 -17.593C68.4038 -18.2864 68.2284 -19.1978 67.5076 -19.6931C66.7867 -20.2082 65.8905 -20.0695 65.3645 -19.3563C64.8384 -18.643 65.0138 -17.7515 65.7151 -17.2562ZM44.3037 20.9611C43.875 20.446 43.2126 20.3271 42.6866 20.7629C42.1606 21.1988 42.18 21.8724 42.6087 22.3875C43.0373 22.9026 43.6997 23.0413 44.2063 22.5857C44.7323 22.1498 44.7128 21.4762 44.3037 20.9611ZM134.879 11.5306C134.548 10.5994 133.729 9.98525 132.775 10.3617C131.82 10.7381 131.606 11.7683 131.937 12.6995C132.268 13.6306 133.086 14.2448 134.041 13.8882C134.996 13.5118 135.21 12.4816 134.879 11.5504M131.606 17.9893C131.528 17.7912 131.352 17.6525 131.158 17.7317C130.943 17.811 130.904 18.0487 130.963 18.2468C131.041 18.445 131.216 18.5836 131.43 18.5044C131.645 18.4251 131.684 18.2072 131.606 17.9893ZM135.678 16.4043C135.522 16.0081 135.171 15.7307 134.762 15.8892C134.333 16.0477 134.255 16.5034 134.392 16.8996C134.528 17.2959 134.879 17.5732 135.307 17.4147C135.736 17.2562 135.814 16.8006 135.678 16.4043ZM147.601 11.7485C147.328 10.9957 146.666 10.5004 145.886 10.7975C145.107 11.0947 144.932 11.9466 145.205 12.6995C145.477 13.4523 146.14 13.9476 146.919 13.6505C147.698 13.3533 147.874 12.5014 147.601 11.7485ZM143.685 13.2938C143.451 12.6202 142.847 12.1646 142.146 12.4419C141.444 12.7193 141.289 13.4722 141.522 14.1458C141.756 14.8194 142.36 15.275 143.061 14.9977C143.763 14.7203 143.919 13.9675 143.685 13.2938ZM139.71 14.8392C139.516 14.2844 139.029 13.908 138.444 14.1458C137.86 14.3637 137.743 14.9977 137.938 15.5524C138.132 16.1071 138.619 16.4836 139.204 16.2458C139.788 16.0279 139.905 15.4137 139.71 14.8392ZM115.591 19.495C115.532 19.3365 115.377 19.1978 115.201 19.2969C115.026 19.3761 114.987 19.5742 115.065 19.7327C115.123 19.911 115.279 20.0101 115.454 19.9309C115.63 19.8516 115.669 19.6535 115.591 19.495ZM130.982 13.0561C130.67 12.224 129.93 11.6296 129.053 11.9664C128.177 12.3032 128.001 13.2542 128.313 14.1061C128.625 14.9382 129.346 15.5326 130.222 15.1958C131.099 14.859 131.274 13.908 130.982 13.0561ZM151.497 10.223C151.205 9.4107 150.484 8.87578 149.647 9.19277C148.809 9.52958 148.614 10.4211 148.906 11.2334C149.199 12.0457 149.919 12.5806 150.757 12.2636C151.595 11.9268 151.79 11.0353 151.497 10.223ZM118.63 12.9174C118.26 11.9664 117.403 11.3126 116.409 11.7287C115.416 12.1448 115.24 13.2344 115.61 14.1854C115.981 15.1364 116.838 15.7902 117.831 15.3741C118.825 14.9581 119 13.8684 118.63 12.9174ZM127.105 14.5816C126.852 13.8684 126.228 13.3533 125.488 13.6505C124.748 13.9476 124.611 14.7797 124.865 15.493C125.118 16.2062 125.741 16.7015 126.482 16.4241C127.222 16.127 127.358 15.3147 127.105 14.6014M123.267 16.1468C123.072 15.5722 122.585 15.176 121.981 15.4137C121.397 15.6515 121.28 16.3251 121.475 16.8798C121.669 17.4544 122.157 17.8506 122.761 17.6128C123.345 17.3751 123.462 16.7213 123.267 16.1468ZM119.39 17.7713C119.254 17.3751 118.922 17.0977 118.513 17.276C118.104 17.4544 118.026 17.8902 118.163 18.2865C118.299 18.6827 118.65 18.9403 119.039 18.7818C119.448 18.6233 119.526 18.1676 119.39 17.7912M122.39 11.3325C122.02 10.2824 121.066 9.5692 119.994 10.0249C118.903 10.4805 118.728 11.6693 119.117 12.6995C119.507 13.7297 120.403 14.4628 121.494 14.0269C122.585 13.5712 122.78 12.3825 122.41 11.3325M182.962 3.07088C182.787 2.59539 182.378 2.2784 181.871 2.47652C181.384 2.67464 181.267 3.18975 181.442 3.66524C181.618 4.14072 182.027 4.45771 182.533 4.25959C183.02 4.06147 183.137 3.54637 182.962 3.07088ZM186.274 2.6152C186.683 2.45671 186.781 2.02084 186.625 1.6246C186.488 1.22836 186.138 0.97081 185.729 1.1293C185.319 1.2878 185.242 1.72366 185.378 2.1199C185.514 2.51614 185.865 2.7737 186.274 2.6152ZM172.928 12.2042C172.831 11.9268 172.578 11.7287 172.286 11.8476C171.993 11.9664 171.915 12.2834 172.032 12.5608C172.13 12.8382 172.383 13.0363 172.675 12.9174C172.967 12.7985 173.045 12.4816 172.928 12.2042ZM180.624 9.17296C180.507 8.81635 180.176 8.5786 179.825 8.71728C179.455 8.85596 179.377 9.25221 179.494 9.60882C179.631 9.96544 179.942 10.2032 180.293 10.0645C180.663 9.92581 180.741 9.52958 180.624 9.17296ZM185.923 8.16255C185.787 7.80593 185.475 7.56819 185.105 7.70687C184.735 7.84556 184.638 8.2418 184.774 8.5786C184.91 8.93521 185.222 9.17296 185.592 9.03428C185.962 8.8956 186.06 8.49935 185.923 8.14274M179.299 4.49734C179.104 3.9426 178.598 3.56617 178.033 3.78411C177.448 4.00204 177.332 4.63602 177.526 5.19076C177.721 5.74549 178.208 6.12192 178.793 5.88418C179.377 5.66624 179.494 5.03226 179.299 4.47753M155.316 8.71728C155.024 7.88518 154.284 7.33045 153.426 7.66725C152.569 8.00406 152.374 8.9154 152.666 9.74751C152.959 10.5796 153.699 11.1343 154.556 10.7975C155.414 10.4607 155.608 9.52957 155.316 8.71728ZM49.8952 41.6249C49.8952 41.6249 49.8173 41.5853 49.7783 41.6249C49.7393 41.6646 49.7393 41.7042 49.7783 41.7438C49.8173 41.7834 49.8562 41.7834 49.8952 41.7438C49.9342 41.7042 49.9342 41.6646 49.8952 41.6249ZM156.368 13.492C156.193 13.0363 155.803 12.7193 155.316 12.9174C154.829 13.1155 154.732 13.6108 154.887 14.0863C155.043 14.542 155.472 14.859 155.94 14.6807C156.427 14.4826 156.524 13.9873 156.368 13.5118M160.304 11.9664C160.109 11.4315 159.622 11.0551 159.057 11.273C158.492 11.491 158.355 12.1051 158.55 12.6401C158.745 13.175 159.232 13.5514 159.797 13.3335C160.362 13.1155 160.499 12.5014 160.284 11.9664M152.394 15.0571C152.277 14.7203 151.965 14.4826 151.614 14.6212C151.264 14.7599 151.186 15.1364 151.303 15.4732C151.42 15.81 151.731 16.0477 152.082 15.909C152.433 15.7703 152.511 15.3939 152.394 15.0571ZM167.999 8.93521C167.785 8.32104 167.24 7.90499 166.597 8.16255C165.954 8.4201 165.817 9.09371 166.032 9.70788C166.246 10.3221 166.791 10.7381 167.434 10.4805C168.077 10.2428 168.214 9.54939 167.999 8.93521ZM171.798 7.44932C171.584 6.83515 171.039 6.4191 170.396 6.67665C169.753 6.93421 169.616 7.60781 169.831 8.22198C170.045 8.83615 170.591 9.25221 171.233 8.99465C171.876 8.7371 172.013 8.06349 171.798 7.44932ZM164.181 10.4409C163.966 9.84657 163.44 9.47014 162.836 9.68807C162.232 9.92582 162.077 10.5796 162.291 11.174C162.505 11.7683 163.031 12.1646 163.635 11.9268C164.239 11.6891 164.376 11.0353 164.181 10.4409ZM175.578 5.96342C175.364 5.36906 174.838 4.95301 174.214 5.21057C173.591 5.44831 173.454 6.12192 173.669 6.71628C173.883 7.31064 174.409 7.72669 175.033 7.46913C175.656 7.23139 175.792 6.55778 175.578 5.96342ZM176.806 10.6787C176.689 10.3419 176.377 10.1041 176.026 10.2428C175.676 10.3815 175.598 10.7579 175.714 11.0947C175.831 11.4315 176.143 11.6693 176.494 11.5306C176.844 11.3919 176.922 11.0155 176.806 10.6787ZM65.3255 34.0964C65.9295 33.4228 65.9684 32.452 65.3839 31.7586C64.7995 31.0652 63.9617 31.1048 63.3577 31.7586C62.7538 32.4322 62.7148 33.403 63.2993 34.0766C63.8838 34.7502 64.7215 34.7502 65.3255 34.0766M74.1707 28.0141C74.8331 28.9255 75.7877 28.8859 76.4891 28.0339C77.1905 27.182 77.3268 25.9141 76.6644 24.9829C76.002 24.0715 75.0279 24.1508 74.3265 24.9829C73.6056 25.8348 73.5082 27.1028 74.1707 27.9943M84.2822 22.0111C83.6977 21.1196 82.7625 21.0205 82.0417 21.8328C81.3208 22.6253 81.2818 23.8734 81.8858 24.765C82.4703 25.6565 83.3665 25.7358 84.0679 24.9235C84.7692 24.1112 84.8861 22.9225 84.3017 22.0111M62.2862 37.088C62.7733 36.5729 62.7538 35.8002 62.2862 35.2851C61.8381 34.77 61.1952 34.77 60.7276 35.2653C60.2405 35.7606 60.26 36.4936 60.7276 37.0286C61.1757 37.5437 61.8186 37.6229 62.3057 37.1078M73.6836 31.0652C74.307 30.3123 74.3655 29.2821 73.781 28.4896C73.1965 27.6971 72.3198 27.7169 71.6769 28.45C71.0339 29.1632 71.0145 30.2331 71.5989 31.0057C72.1834 31.7586 73.0601 31.818 73.6836 31.085M56.1881 42.3778C56.1881 42.3778 56.0322 42.2787 55.9543 42.3382C55.8764 42.3976 55.8959 42.4967 55.9543 42.5759C56.0128 42.6552 56.1102 42.675 56.1881 42.6155C56.266 42.5561 56.2466 42.457 56.1881 42.3778ZM70.6832 33.9577C71.1898 33.3832 71.2482 32.5511 70.7612 31.9369C70.2741 31.3227 69.5338 31.3623 69.0272 31.9369C68.5207 32.5114 68.4817 33.3435 68.9882 33.9379C69.4948 34.5323 70.1767 34.5323 70.6832 33.9379M59.0131 38.6928C58.7403 38.3758 58.3507 38.3163 58.039 38.6135C57.7272 38.9107 57.7662 39.3466 58.039 39.6636C58.3117 39.9805 58.7209 40.04 59.0131 39.7428C59.3248 39.4456 59.2859 39.0098 59.0131 38.6928ZM56.3829 34.8889C55.9348 34.3738 55.2529 34.2747 54.7464 34.77C54.2398 35.2653 54.2788 35.9983 54.7464 36.5135C55.1945 37.0286 55.8569 37.1276 56.3635 36.6323C56.87 36.137 56.831 35.404 56.3635 34.8889M53.0319 38.1579C52.7592 37.8409 52.3305 37.7418 51.9993 38.039C51.6681 38.3362 51.7071 38.772 51.9798 39.1088C52.2526 39.4456 52.7007 39.5447 53.0319 39.2475C53.3631 38.9503 53.3436 38.4947 53.0514 38.1579M59.695 31.7388C59.091 31.0652 58.2143 30.9067 57.5129 31.5407C56.831 32.1746 56.8895 33.1256 57.474 33.819C58.0779 34.5124 58.9741 34.6313 59.6365 33.9775C60.299 33.3237 60.2795 32.4124 59.6755 31.719M62.8902 28.3707C62.1303 27.5584 61.0783 27.6575 60.3574 28.45C59.6171 29.2425 59.5976 30.3321 60.3184 31.1444C61.0588 31.9567 62.0914 31.9369 62.8317 31.1246C63.5526 30.3123 63.65 29.183 62.8902 28.3707ZM91.7246 19.8912C91.257 19.0789 90.4582 18.7619 89.7568 19.4554C89.0749 20.1488 89.0554 21.2979 89.523 22.1102C89.9711 22.9423 90.7699 23.1602 91.4713 22.4866C92.1727 21.8328 92.1921 20.6837 91.7246 19.8714M68.3453 31.1048C69.0467 30.3123 69.1441 29.1434 68.4427 28.3113C67.7414 27.4792 66.7672 27.5386 66.0658 28.3113C65.3645 29.1038 65.2865 30.2529 65.9684 31.085C66.6503 31.9171 67.6439 31.8973 68.3453 31.085M88.8606 22.8828C88.471 22.1894 87.828 22.0507 87.263 22.6451C86.7175 23.2394 86.6396 24.1706 87.0292 24.864C87.4189 25.5574 88.0813 25.6961 88.6268 25.1018C89.1723 24.5074 89.2308 23.5762 88.8606 22.8828ZM93.1663 24.3093C92.9909 23.9923 92.6792 23.8734 92.387 24.1508C92.1142 24.4083 92.0947 24.8442 92.2701 25.1612C92.4454 25.4782 92.7571 25.5971 93.0299 25.3197C93.3027 25.0621 93.3221 24.6263 93.1468 24.3093M103.102 16.1864C102.654 15.275 101.739 14.8788 100.881 15.4732C100.024 16.0675 99.8294 17.1176 100.297 18.0289C100.765 18.9403 101.661 19.2374 102.537 18.7025C103.414 18.1676 103.551 17.0977 103.102 16.1864ZM67.6439 35.4832C67.3127 35.087 66.8451 35.0672 66.4945 35.4634C66.1438 35.8399 66.1243 36.4144 66.4555 36.8106C66.7867 37.2069 67.2543 37.2069 67.605 36.8106C67.9557 36.4342 67.9557 35.8795 67.6439 35.4832ZM106.765 13.9674C106.317 12.9174 105.285 12.4419 104.291 13.0363C103.297 13.6306 103.141 14.859 103.609 15.8496C104.077 16.86 104.992 17.4147 106.005 16.8204C106.999 16.226 107.213 14.9977 106.765 13.9674ZM114.87 14.5618C114.558 13.7495 113.837 13.1155 113 13.5514C112.162 13.9873 112.065 15.0373 112.376 15.8496C112.688 16.6619 113.389 17.1572 114.227 16.7609C115.065 16.3647 115.182 15.3741 114.87 14.5618ZM115.318 6.61722C115.766 6.18135 115.942 5.56718 115.942 4.9332C116.351 5.40869 116.896 5.68606 117.5 5.68606C117.013 6.16154 116.838 6.83515 116.916 7.52857C116.526 6.99364 115.961 6.63703 115.338 6.63703M111.753 8.34086C112.181 7.84556 112.357 7.21158 112.337 6.53797C112.727 6.97383 113.233 7.23139 113.798 7.23139C113.331 7.72668 113.175 8.43992 113.292 9.17296C112.922 8.61823 112.376 8.26161 111.753 8.34086ZM108.304 10.54C108.811 10.0249 109.045 9.37108 109.006 8.65785C109.434 9.03428 109.941 9.19277 110.506 9.09371C109.921 9.82675 109.882 10.857 110.214 11.7683C109.863 10.8768 109.142 10.3419 108.304 10.54ZM113.74 1.98122C114.11 1.54536 114.247 0.990623 114.188 0.416077C114.617 0.832127 115.123 1.10949 115.688 1.1293C115.279 1.56517 115.104 2.13972 115.104 2.75389C114.734 2.31802 114.266 2.02084 113.721 1.98122M110.233 3.74448C110.525 3.30862 110.662 2.79351 110.642 2.23878C110.993 2.57558 111.422 2.79351 111.909 2.83313C111.597 3.24918 111.461 3.78411 111.48 4.33884C111.129 3.98223 110.701 3.76429 110.233 3.76429M106.726 5.9238C106.999 5.50775 107.135 5.03226 107.096 4.53696C107.486 4.75489 107.915 4.87377 108.363 4.85395C108.09 5.30963 107.954 5.84455 107.993 6.39928C107.622 6.1021 107.213 5.9238 106.746 5.9238M102.908 8.22198C103.141 7.80593 103.258 7.35026 103.2 6.89458C103.628 7.11251 104.116 7.21158 104.603 7.17195C104.349 7.60781 104.271 8.12292 104.33 8.63804C103.901 8.34086 103.395 8.18236 102.888 8.22198M99.2839 10.7975C99.5371 10.3617 99.6345 9.86638 99.5761 9.35127C100.005 9.54939 100.472 9.60883 100.94 9.52958C100.687 10.0249 100.628 10.5598 100.726 11.1145C100.297 10.8174 99.7904 10.6985 99.2839 10.7777M95.8939 13.4127C96.1861 12.9174 96.264 12.3627 96.1666 11.8079C96.5952 12.0457 97.0433 12.1448 97.5304 12.0655C97.2382 12.64 97.1992 13.2938 97.4135 13.9278C96.9849 13.492 96.4394 13.274 95.8744 13.4127M107.837 -0.237717C108.051 -0.633957 108.071 -1.05001 107.895 -1.48587C108.46 -1.26794 109.064 -1.16888 109.649 -1.22831C109.395 -0.851887 109.395 -0.416027 109.493 0.0594597C109.006 -0.217907 108.421 -0.297153 107.837 -0.237717ZM103.882 2.10009C104.057 1.72367 104.096 1.32743 103.979 0.931187C104.525 1.1095 105.09 1.14912 105.655 1.06987C105.44 1.46611 105.362 1.90197 105.421 2.33783C104.934 2.1199 104.408 2.04066 103.882 2.10009ZM85.2758 18.1874C85.5291 17.6327 85.6265 17.0185 85.5485 16.4043C85.9187 16.5826 86.3278 16.6223 86.7175 16.4638C86.5227 17.1176 86.5616 17.8308 86.8149 18.4648C86.3473 18.0487 85.8018 17.9497 85.2758 18.1874ZM89.2892 13.5514C89.1334 14.0467 89.1139 14.5816 89.2308 15.1165C88.8801 14.8788 88.471 14.7996 88.0813 14.9184C88.2372 14.4429 88.2956 13.9476 88.2372 13.4523C88.5684 13.6108 88.919 13.6306 89.2892 13.5712M92.0363 10.8966C91.8999 11.3126 91.8999 11.7683 91.9778 12.224C91.6661 12.0259 91.3154 11.9664 90.9647 12.0061C91.1011 11.6098 91.1401 11.174 91.0816 10.7579C91.3739 10.8966 91.7051 10.9362 92.0168 10.8966M94.8028 8.45973C94.6664 8.81635 94.6275 9.19277 94.6859 9.58901C94.3742 9.4107 94.0235 9.35126 93.6728 9.37108C93.7897 8.99465 93.8092 8.59842 93.7508 8.20218C94.082 8.38048 94.4327 8.45973 94.7833 8.45973M104.155 -3.32838C104.544 -3.88312 104.583 -4.53691 104.213 -5.21052C104.914 -4.65578 105.811 -4.57654 106.668 -4.81428C106.161 -4.33879 105.986 -3.72462 106.181 -3.11045C105.538 -3.36801 104.817 -3.44726 104.135 -3.32838M77.5411 21.0205C77.7944 20.4658 77.8724 19.8318 77.7944 19.2374C78.1646 19.3761 78.5737 19.3563 78.9439 19.1978C78.7686 19.812 78.788 20.4658 79.0218 21.0601C78.5543 20.7431 78.0087 20.7431 77.5411 21.0205ZM69.2415 24.6065C69.6507 23.9725 69.8065 23.2394 69.6312 22.5262C70.1182 22.764 70.6638 22.764 71.1508 22.5262C70.8975 23.1998 70.8781 23.9527 71.2093 24.6065C70.6053 24.1112 69.8845 24.1706 69.2415 24.6065ZM73.781 19.3959C73.6251 19.911 73.6056 20.4658 73.742 20.9809C73.3134 20.7828 72.8653 20.8224 72.4562 21.0205C72.651 20.5054 72.7094 19.9705 72.6315 19.4356C73.0017 19.5742 73.4108 19.5544 73.781 19.3959ZM75.6124 15.9685C75.9241 16.0675 76.2358 16.0675 76.5475 15.9685C76.4112 16.4241 76.3917 16.8996 76.4696 17.3553C76.1384 17.2364 75.7877 17.2562 75.4565 17.3751C75.6124 16.9194 75.6708 16.4241 75.6124 15.9486M78.4374 12.6401C78.7296 12.7589 79.0413 12.7589 79.353 12.6797C79.2556 13.0759 79.2361 13.492 79.2946 13.908C78.9829 13.7891 78.6712 13.7891 78.3399 13.8882C78.4568 13.492 78.4958 13.0759 78.4568 12.6599M81.2039 9.39089C81.4767 9.48995 81.7689 9.48995 82.0611 9.4107C81.9832 9.80694 81.9637 10.2032 82.0222 10.5994C81.7299 10.5004 81.4182 10.4805 81.126 10.5598C81.2234 10.1834 81.2429 9.78713 81.2039 9.39089ZM67.04 21.1394C67.3127 20.6045 67.3907 20.0299 67.2543 19.4752C67.7024 19.6535 68.17 19.6337 68.6181 19.4554C68.4232 19.9903 68.3648 20.5648 68.5012 21.0998C68.0336 20.8818 67.527 20.9214 67.04 21.1394ZM70.4105 16.1666C70.7612 16.2854 71.1119 16.2854 71.4626 16.1666C71.3067 16.6421 71.2677 17.1374 71.3262 17.6128C70.956 17.494 70.5663 17.5138 70.1962 17.6723C70.391 17.1968 70.4689 16.6817 70.391 16.1666M73.4108 12.6797C73.7031 12.7787 74.0148 12.7787 74.3265 12.6599C74.2096 13.0957 74.1706 13.5316 74.2096 13.9674C73.8979 13.8684 73.5667 13.8684 73.255 13.9873C73.3913 13.5514 73.4498 13.1155 73.4108 12.6797ZM76.2553 9.21258C76.5281 9.31164 76.8203 9.33146 77.1125 9.2522C76.9956 9.64845 76.9567 10.0645 76.9956 10.4805C76.7034 10.3617 76.3917 10.3617 76.0994 10.4805C76.2163 10.0843 76.2748 9.64845 76.2553 9.2324M60.6691 21.6347C61.1952 20.9413 61.4095 20.0893 61.0588 19.3365C61.6627 19.7327 62.3446 19.7327 62.9876 19.4554C62.6564 20.0893 62.5979 20.7828 62.8902 21.4366C62.1888 21.0205 61.3315 21.1196 60.6691 21.6347ZM69.2026 12.858C69.0467 13.3335 68.9882 13.8288 69.0662 14.3241C68.6765 14.1854 68.2479 14.225 67.8388 14.4033C68.0336 13.908 68.1115 13.3929 68.0336 12.8976C68.4232 13.0363 68.8324 13.0165 69.222 12.8778M71.1703 9.4107C71.521 9.52958 71.8912 9.50976 72.2419 9.39089C72.1055 9.82675 72.047 10.2824 72.1055 10.7183C71.7743 10.6192 71.4236 10.6192 71.0729 10.7381C71.2093 10.3022 71.2482 9.84657 71.1898 9.39089M74.2291 5.84455C74.5408 5.94361 74.8525 5.94361 75.1643 5.84455C75.0084 6.28041 74.95 6.73609 74.9694 7.19176C74.6772 7.0927 74.3655 7.0927 74.0537 7.19176C74.1901 6.7559 74.2486 6.30023 74.2096 5.86436M77.171 2.29821C77.4827 2.41708 77.7944 2.41708 78.1061 2.29821C77.9503 2.75389 77.8918 3.20956 77.9308 3.68505C77.6386 3.56618 77.3268 3.56618 77.0151 3.68505C77.1515 3.22937 77.21 2.7737 77.171 2.29821ZM61.7796 14.958C62.1303 14.3439 62.2472 13.6306 62.0329 12.9769C62.559 13.274 63.1434 13.2542 63.7084 12.9769C63.4357 13.5514 63.3188 14.1854 63.4552 14.7797C62.9291 14.5816 62.3446 14.6609 61.7991 14.958M66.8646 9.54939C66.6503 10.0645 66.5724 10.6192 66.6698 11.1542C66.2217 11.0155 65.7346 11.0749 65.2865 11.2928C65.5203 10.7579 65.6177 10.1636 65.4814 9.60882C65.9295 9.80694 66.436 9.74751 66.8841 9.52958M68.696 6.14173C69.1051 6.30022 69.5532 6.2606 69.9819 6.06248C69.787 6.53797 69.7091 7.03327 69.7676 7.52857C69.3584 7.4097 68.9298 7.46913 68.5207 7.66725C68.7155 7.17195 68.8129 6.63703 68.7155 6.12192M71.9301 2.53596C72.3198 2.69445 72.7289 2.65483 73.1186 2.47652C72.9432 2.952 72.8458 3.46712 72.9043 3.96241C72.5341 3.84354 72.125 3.90298 71.7548 4.08129C71.9496 3.58599 72.0276 3.05107 71.9496 2.53596M74.9694 -1.2085C75.3786 -1.03019 75.8267 -1.06982 76.2358 -1.28775C76.0215 -0.752831 75.9436 -0.178284 75.9825 0.376453C75.6124 0.23777 75.2032 0.27739 74.7941 0.4557C74.9889 -0.0792236 75.0668 -0.65377 74.9499 -1.18869M62.52 8.47954C62.9486 7.76631 63.046 6.93421 62.6759 6.20117C63.2798 6.63703 64.0007 6.61722 64.6631 6.28041C64.3319 6.89458 64.176 7.62763 64.3709 8.30124C63.7864 8.04368 63.124 8.14274 62.5395 8.49936M67.8777 2.83313C67.5855 3.42749 67.4296 4.08129 67.5465 4.69546C67.04 4.49734 66.475 4.61621 65.9489 4.91339C66.2802 4.25959 66.3776 3.50674 66.0658 2.85295C66.6308 3.20956 67.2932 3.16994 67.8777 2.85295M69.2805 -0.693394C69.8455 -0.35659 70.4689 -0.435837 71.0339 -0.792454C70.7807 -0.217907 70.6638 0.416077 70.7806 1.01043C70.2741 0.85194 69.7481 1.01043 69.2415 1.30761C69.5338 0.65382 69.5727 -0.0594139 69.2805 -0.693394ZM72.3393 -4.5171C72.9432 -4.14067 73.6057 -4.29917 74.1707 -4.71522C73.8589 -4.06142 73.7225 -3.30857 73.8784 -2.61515C73.3524 -2.83308 72.7874 -2.71421 72.3003 -2.3576C72.612 -3.05101 72.6705 -3.82368 72.3393 -4.49729M75.1253 -8.57855C75.8462 -7.88513 76.7034 -8.00401 77.4048 -8.57855C76.9762 -7.88513 76.7813 -7.0134 76.9956 -6.24074C76.4501 -6.55773 75.8072 -6.45867 75.2617 -6.06243C75.6708 -6.89454 75.7487 -7.84551 75.1253 -8.59837M78.9439 -3.13026C78.5543 -3.34819 78.1062 -3.30857 77.697 -3.11045C77.9308 -3.72462 78.0087 -4.37842 77.8529 -4.99259C78.301 -4.69541 78.8075 -4.69541 79.2946 -4.93315C79.0413 -4.37842 78.9049 -3.74443 78.9634 -3.13026M82.5092 -8.61818C82.1001 -7.94457 81.9248 -7.13228 82.0027 -6.35961C81.5936 -6.6766 81.1065 -6.69641 80.6194 -6.45867C80.9506 -7.1719 81.048 -8.00401 80.7753 -8.73705C81.2818 -8.24175 81.9053 -8.22194 82.5092 -8.61818ZM87.0487 -7.58796C86.6396 -6.97378 86.4642 -6.1813 86.5032 -5.42845C86.172 -5.78506 85.7629 -5.96337 85.3148 -5.8445C85.646 -6.53792 85.7434 -7.3304 85.5875 -8.10307C85.9577 -7.54833 86.4837 -7.31059 87.0682 -7.56814M82.5872 -2.93214C82.8015 -3.48688 82.8794 -4.08124 82.821 -4.65578C83.1522 -4.37842 83.5418 -4.31898 83.951 -4.45766C83.7172 -3.92274 83.6198 -3.32838 83.6587 -2.75384C83.347 -2.97177 82.9768 -3.0312 82.6066 -2.91233M80.7753 0.336826C80.4636 0.178333 80.1324 0.158524 79.7817 0.277393C79.9375 -0.217903 80.0155 -0.733017 79.957 -1.22831C80.2687 -1.05001 80.6194 -1.01038 80.9701 -1.10944C80.8142 -0.633957 80.7363 -0.13866 80.7558 0.35664M91.1011 -5.44826C90.7115 -4.93315 90.5751 -4.25954 90.5946 -3.58594C90.3218 -3.92274 89.9711 -4.14067 89.5815 -4.10105C89.8542 -4.71522 89.9322 -5.42845 89.8737 -6.10206C90.1465 -5.58695 90.5556 -5.30958 91.1011 -5.42845M87.263 -3.32838C87.5358 -3.05102 87.8475 -2.89252 88.2177 -2.93214C88.0229 -2.49628 87.9644 -2.00098 87.9839 -1.50568C87.7111 -1.72362 87.3799 -1.82267 87.0487 -1.80286C87.2241 -2.27835 87.302 -2.81327 87.263 -3.34819M85.4706 -0.297153C85.3147 0.118896 85.2563 0.55476 85.2758 0.990623C85.0225 0.851936 84.7303 0.812317 84.4575 0.87175C84.5939 0.435886 84.6523 -0.0396004 84.6329 -0.515087C84.8861 -0.336781 85.1784 -0.25753 85.4901 -0.316967M82.6261 3.96241C82.3534 3.82373 82.0806 3.78411 81.7884 3.84354C81.9248 3.4473 81.9832 3.03125 81.9637 2.59539C82.217 2.73408 82.5092 2.7737 82.782 2.71426C82.6651 3.1105 82.6067 3.52655 82.6261 3.9426M65.9684 17.9695C65.4619 17.7713 64.9164 17.8308 64.4098 18.0685C64.7021 17.5336 64.7995 16.9194 64.6826 16.3251C65.1502 16.5232 65.6372 16.4836 66.1048 16.2855C65.8905 16.8402 65.8321 17.4147 65.9684 17.9695ZM79.8401 7.13233C79.5674 7.03327 79.2946 7.01345 79.0218 7.07289C79.1582 6.67665 79.2167 6.24079 79.1972 5.80493C79.4505 5.90399 79.7232 5.9238 79.996 5.84455C79.8791 6.2606 79.8206 6.67665 79.8401 7.11251M92.4065 -0.911324C92.2506 -0.57452 92.2311 -0.178284 92.309 0.198143C92.0168 0.0198364 91.7051 -0.118847 91.3934 -0.118847C91.5103 -0.495274 91.5297 -0.931137 91.4713 -1.34719C91.744 -1.08963 92.0558 -0.950947 92.4065 -0.931137M84.7692 6.37947C84.6718 6.73609 84.6329 7.13233 84.6718 7.50875C84.3991 7.38988 84.1263 7.35026 83.8341 7.38988C83.9315 7.03327 83.9704 6.65684 83.9315 6.28041C84.2042 6.39928 84.477 6.43891 84.7692 6.37947ZM89.0944 0.931187C89.3282 1.1095 89.6009 1.18874 89.8932 1.18874C89.7763 1.54536 89.7373 1.92178 89.7958 2.31802C89.5425 2.15953 89.2697 2.08028 88.997 2.10009C89.1139 1.72367 89.1334 1.34724 89.1139 0.950996M87.3409 3.58599C87.2435 3.9426 87.2046 4.33884 87.2435 4.73508C86.9903 4.5964 86.7175 4.55678 86.4642 4.57659C86.5616 4.20016 86.6006 3.80392 86.5616 3.40768C86.8149 3.54637 87.0682 3.6058 87.3604 3.58599M95.0756 -2.81327C94.8028 -2.41703 94.7444 -1.98117 94.8808 -1.54531C94.5301 -1.76324 94.1599 -1.90192 93.7897 -1.88211C93.9456 -2.33778 93.9261 -2.85289 93.8287 -3.368C94.1404 -2.95195 94.569 -2.71421 95.0756 -2.81327ZM92.2116 4.85395C92.1142 5.19076 92.0947 5.52756 92.1727 5.88418C91.8804 5.74549 91.5882 5.68606 91.2765 5.70587C91.3739 5.34925 91.3739 4.99264 91.3154 4.61621C91.6077 4.7747 91.8999 4.83414 92.2116 4.85395ZM95.0366 2.75389C94.9197 3.07088 94.9197 3.38787 94.9782 3.72467C94.647 3.58599 94.3352 3.50674 93.9846 3.52655C94.0625 3.18975 94.0625 2.85295 93.9846 2.49633C94.3158 2.67464 94.6664 2.75389 95.0171 2.75389M98.1539 0.495323C98.0175 0.832127 97.998 1.18874 98.1149 1.54536C97.6863 1.40667 97.2576 1.38686 96.829 1.4463C96.907 1.06987 96.829 0.693443 96.6732 0.317017C97.1407 0.495323 97.6473 0.55476 98.1344 0.47551M100.161 -0.931137C100.355 -1.34719 100.375 -1.80286 100.2 -2.25854C100.842 -2.04061 101.544 -2.0208 102.206 -2.17929C101.914 -1.76324 101.836 -1.30756 101.972 -0.832077C101.388 -1.01039 100.745 -1.05001 100.161 -0.931137ZM81.7299 16.0477C81.5936 16.5232 81.5741 17.0383 81.652 17.5336C81.3013 17.3355 80.9311 17.3157 80.5415 17.4147C80.7168 16.9591 80.7753 16.4836 80.7363 16.0081C81.0675 16.127 81.3987 16.127 81.7299 16.0279M84.3017 12.9372C84.2042 13.3731 84.1848 13.809 84.2432 14.2448C83.951 14.1061 83.6392 14.0863 83.347 14.1656C83.4639 13.7495 83.5223 13.3137 83.4639 12.8778C83.7366 12.9967 84.0094 13.0165 84.3017 12.957M88.6658 7.13233C88.9385 7.27101 89.2503 7.33045 89.562 7.31063C89.4646 7.66725 89.4451 8.04368 89.5035 8.40029C89.2113 8.26161 88.8996 8.20217 88.5878 8.24179C88.6853 7.88518 88.7242 7.50875 88.6658 7.13233ZM86.8344 10.0051C86.737 10.3815 86.698 10.7777 86.7565 11.1542C86.4837 11.0353 86.1915 10.9957 85.9187 11.0551C86.0161 10.6787 86.0551 10.2824 86.0356 9.88619C86.2889 10.0051 86.5811 10.0447 86.8539 10.0051M98.0759 6.06248C97.9201 6.4191 97.8811 6.81534 97.9395 7.19176C97.5694 7.03327 97.1797 6.97383 96.7901 6.99364C96.9264 6.63703 96.9459 6.24079 96.868 5.86436C97.2576 6.02286 97.6668 6.08229 98.0759 6.04267M101.602 3.56618C101.446 3.92279 101.407 4.31903 101.485 4.71527C101.057 4.55677 100.609 4.51715 100.161 4.57659C100.297 4.20016 100.297 3.80392 100.18 3.42749C100.628 3.58599 101.115 3.62561 101.602 3.58599M113.623 -3.11045C113.175 -2.67459 113.039 -2.10004 113.156 -1.50568C112.668 -1.92174 112.084 -2.13967 111.461 -2.11985C111.792 -2.55572 111.831 -3.07083 111.616 -3.60575C112.22 -3.20951 112.922 -3.01139 113.623 -3.11045ZM119.371 -0.416023C118.903 0.0198364 118.728 0.65382 118.786 1.30761C118.377 0.832127 117.831 0.515137 117.208 0.515137C117.637 0.0594597 117.773 -0.534901 117.676 -1.16888C118.124 -0.673584 118.728 -0.3764 119.371 -0.396214M123.326 -2.11985C122.585 -1.68399 122.351 -0.950951 122.449 -0.13866C122.001 -0.693394 121.358 -1.01038 120.656 -0.97076C121.182 -1.48587 121.28 -2.23873 121.085 -3.01139C121.631 -2.29816 122.429 -1.88211 123.326 -2.10004M121.143 4.1011C120.656 4.57658 120.462 5.25019 120.52 5.96342C120.111 5.40869 119.526 5.07189 118.864 5.07189C119.351 4.61621 119.546 3.96241 119.507 3.28881C119.916 3.80392 120.481 4.12091 121.124 4.1011M124.904 2.49633C124.319 2.97182 124.105 3.70486 124.183 4.47753C123.754 3.90298 123.17 3.52655 122.488 3.54636C122.994 3.07088 123.209 2.35765 123.15 1.64442C123.579 2.21896 124.202 2.55577 124.904 2.49633ZM129.112 0.812313C128.177 1.24818 127.845 2.17934 127.982 3.13031C127.534 2.41708 126.832 1.9416 126.014 2.02084C126.677 1.50573 126.91 0.67363 126.754 -0.178284C127.261 0.634007 128.118 1.10949 129.092 0.812313M113.818 10.54C114.363 11.3919 115.26 11.8674 116.292 11.4315C117.266 11.0155 117.617 10.1041 117.539 9.15315C118.104 9.906 118.981 10.3221 119.955 9.906C120.929 9.50976 121.28 8.59841 121.202 7.64744C121.767 8.4003 122.624 8.77672 123.598 8.38048C124.592 7.96443 124.923 7.05308 124.826 6.08229C125.371 6.83515 126.228 7.23139 127.203 6.85496C128.255 6.43891 128.625 5.4285 128.469 4.37847C129.014 5.23038 129.911 5.70587 130.943 5.30963C132.151 4.83414 132.443 3.56618 132.073 2.39727C132.521 3.48693 133.534 4.21997 134.703 3.76429C135.911 3.28881 136.184 1.98122 135.755 0.812313C135.327 -0.35659 134.294 -1.14907 133.067 -0.673584C131.898 -0.217907 131.606 1.01043 131.956 2.13971C131.508 1.05006 130.534 0.336826 129.385 0.693443C130.515 0.15852 130.787 -1.10944 130.339 -2.25854C129.872 -3.44725 128.781 -4.23973 127.534 -3.74443C126.501 -3.32838 126.15 -2.3576 126.326 -1.34719C125.8 -2.15948 124.923 -2.61515 123.968 -2.37741C124.904 -2.95195 125.098 -4.08124 124.611 -5.11146C124.085 -6.26055 122.916 -6.95397 121.708 -6.47849C120.676 -6.06244 120.345 -5.11146 120.578 -4.14067C119.955 -5.0124 118.922 -5.5077 117.87 -5.05202C116.935 -4.63597 116.662 -3.82368 116.818 -2.97177C116.292 -3.50669 115.571 -3.76424 114.851 -3.685C115.532 -4.31898 115.552 -5.30958 114.928 -6.1813C114.169 -7.27096 112.746 -7.70683 111.519 -7.13228C110.545 -6.69642 110.175 -5.82469 110.486 -4.99259C109.746 -5.48789 108.791 -5.70582 107.915 -5.48789C108.597 -6.12187 108.733 -7.03322 108.09 -7.90495C107.311 -8.9946 105.888 -9.33141 104.72 -8.69742C103.687 -8.14269 103.102 -7.07284 103.57 -6.06243C102.674 -6.79548 101.407 -6.77567 100.355 -6.28036C101.291 -6.97379 101.739 -8.08325 101.252 -9.19272C100.726 -10.4012 99.654 -10.7381 98.563 -10.0644C97.472 -9.39084 96.7316 -8.10307 97.2187 -6.77567C97.6473 -5.60676 98.7189 -5.46807 99.693 -5.90394C98.9526 -5.3492 98.4656 -4.5171 98.6604 -3.72462C97.9785 -4.00199 97.1797 -4.04161 96.4783 -3.82368C97.1018 -4.65578 97.394 -5.82469 97.1213 -6.75585C96.7316 -8.00401 95.738 -8.47949 94.6275 -7.80588C93.7897 -7.29077 93.3221 -6.24074 93.3027 -5.25014C93.0299 -5.80488 92.6208 -6.24074 92.0558 -6.14168C92.6987 -6.93416 92.8156 -8.1625 92.6792 -9.11348C92.5234 -10.2626 91.7246 -11.0947 90.6335 -10.4211C89.7568 -9.88614 89.4256 -8.69742 89.4841 -7.6672C89.1529 -8.321 88.5878 -8.67761 87.9449 -8.42006C88.5684 -9.27197 88.7242 -10.4607 88.432 -11.4909C88.0813 -12.6994 87.0487 -13.2344 86.0551 -12.3626C85.2173 -11.6296 84.9641 -10.3418 85.1589 -9.27197C84.7108 -9.94558 84.0289 -10.0644 83.3665 -9.60877C83.912 -10.5399 84.0679 -11.7683 83.5223 -12.7589C82.8599 -13.9476 81.6325 -13.69 80.8532 -12.6994C80.1908 -11.8475 79.8791 -10.6192 80.2492 -9.62858C79.6258 -10.1833 78.827 -10.0248 78.1646 -9.4899C78.6906 -10.3814 78.788 -11.5107 78.0282 -12.3428C77.132 -13.3136 75.9825 -12.8579 75.2227 -11.9268C74.4824 -11.0352 74.1901 -9.70783 74.9889 -8.77667C74.0732 -9.66821 72.8653 -9.31159 72.086 -8.36062C71.3846 -7.50871 71.1119 -6.31999 71.6184 -5.3492C70.7417 -5.90393 69.7091 -5.46807 69.0272 -4.61616C68.3648 -3.78406 68.0336 -2.63497 68.4817 -1.66418C67.6245 -2.17929 66.6114 -1.82268 65.8905 -1.0302C65.1696 -0.217907 64.8579 0.911377 65.2865 1.88216C64.4293 1.34724 63.3967 1.66423 62.6369 2.43689C61.8576 3.22937 61.5069 4.39828 62.0134 5.36906C61.1757 4.75489 60.0846 4.99263 59.2859 5.74549C58.3702 6.61721 58.1169 8.00405 58.9741 9.05408C59.656 9.88619 60.6302 9.94563 61.4679 9.47014C61.0393 10.1437 60.864 10.9957 61.1172 11.7485C60.3574 11.2928 59.4417 11.4711 58.6819 12.0853C59.5002 11.2334 59.734 10.0447 58.9547 9.09371C58.1364 8.0833 56.87 8.26161 55.9543 9.09371C55.0386 9.906 54.7464 11.1343 55.5452 12.1448C56.3245 13.1155 57.474 13.0957 58.3897 12.3627C57.5909 13.1948 57.2791 14.4033 57.8441 15.4335C57.0648 14.6807 55.9348 14.6807 55.0581 15.3741C54.084 16.127 53.8502 17.3157 54.61 18.3063C55.3504 19.2969 56.6557 19.4157 57.6298 18.6827C58.526 18.0091 58.7793 16.9194 58.2533 15.9685C58.8962 16.6024 59.7145 16.6223 60.4548 16.2656C60.0847 16.9392 59.9678 17.7515 60.299 18.445C59.5002 17.91 58.4676 18.0883 57.6103 18.7619C56.5778 19.5544 56.4998 20.8224 57.3571 21.813C58.1559 22.7441 59.3053 22.8432 60.1431 22.13C59.4807 23.0413 59.4222 24.23 60.221 25.1018C61.0977 26.0726 62.3057 25.9141 63.1824 25.0027C63.9033 24.2697 64.137 23.2593 63.7474 22.3677C64.3708 22.7441 65.0722 22.7441 65.7151 22.4272C65.3255 23.2196 65.345 24.131 65.91 24.8838C65.1307 24.0517 64.0007 24.2102 63.2019 25.0423C62.3836 25.8942 62.3057 27.1622 63.1239 28.0339C63.9422 28.9255 65.0527 28.866 65.8321 27.9943C66.5724 27.1622 66.7477 25.9933 66.0853 25.082C66.8062 25.8744 67.7608 25.8744 68.5401 25.2999C68.0141 26.132 67.9946 27.2018 68.657 28.0141C69.4363 28.9651 70.5858 28.9255 71.3651 28.0141C72.047 27.2415 72.2224 26.1716 71.7743 25.2801C72.5536 25.9339 73.5667 25.7754 74.307 24.9235C74.9305 24.2102 75.1448 23.2593 74.911 22.3875C75.4175 22.6451 75.9825 22.5857 76.4696 22.2687C76.1384 23.1008 76.1968 24.0715 76.7618 24.8244C77.4827 25.815 78.5737 25.7358 79.3336 24.8046C79.9375 24.0517 80.1518 23.0017 79.8401 22.1102C80.5415 22.6451 81.3403 22.5064 82.0417 21.7337C82.6456 21.0601 82.8989 20.1488 82.743 19.2771C83.1911 19.5544 83.7172 19.5544 84.2042 19.2771C83.8535 20.0695 83.9315 21.0205 84.4185 21.7932C85.0615 22.7838 86.1135 22.863 86.9123 21.9913C87.5942 21.2583 87.7696 20.1884 87.3994 19.2771C88.0618 19.911 88.8996 19.9507 89.6204 19.178C90.2244 18.5242 90.3997 17.6128 90.2244 16.7609C90.7699 17.177 91.4323 17.2364 92.0558 16.8402C91.5103 17.593 91.5492 18.6431 92.0168 19.4752C92.5623 20.4262 93.478 20.7035 94.3352 19.9507C95.1925 19.1978 95.3289 17.91 94.7249 16.9591C94.2183 16.127 93.4196 15.8298 92.6597 16.2656C93.1273 15.6713 93.2832 14.9184 93.1663 14.1854C93.6144 14.4627 94.1015 14.542 94.608 14.3835C94.2183 15.1364 94.3352 16.0873 94.7833 16.86C95.3873 17.8704 96.4199 18.3063 97.394 17.5336C98.1928 16.8996 98.3292 15.8892 98.0175 14.9779C98.7189 15.7109 99.732 15.8496 100.667 15.176C101.485 14.6014 101.856 13.6901 101.719 12.7787C102.421 13.3533 103.356 13.492 104.252 12.957C105.09 12.4419 105.46 11.59 105.401 10.6787C105.927 11.1145 106.57 11.3126 107.252 11.0947C106.609 11.8079 106.531 12.8778 106.902 13.7693C107.35 14.859 108.304 15.493 109.376 14.859C110.428 14.225 110.603 12.9174 110.214 11.8278C110.642 12.957 111.616 13.5514 112.727 12.9372C113.643 12.4419 113.935 11.4513 113.779 10.5004M99.4982 18.7025C99.128 18.0091 98.4461 17.7119 97.7837 18.227C97.1407 18.7421 97.0823 19.6535 97.4525 20.3667C97.8226 21.0799 98.5045 21.3573 99.1669 20.8422C99.8294 20.3271 99.8489 19.4157 99.4787 18.7223M76.9956 30.8076C77.4437 31.402 78.0867 31.402 78.5348 30.8076C79.0024 30.2331 79.0608 29.401 78.6127 28.8066C78.1646 28.2122 77.5217 28.2519 77.0541 28.8066C76.5865 29.3811 76.5475 30.1934 76.9956 30.7878M65.7151 40.2579C65.5593 40.0796 65.3255 40.0202 65.1307 40.1787C64.9359 40.3372 64.9748 40.5947 65.1307 40.773C65.2865 40.9513 65.5203 41.0108 65.7151 40.8523C65.8905 40.6938 65.871 40.4362 65.7151 40.2579ZM81.3403 27.816C81.9248 27.1226 81.9832 26.0527 81.4572 25.2999C80.9311 24.5272 80.1713 24.5272 79.5868 25.2405C79.0024 25.9537 78.9244 27.0235 79.4505 27.7764C79.9765 28.549 80.7363 28.5292 81.3208 27.8358M83.1327 29.5198C82.9379 29.2227 82.6261 29.183 82.3924 29.4604C82.1586 29.7378 82.1586 30.1538 82.3534 30.451C82.5482 30.7482 82.8599 30.7878 83.0937 30.5104C83.3275 30.2331 83.3275 29.817 83.1327 29.5198ZM85.8797 27.816C86.2889 27.3405 86.2499 26.6075 85.9382 26.0924C85.6265 25.5773 85.1199 25.4782 84.7303 25.9537C84.3406 26.4292 84.3406 27.1226 84.6523 27.6179C84.9641 28.133 85.4511 28.2915 85.8797 27.816ZM72.8653 36.1965C72.7289 36.038 72.5341 35.9785 72.3782 36.137C72.2224 36.2955 72.2419 36.5333 72.3782 36.7116C72.5146 36.8899 72.7094 36.9295 72.8848 36.771C73.0601 36.6125 73.0212 36.3748 72.8848 36.2163M75.6903 33.72C76.002 33.3435 76.0215 32.7888 75.7293 32.4124C75.437 32.0161 74.9889 32.0161 74.6967 32.4124C74.385 32.7888 74.3655 33.3435 74.6577 33.72C74.95 34.1162 75.3786 34.0964 75.6903 33.72ZM96.2835 21.3573C96.0108 20.8026 95.4652 20.6243 94.9782 21.0601C94.5106 21.496 94.4911 22.1894 94.7639 22.7243C95.0366 23.2593 95.5432 23.5168 96.0497 23.1008C96.5368 22.6847 96.5563 21.9319 96.2835 21.3573ZM155.745 -7.0134C155.94 -6.43886 156.446 -6.06244 157.05 -6.30018C157.635 -6.51811 157.771 -7.1719 157.576 -7.72664C157.362 -8.30118 156.875 -8.67761 156.271 -8.43987C155.686 -8.20213 155.55 -7.56814 155.745 -7.0134ZM151.653 -5.42845C151.926 -4.6756 152.589 -4.1803 153.348 -4.47748C154.128 -4.77466 154.303 -5.60676 154.03 -6.35961C153.757 -7.11246 153.095 -7.60776 152.335 -7.31059C151.556 -7.0134 151.381 -6.1813 151.653 -5.42845ZM142.38 -6.97379C142.652 -6.20112 143.334 -5.70581 144.133 -6.00299C144.932 -6.31999 145.107 -7.1719 144.834 -7.92476C144.562 -8.69742 143.88 -9.19272 143.081 -8.89554C142.282 -8.57855 142.107 -7.72664 142.38 -6.97379ZM159.875 -8.63799C160.011 -8.28137 160.304 -8.04363 160.674 -8.18231C161.044 -8.321 161.122 -8.71724 161.005 -9.07385C160.869 -9.43047 160.557 -9.66821 160.187 -9.52953C159.817 -9.39084 159.739 -8.9946 159.875 -8.63799ZM147.62 -3.84349C147.952 -2.95195 148.731 -2.3576 149.647 -2.71421C150.562 -3.07083 150.777 -4.06143 150.465 -4.95296C150.134 -5.8445 149.354 -6.43886 148.439 -6.08224C147.504 -5.72563 147.309 -4.73503 147.62 -3.84349ZM150.679 -10.2229C150.796 -9.88614 151.088 -9.66821 151.439 -9.80689C151.77 -9.94558 151.848 -10.3022 151.731 -10.639C151.614 -10.9758 151.322 -11.1937 150.971 -11.055C150.621 -10.9164 150.562 -10.5597 150.679 -10.2229ZM146.49 -8.57855C146.705 -8.00401 147.192 -7.62757 147.796 -7.86532C148.38 -8.10306 148.517 -8.73705 148.322 -9.29178C148.108 -9.86633 147.62 -10.2428 147.016 -10.005C146.432 -9.76727 146.296 -9.13329 146.49 -8.57855ZM183.761 -2.43684C183.897 -2.06042 184.228 -1.80286 184.618 -1.96136C185.008 -2.11985 185.105 -2.5359 184.969 -2.91233C184.832 -3.28876 184.501 -3.54631 184.112 -3.38782C183.722 -3.22932 183.624 -2.81327 183.761 -2.43684ZM179.806 -0.89151C179.981 -0.416023 180.39 -0.0990334 180.877 -0.297153C181.364 -0.495274 181.481 -1.01039 181.306 -1.48587C181.131 -1.96136 180.722 -2.27835 180.234 -2.08023C179.747 -1.88211 179.631 -1.367 179.806 -0.89151ZM163.187 -1.26794C162.369 -0.950947 162.174 -0.0594101 162.466 0.713257C162.758 1.50573 163.44 2.04066 164.259 1.70385C165.077 1.38686 165.272 0.495323 164.98 -0.277344C164.687 -1.06982 164.005 -1.60474 163.168 -1.26794M160.966 -3.88312C161.219 -3.1897 161.843 -2.71421 162.564 -2.99158C163.285 -3.26895 163.46 -4.06142 163.207 -4.75484C162.953 -5.44826 162.33 -5.92375 161.609 -5.64639C160.869 -5.36901 160.713 -4.57653 160.966 -3.88312ZM169.09 -7.07284C169.227 -6.71623 169.538 -6.45867 169.928 -6.61717C170.298 -6.77567 170.396 -7.1719 170.259 -7.54833C170.123 -7.90495 169.811 -8.1625 169.422 -8.02382C169.051 -7.86532 168.954 -7.46908 169.09 -7.09266M156.972 -2.31797C157.264 -1.48587 158.005 -0.931137 158.862 -1.26794C159.719 -1.60474 159.914 -2.51609 159.622 -3.34819C159.33 -4.18029 158.589 -4.73503 157.732 -4.39823C156.875 -4.06142 156.68 -3.15008 156.972 -2.31797ZM164.999 -5.46807C165.194 -4.91334 165.681 -4.53691 166.265 -4.75484C166.83 -4.97277 166.967 -5.60675 166.772 -6.16149C166.577 -6.71622 166.071 -7.09266 165.506 -6.87472C164.941 -6.65679 164.804 -6.02281 164.999 -5.46807ZM138.308 -5.36901C138.658 -4.45766 139.477 -3.84349 140.431 -4.21992C141.386 -4.59635 141.6 -5.62657 141.269 -6.53792C140.938 -7.46908 140.1 -8.06344 139.145 -7.68701C138.191 -7.31059 137.957 -6.28036 138.308 -5.36901ZM133.71 -20.8818C133.71 -20.8818 133.71 -20.9016 133.71 -20.9214C133.71 -20.9214 133.69 -20.9214 133.671 -20.9214C133.671 -20.9214 133.671 -20.9016 133.671 -20.8818C133.671 -20.8818 133.69 -20.8818 133.71 -20.8818ZM123.306 -9.68802C123.637 -8.89554 124.417 -8.42006 125.254 -8.75686C126.092 -9.09366 126.306 -9.94557 125.975 -10.7777C125.644 -11.59 124.845 -12.0258 124.007 -11.689C123.17 -11.3522 122.975 -10.5003 123.306 -9.68802ZM131.995 -13.2146C132.132 -12.8777 132.424 -12.6796 132.775 -12.8183C133.125 -12.957 133.203 -13.3136 133.086 -13.6504C132.95 -13.9872 132.658 -14.1853 132.307 -14.0466C131.956 -13.908 131.878 -13.5514 131.995 -13.2146ZM127.631 -11.4315C127.884 -10.8371 128.449 -10.5003 129.053 -10.7579C129.657 -11.0154 129.833 -11.6494 129.599 -12.2438C129.346 -12.8381 128.781 -13.1749 128.177 -12.9174C127.573 -12.6598 127.378 -12.0258 127.631 -11.4315ZM117.422 -12.3428C117.773 -11.689 118.455 -11.3918 119.137 -11.689C119.819 -11.9862 120.033 -12.64 119.702 -13.3136C119.371 -13.9674 118.63 -14.225 117.948 -13.9476C117.266 -13.6504 117.072 -12.9966 117.422 -12.3626M119.059 -8.004C119.585 -7.07284 120.481 -6.47849 121.514 -6.89454C122.546 -7.31059 122.761 -8.321 122.332 -9.33141C121.903 -10.322 120.832 -10.7975 119.819 -10.3814C118.806 -9.94558 118.552 -8.95498 119.078 -8.02382M115.649 -8.85592C114.539 -8.34081 114.286 -7.1719 114.928 -6.1813C115.591 -5.1907 116.701 -4.61616 117.831 -5.07183C118.961 -5.54732 119.234 -6.79548 118.611 -7.84551C117.987 -8.89554 116.76 -9.37103 115.63 -8.85592M128.898 -6.8351C129.307 -5.90393 130.164 -5.30958 131.138 -5.686C132.112 -6.06243 132.327 -7.09266 131.956 -8.04363C131.586 -8.9946 130.69 -9.56915 129.696 -9.17291C128.722 -8.77667 128.469 -7.76626 128.878 -6.8351M131.372 -5.09165C130.203 -4.63597 129.95 -3.38782 130.378 -2.27835C130.807 -1.16888 131.8 -0.396217 132.989 -0.851891C134.177 -1.30756 134.45 -2.57553 134.002 -3.70481C133.573 -4.83409 132.541 -5.56713 131.372 -5.11146M136.73 -2.47647C137.821 -2.89252 138.074 -4.06142 137.665 -5.09165C137.256 -6.12187 136.32 -6.81529 135.229 -6.39923C134.158 -5.98318 133.924 -4.81428 134.314 -3.78406C134.703 -2.75384 135.639 -2.04061 136.73 -2.47647ZM141.425 -11.7881C141.542 -11.4711 141.815 -11.273 142.146 -11.3918C142.477 -11.5107 142.555 -11.8673 142.438 -12.1843C142.321 -12.5013 142.048 -12.7192 141.717 -12.5806C141.386 -12.4419 141.308 -12.1051 141.425 -11.7881ZM175.851 0.65382C176.046 1.20855 176.552 1.60479 177.156 1.36705C177.741 1.12931 177.877 0.495327 177.682 -0.0594101C177.468 -0.614143 176.981 -1.01038 176.377 -0.77264C175.792 -0.534897 175.656 0.0990829 175.851 0.65382ZM125.663 -7.84551C124.553 -7.38983 124.28 -6.24074 124.767 -5.1907C125.254 -4.12086 126.306 -3.48688 127.436 -3.94255C128.547 -4.39823 128.8 -5.54732 128.313 -6.59735C127.826 -7.64739 126.774 -8.30118 125.663 -7.84551ZM133.028 -8.45968C133.32 -7.68702 134.002 -7.19171 134.801 -7.50871C135.6 -7.8257 135.794 -8.67761 135.502 -9.45028C135.21 -10.2229 134.509 -10.7182 133.71 -10.4013C132.911 -10.0843 132.716 -9.23235 133.008 -8.45968M137.197 -10.1041C137.412 -9.52953 137.918 -9.17291 138.503 -9.39084C139.087 -9.62859 139.243 -10.2626 139.029 -10.8173C138.814 -11.3918 138.308 -11.7485 137.723 -11.5305C137.139 -11.2928 136.983 -10.6588 137.197 -10.1041ZM121.923 -14.225C122.137 -13.7891 122.566 -13.5712 123.014 -13.7693C123.462 -13.9476 123.579 -14.4033 123.384 -14.8391C123.189 -15.275 122.741 -15.4929 122.293 -15.2948C121.845 -15.1165 121.689 -14.6608 121.903 -14.225M162.155 7.80593C163.012 7.46913 163.207 6.55778 162.914 5.74549C162.622 4.9332 161.901 4.37847 161.044 4.71527C160.187 5.05207 159.992 5.96342 160.304 6.77571C160.596 7.588 161.317 8.14274 162.174 7.80593M165.915 6.2606C166.733 5.94361 166.908 5.07188 166.636 4.29922C166.363 3.50674 165.661 2.99163 164.843 3.30862C164.025 3.62561 163.85 4.49734 164.122 5.28981C164.395 6.06248 165.096 6.5974 165.915 6.28041M156.466 8.26161C156.758 9.09371 157.498 9.64845 158.355 9.31165C159.213 8.97484 159.407 8.04367 159.115 7.23139C158.823 6.39928 158.083 5.84455 157.225 6.18135C156.368 6.51816 156.173 7.42951 156.466 8.26161ZM160.518 3.32843C161.395 2.99163 161.609 2.04066 161.297 1.18874C160.986 0.336826 160.245 -0.237717 159.349 0.0990868C158.472 0.43589 158.258 1.38686 158.57 2.23878C158.881 3.09069 159.622 3.66524 160.518 3.30862M169.675 4.63602C170.415 4.33884 170.591 3.54636 170.318 2.83313C170.065 2.1199 169.422 1.64442 168.681 1.94159C167.941 2.23877 167.766 3.03125 168.038 3.74448C168.292 4.45772 168.935 4.9332 169.675 4.65583M153.017 6.53797C154.03 6.14173 154.264 5.05207 153.913 4.08129C153.563 3.1105 152.705 2.43689 151.673 2.83313C150.66 3.22937 150.426 4.31903 150.777 5.28981C151.127 6.2606 151.985 6.93421 153.017 6.53797ZM149.238 8.0833C150.27 7.68706 150.504 6.55778 150.153 5.54737C149.783 4.53696 148.906 3.86335 147.854 4.27941C146.802 4.67564 146.568 5.80493 146.939 6.79552C147.289 7.80593 148.185 8.47954 149.238 8.06349M156.777 4.9332C157.732 4.55677 157.946 3.54636 157.615 2.63501C157.284 1.72366 156.466 1.10949 155.53 1.46611C154.595 1.82272 154.381 2.81332 154.673 3.72467C154.634 3.72467 154.576 3.76429 154.537 3.80392C154.381 3.9426 154.4 4.16053 154.537 4.31903C154.673 4.47753 154.849 4.51715 155.004 4.37847C155.414 4.9332 156.056 5.21057 156.777 4.9332ZM166.382 -0.812267C166.636 -0.0990372 167.278 0.376453 168.019 0.0990868C168.759 -0.198093 168.935 -0.99057 168.662 -1.7038C168.408 -2.41703 167.766 -2.89252 167.025 -2.61515C166.285 -2.31797 166.11 -1.5255 166.363 -0.812267M169.811 -3.76425C169.811 -3.76425 169.753 -3.60575 169.811 -3.5265C169.87 -3.46706 169.967 -3.42744 170.045 -3.50669C170.123 -3.56613 170.103 -3.66519 170.045 -3.74443C169.987 -3.82368 169.889 -3.84349 169.811 -3.76425ZM86.737 -49.4506C86.737 -49.4506 86.737 -49.4704 86.737 -49.4902C86.737 -49.4902 86.7175 -49.4902 86.698 -49.4902C86.698 -49.4902 86.698 -49.4704 86.698 -49.4506C86.698 -49.4506 86.7175 -49.4506 86.737 -49.4506ZM174.351 -3.94255C174.526 -3.46707 174.955 -3.13026 175.461 -3.32838C175.968 -3.5265 176.085 -4.06142 175.909 -4.55672C175.734 -5.03221 175.305 -5.36901 174.799 -5.17089C174.292 -4.97277 174.175 -4.43785 174.351 -3.94255ZM172.695 -6.22093C172.831 -6.06243 173.045 -6.00299 173.221 -6.16149C173.377 -6.31999 173.357 -6.53792 173.221 -6.69641C173.084 -6.85491 172.87 -6.91435 172.695 -6.75585C172.519 -6.59735 172.558 -6.37943 172.695 -6.20111M178.403 -5.52751C178.52 -5.1907 178.812 -4.97277 179.163 -5.11146C179.494 -5.25014 179.572 -5.60676 179.455 -5.94356C179.338 -6.28036 179.046 -6.49829 178.715 -6.35961C178.384 -6.22093 178.286 -5.86431 178.423 -5.52751M170.337 -2.3576C170.552 -1.74342 171.097 -1.32737 171.74 -1.56512C172.383 -1.82267 172.519 -2.51609 172.305 -3.13026C172.091 -3.74443 171.545 -4.16048 170.902 -3.90293C170.259 -3.64537 170.123 -2.95196 170.337 -2.33779M145.458 9.58901C146.51 9.17296 146.744 8.06349 146.374 7.05308C146.003 6.04267 145.107 5.36906 144.075 5.7653C143.023 6.18135 142.789 7.31063 143.159 8.30124C143.529 9.31164 144.425 9.98525 145.458 9.58901ZM150.036 -1.7038C149.023 -1.30756 148.789 -0.217907 149.14 0.75288C149.491 1.72367 150.348 2.39727 151.381 2.00103C152.394 1.60479 152.627 0.515137 152.277 -0.475464C151.926 -1.44625 151.069 -2.10004 150.036 -1.7038ZM136.32 8.26161C137.509 7.80593 137.762 6.51816 137.353 5.38888C136.944 4.2596 135.931 3.46712 134.742 3.9426C133.554 4.39828 133.301 5.66624 133.71 6.81534C134.119 7.96443 135.132 8.73709 136.32 8.26161ZM153.037 -0.77264C153.368 0.13871 154.167 0.75288 155.121 0.396263C156.076 0.0198364 156.29 -0.990574 155.959 -1.92173C155.628 -2.83308 154.829 -3.44725 153.874 -3.07083C152.92 -2.6944 152.705 -1.68399 153.037 -0.77264ZM146.198 -0.316967C145.127 0.0990829 144.893 1.24818 145.263 2.2784C145.633 3.30862 146.549 4.00204 147.62 3.58599C148.692 3.16994 148.926 2.02084 148.556 0.990623C148.185 -0.0396004 147.27 -0.733017 146.198 -0.316967ZM128.781 11.2136C129.95 10.7579 130.203 9.47014 129.794 8.34086C129.385 7.21158 128.372 6.4191 127.183 6.87477C125.995 7.35026 125.8 8.61823 126.209 9.74751C126.618 10.857 127.592 11.6693 128.761 11.2136M132.541 9.74751C133.749 9.27202 134.002 8.00406 133.593 6.85496C133.164 5.70587 132.151 4.9332 130.963 5.38888C129.755 5.86436 129.502 7.15214 129.911 8.30124C130.339 9.45033 131.352 10.223 132.541 9.76732M123.598 8.4201C122.468 8.89559 122.273 10.1437 122.663 11.2334C123.053 12.3231 123.988 13.0957 125.118 12.6202C126.248 12.1448 126.462 10.8966 126.073 9.80694C125.683 8.71729 124.748 7.94462 123.598 8.4201ZM135.6 11.2532C135.95 12.224 136.808 12.8976 137.84 12.5014C138.853 12.1051 139.087 11.0155 138.736 10.0249C138.386 9.05409 137.528 8.38048 136.496 8.77672C135.463 9.17296 135.249 10.2626 135.6 11.2532ZM171.935 2.19915C172.169 2.83313 172.734 3.269 173.416 3.01144C174.078 2.75389 174.234 2.04066 174 1.38686C173.766 0.733067 173.201 0.317017 172.519 0.574574C171.857 0.832127 171.701 1.54536 171.935 2.19915ZM142.36 1.06987C141.23 1.50573 140.977 2.71426 141.366 3.80392C141.756 4.89358 142.711 5.62662 143.86 5.17094C144.99 4.73508 145.244 3.52655 144.854 2.43689C144.464 1.34724 143.49 0.614197 142.36 1.06987ZM140.081 6.7559C141.25 6.30022 141.522 5.03226 141.113 3.92279C140.704 2.79351 139.71 2.04066 138.522 2.49633C137.353 2.95201 137.08 4.20016 137.489 5.32944C137.899 6.45872 138.892 7.23139 140.061 6.7559M141.659 11.0749C142.711 10.6589 142.945 9.54939 142.574 8.53898C142.204 7.52857 141.328 6.85496 140.275 7.27101C139.223 7.68706 138.99 8.79653 139.36 9.80694C139.73 10.8174 140.607 11.491 141.659 11.0947M146.841 -3.5265C146.49 -4.5171 145.594 -5.17089 144.581 -4.77466C143.549 -4.37842 143.315 -3.26895 143.685 -2.27835C144.036 -1.28775 144.932 -0.633961 145.945 -1.0302C146.978 -1.42644 147.211 -2.5359 146.841 -3.5265ZM140.724 -3.44725C139.613 -3.01139 139.36 -1.82267 139.749 -0.752827C140.139 0.317017 141.094 1.03025 142.204 0.594383C143.315 0.158524 143.568 -1.0302 143.178 -2.10004C142.789 -3.16989 141.834 -3.88312 140.724 -3.44725ZM136.885 -2.06042C135.716 -1.60474 135.444 -0.35659 135.853 0.772694C136.262 1.90197 137.256 2.65483 138.444 2.19915C139.613 1.74348 139.886 0.47551 139.477 -0.65377C139.068 -1.78305 138.074 -2.5359 136.885 -2.08023M75.0084 -14.958C74.0538 -15.7505 72.8653 -15.3741 72.125 -14.4627C71.3846 -13.5315 71.3651 -12.3824 72.2808 -11.6098C73.1965 -10.8371 74.346 -11.1145 75.0863 -12.006C75.8267 -12.8976 75.9436 -14.1853 74.9889 -14.9778M81.1844 -23.0611C81.9053 -22.4865 82.8599 -22.4271 83.5613 -23.0611C84.2822 -23.6753 84.1653 -24.6064 83.4639 -25.2206C82.7625 -25.8348 81.6715 -25.914 80.9896 -25.2206C80.2882 -24.547 80.4636 -23.6356 81.1844 -23.0611ZM84.6523 -26.2112C85.2173 -25.6961 86.0746 -25.4583 86.737 -25.9734C87.3994 -26.4886 87.2825 -27.3008 86.6785 -27.8358C86.0941 -28.3905 85.1979 -28.5886 84.5354 -28.0339C83.873 -27.4792 84.0679 -26.7263 84.6329 -26.1914M73.9369 -21.2186C73.0601 -21.8526 72.0275 -21.6148 71.4236 -20.7233C70.8196 -19.8317 70.995 -18.7421 71.8717 -18.1081C72.7484 -17.4939 73.8005 -17.692 74.385 -18.6034C74.9694 -19.4949 74.8136 -20.5846 73.9369 -21.2186ZM64.7605 -16.0873C64.0591 -16.6024 63.1824 -16.4835 62.6564 -15.7901C62.1303 -15.0769 62.3252 -14.225 63.0071 -13.69C63.6889 -13.1551 64.5852 -13.274 65.0917 -13.9872C65.5983 -14.7004 65.4619 -15.5722 64.7605 -16.0873ZM87.828 -35.6021C88.1592 -35.3049 88.6463 -35.186 88.9775 -35.503C89.3282 -35.82 89.1723 -36.2757 88.8801 -36.5728C88.5684 -36.87 88.1203 -36.9889 87.7501 -36.6719C87.3799 -36.3747 87.4968 -35.8992 87.828 -35.6021ZM94.1209 -36.1964C94.2378 -36.0181 94.4521 -35.9389 94.6275 -36.0577C94.8223 -36.1766 94.8223 -36.3945 94.7054 -36.5728C94.5885 -36.7511 94.3742 -36.8304 94.1989 -36.7115C94.004 -36.5927 94.004 -36.3747 94.1209 -36.1964ZM76.5865 -24.8442C75.7682 -25.3989 74.7746 -25.3593 74.1512 -24.547C73.5277 -23.7347 73.742 -22.7243 74.5408 -22.1497C75.3591 -21.5752 76.3137 -21.7733 76.9372 -22.5658C77.5412 -23.3583 77.4048 -24.3092 76.5865 -24.864M79.5674 -28.1726C78.827 -28.6877 77.7944 -28.6877 77.171 -27.9745C76.567 -27.2612 76.7034 -26.3895 77.4437 -25.8744C78.1841 -25.3593 79.1582 -25.4385 79.7817 -26.1121C80.4051 -26.7659 80.2882 -27.6575 79.5479 -28.1726M88.393 -29.0839C88.7827 -28.6679 89.4256 -28.3509 89.9711 -28.7075C90.5166 -29.0641 90.3608 -29.6585 89.9711 -30.0943C89.562 -30.5302 88.8606 -30.8472 88.3346 -30.4708C87.8085 -30.0745 88.0228 -29.5198 88.4125 -29.1037M84.4575 -19.8119C85.081 -19.1185 86.0161 -18.8213 86.8344 -19.3959C87.6527 -19.9704 87.5942 -21.0006 86.9513 -21.7535C86.3279 -22.5064 85.2758 -22.7837 84.477 -22.1497C83.6782 -21.4959 83.8341 -20.5252 84.477 -19.8317M71.3651 -17.3552C70.4884 -17.9694 69.4169 -17.7911 68.7545 -16.9392C68.092 -16.1071 68.2479 -15.0571 69.1051 -14.4033C69.9624 -13.7495 71.0339 -13.9476 71.6963 -14.7995C72.3587 -15.6514 72.2419 -16.7411 71.3651 -17.3552ZM77.7165 -18.7421C76.7618 -19.4553 75.6513 -19.0591 75.0084 -18.1477C74.3655 -17.2166 74.4239 -16.0675 75.3201 -15.3542C76.2163 -14.6608 77.2879 -14.9778 77.9503 -15.8694C78.6127 -16.7609 78.6712 -18.0289 77.7165 -18.7421ZM92.2896 -31.3623C92.5233 -31.0651 92.952 -30.8472 93.2832 -31.0651C93.6144 -31.283 93.5754 -31.6793 93.3416 -31.9765C93.1273 -32.2736 92.7182 -32.4123 92.387 -32.1944C92.0558 -31.9963 92.0558 -31.6397 92.2701 -31.3425M78.1646 -19.4157C79.0218 -18.8213 79.957 -19.0789 80.6194 -19.8516C81.3013 -20.644 81.2429 -21.595 80.4051 -22.2686C79.5674 -22.9422 78.4763 -22.7639 77.8139 -21.9318C77.132 -21.0997 77.3074 -20.01 78.1646 -19.3959M91.9778 -30.4113C91.8609 -30.3123 91.8999 -30.1736 91.9973 -30.0745C92.0947 -29.9755 92.2311 -29.916 92.348 -30.0151C92.4649 -30.1141 92.4259 -30.2528 92.348 -30.3519C92.2506 -30.4509 92.1142 -30.5104 91.9973 -30.4113M81.2624 -16.4637C82.0027 -15.6514 82.9768 -15.7703 83.7366 -16.543C84.4965 -17.3156 84.5939 -18.4251 83.8341 -19.277C83.0742 -20.1289 81.9442 -20.2082 81.1649 -19.3364C80.3856 -18.4845 80.522 -17.276 81.2624 -16.4637ZM71.56 -33.3435C71.0339 -33.7397 70.352 -33.6407 69.9429 -33.1454C69.5143 -32.6303 69.6117 -31.9963 70.1377 -31.6C70.6638 -31.2236 71.3262 -31.3029 71.7548 -31.818C72.1834 -32.3331 72.086 -32.9671 71.56 -33.3435ZM80.2492 -35.82C80.7363 -35.4634 81.4377 -35.3247 81.9248 -35.7804C82.3923 -36.236 82.217 -36.8106 81.7299 -37.187C81.2429 -37.5634 80.5025 -37.6625 80.0155 -37.187C79.5284 -36.7115 79.7817 -36.1568 80.2687 -35.8002M74.6187 -36.87C74.1122 -37.2464 73.4693 -37.2266 73.0406 -36.7511C72.5925 -36.2757 72.6705 -35.6813 73.177 -35.2851C73.6836 -34.9086 74.346 -34.9483 74.7746 -35.4237C75.2227 -35.8992 75.1253 -36.4936 74.6187 -36.87ZM68.696 -29.7179C68.17 -30.0943 67.527 -29.9358 67.1764 -29.4009C66.8257 -28.866 66.9231 -28.2122 67.4686 -27.8358C68.0141 -27.4593 68.6376 -27.6178 68.9882 -28.1528C69.3389 -28.6877 69.2415 -29.3613 68.7155 -29.7179M76.0994 -40.0399C75.7098 -39.6041 75.8267 -39.0691 76.2943 -38.7522C76.7424 -38.4154 77.3463 -38.4154 77.7555 -38.8512C78.1451 -39.2871 78.0087 -39.8022 77.5606 -40.1192C77.1125 -40.456 76.5086 -40.4758 76.1189 -40.0399M80.6389 -43.8438C80.7753 -43.7646 80.9311 -43.7646 81.0091 -43.9033C81.087 -44.0419 81.0286 -44.2004 80.8922 -44.2797C80.7558 -44.3589 80.5999 -44.3589 80.5025 -44.2203C80.4246 -44.0816 80.5025 -43.9231 80.6194 -43.8438M79.0803 -43.1306C78.788 -42.7938 78.9049 -42.3579 79.2556 -42.1004C79.5868 -41.8428 80.0544 -41.7834 80.3467 -42.14C80.6389 -42.4966 80.5025 -42.9127 80.1713 -43.1702C79.8401 -43.4476 79.392 -43.4872 79.0803 -43.1306ZM75.5734 -30.867C74.8915 -31.3425 74.0343 -31.2236 73.4887 -30.5896C72.9432 -29.9556 73.0406 -29.1632 73.7225 -28.6679C74.4044 -28.1924 75.2617 -28.2914 75.8072 -28.9452C76.3527 -29.5792 76.2358 -30.3915 75.5539 -30.867M72.6705 -27.3405C71.9691 -27.8358 71.0924 -27.7367 70.6053 -27.0235C70.1182 -26.2904 70.2546 -25.4385 70.956 -24.9234C71.6769 -24.4083 72.5146 -24.6262 73.0017 -25.3395C73.4887 -26.0527 73.3718 -26.8452 72.6705 -27.3405ZM84.3796 -32.6699C84.8472 -32.2935 85.5485 -32.0953 86.0746 -32.5114C86.5811 -32.9274 86.3863 -33.5218 85.9382 -33.918C85.4706 -34.3341 84.6913 -34.5124 84.2042 -34.0369C83.7172 -33.5614 83.9315 -33.0265 84.3991 -32.6501M80.8142 -29.4207C81.4377 -28.9452 82.2949 -28.8858 82.8989 -29.4207C83.5029 -29.9755 83.347 -30.6887 82.7236 -31.184C82.1001 -31.6793 81.2039 -31.7783 80.6194 -31.184C80.0155 -30.5896 80.1908 -29.8764 80.8142 -29.4009M86.6201 -42.1202C86.8344 -41.9221 87.1266 -41.8824 87.3409 -42.1004C87.5553 -42.3183 87.4968 -42.5957 87.2825 -42.7938C87.0682 -42.9919 86.776 -43.0315 86.5616 -42.8136C86.3473 -42.5957 86.4058 -42.2985 86.6201 -42.1202ZM78.6517 -34.1756C78.0477 -34.6115 77.2294 -34.552 76.7229 -33.9973C76.1968 -33.4426 76.2943 -32.7491 76.8982 -32.3133C77.5022 -31.8774 78.3205 -31.9368 78.827 -32.4916C79.3336 -33.0463 79.2556 -33.7397 78.6517 -34.1756ZM85.4316 -41.2287C85.4316 -41.2287 85.4122 -41.0107 85.4901 -40.9513C85.5875 -40.8918 85.7044 -40.8918 85.7823 -40.9909C85.8603 -41.09 85.8213 -41.2088 85.7239 -41.2683C85.6265 -41.3277 85.5096 -41.3277 85.4316 -41.2287ZM83.5418 -38.9701C83.912 -38.6927 84.4186 -38.5738 84.7498 -38.9305C85.081 -39.2871 84.9056 -39.7229 84.5744 -40.0201C84.2432 -40.3173 83.7561 -40.3965 83.4054 -40.0597C83.0548 -39.7229 83.1716 -39.2673 83.5223 -38.9899M62.7733 -6.51811C61.9745 -7.23134 60.9419 -7.07284 60.2015 -6.3398C59.4807 -5.58694 59.4417 -4.53691 60.221 -3.80387C61.0003 -3.07083 62.0524 -3.26895 62.7343 -4.0218C63.4162 -4.77465 63.5526 -5.80487 62.7733 -6.51811ZM96.4394 -11.4513C96.6537 -10.4211 97.472 -10.1437 98.3487 -10.6588C99.2254 -11.1739 99.7514 -12.2834 99.4397 -13.2542C99.128 -14.225 98.3876 -14.6014 97.5109 -14.0863C96.6342 -13.5712 96.2056 -12.4617 96.4199 -11.4513M100.648 -14.007C100.92 -13.2344 101.641 -13.056 102.323 -13.4523C103.005 -13.8485 103.317 -14.641 103.005 -15.3741C102.693 -16.1071 102.011 -16.3845 101.33 -15.9882C100.648 -15.592 100.394 -14.7797 100.648 -14.007ZM95.8744 -11.0947C95.738 -12.224 95.0366 -12.9372 93.9846 -12.323C92.952 -11.7088 92.6403 -10.2626 92.7571 -9.13329C92.8935 -8.004 93.5364 -7.25115 94.5885 -7.88513C95.6406 -8.51912 96.0108 -9.96539 95.8744 -11.0947ZM92.2701 -13.9872C92.4065 -13.0759 93.0299 -12.5211 93.8677 -13.0362C94.7054 -13.5514 94.9976 -14.7203 94.7833 -15.6118C94.5885 -16.5033 93.9456 -17.1175 93.1273 -16.5826C92.309 -16.0477 92.1337 -14.9184 92.2701 -14.007M95.777 -16.2854C95.9718 -15.5722 96.4978 -15.1165 97.1797 -15.5325C97.8616 -15.9288 98.0759 -16.8005 97.8616 -17.5534C97.6473 -18.2864 97.0628 -18.7025 96.3809 -18.3062C95.699 -17.8902 95.5821 -17.0184 95.777 -16.3052M103.59 -20.7629C103.706 -20.545 103.94 -20.4459 104.155 -20.5648C104.388 -20.6837 104.447 -20.9412 104.31 -21.1591C104.194 -21.3771 103.94 -21.4563 103.726 -21.3374C103.512 -21.2186 103.453 -20.9808 103.59 -20.7629ZM104.953 -16.4835C105.168 -16.008 105.655 -15.8495 106.103 -16.0873C106.57 -16.325 106.726 -16.8401 106.492 -17.2958C106.259 -17.7515 105.772 -17.9496 105.323 -17.6921C104.875 -17.4543 104.758 -16.959 104.953 -16.4835ZM99.5371 -18.5638C99.693 -18.0883 100.102 -17.8109 100.55 -18.0685C101.018 -18.3062 101.096 -18.8411 100.94 -19.3166C100.804 -19.7921 100.414 -20.1091 99.9268 -19.8714C99.4592 -19.6138 99.3618 -19.0591 99.5176 -18.5836M112.902 -10.2229C113.409 -9.37103 114.383 -9.07385 115.26 -9.50971C116.136 -9.94558 116.351 -10.8173 115.903 -11.6692C115.435 -12.5211 114.461 -12.8381 113.604 -12.4023C112.727 -11.9862 112.396 -11.0749 112.922 -10.2229M109.395 -18.861C109.512 -18.643 109.727 -18.5043 109.96 -18.6232C110.194 -18.7223 110.233 -18.9798 110.136 -19.1978C110.038 -19.4157 109.805 -19.5544 109.571 -19.4355C109.337 -19.3166 109.298 -19.0789 109.395 -18.861ZM108.363 -8.04363C109.064 -7.05303 110.292 -6.79548 111.344 -7.29078C112.396 -7.78608 112.649 -8.81629 112.026 -9.80689C111.422 -10.7975 110.214 -11.1145 109.181 -10.6192C108.129 -10.1239 107.661 -9.03423 108.363 -8.04363ZM88.0423 -22.5262C88.5489 -21.912 89.3866 -21.5752 90.088 -22.0705C90.7699 -22.5658 90.6335 -23.3979 90.1659 -24.0121C89.6984 -24.646 88.8411 -25.0027 88.1397 -24.5074C87.4384 -23.9923 87.5358 -23.1403 88.0618 -22.5262M101.817 -9.52953C102.304 -8.45968 103.551 -8.47949 104.447 -9.01441C105.362 -9.56915 105.85 -10.5994 105.304 -11.5702C104.758 -12.5409 103.706 -12.7589 102.752 -12.2041C101.817 -11.6494 101.33 -10.5796 101.797 -9.52953M115.864 -16.7411C115.981 -16.4637 116.273 -16.3646 116.526 -16.4835C116.799 -16.6024 116.857 -16.8599 116.74 -17.1373C116.623 -17.3949 116.37 -17.5336 116.097 -17.4147C115.825 -17.2958 115.727 -17.0184 115.864 -16.7411ZM106.473 -12.2041C106.941 -11.4513 107.817 -11.2334 108.597 -11.6098C109.376 -11.9862 109.649 -12.8183 109.201 -13.5712C108.752 -14.3438 107.876 -14.542 107.116 -14.1655C106.356 -13.7891 106.005 -12.957 106.453 -12.2041M111.168 -14.5816C111.461 -14.0268 112.065 -13.8485 112.61 -14.1061C113.156 -14.3835 113.331 -14.9382 113.039 -15.4731C112.746 -16.0278 112.162 -16.2062 111.616 -15.9486C111.071 -15.6712 110.876 -15.1165 111.168 -14.5618M83.6392 -12.8183C84.2042 -11.7683 85.1004 -11.6692 85.9967 -12.4419C86.8734 -13.2344 87.1851 -14.5221 86.6006 -15.6118C85.9966 -16.7015 84.9056 -17.0184 84.0094 -16.1269C83.1132 -15.2354 83.0742 -13.8485 83.6587 -12.8183M72.1055 -11.3522C71.1508 -12.1843 69.9234 -11.8475 69.1831 -10.8965C68.4622 -9.96539 68.3258 -8.67761 69.2805 -7.84551C70.2157 -7.03322 71.3262 -7.42945 72.0665 -8.34081C72.8069 -9.25216 73.0601 -10.5003 72.1055 -11.3522ZM66.1633 -4.21992C67.0595 -3.34819 68.2674 -3.66519 69.0272 -4.57653C69.7676 -5.48788 70.0598 -6.81528 69.1246 -7.64739C68.17 -8.47949 66.9815 -8.10306 66.2412 -7.19171C65.5008 -6.28036 65.2865 -5.09165 66.1827 -4.21992M122.877 -18.4251C122.877 -18.4251 123.072 -18.3062 123.15 -18.4053C123.228 -18.4845 123.228 -18.6034 123.15 -18.7025C123.072 -18.7817 122.955 -18.8213 122.877 -18.7223C122.799 -18.6232 122.799 -18.5242 122.877 -18.4251ZM91.7051 -25.0423C92.0753 -24.5668 92.6792 -24.23 93.2247 -24.5866C93.7702 -24.9432 93.6533 -25.5574 93.3221 -26.0527C92.9909 -26.548 92.3285 -26.8452 91.783 -26.4886C91.2375 -26.1319 91.3349 -25.498 91.7051 -25.0423ZM95.4847 -27.3008C95.6406 -27.0433 95.9328 -26.8452 96.2056 -27.0235C96.4783 -27.182 96.4394 -27.5386 96.2835 -27.7961C96.1277 -28.0537 95.8354 -28.2518 95.5626 -28.0735C95.2899 -27.8952 95.3289 -27.5584 95.4847 -27.3008ZM78.1451 -12.4221C78.9634 -11.5305 80.0739 -11.8277 80.8142 -12.7391C81.5546 -13.6702 81.8079 -15.0769 80.9701 -16.0675C80.1324 -17.0581 78.9244 -16.543 78.2425 -15.6118C77.5606 -14.6806 77.3269 -13.2938 78.1451 -12.4221ZM90.8284 -18.544C91.2765 -17.8505 91.9389 -17.3354 92.6792 -17.8307C93.439 -18.326 93.3806 -19.2572 92.9909 -19.9704C92.6013 -20.6837 91.783 -21.1393 91.0621 -20.6638C90.3218 -20.1884 90.3802 -19.2374 90.8284 -18.544ZM94.3742 -20.8421C94.6275 -20.327 95.0951 -19.911 95.6601 -20.2478C96.2056 -20.5846 96.2445 -21.3176 95.9718 -21.8724C95.7185 -22.4271 95.173 -22.7639 94.6275 -22.3875C94.082 -22.0309 94.1209 -21.3573 94.3742 -20.8421ZM98.0954 -21.2978C98.0954 -21.2978 98.2123 -21.1591 98.2902 -21.2186C98.3682 -21.278 98.3487 -21.3969 98.3097 -21.4959C98.2708 -21.5752 98.1928 -21.6346 98.1149 -21.5752C98.037 -21.5158 98.0564 -21.3771 98.0954 -21.2978ZM95.5821 -25.914C95.5821 -25.914 95.5821 -25.9338 95.5821 -25.9536C95.5821 -25.9536 95.5627 -25.9536 95.5432 -25.9536C95.5432 -25.9536 95.5432 -25.9338 95.5432 -25.914C95.5432 -25.914 95.5432 -25.914 95.5821 -25.914ZM87.0682 -15.9486C87.5747 -15.0372 88.4904 -14.7203 89.4061 -15.2948C90.3218 -15.8694 90.5556 -16.9788 89.9711 -17.91C89.3866 -18.8213 88.3735 -19.2176 87.4773 -18.5836C86.5811 -17.9496 86.5811 -16.8599 87.0877 -15.9684M97.959 -23.1007C98.1149 -22.7837 98.3876 -22.4865 98.7578 -22.645C99.128 -22.8233 99.1085 -23.2988 98.9721 -23.6356C98.8357 -23.9724 98.5045 -24.2696 98.1539 -24.0715C97.8032 -23.8734 97.8032 -23.4177 97.959 -23.1007ZM88.5878 -11.5503C88.8801 -10.4409 89.6204 -9.90595 90.5946 -10.5597C91.5687 -11.2135 91.9194 -12.5409 91.7246 -13.6504C91.5102 -14.7599 90.6141 -15.3344 89.6204 -14.7004C88.6268 -14.0466 88.3151 -12.6598 88.6073 -11.5503" fill="#1C3660"/>
</g>
<path d="M33.0232 29.0839L34.7377 15.2749L41.5566 15.9684L42.5697 15.4334L45.0245 13.2739L45.2194 22.8035L49.3887 25.2007L54.4931 32.333L53.9476 36.8502L50.5576 38.1974L50.3823 42.7739L43.427 40.9908L40.9916 30.8669L37.3873 34.9086L33.0232 29.0839Z" fill="white"/>
<path d="M12.7417 23.9331H22.4441" stroke="#1C3660" stroke-width="0.65" stroke-linecap="round" stroke-linejoin="round"/>
<path d="M25.7367 23.9331H31.2503" stroke="#1C3660" stroke-width="0.65" stroke-linecap="round" stroke-linejoin="round"/>
<path d="M12.7417 31.0254H17.3981" stroke="#1C3660" stroke-width="0.65" stroke-linecap="round" stroke-linejoin="round"/>
<path d="M21.0803 31.0254H31.3866" stroke="#1C3660" stroke-width="0.65" stroke-linecap="round" stroke-linejoin="round"/>
<path d="M12.7417 38.1182H21.392" stroke="#1C3660" stroke-width="0.65" stroke-linecap="round" stroke-linejoin="round"/>
<path d="M25.2106 38.1182H31.523" stroke="#1C3660" stroke-width="0.65" stroke-linecap="round" stroke-linejoin="round"/>
<mask id="mask2_1269_47846" style="mask-type:luminance" maskUnits="userSpaceOnUse" x="0" y="0" width="58" height="59">
<path d="M58 0H0V58.9802H58V0Z" fill="white"/>
</mask>
<g mask="url(#mask2_1269_47846)">
<path d="M15.9174 21.9715V12.0259C15.9174 10.9165 16.7356 10.0051 17.7293 10.0051H36.9392L43.7387 17.4742V23.2791M43.7387 46.6771C43.7387 47.7865 42.9204 48.6979 41.9268 48.6979H17.7487C16.7551 48.6979 15.9368 47.7865 15.9368 46.6771V40.0797" stroke="#1C3660" stroke-linecap="round" stroke-linejoin="round"/>
<path d="M34.387 11.7288V17.9893C34.387 19.0988 35.2052 20.0102 36.1989 20.0102H42.1216" stroke="#1C3660" stroke-linecap="round" stroke-linejoin="round"/>
<path d="M50.2069 32.7888C50.5771 33.4029 52.2526 33.502 52.8955 33.6209C53.1098 33.6605 53.3047 33.819 53.3047 34.0369V35.087V36.0776C53.3047 36.3153 53.1098 36.454 52.8955 36.4936C52.2331 36.6125 50.5771 36.7115 50.2069 37.3059V37.3851C50.09 37.6427 49.9731 37.9003 49.8562 38.138C49.7004 38.8314 50.8109 40.0994 51.1811 40.6541C51.3174 40.8522 51.3369 41.09 51.1811 41.2485L50.4407 41.9815L49.7393 42.6749C49.5835 42.8334 49.3497 42.8136 49.1548 42.6749C48.6093 42.2985 47.3819 41.1692 46.6806 41.3079C46.4468 41.4268 46.1935 41.5259 45.9402 41.6249L45.8428 41.6645C45.2388 42.0608 45.1414 43.7448 45.0245 44.3986C44.9856 44.6165 44.8297 44.8146 44.6154 44.8146H43.5828H42.6087C42.3749 44.8146 42.2385 44.6165 42.1995 44.3986C42.0826 43.725 41.9852 42.041 41.3813 41.6645C41.3618 41.6645 41.3423 41.6645 41.3228 41.6447C41.089 41.5655 40.8552 41.4664 40.6214 41.3475C40.6019 41.3475 40.563 41.3277 40.5435 41.3079C39.8616 41.1494 38.6147 42.2787 38.0692 42.6551C37.8744 42.7938 37.6406 42.8136 37.4847 42.6551L36.7639 41.9023L36.082 41.2089C35.9261 41.0504 35.9651 40.8126 36.082 40.6145C36.4521 40.0598 37.5626 38.7918 37.4068 38.0984C37.4068 38.0786 37.3873 38.0588 37.3678 38.0191C37.2509 37.7814 37.173 37.5436 37.0756 37.3059C37.0756 37.2861 37.0756 37.2663 37.0561 37.2465C36.6859 36.6323 35.0104 36.5332 34.3675 36.4144C34.1532 36.3747 33.9583 36.2162 33.9583 35.9983V34.9483V33.9577C33.9583 33.7199 34.1532 33.5813 34.3675 33.5416C35.0104 33.4228 36.6859 33.3237 37.0561 32.7095L37.0951 32.6105C37.173 32.3727 37.2704 32.1548 37.3873 31.9369C37.3873 31.917 37.4068 31.8972 37.4263 31.8576C37.5821 31.1642 36.4716 29.8962 36.1014 29.3217C35.9651 29.1236 35.9456 28.8858 36.1014 28.7273L36.8418 27.9943L37.5237 27.3009C37.6795 27.1424 37.9133 27.1622 38.1082 27.3009C38.6537 27.6773 39.9006 28.8066 40.5825 28.6679C40.6214 28.6679 40.6604 28.6283 40.6799 28.6084C40.8942 28.5094 41.1085 28.4103 41.3228 28.3311H41.4007C42.0047 27.915 42.1021 26.231 42.219 25.5574C42.258 25.3395 42.4138 25.1414 42.6281 25.1414H43.6607H44.6349C44.8687 25.1414 45.005 25.3395 45.044 25.5574C45.1609 26.2112 45.2583 27.915 45.8623 28.2915L45.9792 28.3311C46.1935 28.4103 46.3883 28.4896 46.6026 28.5886C46.6416 28.5886 46.6611 28.6283 46.7 28.6283C47.3819 28.7868 48.6288 27.6575 49.1938 27.2811C49.3886 27.1424 49.6224 27.1226 49.7783 27.2811L50.4992 28.0339L51.1811 28.7273C51.3369 28.8858 51.3174 29.1236 51.1811 29.3217C50.8109 29.8764 49.7004 31.1444 49.8367 31.8378C49.8367 31.8774 49.8757 31.8972 49.8952 31.9369C49.9926 32.135 50.0705 32.3529 50.1485 32.5708C50.1485 32.6105 50.168 32.6501 50.1874 32.6897L50.2069 32.7888Z" stroke="#1C3660" stroke-linecap="round" stroke-linejoin="round"/>
<path d="M47.9664 34.3739C47.6936 32.6701 46.4857 31.2238 44.7323 30.7483C42.3944 30.1341 39.998 31.5606 39.3745 33.938C38.7706 36.3155 40.1733 38.7523 42.5112 39.3863C43.7192 39.7033 44.9466 39.4854 45.9402 38.8712" stroke="#1C3660" stroke-linecap="round" stroke-linejoin="round"/>
<path d="M23.048 21.0403H25.5418C25.6587 21.0403 25.7367 21.1394 25.7367 21.2384V26.7264C25.7367 26.8452 25.6392 26.9245 25.5418 26.9245H23.048C22.9311 26.9245 22.8532 26.8254 22.8532 26.7264V21.2186C22.8532 21.0998 22.9506 21.0205 23.048 21.0205V21.0403Z" stroke="#1C3660" stroke-linecap="round" stroke-linejoin="round"/>
<path d="M17.963 28.1331H20.4373C20.5542 28.1331 20.6322 28.2321 20.6322 28.3312V33.8191C20.6322 33.938 20.5347 34.0172 20.4373 34.0172H17.9435C17.8267 34.0172 17.7487 33.9181 17.7487 33.8191V28.3312C17.7487 28.2123 17.8461 28.1331 17.9435 28.1331H17.963Z" stroke="#1C3660" stroke-linecap="round" stroke-linejoin="round"/>
<path d="M22.0544 35.2256H24.5287C24.6456 35.2256 24.7235 35.3247 24.7235 35.4237V40.9117C24.7235 41.0305 24.6261 41.1098 24.5287 41.1098H22.0349C21.918 41.1098 21.8401 41.0107 21.8401 40.9117V35.4039C21.8401 35.2851 21.9375 35.2058 22.0349 35.2058L22.0544 35.2256Z" stroke="#1C3660" stroke-linecap="round" stroke-linejoin="round"/>
</g>
</svg>
