<svg width="59" height="56" viewBox="0 0 59 56" fill="none" xmlns="http://www.w3.org/2000/svg">
<path d="M29.5 56C45.7924 56 59 43.464 59 28C59 12.536 45.7924 0 29.5 0C13.2076 0 0 12.536 0 28C0 43.464 13.2076 56 29.5 56Z" fill="white"/>
<mask id="mask0_1269_14845" style="mask-type:luminance" maskUnits="userSpaceOnUse" x="0" y="0" width="59" height="56">
<path d="M29.5 56C45.7924 56 59 43.464 59 28C59 12.536 45.7924 0 29.5 0C13.2076 0 0 12.536 0 28C0 43.464 13.2076 56 29.5 56Z" fill="white"/>
</mask>
<g mask="url(#mask0_1269_14845)">
<path d="M38.0609 25.7043C37.9756 25.6135 37.8444 25.5799 37.7424 25.6668C37.6405 25.7537 37.6571 25.8802 37.7424 25.973C37.8278 26.0659 37.9589 26.0955 38.0609 26.0106C38.165 25.9236 38.1462 25.7972 38.0609 25.7043ZM60.4903 2.74604C59.6577 1.9321 58.4693 2.11188 57.6429 2.81914C56.8166 3.52838 56.5377 4.6268 57.3494 5.44075C58.1633 6.25469 59.3476 6.08676 60.1864 5.36765C61.0273 4.64656 61.3229 3.55999 60.4882 2.74604M84.8742 -44.1761C84.9699 -44.0734 85.1156 -44.0398 85.228 -44.1346C85.3404 -44.2295 85.3217 -44.3697 85.2259 -44.4725C85.1323 -44.5732 84.9866 -44.6088 84.8742 -44.512C84.7618 -44.4172 84.7784 -44.2769 84.8742 -44.1761ZM48.8094 17.1757C48.2599 16.5396 47.3732 16.4764 46.6863 16.9683C46.0015 17.4622 45.9058 18.2287 46.4574 18.8629C47.0069 19.4971 47.8811 19.6037 48.5763 19.1079C49.2694 18.61 49.363 17.8119 48.8114 17.1757M61.1834 23.9441C60.4071 23.1203 59.2602 23.0334 58.3818 23.7683C57.5035 24.5032 57.5222 25.6648 58.2757 26.4887C59.0312 27.3105 60.2156 27.4824 61.0752 26.7139C61.9348 25.9434 61.9598 24.7699 61.1834 23.9441ZM52.4768 14.562C51.8399 13.8449 50.8304 13.7738 50.0457 14.3329C49.2631 14.8939 49.1549 15.7592 49.7835 16.4823C50.4121 17.2054 51.3862 17.3101 52.1646 16.7451C52.9431 16.1781 53.1138 15.2792 52.4789 14.562M56.8832 5.87538C56.1193 5.1049 55.0287 5.22145 54.246 5.86747C53.4655 6.51546 53.2657 7.45189 53.963 8.24213C54.6623 9.03434 55.7842 9.01261 56.6001 8.33894C57.4181 7.66328 57.6471 6.64585 56.8832 5.87538ZM37.9797 19.659C37.9173 19.5919 37.8215 19.5662 37.7445 19.6314C37.6696 19.6946 37.68 19.7875 37.7445 19.8566C37.807 19.9238 37.9027 19.9475 37.9797 19.8843C38.0547 19.8211 38.0443 19.7262 37.9797 19.659ZM60.7671 2.48724C61.633 3.32687 62.8382 3.09967 63.677 2.31537C64.5137 1.53106 64.7801 0.347683 63.8872 -0.478115C62.9922 -1.30391 61.787 -1.08265 60.967 -0.290432C60.149 0.501778 59.8992 1.64959 60.7651 2.48922M53.1595 8.82493C52.5414 8.1394 51.5901 8.09396 50.8429 8.62737C50.0957 9.16078 49.9292 10.0162 50.5453 10.7057C51.1593 11.3952 52.123 11.4367 52.8681 10.9032C53.6133 10.3718 53.7756 9.50848 53.1595 8.82493ZM64.0766 -0.673698C64.9841 0.161976 66.1934 -0.0968246 67.0114 -0.940399C67.8294 -1.78398 68.0688 -3.01082 67.13 -3.83068C66.1955 -4.65253 64.9883 -4.35027 64.1973 -3.51657C63.4043 -2.68089 63.167 -1.50937 64.0766 -0.673698ZM41.7513 16.909C41.5015 16.6325 41.106 16.5752 40.7896 16.7846C40.4733 16.992 40.4358 17.3338 40.6856 17.6084C40.9333 17.883 41.3287 17.9403 41.6472 17.7328C41.9615 17.5254 41.999 17.1836 41.7513 16.909ZM57.1996 0.246925C56.5502 -0.361553 55.5823 -0.300312 54.9496 0.284462C54.3168 0.86726 54.1878 1.68515 54.8288 2.29561C55.4678 2.90607 56.3982 2.80531 57.0456 2.25215C57.6908 1.69898 57.8511 0.855408 57.1996 0.246925ZM45.6165 14.325C45.2293 13.8923 44.6049 13.8034 44.1116 14.1333C43.6183 14.4672 43.5642 15.0046 43.9534 15.4352C44.3406 15.8679 44.9733 15.9588 45.4583 15.6269C45.9432 15.291 46.0057 14.7537 45.6165 14.325ZM49.3859 11.5493C48.8697 10.9724 48.0601 10.9309 47.4335 11.3833C46.8112 11.8357 46.6967 12.6022 47.2192 13.1771C47.7395 13.754 48.5325 13.8153 49.1611 13.353C49.7918 12.8927 49.9021 12.1242 49.3838 11.5493M51.5048 26.5282C50.9553 25.9197 50.0894 25.7261 49.4192 26.2812C48.7469 26.8324 48.8343 27.6622 49.3838 28.2726C49.9354 28.8831 50.8055 29.0372 51.4445 28.4741C52.0834 27.9131 52.0585 27.1386 51.5069 26.5301M58.2674 20.7891C57.4931 19.9514 56.3067 19.748 55.3992 20.5086C54.4937 21.2672 54.5499 22.4268 55.3201 23.2645C56.0902 24.1041 57.2745 24.2839 58.1799 23.5273C59.0833 22.7726 59.0416 21.6267 58.2674 20.7891ZM54.9142 23.6083C54.2377 22.8753 53.1824 22.7054 52.3811 23.3712C51.5818 24.037 51.6547 25.088 52.3457 25.8031C53.0367 26.5183 54.0483 26.6467 54.8268 25.9869C55.6052 25.329 55.5886 24.3392 54.9121 23.6083M47.5355 35.8194C47.342 35.608 47.0422 35.5408 46.8112 35.7364C46.5802 35.93 46.6093 36.2204 46.805 36.4298C46.9964 36.6412 47.2962 36.7084 47.5272 36.5128C47.7582 36.3192 47.7291 36.0307 47.5355 35.8194ZM56.2567 11.7271C55.5011 10.8578 54.3251 10.8341 53.3927 11.4959C52.4623 12.1597 52.2999 13.2502 53.0471 14.1333C53.7965 15.0184 54.8788 15.0737 55.8071 14.402C56.7354 13.7303 57.0123 12.5963 56.2567 11.7271ZM51.0511 32.7849C50.6681 32.3759 50.0978 32.2831 49.6565 32.6604C49.2152 33.0397 49.2652 33.6067 49.644 34.0156C50.0228 34.4226 50.6015 34.5273 51.0365 34.1421C51.4694 33.7568 51.434 33.1918 51.0511 32.7849ZM54.4875 29.7286C53.9442 29.1458 53.1387 29.049 52.531 29.6022C51.9232 30.1553 51.9586 30.9614 52.5039 31.5422C53.0492 32.125 53.861 32.2238 54.4625 31.6726C55.0661 31.1214 55.0307 30.3094 54.4875 29.7286ZM57.8615 26.8403C57.2058 26.1291 56.1922 25.9809 55.4179 26.6289C54.6415 27.2789 54.6956 28.2548 55.3617 28.9641C56.0319 29.6753 57.0268 29.8116 57.7845 29.1656C58.5421 28.5176 58.5192 27.5515 57.8615 26.8403ZM44.7735 25.9987C44.3947 25.5878 43.8119 25.4515 43.354 25.8268C42.8981 26.2022 42.9585 26.7692 43.3373 27.1801C43.7161 27.591 44.2989 27.7273 44.7568 27.352C45.2127 26.9766 45.1523 26.4096 44.7735 25.9987ZM41.4245 28.9937C41.2496 28.804 40.9811 28.7408 40.7709 28.9167C40.5607 29.0925 40.5961 29.3552 40.7709 29.5429C40.9478 29.7326 41.2163 29.7938 41.4266 29.618C41.6368 29.4441 41.6014 29.1814 41.4245 28.9937ZM47.9768 29.4204C47.5813 28.9898 46.9694 28.8475 46.4907 29.2426C46.014 29.6358 46.0744 30.2265 46.4698 30.6572C46.8653 31.0878 47.4773 31.2281 47.956 30.835C48.4305 30.4418 48.3723 29.8531 47.9768 29.4204ZM48.3098 23.1203C47.7728 22.5355 46.9423 22.3419 46.2929 22.8714C45.6435 23.4008 45.7226 24.199 46.2596 24.7817C46.7966 25.3665 47.625 25.5601 48.2765 25.0307C48.9259 24.5032 48.8448 23.7031 48.3098 23.1203ZM44.3739 32.3779C44.1824 32.1685 43.8806 32.0993 43.6495 32.291C43.4143 32.4846 43.4455 32.773 43.6412 32.9824C43.8348 33.1918 44.1345 33.261 44.3655 33.0713C44.6007 32.8777 44.5695 32.5893 44.3739 32.3779ZM51.7046 20.3169C51.0635 19.6235 50.1373 19.4437 49.3485 20.0423C48.5575 20.6429 48.6741 21.6208 49.3047 22.3044C49.9354 22.9879 50.9158 23.221 51.6755 22.5889C52.4352 21.9547 52.3457 21.0104 51.7046 20.3169ZM55.2618 17.5886C54.6124 16.7826 53.5071 16.6957 52.6433 17.3298C51.7796 17.966 51.5777 19.0012 52.3124 19.8131C53.0492 20.6271 54.2211 20.8523 55.064 20.1529C55.907 19.4536 55.9133 18.3947 55.2639 17.5867M41.4349 22.7153C41.1581 22.411 40.7251 22.3162 40.3796 22.5849C40.0362 22.8536 40.082 23.2724 40.3588 23.5766C40.6398 23.8809 41.0727 23.9816 41.4099 23.707C41.745 23.4324 41.7076 23.0195 41.4328 22.7153M59.1749 -17.8495C59.1041 -17.887 59.0187 -17.883 58.9688 -17.8159C58.923 -17.7487 58.9563 -17.6776 59.0271 -17.64C59.0978 -17.6025 59.1832 -17.6084 59.2331 -17.6756C59.2789 -17.7428 59.2456 -17.8119 59.1749 -17.8495ZM65.9624 -22.7766C66.4973 -22.4249 67.1405 -22.5197 67.513 -23.0334C67.8898 -23.5431 67.7732 -24.1575 67.2341 -24.5072C66.6971 -24.8588 66.0498 -24.7462 65.6751 -24.2405C65.3026 -23.7328 65.4274 -23.1282 65.9603 -22.7766M58.9563 -14.1077C58.6441 -14.3665 58.2403 -14.3665 57.9843 -14.0504C57.7262 -13.7383 57.8032 -13.3471 58.1112 -13.0982C58.4193 -12.8473 58.8314 -12.8354 59.0854 -13.1574C59.3372 -13.4755 59.2706 -13.8489 58.9563 -14.1077ZM61.581 -21.1783C61.4228 -21.2672 61.2188 -21.2652 61.1106 -21.1112C61.0003 -20.9551 61.0835 -20.7951 61.2438 -20.7081C61.402 -20.6192 61.6039 -20.6212 61.7142 -20.7753C61.8245 -20.9294 61.7392 -21.0914 61.581 -21.1783ZM64.7739 -19.5228C65.1361 -19.9791 65.0112 -20.5284 64.522 -20.8504C64.0329 -21.1744 63.4251 -21.1131 63.0609 -20.6528C62.6966 -20.1965 62.8215 -19.6453 63.3127 -19.3252C63.8019 -19.0052 64.4117 -19.0625 64.7739 -19.5228ZM61.964 -16.1682C62.2741 -16.5594 62.1783 -17.0177 61.7433 -17.2923C61.3104 -17.5669 60.8004 -17.4524 60.4945 -17.0572C60.1885 -16.6641 60.2738 -16.2156 60.7047 -15.9568C61.1335 -15.6961 61.6559 -15.779 61.964 -16.1682ZM83.4401 -43.0955C83.6711 -42.9137 83.9896 -42.8881 84.1998 -43.1152C84.4079 -43.3405 84.3309 -43.6249 84.0978 -43.8067C83.8668 -43.9865 83.5483 -44.0141 83.3381 -43.7869C83.13 -43.5598 83.207 -43.2772 83.4401 -43.0955ZM73.5929 -37.3149C73.7823 -37.5678 73.6699 -37.8444 73.4014 -37.9965C73.1308 -38.1506 72.7957 -38.1289 72.6063 -37.874C72.4169 -37.6211 72.5293 -37.3446 72.7978 -37.1944C73.0683 -37.0403 73.4035 -37.0601 73.5929 -37.3149ZM53.5425 3.27945C52.9805 2.7579 52.1646 2.80927 51.5881 3.25377C51.0136 3.70025 50.9407 4.39368 51.4611 4.90931C51.9815 5.42494 52.7807 5.45655 53.376 5.00414C53.9713 4.54976 54.1024 3.79903 53.5425 3.27945ZM69.507 -19.906C70.2647 -19.4121 71.1514 -19.6137 71.6571 -20.3268C72.165 -21.04 72.036 -21.9073 71.2762 -22.3992C70.5186 -22.8931 69.6319 -22.6916 69.1241 -21.9784C68.6183 -21.2652 68.7452 -20.3999 69.507 -19.906ZM66.1705 -27.844C65.8958 -27.9921 65.5544 -27.9822 65.3754 -27.7116C65.1964 -27.4429 65.3421 -27.1644 65.6148 -27.0142C65.8895 -26.866 66.2309 -26.8759 66.4099 -27.1446C66.591 -27.4133 66.4473 -27.6938 66.1705 -27.844ZM63.9038 -24.5032C63.6686 -24.6336 63.3689 -24.6277 63.2128 -24.3966C63.0567 -24.1634 63.1816 -23.9244 63.4189 -23.794C63.6562 -23.6656 63.9538 -23.6695 64.1099 -23.9027C64.2681 -24.1338 64.1411 -24.3748 63.9038 -24.5032ZM68.7223 -30.4853C68.9159 -30.7718 68.7723 -31.076 68.4747 -31.238C68.177 -31.4 67.8086 -31.3743 67.6129 -31.0879C67.4194 -30.7975 67.5609 -30.4972 67.8585 -30.3352C68.1583 -30.1732 68.5267 -30.1989 68.7223 -30.4853ZM71.1305 -33.8932C71.3387 -34.1777 71.2117 -34.4879 70.9099 -34.6538C70.6081 -34.8217 70.2335 -34.7901 70.0253 -34.5056C69.8172 -34.2212 69.9421 -33.911 70.2459 -33.747C70.5477 -33.5791 70.9224 -33.6087 71.1305 -33.8932ZM76.0052 -40.705C76.1572 -40.9164 76.0489 -41.1416 75.8325 -41.2661C75.6139 -41.3925 75.3371 -41.3827 75.1872 -41.1713C75.0374 -40.9619 75.1435 -40.7347 75.3621 -40.6102C75.5785 -40.4857 75.8554 -40.4956 76.0052 -40.705ZM64.4429 -6.8158C65.263 -6.16188 66.337 -6.37327 67.0239 -7.12399C67.7108 -7.87471 67.767 -8.93165 66.8886 -9.56186C66.0102 -10.1941 64.9758 -9.96686 64.2868 -9.21219C63.5979 -8.45751 63.6208 -7.47169 64.4409 -6.8158M67.4048 -10.1723C68.2832 -9.52235 69.3509 -9.81277 70.0087 -10.6228C70.6643 -11.4308 70.6601 -12.4482 69.7735 -13.1041C68.8868 -13.76 67.7711 -13.5328 67.1613 -12.6872C66.5493 -11.8397 66.5264 -10.8223 67.4048 -10.1723ZM41.1705 10.8657C41.0665 10.7551 40.9083 10.7156 40.7855 10.8203C40.6627 10.925 40.6814 11.0791 40.7855 11.1897C40.8896 11.3003 41.0477 11.3379 41.1726 11.2351C41.2954 11.1304 41.2746 10.9763 41.1705 10.8657ZM58.0717 -0.567013C58.8252 0.0809784 59.8159 -0.0257034 60.5111 -0.693451C61.2063 -1.3612 61.3208 -2.29368 60.5632 -2.95155C59.8055 -3.60942 58.7815 -3.4731 58.0759 -2.81128C57.3703 -2.15144 57.3182 -1.21698 58.0696 -0.568993M56.8249 -5.27484C56.3524 -5.65613 55.6947 -5.65218 55.2472 -5.23533C54.8018 -4.81848 54.858 -4.17444 55.3284 -3.78525C55.7967 -3.39408 56.4524 -3.43952 56.8874 -3.86427C57.3182 -4.28705 57.2995 -4.89157 56.8249 -5.27484ZM49.7835 6.09071C49.3568 5.67782 48.7282 5.63435 48.2682 5.99786C47.804 6.36532 47.7187 6.88688 48.1391 7.30768C48.5596 7.72848 49.1882 7.74033 49.6711 7.39065C50.1519 7.04295 50.2081 6.50559 49.7835 6.09071ZM45.9911 8.88815C45.7185 8.60366 45.3063 8.57996 44.9879 8.81308C44.6694 9.04619 44.6215 9.4097 44.89 9.69616C45.1606 9.98065 45.5748 10.0044 45.8912 9.77124C46.2076 9.53812 46.2596 9.17461 45.9911 8.88815ZM45.8954 4.02227C45.8496 3.97881 45.7788 3.96696 45.7289 4.01437C45.6789 4.05783 45.6872 4.12303 45.733 4.16846C45.7809 4.21391 45.8496 4.22379 45.9016 4.17835C45.9516 4.13291 45.9412 4.06771 45.8954 4.02227ZM55.4866 -8.03276C55.2972 -8.17698 55.0307 -8.21254 54.8601 -8.03078C54.6873 -7.84903 54.7539 -7.63764 54.9412 -7.5033C55.1286 -7.36896 55.3971 -7.33143 55.5761 -7.49936C55.7572 -7.66728 55.676 -7.89052 55.4845 -8.03276M53.4572 -2.09217C53.0992 -2.40234 52.6267 -2.37666 52.2874 -2.06253C51.9502 -1.74842 51.9294 -1.31576 52.2749 -1.0056C52.6205 -0.695427 53.0929 -0.723087 53.4405 -1.02733C53.7881 -1.33157 53.8173 -1.78003 53.4572 -2.09217ZM52.431 -5.25113C52.3811 -5.28867 52.3103 -5.29262 52.2604 -5.24916C52.2104 -5.20569 52.225 -5.14643 52.2749 -5.10889C52.3249 -5.07135 52.3977 -5.0674 52.4477 -5.11087C52.4956 -5.15433 52.481 -5.2136 52.431 -5.25113ZM63.3419 -9.95896C63.9184 -10.5773 63.781 -11.3873 63.1025 -11.8871C62.424 -12.3889 61.5498 -12.3494 61.0211 -11.7074C60.4924 -11.0673 60.5902 -10.3521 61.2396 -9.84438C61.8869 -9.33467 62.7653 -9.3406 63.3419 -9.95896ZM60.1948 -6.94026C60.7005 -7.49145 60.6339 -8.1671 60.0553 -8.62939C59.4746 -9.09365 58.6878 -9.09167 58.1633 -8.55629C57.6388 -8.02091 57.7262 -7.27414 58.3131 -6.80592C58.9043 -6.33968 59.6869 -6.39105 60.1948 -6.94026ZM49.8855 0.942333C49.669 0.754654 49.3797 0.760578 49.1715 0.948261C48.9655 1.13989 48.9488 1.36314 49.157 1.55082C49.3651 1.73455 49.6607 1.71084 49.8667 1.53501C50.0749 1.35721 50.1061 1.13199 49.8875 0.944309M66.8345 -16.3974C67.5567 -15.9213 68.4642 -16.0497 69.0117 -16.7135C69.5612 -17.3773 69.3801 -18.2307 68.6516 -18.7088C67.921 -19.1889 67.0093 -19.0723 66.4765 -18.3908C65.9436 -17.7112 66.1122 -16.8735 66.8345 -16.3974ZM45.0691 19.8843C44.6403 19.4022 43.9638 19.2857 43.4247 19.6946C42.8836 20.1016 42.9002 20.7436 43.3415 21.2277C43.7807 21.7117 44.453 21.8421 44.9775 21.4193C45.502 20.9985 45.4999 20.3683 45.0711 19.8843M137.193 10.9447C136.856 10.0676 136.023 9.47095 135.043 9.82655C134.064 10.1802 133.848 11.162 134.187 12.0392C134.529 12.9164 135.357 13.513 136.337 13.1594C137.316 12.8057 137.53 11.8219 137.193 10.9447ZM133.877 17.077C133.804 16.8853 133.625 16.753 133.413 16.832C133.199 16.909 133.153 17.1264 133.226 17.316C133.298 17.5076 133.477 17.636 133.692 17.559C133.904 17.4819 133.952 17.2666 133.877 17.077ZM138.015 15.5755C137.867 15.1942 137.507 14.9315 137.08 15.0875C136.654 15.2436 136.558 15.6703 136.708 16.0556C136.854 16.4369 137.214 16.6976 137.64 16.5435C138.067 16.3875 138.163 15.9608 138.017 15.5755M150.141 11.1443C149.865 10.4331 149.188 9.95299 148.395 10.2414C147.602 10.5318 147.421 11.326 147.696 12.0372C147.973 12.7504 148.649 13.2305 149.442 12.9421C150.235 12.6516 150.414 11.8575 150.141 11.1443ZM146.158 12.6042C145.91 11.9641 145.302 11.5315 144.588 11.7923C143.874 12.053 143.714 12.7682 143.96 13.4083C144.207 14.0484 144.815 14.481 145.529 14.2203C146.243 13.9595 146.403 13.2443 146.158 12.6042ZM142.105 14.0859C141.901 13.5624 141.401 13.2028 140.817 13.4162C140.23 13.6276 140.098 14.2163 140.302 14.7418C140.506 15.2653 141.004 15.6249 141.591 15.4115C142.178 15.2001 142.309 14.6114 142.105 14.0859ZM117.582 18.4954C117.513 18.3354 117.363 18.2228 117.186 18.2979C117.007 18.3729 116.976 18.5606 117.04 18.7206C117.105 18.8807 117.257 18.9874 117.436 18.9143C117.615 18.8431 117.65 18.6535 117.582 18.4954ZM133.23 12.3889C132.92 11.5947 132.166 11.0297 131.271 11.3576C130.374 11.6856 130.21 12.5864 130.518 13.3806C130.828 14.1748 131.569 14.7398 132.464 14.4139C133.359 14.0879 133.54 13.187 133.228 12.3889M154.096 9.69814C153.798 8.93161 153.072 8.41401 152.217 8.72615C151.363 9.03829 151.17 9.89175 151.465 10.6583C151.763 11.4268 152.489 11.9424 153.345 11.6303C154.198 11.3201 154.392 10.4647 154.096 9.69814ZM120.668 12.2605C120.296 11.3557 119.415 10.7393 118.404 11.1364C117.39 11.5315 117.205 12.5687 117.584 13.4695C117.963 14.3724 118.837 14.9927 119.848 14.5956C120.86 14.2005 121.043 13.1653 120.668 12.2605ZM129.285 13.835C129.027 13.1613 128.397 12.6615 127.639 12.9519C126.881 13.2423 126.746 14.0168 127.004 14.6924C127.26 15.3681 127.889 15.8501 128.646 15.5696C129.406 15.291 129.544 14.5107 129.285 13.835ZM125.383 15.3305C125.179 14.7912 124.683 14.4079 124.082 14.6411C123.48 14.8742 123.372 15.4985 123.576 16.0358C123.78 16.5752 124.276 16.9584 124.877 16.7253C125.479 16.4922 125.587 15.8699 125.383 15.3305ZM121.451 16.8695C121.309 16.5001 120.966 16.2354 120.556 16.3954C120.142 16.5554 120.067 16.9782 120.206 17.3476C120.346 17.719 120.691 17.9778 121.101 17.8178C121.513 17.6578 121.593 17.239 121.451 16.8695ZM124.496 10.759C124.111 9.76926 123.154 9.09163 122.055 9.52231C120.954 9.95101 120.76 11.087 121.158 12.0629C121.555 13.0408 122.473 13.7402 123.576 13.3154C124.677 12.8887 124.885 11.7508 124.498 10.761M186.115 2.90014C185.94 2.45168 185.515 2.14942 185.014 2.33117C184.514 2.51293 184.402 3.01275 184.574 3.46121C184.749 3.90967 185.174 4.21391 185.675 4.03215C186.175 3.8504 186.289 3.3486 186.115 2.90014ZM189.478 2.46946C189.892 2.32129 189.986 1.90444 189.842 1.53303C189.699 1.16162 189.345 0.912701 188.933 1.06285C188.521 1.21299 188.427 1.62786 188.571 1.99927C188.714 2.37068 189.066 2.61961 189.478 2.46946ZM175.897 11.573C175.793 11.3023 175.539 11.1225 175.239 11.2312C174.939 11.3398 174.871 11.6401 174.975 11.9108C175.081 12.1795 175.335 12.3612 175.635 12.2526C175.934 12.1419 176.003 11.8417 175.897 11.573ZM183.733 8.70244C183.602 8.36659 183.284 8.1394 182.911 8.27571C182.539 8.41203 182.453 8.78542 182.582 9.12127C182.714 9.45712 183.032 9.68431 183.405 9.54799C183.777 9.41168 183.862 9.03632 183.733 8.70244ZM189.124 7.73638C188.991 7.39658 188.666 7.17531 188.29 7.30768C187.913 7.44004 187.817 7.8075 187.946 8.14532C188.077 8.48513 188.404 8.70639 188.779 8.57403C189.158 8.44364 189.253 8.0742 189.124 7.73638ZM182.385 4.26527C182.181 3.73779 181.681 3.38218 181.096 3.59555C180.509 3.81089 180.376 4.39961 180.58 4.92512C180.784 5.45063 181.284 5.80623 181.871 5.59287C182.458 5.37951 182.591 4.79078 182.385 4.26527ZM157.986 8.27374C157.684 7.48943 156.941 6.95997 156.065 7.28002C155.193 7.59809 154.993 8.47327 155.299 9.25758C155.601 10.0419 156.344 10.5713 157.22 10.2513C158.092 9.93323 158.292 9.05607 157.986 8.27374ZM50.7472 39.5038C50.716 39.4702 50.6681 39.4604 50.6306 39.492C50.5931 39.5236 50.5973 39.569 50.6306 39.6046C50.6618 39.6382 50.7097 39.648 50.7472 39.6164C50.7846 39.5848 50.7784 39.5394 50.7472 39.5038ZM159.066 12.8057C158.896 12.3691 158.484 12.0728 157.995 12.2526C157.508 12.4304 157.397 12.9183 157.568 13.3569C157.736 13.7935 158.151 14.0879 158.638 13.9101C159.127 13.7323 159.235 13.2423 159.066 12.8057ZM163.061 11.3438C162.861 10.8282 162.374 10.4824 161.801 10.6919C161.227 10.9013 161.096 11.4742 161.296 11.9898C161.496 12.5035 161.983 12.8512 162.557 12.6418C163.132 12.4324 163.261 11.8575 163.061 11.3438ZM155.01 14.2914C154.883 13.9674 154.577 13.7501 154.217 13.8824C153.857 14.0148 153.776 14.3763 153.9 14.6984C154.027 15.0223 154.331 15.2397 154.691 15.1073C155.051 14.9749 155.133 14.6134 155.01 14.2914ZM170.895 8.47525C170.673 7.89443 170.121 7.50326 169.474 7.73835C168.826 7.97543 168.678 8.62144 168.903 9.20227C169.128 9.78309 169.68 10.1762 170.327 9.93916C170.974 9.70407 171.12 9.05607 170.895 8.47525ZM174.756 7.06073C174.534 6.47991 173.98 6.08676 173.335 6.32383C172.687 6.5609 172.54 7.20692 172.764 7.78774C172.989 8.36857 173.541 8.75974 174.188 8.52464C174.835 8.28757 174.981 7.64155 174.756 7.06073ZM166.995 9.90359C166.778 9.34846 166.249 8.9731 165.631 9.19832C165.011 9.42551 164.869 10.0458 165.086 10.601C165.3 11.1561 165.829 11.5354 166.449 11.3082C167.07 11.0811 167.209 10.4607 166.995 9.90359ZM178.596 5.65213C178.376 5.08316 177.837 4.6999 177.204 4.93302C176.569 5.16416 176.426 5.79635 176.644 6.36532C176.865 6.93429 177.404 7.31756 178.039 7.08641C178.673 6.85527 178.815 6.21913 178.596 5.65213ZM179.85 10.1229C179.727 9.79889 179.419 9.58158 179.059 9.71394C178.698 9.84631 178.617 10.2078 178.742 10.5299C178.865 10.8539 179.173 11.0712 179.533 10.9388C179.893 10.8084 179.974 10.4449 179.85 10.1229ZM66.4515 32.3562C67.0572 31.722 67.0988 30.7954 66.5077 30.1395C65.9145 29.4817 65.0528 29.5172 64.4492 30.1494C63.8456 30.7816 63.7914 31.7082 64.3909 32.3542C64.9945 33.0022 65.8437 32.9923 66.4515 32.3562ZM75.4537 26.5874C76.1301 27.4448 77.1042 27.4211 77.8182 26.6111C78.5342 25.8012 78.6715 24.5921 77.9909 23.7209C77.3103 22.8496 76.3279 22.9286 75.6056 23.7288C74.8813 24.5309 74.7772 25.732 75.4537 26.5874ZM85.7359 20.8938C85.1385 20.0384 84.1956 19.9574 83.4547 20.7199C82.7157 21.4805 82.6908 22.6659 83.2923 23.5075C83.8938 24.3491 84.7972 24.4222 85.5048 23.6576C86.2125 22.8911 86.3312 21.7512 85.7338 20.8918M63.3544 35.203C63.8414 34.717 63.8248 33.988 63.3606 33.4961C62.8964 33.0061 62.2554 33.0002 61.7662 33.4684C61.275 33.9346 61.2937 34.6439 61.7496 35.1338C62.2054 35.6277 62.8694 35.689 63.3544 35.203ZM74.9458 29.4896C75.5785 28.7843 75.6306 27.7886 75.0436 27.0418C74.4587 26.297 73.5533 26.3069 72.9102 26.9964C72.267 27.6839 72.2316 28.6914 72.8248 29.4184C73.4201 30.1435 74.3151 30.1949 74.9458 29.4896ZM57.16 40.2348C57.0955 40.1676 56.9977 40.1439 56.9248 40.2071C56.8478 40.2704 56.8603 40.3652 56.9248 40.4324C56.9873 40.5015 57.083 40.5232 57.16 40.46C57.235 40.3968 57.2225 40.302 57.16 40.2348ZM71.9007 32.2317C72.4252 31.6904 72.4751 30.8903 71.9735 30.3173C71.474 29.7425 70.7309 29.7642 70.2126 30.3134C69.6964 30.8626 69.6652 31.6509 70.1731 32.2159C70.681 32.7809 71.3762 32.773 71.9007 32.2317ZM60.0324 36.7222C59.7577 36.4219 59.3476 36.3626 59.0375 36.6471C58.7294 36.9296 58.7523 37.3406 59.0271 37.6389C59.3018 37.9392 59.7098 37.9984 60.0199 37.714C60.3321 37.4334 60.3051 37.0205 60.0324 36.7222ZM57.3578 33.1247C56.8999 32.6268 56.2151 32.5379 55.701 33.0101C55.1889 33.4822 55.2285 34.1717 55.6885 34.6676C56.1464 35.1654 56.8291 35.2563 57.3432 34.7841C57.8552 34.312 57.8157 33.6225 57.3578 33.1247ZM53.9442 36.2145C53.6591 35.9043 53.2261 35.8174 52.8827 36.0979C52.5393 36.3745 52.5767 36.8032 52.8577 37.1134C53.1387 37.4255 53.5821 37.5263 53.9213 37.2418C54.2585 36.9573 54.2294 36.5266 53.9442 36.2164M60.7172 30.1178C60.1094 29.4698 59.2019 29.3315 58.5046 29.9361C57.8053 30.5406 57.8677 31.4494 58.4734 32.1013C59.0791 32.7513 59.997 32.8698 60.6756 32.2574C61.3541 31.6449 61.325 30.7678 60.7172 30.1198M63.96 26.9371C63.1878 26.1686 62.1263 26.2634 61.3791 27.0142C60.6319 27.7669 60.6048 28.8001 61.3458 29.5706C62.0888 30.343 63.1608 30.3134 63.8976 29.5469C64.6344 28.7803 64.7302 27.7036 63.96 26.9351M93.306 18.8708C92.8398 18.1043 92.0114 17.798 91.3141 18.4599C90.6189 19.1237 90.6085 20.2023 91.0685 20.9827C91.5306 21.765 92.3257 21.9744 93.0396 21.3462C93.7514 20.716 93.7702 19.6393 93.3039 18.8708M69.5279 29.5271C70.2439 28.7705 70.3334 27.6582 69.6278 26.8699C68.9222 26.0817 67.9272 26.133 67.2071 26.8838C66.4869 27.6365 66.4099 28.7171 67.1051 29.5093C67.8003 30.3015 68.8098 30.2838 69.5279 29.5251M90.3879 21.7196C89.9945 21.0597 89.3263 20.9392 88.7664 21.4964C88.2065 22.0535 88.1399 22.9365 88.5354 23.5964C88.9267 24.2543 89.6032 24.3847 90.1568 23.8236C90.7146 23.2586 90.7833 22.3794 90.3879 21.7196ZM94.763 23.0669C94.5819 22.7607 94.2614 22.6619 93.9783 22.9089C93.6952 23.1558 93.689 23.5608 93.8638 23.869C94.0408 24.1772 94.3592 24.276 94.6444 24.029C94.9295 23.7841 94.9462 23.3732 94.763 23.0669ZM104.881 15.3542C104.427 14.4968 103.49 14.1215 102.616 14.6806C101.738 15.2416 101.544 16.2452 102.029 17.0987C102.514 17.9541 103.42 18.2465 104.308 17.7368C105.197 17.2271 105.337 16.2116 104.883 15.3542M68.8077 33.6739C68.4746 33.2946 67.9876 33.2867 67.6379 33.6521C67.2882 34.0176 67.2695 34.5471 67.6046 34.9264C67.9397 35.3057 68.4226 35.3057 68.7765 34.9422C69.1282 34.5807 69.1407 34.0532 68.8077 33.6739ZM108.594 13.2522C108.14 12.2605 107.098 11.814 106.082 12.377C105.062 12.9401 104.918 14.1057 105.397 15.0559C105.874 16.0082 106.806 16.5356 107.826 15.9687C108.842 15.3997 109.048 14.242 108.596 13.2522M116.834 13.8133C116.516 13.0428 115.785 12.4383 114.928 12.8591C114.068 13.2779 113.977 14.2617 114.301 15.0401C114.624 15.8205 115.338 16.2867 116.187 15.9074C117.034 15.5301 117.153 14.5818 116.834 13.8133ZM117.294 6.27049C117.746 5.85167 117.94 5.27678 117.927 4.66632C118.346 5.10885 118.891 5.38345 119.511 5.3716C119.02 5.82203 118.837 6.45818 118.908 7.12395C118.502 6.61622 117.94 6.28432 117.294 6.27247M113.675 7.91418C114.11 7.444 114.295 6.83749 114.276 6.20728C114.676 6.61819 115.186 6.87107 115.771 6.86712C115.29 7.34521 115.142 8.01889 115.25 8.70442C114.867 8.17101 114.316 7.83714 113.675 7.91418ZM110.161 9.99448C110.688 9.51441 110.911 8.88222 110.879 8.21052C111.312 8.5602 111.839 8.72022 112.411 8.61552C111.827 9.305 111.785 10.2928 112.105 11.1561C111.745 10.3086 111.017 9.80285 110.161 9.99448ZM115.698 1.87876C116.068 1.46389 116.222 0.940357 116.16 0.39312C116.589 0.788239 117.109 1.05692 117.684 1.0747C117.263 1.48167 117.084 2.03088 117.099 2.61566C116.722 2.20671 116.245 1.92617 115.7 1.87679M112.12 3.53826C112.422 3.11943 112.559 2.62751 112.543 2.10793C112.907 2.426 113.342 2.62949 113.827 2.66109C113.502 3.06214 113.371 3.56591 113.39 4.09142C113.036 3.7536 112.603 3.55011 112.12 3.53826ZM108.559 5.60669C108.836 5.20763 108.967 4.75719 108.927 4.29293C109.329 4.50234 109.762 4.611 110.207 4.59322C109.924 5.02983 109.801 5.5415 109.822 6.06108C109.456 5.77462 109.023 5.6146 108.559 5.60669ZM104.681 7.79169C104.929 7.40053 105.033 6.96985 104.987 6.52732C105.432 6.73673 105.924 6.83353 106.421 6.79797C106.171 7.21877 106.088 7.69489 106.148 8.18879C105.718 7.89838 105.206 7.76008 104.681 7.79169ZM100.982 10.2394C101.238 9.82063 101.342 9.34846 101.284 8.87629C101.717 9.06002 102.187 9.12127 102.664 9.0541C102.414 9.51638 102.339 10.034 102.45 10.5516C102.013 10.2671 101.501 10.1644 100.982 10.2394ZM97.5375 12.7267C97.8248 12.2625 97.908 11.729 97.8206 11.1976C98.2473 11.4209 98.7219 11.5098 99.2089 11.4347C98.9113 11.974 98.8822 12.6003 99.0965 13.2107C98.6615 12.7939 98.1079 12.5924 97.5375 12.7267ZM109.695 -0.231167C109.907 -0.604549 109.924 -1.00954 109.756 -1.41849C110.324 -1.20315 110.938 -1.11425 111.541 -1.17945C111.292 -0.819889 111.277 -0.39909 111.379 0.049366C110.888 -0.213387 110.293 -0.29636 109.695 -0.231167ZM105.676 1.98742C105.857 1.63379 105.894 1.25447 105.778 0.879112C106.329 1.04111 106.914 1.08458 107.485 1.00753C107.264 1.37894 107.185 1.79381 107.245 2.21461C106.752 2.01113 106.213 1.93605 105.676 1.98742ZM86.7308 17.2528C86.9951 16.7293 87.0867 16.1346 87.0056 15.5518C87.3781 15.7296 87.7902 15.7553 88.192 15.613C87.988 16.2314 88.0234 16.913 88.2981 17.5096C87.8256 17.1105 87.2637 17.0137 86.7308 17.2528ZM90.8291 12.8532C90.6626 13.3253 90.648 13.837 90.7709 14.3348C90.4108 14.1057 90.007 14.0365 89.6032 14.1452C89.7718 13.6987 89.8217 13.2167 89.7551 12.7465C90.0965 12.8907 90.4586 12.9243 90.827 12.8532M93.6078 10.3284C93.4767 10.7314 93.4663 11.162 93.5516 11.5888C93.2332 11.409 92.8856 11.3359 92.5276 11.3833C92.667 11.004 92.7107 10.599 92.6504 10.196C92.9563 10.3264 93.281 10.3698 93.6057 10.3284M96.4386 8.02086C96.3053 8.35671 96.2679 8.71824 96.3282 9.08175C96.0035 8.9158 95.6539 8.84864 95.3 8.88222C95.4145 8.52859 95.4416 8.15125 95.377 7.77589C95.7059 7.94382 96.066 8.02679 96.4386 8.01889M105.949 -3.16689C106.346 -3.69042 106.377 -4.32063 106.015 -4.95282C106.725 -4.43126 107.649 -4.35224 108.511 -4.58141C107.997 -4.12505 107.828 -3.54028 108.026 -2.96538C107.374 -3.21825 106.646 -3.28938 105.949 -3.16689ZM78.8818 19.9554C79.1315 19.424 79.2252 18.8372 79.1315 18.2663C79.5124 18.4026 79.9162 18.3769 80.3096 18.2208C80.1285 18.8036 80.1535 19.4338 80.395 19.9969C79.9162 19.7005 79.373 19.6946 78.8818 19.9554ZM70.4353 23.3613C70.8579 22.7667 71.014 22.0535 70.8267 21.3897C71.3283 21.6248 71.8778 21.609 72.3794 21.3798C72.113 22.0219 72.0942 22.7311 72.4377 23.3534C71.8299 22.8911 71.0827 22.9346 70.4353 23.3613ZM75.0436 18.4045C74.8896 18.8984 74.8646 19.4141 75.0124 19.902C74.5836 19.7203 74.1278 19.744 73.6969 19.9435C73.8988 19.4635 73.9571 18.9459 73.8697 18.4421C74.2527 18.5764 74.6523 18.5567 75.0436 18.4045ZM76.9044 15.1488C77.2187 15.2456 77.5413 15.2476 77.8619 15.1448C77.7328 15.5775 77.7078 16.0299 77.7828 16.4705C77.4477 16.3598 77.0959 16.3697 76.7504 16.4942C76.9023 16.0576 76.9606 15.5992 76.9044 15.1488ZM79.7913 11.9918C80.0932 12.0945 80.4054 12.1123 80.7155 12.0313C80.6156 12.4106 80.5969 12.8057 80.6468 13.191C80.3325 13.0843 80.0057 13.0744 79.681 13.1613C79.7976 12.782 79.8371 12.3849 79.7913 11.9898M82.5992 8.9158C82.8823 9.00668 83.1799 9.01261 83.4775 8.93556C83.3922 9.305 83.3818 9.68628 83.4359 10.0597C83.1404 9.95892 82.8281 9.94509 82.518 10.0261C82.6138 9.66258 82.6387 9.28919 82.5992 8.9158ZM68.1832 20.0621C68.4538 19.5583 68.5371 19.0051 68.3956 18.4757C68.8493 18.6515 69.328 18.6337 69.7839 18.448C69.5799 18.9597 69.5195 19.503 69.6673 20.0186C69.1927 19.8092 68.6745 19.8408 68.1832 20.0601M71.6093 15.3345C71.959 15.455 72.3253 15.455 72.6812 15.3345C72.5293 15.783 72.4772 16.2551 72.548 16.7095C72.1775 16.589 71.7841 16.6107 71.4011 16.7569C71.5926 16.3005 71.6738 15.8126 71.6093 15.3345ZM74.669 12.0293C74.9749 12.1222 75.2871 12.1163 75.5973 12.0076C75.4703 12.4146 75.4328 12.8354 75.487 13.2502C75.1685 13.1554 74.8396 13.1594 74.517 13.272C74.6544 12.867 74.7064 12.4462 74.669 12.0293ZM77.5684 8.74195C77.8535 8.84271 78.1512 8.85456 78.4488 8.77554C78.3302 9.15683 78.2865 9.55194 78.3219 9.94113C78.0242 9.8384 77.7141 9.8305 77.4081 9.92138C77.5372 9.53811 77.5913 9.13707 77.5663 8.73998M61.7017 20.5263C62.2345 19.8586 62.4552 19.0644 62.0993 18.3492C62.707 18.7266 63.4147 18.7305 64.0599 18.4539C63.7311 19.0525 63.6603 19.7223 63.96 20.3327C63.2399 19.9455 62.3802 20.0324 61.7017 20.5263ZM70.3937 12.1973C70.2376 12.6477 70.1814 13.1238 70.2522 13.5861C69.8484 13.4616 69.4155 13.4972 68.995 13.6592C69.1927 13.193 69.2698 12.701 69.1844 12.221C69.5778 12.3514 69.992 12.3375 70.3937 12.1973ZM72.3981 8.92173C72.7541 9.02644 73.1225 9.02051 73.4805 8.9C73.341 9.3129 73.289 9.74555 73.3327 10.1683C72.9913 10.0636 72.6312 10.0715 72.2816 10.194C72.421 9.77914 72.4647 9.34451 72.3981 8.91976M75.4995 5.54348C75.8137 5.64028 76.1384 5.63831 76.459 5.52965C76.3112 5.94255 76.2467 6.3752 76.2717 6.79797C75.974 6.70314 75.6597 6.70512 75.3496 6.80785C75.4911 6.39495 75.5432 5.9623 75.4995 5.54348ZM78.4925 2.16325C78.8027 2.28376 79.1274 2.28573 79.4479 2.16917C79.3001 2.5959 79.2356 3.04041 79.2647 3.47899C78.965 3.37428 78.6486 3.37033 78.3344 3.47306C78.48 3.05029 78.5362 2.6038 78.4925 2.16325ZM62.8423 14.1946C63.1962 13.6058 63.3169 12.9401 63.0942 12.3099C63.6291 12.5944 64.2306 12.5667 64.7884 12.3197C64.5116 12.865 64.3867 13.4616 64.5262 14.0286C63.9871 13.833 63.3897 13.92 62.8423 14.1926M68.0188 9.05212C67.8065 9.54206 67.7212 10.0695 67.8148 10.5773C67.3548 10.439 66.8636 10.5042 66.3995 10.7195C66.6451 10.2059 66.7367 9.64677 66.5868 9.12324C67.051 9.30697 67.5505 9.25758 68.0167 9.05212M69.8734 5.83191C70.2959 5.98008 70.7455 5.93464 71.1743 5.76079C70.9828 6.2132 70.8953 6.6913 70.9557 7.16149C70.5373 7.0469 70.1023 7.10419 69.6819 7.29385C69.8879 6.81971 69.9774 6.31396 69.8713 5.83191M73.1703 2.39241C73.5637 2.53466 73.98 2.50107 74.3755 2.33315C74.1902 2.79346 74.1007 3.2755 74.1507 3.74767C73.7698 3.64296 73.3681 3.69038 72.9788 3.86028C73.1724 3.38614 73.2619 2.87643 73.1703 2.39241ZM76.2467 -1.16562C76.6692 -0.989792 77.1188 -1.03918 77.5434 -1.24464C77.3353 -0.740868 77.2374 -0.197582 77.2895 0.329903C76.9065 0.191608 76.4923 0.231121 76.0885 0.404976C76.2904 -0.106705 76.3695 -0.64999 76.2446 -1.16562M63.5937 8.03469C64.0266 7.36299 64.1307 6.56288 63.7415 5.86353C64.3555 6.28235 65.0944 6.26457 65.7542 5.9386C65.4108 6.5293 65.2672 7.21877 65.4524 7.84899C64.8551 7.60006 64.1932 7.70279 63.5937 8.03271M69.0366 2.68875C68.7348 3.24192 68.5746 3.86621 68.7015 4.45098C68.177 4.26725 67.6046 4.37591 67.0801 4.66039C67.4235 4.04006 67.5089 3.33082 67.2008 2.69666C67.7795 3.03251 68.4413 2.99102 69.0366 2.68875ZM70.4645 -0.663818C71.041 -0.343773 71.6759 -0.422798 72.242 -0.760624C71.9777 -0.213387 71.857 0.389172 71.9818 0.958138C71.4761 0.800091 70.9203 0.942333 70.4208 1.23669C70.7101 0.624264 70.7663 -0.0553398 70.4645 -0.663818ZM73.5866 -4.28902C74.2027 -3.93539 74.8771 -4.07764 75.4578 -4.48263C75.1394 -3.8623 74.9978 -3.14911 75.1664 -2.49519C74.6377 -2.71053 74.0654 -2.58409 73.5533 -2.25812C73.8635 -2.92191 73.9405 -3.65486 73.5866 -4.28902ZM76.4153 -8.14537C77.15 -7.49145 78.018 -7.60208 78.7381 -8.13944C78.3031 -7.47169 78.1033 -6.65578 78.3177 -5.91098C77.7661 -6.2172 77.1126 -6.11051 76.5506 -5.74305C76.9585 -6.52539 77.0501 -7.43613 76.4153 -8.14537ZM80.2992 -2.98513C79.9017 -3.18862 79.4521 -3.16096 79.0233 -2.95945C79.2585 -3.53435 79.3376 -4.15666 79.1773 -4.74143C79.6352 -4.46288 80.1493 -4.46485 80.6406 -4.696C80.3762 -4.15863 80.2493 -3.56398 80.2971 -2.98711M83.9292 -8.18686C83.5213 -7.54282 83.3277 -6.77036 83.413 -6.03939C82.9967 -6.34561 82.4972 -6.35746 82.0101 -6.13027C82.339 -6.81185 82.4472 -7.60011 82.1746 -8.29749C82.697 -7.8273 83.3318 -7.81149 83.9313 -8.18883M88.5521 -7.21289C88.1295 -6.63404 87.9609 -5.88332 87.9901 -5.16816C87.655 -5.51389 87.2324 -5.68181 86.7766 -5.57118C87.1034 -6.22115 87.2033 -6.9857 87.0513 -7.71272C87.4281 -7.17733 87.9568 -6.96199 88.5521 -7.21289ZM83.9979 -2.78757C84.2081 -3.30518 84.2976 -3.87217 84.2269 -4.42731C84.5682 -4.17049 84.9637 -4.11517 85.3716 -4.24754C85.1302 -3.74376 85.0407 -3.18269 85.074 -2.62953C84.7493 -2.84289 84.3788 -2.89426 83.9979 -2.78757ZM82.1579 0.304218C81.8395 0.15012 81.5002 0.134319 81.1547 0.246925C81.3212 -0.215363 81.3857 -0.705307 81.3358 -1.18735C81.6584 -1.01152 82.0101 -0.977936 82.3681 -1.08264C82.1996 -0.638134 82.1267 -0.163998 82.1579 0.304218ZM92.6566 -5.18199C92.257 -4.69994 92.1175 -4.05788 92.1487 -3.41976C91.8657 -3.73783 91.5181 -3.94329 91.1247 -3.91761C91.4036 -4.49053 91.4723 -5.17211 91.4119 -5.81417C91.695 -5.33608 92.1154 -5.06345 92.6566 -5.18199ZM88.7581 -3.16689C89.0329 -2.89623 89.3596 -2.75201 89.7239 -2.78955C89.5241 -2.36875 89.4575 -1.89856 89.4887 -1.4264C89.2035 -1.63186 88.8809 -1.73064 88.5396 -1.70298C88.7269 -2.15736 88.7914 -2.66311 88.756 -3.16689M86.9306 -0.29636C86.7808 0.0948067 86.7121 0.515606 86.7371 0.934429C86.4727 0.800091 86.1876 0.76453 85.8962 0.817871C86.0356 0.399048 86.0939 -0.0454597 86.0689 -0.493919C86.327 -0.320068 86.6205 -0.254871 86.9306 -0.29636ZM84.0499 3.74767C83.7773 3.62123 83.4859 3.58567 83.1924 3.64296C83.3235 3.26365 83.3818 2.86458 83.3651 2.46551C83.6295 2.59787 83.9126 2.63739 84.2019 2.58207C84.0812 2.95941 84.027 3.35453 84.0499 3.74569M67.0926 17.0513C66.5826 16.8695 66.0248 16.915 65.5065 17.1402C65.7959 16.6245 65.9062 16.0437 65.7813 15.4886C66.2496 15.6763 66.7512 15.6387 67.23 15.455C67.0177 15.9726 66.9469 16.5297 67.0947 17.0513M81.2046 6.76834C80.9382 6.67154 80.6551 6.65574 80.37 6.72093C80.5032 6.33569 80.5615 5.92871 80.5448 5.52767C80.8092 5.62447 81.086 5.64028 81.3649 5.56916C81.2379 5.96032 81.1859 6.36729 81.2067 6.76834M93.9908 -0.87323C93.8368 -0.54726 93.8201 -0.181778 93.893 0.18766C93.5995 0.00985718 93.2873 -0.106701 92.9688 -0.106701C93.0854 -0.474163 93.1 -0.871254 93.0396 -1.26835C93.3143 -1.02733 93.6411 -0.885086 93.9908 -0.87323ZM86.2313 6.05516C86.1293 6.40286 86.0939 6.76834 86.1251 7.13185C85.8545 7.00936 85.5652 6.97182 85.2738 7.02121C85.3696 6.67944 85.4049 6.32186 85.3758 5.96625C85.6485 6.08281 85.9378 6.10849 86.2313 6.05713M90.6272 0.873188C90.8728 1.03716 91.1476 1.11816 91.4327 1.11421C91.3162 1.45203 91.2808 1.81752 91.3287 2.18103C91.0706 2.03483 90.7979 1.95779 90.5148 1.96767C90.6251 1.61996 90.6626 1.24855 90.6272 0.873188ZM88.8497 3.39799C88.7435 3.74372 88.7082 4.11117 88.7519 4.48258C88.4979 4.3522 88.2253 4.30478 87.9505 4.33639C88.0504 3.97881 88.0837 3.60543 88.0463 3.23204C88.2981 3.3644 88.5708 3.41972 88.8518 3.39799M96.7071 -2.67299C96.4219 -2.28775 96.372 -1.8788 96.501 -1.47183C96.1451 -1.67137 95.7746 -1.80373 95.3958 -1.78991C95.5644 -2.21861 95.5352 -2.71843 95.4436 -3.2064C95.7579 -2.8014 96.1867 -2.59002 96.705 -2.67299M93.7972 4.60902C93.6952 4.91919 93.6828 5.25109 93.7514 5.58694C93.4621 5.45458 93.1541 5.39531 92.8439 5.41902C92.9314 5.08514 92.9501 4.73744 92.8876 4.39368C93.1749 4.53395 93.4829 4.60705 93.7972 4.60902ZM96.6779 2.61368C96.5655 2.91002 96.5551 3.22019 96.6301 3.53233C96.3033 3.39799 95.964 3.33082 95.6247 3.3407C95.7101 3.02855 95.7101 2.69271 95.631 2.36278C95.9598 2.52676 96.3158 2.61171 96.6779 2.61171M99.8459 0.454365C99.7022 0.78231 99.6897 1.12211 99.8105 1.45994C99.3817 1.33745 98.9383 1.30584 98.5096 1.36313C98.5908 1.01345 98.5241 0.647972 98.3556 0.302242C98.828 0.468193 99.3442 0.525482 99.8479 0.456337M101.877 -0.89299C102.079 -1.29601 102.1 -1.72076 101.915 -2.14354C102.566 -1.93017 103.28 -1.92424 103.959 -2.07241C103.665 -1.67927 103.586 -1.24266 103.728 -0.804085C103.126 -0.973984 102.485 -1.00955 101.877 -0.894962M83.1279 15.2278C82.9884 15.6881 82.9593 16.1741 83.0509 16.6423C82.6949 16.4586 82.3078 16.427 81.9206 16.5376C82.0934 16.1109 82.1662 15.6585 82.1225 15.21C82.4493 15.3266 82.7907 15.3305 83.1279 15.2298M85.74 12.2743C85.6339 12.6793 85.6193 13.1021 85.6839 13.5209C85.3904 13.3885 85.0761 13.3609 84.7639 13.4379C84.8867 13.0389 84.9345 12.622 84.8908 12.2091C85.1635 12.3217 85.4507 12.3395 85.74 12.2763M90.1901 6.77032C90.4732 6.90861 90.7813 6.9659 91.0914 6.94022C90.9956 7.27804 90.9748 7.6297 91.031 7.98333C90.7334 7.84701 90.4191 7.79367 90.1048 7.82923C90.2047 7.48548 90.2338 7.1279 90.188 6.77032M88.3314 9.4986C88.2274 9.85619 88.1982 10.2256 88.2482 10.5951C87.9693 10.4785 87.6799 10.4489 87.3885 10.5002C87.4947 10.1387 87.5342 9.76136 87.5009 9.38599C87.7632 9.50058 88.0463 9.53614 88.3314 9.49663M99.7647 5.75092C99.6086 6.09467 99.5586 6.46015 99.6211 6.83354C99.2506 6.68339 98.8572 6.62017 98.4617 6.65178C98.597 6.30605 98.6241 5.93662 98.545 5.57311C98.9342 5.71733 99.3505 5.78055 99.7647 5.75092ZM103.343 3.36835C103.184 3.70816 103.149 4.07759 103.228 4.45295C102.795 4.29885 102.333 4.25539 101.875 4.31861C102.011 3.96103 102.019 3.58765 101.904 3.22414C102.369 3.36638 102.858 3.41972 103.343 3.36835ZM115.569 -2.9634C115.109 -2.55841 114.984 -2.01117 115.094 -1.43232C114.601 -1.82744 114.002 -2.04278 113.371 -2.02303C113.7 -2.43197 113.744 -2.92784 113.533 -3.43557C114.143 -3.0523 114.857 -2.8666 115.571 -2.9634M121.418 -0.401066C120.949 0.0177574 120.775 0.608459 120.816 1.23077C120.396 0.770458 119.84 0.480045 119.211 0.474117C119.64 0.04739 119.786 -0.52948 119.696 -1.13203C120.158 -0.665794 120.758 -0.373409 121.418 -0.39909M125.452 -2.01512C124.708 -1.60222 124.465 -0.896938 124.556 -0.138313C124.097 -0.665794 123.449 -0.975964 122.739 -0.936451C123.279 -1.43232 123.378 -2.14946 123.17 -2.87648C123.718 -2.19095 124.544 -1.81164 125.452 -2.0171M123.235 3.88991C122.731 4.34034 122.54 4.98241 122.604 5.65016C122.184 5.13255 121.599 4.8046 120.929 4.81053C121.416 4.3759 121.62 3.76347 121.588 3.11745C122.011 3.5995 122.581 3.90769 123.233 3.88991M127.05 2.35488C126.457 2.80729 126.24 3.5106 126.324 4.23367C125.895 3.68643 125.291 3.33279 124.594 3.35255C125.118 2.89224 125.325 2.23239 125.264 1.54291C125.708 2.08422 126.332 2.41612 127.052 2.35488M131.336 0.76453C130.391 1.17743 130.051 2.06052 130.193 2.97324C129.737 2.29364 129.025 1.84913 128.195 1.91827C128.867 1.42438 129.102 0.642044 128.952 -0.169922C129.477 0.608459 130.341 1.05889 131.336 0.76453ZM115.771 9.99645C116.329 10.8005 117.232 11.2569 118.285 10.8479C119.274 10.4627 119.642 9.59541 119.551 8.69059C120.123 9.4097 121.008 9.78902 122.005 9.4018C122.993 9.01656 123.358 8.15718 123.268 7.26027C123.843 7.96753 124.721 8.33696 125.705 7.95369C126.707 7.56253 127.06 6.68537 126.954 5.77462C127.516 6.48978 128.374 6.87107 129.371 6.50559C130.441 6.11245 130.815 5.14244 130.659 4.16057C131.202 4.96858 132.118 5.42691 133.169 5.04563C134.4 4.59914 134.701 3.39602 134.323 2.28771C134.785 3.32687 135.8 4.00845 136.993 3.57579C138.234 3.12536 138.506 1.88469 138.071 0.774406C137.638 -0.335873 136.581 -1.08857 135.342 -0.638134C134.152 -0.203506 133.858 0.956161 134.225 2.03286C133.765 0.999622 132.774 0.316071 131.604 0.665749C132.757 0.161976 133.026 -1.04511 132.572 -2.13958C132.102 -3.27357 130.99 -4.01639 129.721 -3.5541C128.661 -3.16689 128.318 -2.23244 128.497 -1.27823C127.962 -2.05266 127.071 -2.47939 126.097 -2.26009C127.052 -2.80141 127.242 -3.86822 126.752 -4.86392C126.209 -5.96235 125.037 -6.62022 123.791 -6.152C122.75 -5.76083 122.411 -4.85799 122.642 -3.93539C122.005 -4.76316 120.964 -5.23928 119.882 -4.7928C118.939 -4.40558 118.662 -3.6272 118.808 -2.80733C118.271 -3.30518 117.55 -3.56596 116.805 -3.48298C117.498 -4.07961 117.509 -5.01406 116.882 -5.85566C116.112 -6.88494 114.661 -7.30179 113.419 -6.76246C112.438 -6.33968 112.06 -5.51981 112.364 -4.72168C111.606 -5.19779 110.644 -5.39535 109.749 -5.19384C110.451 -5.79244 110.571 -6.65182 109.926 -7.49342C109.129 -8.53061 107.695 -8.8467 106.5 -8.23822C105.449 -7.70481 104.858 -6.69726 105.332 -5.73713C104.429 -6.42661 103.137 -6.42068 102.073 -5.95247C103.022 -6.61626 103.482 -7.66925 102.989 -8.72224C102.456 -9.86215 101.359 -10.1822 100.245 -9.54409C99.1298 -8.90597 98.3889 -7.67715 98.878 -6.41476C99.3068 -5.31435 100.395 -5.17409 101.403 -5.58106C100.658 -5.04765 100.152 -4.25544 100.358 -3.50471C99.6585 -3.76549 98.8593 -3.7971 98.1474 -3.60152C98.7843 -4.3878 99.0861 -5.50203 98.7906 -6.37919C98.3889 -7.57245 97.3773 -8.02091 96.2554 -7.38082C95.4083 -6.89877 94.9358 -5.89912 94.9025 -4.95084C94.6236 -5.48228 94.2031 -5.8853 93.6266 -5.79047C94.2801 -6.53329 94.405 -7.70284 94.2676 -8.60765C94.1032 -9.70213 93.2998 -10.4825 92.1883 -9.84833C91.2912 -9.33467 90.9644 -8.21452 91.0144 -7.23857C90.6689 -7.85101 90.1048 -8.19871 89.4471 -7.94781C90.0736 -8.75978 90.2422 -9.89179 89.9424 -10.8579C89.5803 -12.0116 88.525 -12.5173 87.5217 -11.6935C86.6704 -10.9922 86.4144 -9.77523 86.6184 -8.76175C86.1563 -9.39394 85.4632 -9.50457 84.793 -9.0897C85.3446 -9.96883 85.5111 -11.1404 84.947 -12.0807C84.2685 -13.2127 83.0259 -12.9559 82.2391 -12.0234C81.5585 -11.2174 81.24 -10.0558 81.6168 -9.10353C80.9861 -9.63694 80.1681 -9.47691 79.4979 -8.96919C80.0286 -9.81079 80.1389 -10.8974 79.3688 -11.6738C78.4509 -12.5944 77.2811 -12.1716 76.511 -11.2885C75.7638 -10.4331 75.4703 -9.17662 76.2675 -8.29947C75.3413 -9.14304 74.1153 -8.81312 73.316 -7.90237C72.6104 -7.09633 72.3274 -5.95642 72.8477 -5.04765C71.9569 -5.5692 70.9078 -5.17013 70.2064 -4.35421C69.5237 -3.56003 69.1948 -2.46753 69.6465 -1.54888C68.7806 -2.04673 67.742 -1.70693 67.0114 -0.940399C66.2829 -0.173874 65.954 0.914677 66.3995 1.82542C65.5357 1.31967 64.4658 1.62589 63.7061 2.34895C62.9152 3.10165 62.5613 4.20403 63.0734 5.1286C62.2116 4.5379 61.1147 4.76707 60.2967 5.49409C59.358 6.32779 59.0958 7.64352 59.972 8.62539C60.6714 9.4097 61.6538 9.46897 62.501 9.02446C62.0659 9.67245 61.8911 10.4706 62.143 11.1877C61.3728 10.759 60.4362 10.925 59.6682 11.5058C60.4945 10.7017 60.738 9.56972 59.9471 8.657C59.1103 7.68896 57.8178 7.86282 56.8978 8.64318C55.9757 9.42156 55.6593 10.5812 56.4857 11.5453C57.2704 12.46 58.4443 12.4541 59.3726 11.7607C58.5525 12.5509 58.2424 13.6928 58.8252 14.6667C58.0384 13.9496 56.8874 13.9555 55.9965 14.6055C55.012 15.3187 54.7747 16.4448 55.5324 17.3871C56.29 18.3315 57.6075 18.4441 58.6045 17.7467C59.5079 17.1145 59.7785 16.0753 59.2394 15.1725C59.8867 15.7632 60.7318 15.8027 61.4811 15.451C61.0939 16.101 60.9857 16.8537 61.3312 17.5195C60.509 17.0177 59.4683 17.1896 58.6004 17.8139C57.5576 18.5626 57.4722 19.7756 58.3506 20.7199C59.1644 21.5951 60.328 21.6899 61.1938 21.0222C60.5153 21.8816 60.4591 23.0077 61.275 23.8433C62.1638 24.758 63.3939 24.6079 64.2931 23.7525C65.0237 23.059 65.2672 22.091 64.8592 21.2573C65.4899 21.607 66.2163 21.607 66.8636 21.3126C66.4744 22.0594 66.4952 22.9306 67.0572 23.6478C66.2725 22.8634 65.1152 23.0156 64.3035 23.7959C63.4667 24.602 63.3856 25.8051 64.2202 26.6428C65.0528 27.4824 66.1768 27.433 66.9719 26.6151C67.7316 25.8328 67.9023 24.7106 67.2279 23.8414C67.9647 24.5901 68.9263 24.602 69.7297 24.0508C69.1907 24.841 69.1678 25.8545 69.8526 26.623C70.6497 27.5199 71.807 27.4844 72.6104 26.6329C73.3036 25.898 73.4784 24.8845 73.0226 24.0409C73.8197 24.6652 74.8542 24.5052 75.5994 23.6991C76.2259 23.0235 76.4507 22.1187 76.2051 21.2988C76.7296 21.5398 77.2874 21.4884 77.7973 21.1862C77.4643 21.9764 77.5309 22.901 78.0908 23.6142C78.8339 24.5585 79.9433 24.4874 80.7093 23.5944C81.3212 22.8852 81.5439 21.8855 81.2254 21.0301C81.9352 21.5299 82.7428 21.4114 83.4609 20.6705C84.0812 20.0285 84.3247 19.1671 84.179 18.3374C84.6411 18.5942 85.1656 18.6001 85.6672 18.3433C85.3134 19.1019 85.3841 20.0048 85.8857 20.7239C86.5497 21.6682 87.6008 21.7334 88.423 20.9037C89.114 20.2063 89.2868 19.1948 88.9163 18.3354C89.5886 18.9399 90.4399 18.9735 91.1726 18.2327C91.7928 17.6064 91.9718 16.747 91.7991 15.937C92.3486 16.3322 93.0167 16.3895 93.6661 16.0101C93.1041 16.7312 93.1457 17.7309 93.6349 18.5152C94.1969 19.4161 95.1273 19.6808 95.9911 18.9656C96.8569 18.2505 96.9943 17.0374 96.3969 16.1287C95.8807 15.3404 95.0669 15.0579 94.3009 15.4728C94.7755 14.9078 94.9379 14.1926 94.8275 13.4972C95.2709 13.7599 95.7787 13.837 96.2887 13.6809C95.8995 14.4 96.0077 15.3088 96.4656 16.0319C97.0776 16.996 98.1308 17.4108 99.1153 16.6779C99.9229 16.0793 100.058 15.1152 99.7584 14.2519C100.479 14.9512 101.496 15.0717 102.446 14.4395C103.272 13.8884 103.657 13.0231 103.517 12.1656C104.24 12.7109 105.181 12.8393 106.086 12.3276C106.941 11.8456 107.312 11.0257 107.254 10.1683C107.789 10.5891 108.446 10.763 109.144 10.5595C108.496 11.2312 108.417 12.2486 108.794 13.106C109.25 14.1472 110.215 14.7359 111.302 14.1333C112.372 13.5387 112.547 12.296 112.151 11.249C112.592 12.3217 113.569 12.8848 114.699 12.3059C115.631 11.8278 115.917 10.9013 115.771 9.9846M101.209 17.7487C100.83 17.0809 100.133 16.8043 99.4712 17.2962C98.8114 17.7862 98.7635 18.6495 99.1444 19.3192C99.5232 19.989 100.223 20.2616 100.884 19.7697C101.548 19.2817 101.588 18.4164 101.209 17.7487ZM78.3198 29.2387C78.7756 29.7997 79.425 29.7938 79.8933 29.2525C80.3617 28.7112 80.4303 27.919 79.9745 27.35C79.5187 26.781 78.8547 26.8166 78.3801 27.3559C77.9077 27.8953 77.8639 28.6796 78.3177 29.2367M66.8449 38.2138C66.6888 38.0458 66.4453 37.9866 66.2579 38.1446C66.0706 38.3046 66.1018 38.5378 66.26 38.7077C66.4161 38.8776 66.6576 38.9349 66.847 38.7768C67.0343 38.6188 67.0031 38.3837 66.8449 38.2138ZM82.7345 26.3997C83.3277 25.732 83.3901 24.7284 82.8635 24.0014C82.3348 23.2764 81.5543 23.2625 80.9632 23.9382C80.3721 24.6158 80.2909 25.6273 80.83 26.3484C81.3691 27.0715 82.1413 27.0655 82.7345 26.3978M84.5495 28.0276C84.3476 27.7471 84.0416 27.7036 83.8022 27.9684C83.5608 28.2331 83.5629 28.6262 83.7648 28.9107C83.9688 29.1932 84.2768 29.2347 84.5162 28.97C84.7555 28.7053 84.7535 28.3102 84.5495 28.0276ZM87.3636 26.4037C87.784 25.9553 87.7486 25.2638 87.4322 24.7719C87.1138 24.278 86.6018 24.193 86.1959 24.6375C85.79 25.082 85.8067 25.7419 86.121 26.2239C86.4352 26.7079 86.9431 26.8541 87.3636 26.4037ZM74.1174 34.3495C73.9842 34.1895 73.774 34.1322 73.6178 34.2863C73.4617 34.4404 73.4742 34.6597 73.6095 34.8237C73.7427 34.9876 73.9467 35.0291 74.1153 34.8849C74.286 34.7407 74.2506 34.5115 74.1174 34.3495ZM76.9835 32.0045C77.3061 31.6548 77.3207 31.1254 77.0147 30.7579C76.7067 30.3904 76.2717 30.3885 75.9553 30.748C75.6368 31.1056 75.6119 31.6291 75.922 31.9986C76.23 32.368 76.6588 32.3562 76.9835 32.0045ZM97.9309 20.2616C97.6479 19.7282 97.088 19.5721 96.6113 19.9771C96.1326 20.3821 96.1139 21.0499 96.4011 21.5576C96.6883 22.0633 97.2004 22.3123 97.6999 21.9092C98.1994 21.5082 98.2119 20.793 97.9289 20.2616M158.417 -6.67553C158.625 -6.1362 159.135 -5.77269 159.737 -5.99395C160.338 -6.21127 160.474 -6.81382 160.265 -7.35118C160.055 -7.89052 159.545 -8.25403 158.946 -8.03474C158.344 -7.81544 158.207 -7.21487 158.417 -6.67553ZM154.269 -5.15631C154.541 -4.44905 155.21 -3.97293 155.998 -4.26136C156.785 -4.54782 156.962 -5.33806 156.69 -6.04334C156.415 -6.7506 155.747 -7.22672 154.96 -6.93829C154.173 -6.65182 153.994 -5.86357 154.269 -5.15631ZM144.825 -6.62614C145.108 -5.9011 145.795 -5.41511 146.603 -5.70947C147.413 -6.00581 147.598 -6.81382 147.315 -7.53886C147.034 -8.2639 146.343 -8.74792 145.535 -8.45158C144.725 -8.15525 144.54 -7.35118 144.825 -6.62614ZM162.626 -8.21847C162.755 -7.88262 163.071 -7.6574 163.446 -7.79569C163.818 -7.93201 163.904 -8.30539 163.775 -8.64124C163.644 -8.97512 163.325 -9.20231 162.953 -9.06402C162.58 -8.9277 162.495 -8.55432 162.626 -8.21847ZM150.168 -3.65486C150.495 -2.81128 151.299 -2.24231 152.237 -2.58804C153.178 -2.92982 153.393 -3.87217 153.066 -4.71773C152.739 -5.5613 151.936 -6.13027 150.995 -5.78454C150.054 -5.44079 149.84 -4.49844 150.168 -3.65486ZM153.27 -9.72189C153.39 -9.40975 153.686 -9.20034 154.034 -9.32677C154.381 -9.45321 154.458 -9.80091 154.335 -10.1111C154.217 -10.4212 153.919 -10.6326 153.574 -10.5062C153.226 -10.3798 153.149 -10.0321 153.268 -9.72189M149.013 -8.16117C149.221 -7.62184 149.733 -7.26031 150.335 -7.4796C150.936 -7.69889 151.074 -8.29947 150.864 -8.8388C150.653 -9.37814 150.143 -9.74165 149.542 -9.52038C148.94 -9.30109 148.803 -8.70051 149.013 -8.16117ZM186.914 -2.32331C187.053 -1.96376 187.393 -1.72274 187.794 -1.86893C188.196 -2.01512 188.286 -2.41616 188.148 -2.77572C188.009 -3.13528 187.669 -3.37828 187.266 -3.23011C186.866 -3.08392 186.774 -2.68287 186.914 -2.32331ZM182.901 -0.851501C183.074 -0.403042 183.5 -0.100777 184 -0.282528C184.501 -0.464283 184.614 -0.966084 184.439 -1.41454C184.266 -1.863 183.84 -2.16526 183.34 -1.98351C182.838 -1.80176 182.726 -1.29996 182.901 -0.851501ZM166 -1.21303C165.167 -0.908791 164.978 -0.0731201 165.269 0.675629C165.558 1.42438 166.268 1.92815 167.101 1.62391C167.933 1.31967 168.125 0.483997 167.836 -0.264751C167.546 -1.01152 166.836 -1.51727 166.002 -1.21303M163.735 -3.69437C163.991 -3.0286 164.622 -2.58212 165.363 -2.85079C166.106 -3.12145 166.27 -3.86427 166.014 -4.52609C165.758 -5.19187 165.128 -5.64032 164.387 -5.36967C163.644 -5.09901 163.479 -4.35817 163.735 -3.69437ZM172.003 -6.72295C172.138 -6.37524 172.467 -6.14212 172.854 -6.28239C173.241 -6.42266 173.328 -6.81185 173.195 -7.15955C173.06 -7.50528 172.731 -7.74038 172.344 -7.60011C171.957 -7.45787 171.869 -7.06867 172.003 -6.72295ZM159.67 -2.20478C159.972 -1.42047 160.717 -0.891014 161.591 -1.21106C162.465 -1.52913 162.663 -2.40431 162.361 -3.18862C162.06 -3.97293 161.314 -4.50238 160.44 -4.18234C159.566 -3.86427 159.368 -2.98909 159.67 -2.20478ZM167.833 -5.19582C168.037 -4.66833 168.537 -4.3147 169.124 -4.52807C169.709 -4.74143 169.842 -5.33016 169.638 -5.85566C169.434 -6.38314 168.935 -6.73875 168.348 -6.52539C167.763 -6.31005 167.627 -5.72132 167.833 -5.19582ZM140.679 -5.10297C141.037 -4.23173 141.874 -3.65486 142.848 -4.01046C143.822 -4.36409 144.043 -5.33806 143.699 -6.21325C143.354 -7.08843 142.509 -7.66135 141.533 -7.3018C140.558 -6.94421 140.319 -5.97223 140.679 -5.10297ZM136.015 -19.8349C136.025 -19.8428 136.023 -19.8586 136.015 -19.8685C136.004 -19.8764 135.99 -19.8804 135.979 -19.8705C135.971 -19.8626 135.971 -19.8488 135.979 -19.8389C135.99 -19.829 136.004 -19.827 136.015 -19.8349ZM125.435 -9.21614C125.778 -8.45158 126.565 -8.00708 127.412 -8.33107C128.261 -8.65507 128.486 -9.47099 128.141 -10.2434C127.795 -11.0179 126.986 -11.4347 126.138 -11.1048C125.289 -10.7749 125.094 -9.97871 125.433 -9.21416M134.271 -12.5569C134.404 -12.2427 134.71 -12.0491 135.057 -12.1775C135.405 -12.306 135.49 -12.6497 135.365 -12.9638C135.236 -13.2779 134.928 -13.4735 134.581 -13.3431C134.233 -13.2147 134.141 -12.869 134.271 -12.5569ZM129.816 -10.8677C130.066 -10.3007 130.645 -9.98464 131.269 -10.2237C131.891 -10.4608 132.068 -11.0653 131.821 -11.6343C131.571 -12.2032 130.992 -12.5173 130.368 -12.2803C129.745 -12.0432 129.562 -11.4367 129.816 -10.8677ZM119.434 -11.7291C119.792 -11.1167 120.494 -10.8322 121.185 -11.1068C121.876 -11.3794 122.094 -12.0136 121.753 -12.6438C121.407 -13.274 120.66 -13.517 119.973 -13.2404C119.286 -12.9619 119.076 -12.3435 119.434 -11.7291ZM121.114 -7.60999C121.64 -6.72295 122.554 -6.15595 123.603 -6.54712C124.652 -6.94026 124.873 -7.91027 124.43 -8.85855C123.986 -9.80486 122.902 -10.2573 121.871 -9.8503C120.841 -9.44333 120.587 -8.49505 121.114 -7.60999ZM117.646 -8.40812C116.51 -7.9241 116.252 -6.80592 116.92 -5.86554C117.588 -4.92516 118.731 -4.37397 119.877 -4.81848C121.022 -5.26101 121.301 -6.45229 120.67 -7.44206C120.04 -8.43183 118.781 -8.89214 117.646 -8.40615M131.107 -6.49378C131.527 -5.61464 132.395 -5.03975 133.394 -5.4072C134.393 -5.77466 134.599 -6.74468 134.227 -7.65147C133.858 -8.55629 132.932 -9.09563 131.933 -8.71434C130.934 -8.337 130.686 -7.37094 131.107 -6.4918M133.629 -4.83824C132.435 -4.40163 132.189 -3.22023 132.626 -2.15934C133.065 -1.09845 134.081 -0.365505 135.278 -0.800137C136.479 -1.23476 136.754 -2.43394 136.312 -3.50274C135.869 -4.57351 134.824 -5.27484 133.629 -4.83824ZM139.07 -2.3648C140.175 -2.76585 140.429 -3.86822 140.021 -4.85404C139.614 -5.83986 138.65 -6.48785 137.547 -6.08681C136.446 -5.68379 136.217 -4.59129 136.623 -3.61337C137.026 -2.63348 137.965 -1.9598 139.072 -2.36283M143.864 -11.1957C143.98 -10.8954 144.268 -10.6978 144.603 -10.8203C144.938 -10.9428 145.015 -11.2747 144.896 -11.575C144.78 -11.8753 144.494 -12.0748 144.157 -11.9523C143.824 -11.8279 143.745 -11.496 143.864 -11.1957ZM178.884 0.61834C179.092 1.1557 179.602 1.52118 180.203 1.29992C180.805 1.0826 180.94 0.480045 180.732 -0.0592918C180.524 -0.596649 180.014 -0.962132 179.412 -0.740868C178.811 -0.523552 178.673 0.0790024 178.884 0.61834ZM127.833 -7.45194C126.696 -7.02126 126.436 -5.92876 126.931 -4.92121C127.425 -3.91169 128.503 -3.31506 129.639 -3.74179C130.776 -4.17049 131.032 -5.26299 130.539 -6.27054C130.047 -7.27809 128.971 -7.88262 127.833 -7.45194ZM135.313 -8.03671C135.605 -7.30179 136.31 -6.82568 137.126 -7.12597C137.942 -7.42823 138.136 -8.23625 137.844 -8.97116C137.555 -9.70806 136.841 -10.1802 136.027 -9.87598C135.211 -9.57372 135.024 -8.76965 135.313 -8.03671ZM139.551 -9.60138C139.765 -9.05809 140.286 -8.70841 140.887 -8.92968C141.489 -9.15292 141.635 -9.74955 141.42 -10.2928C141.206 -10.8361 140.683 -11.1858 140.084 -10.9645C139.482 -10.7413 139.337 -10.1447 139.551 -9.60138ZM124.011 -13.513C124.226 -13.1041 124.671 -12.8986 125.125 -13.0725C125.578 -13.2444 125.701 -13.679 125.508 -14.0919C125.314 -14.5028 124.862 -14.7083 124.409 -14.5324C123.957 -14.3586 123.799 -13.922 124.011 -13.513ZM164.936 7.41041C165.802 7.09431 166 6.22505 165.698 5.44667C165.398 4.66829 164.659 4.14476 163.791 4.46085C162.925 4.77695 162.728 5.64621 163.03 6.42459C163.329 7.20297 164.068 7.7265 164.936 7.41041ZM168.77 5.92674C169.596 5.62645 169.784 4.79868 169.497 4.05586C169.209 3.31304 168.504 2.81124 167.677 3.1135C166.851 3.41577 166.664 4.24354 166.951 4.98636C167.238 5.72918 167.942 6.22901 168.77 5.92674ZM159.158 7.84306C159.46 8.62539 160.203 9.15485 161.079 8.8348C161.951 8.51871 162.151 7.64155 161.845 6.85921C161.543 6.07491 160.8 5.54545 159.924 5.86549C159.052 6.18356 158.852 7.05875 159.158 7.84306ZM163.283 3.15104C164.183 2.82309 164.389 1.92223 164.074 1.11421C163.762 0.304218 162.996 -0.241043 162.095 0.0888786C161.196 0.4188 160.992 1.31967 161.304 2.12769C161.618 2.9357 162.382 3.48096 163.283 3.15104ZM172.583 4.38973C173.337 4.11512 173.507 3.36045 173.247 2.68283C172.985 2.00718 172.344 1.55082 171.59 1.8274C170.837 2.10201 170.666 2.85668 170.926 3.53233C171.189 4.20798 171.83 4.66434 172.583 4.38973ZM155.649 6.20728C156.683 5.82994 156.918 4.79275 156.556 3.8662C156.198 2.93965 155.318 2.31142 154.283 2.68875C153.249 3.06609 153.014 4.10328 153.374 5.02983C153.734 5.95638 154.614 6.58263 155.649 6.20728ZM151.806 7.66526C152.868 7.28002 153.105 6.21716 152.739 5.26492C152.371 4.31269 151.467 3.67062 150.408 4.05783C149.346 4.44307 149.107 5.50594 149.475 6.45817C149.842 7.4104 150.747 8.05247 151.806 7.66526ZM159.466 4.67817C160.434 4.32652 160.653 3.3565 160.317 2.48922C159.982 1.61996 159.158 1.03519 158.19 1.38882C157.239 1.73652 157.014 2.6769 157.324 3.53233C157.276 3.54221 157.227 3.56394 157.181 3.60147C157.025 3.73977 157.052 3.94325 157.187 4.08549C157.316 4.22774 157.512 4.27515 157.666 4.15069C158.084 4.67224 158.733 4.94487 159.464 4.67817M169.251 -0.786304C169.513 -0.108677 170.154 0.345707 170.908 0.0710983C171.661 -0.203506 171.834 -0.958183 171.572 -1.63383C171.311 -2.31146 170.668 -2.76585 169.915 -2.49124C169.161 -2.21663 168.991 -1.46196 169.251 -0.786304ZM172.739 -3.57584C172.667 -3.51064 172.679 -3.41581 172.741 -3.34864C172.806 -3.28147 172.898 -3.25777 172.972 -3.32098C173.045 -3.38618 173.033 -3.48101 172.97 -3.54818C172.908 -3.61535 172.814 -3.64103 172.739 -3.57584ZM88.2253 -46.9558C88.2357 -46.9637 88.2336 -46.9795 88.2232 -46.9874C88.2149 -46.9973 88.2003 -47.0012 88.1899 -46.9913C88.1816 -46.9834 88.1816 -46.9696 88.1899 -46.9597C88.1982 -46.9499 88.2149 -46.9479 88.2253 -46.9558ZM177.343 -3.74771C177.52 -3.2874 177.957 -2.97723 178.472 -3.16491C178.986 -3.3526 179.102 -3.86625 178.925 -4.32656C178.746 -4.78885 178.309 -5.09901 177.795 -4.91133C177.281 -4.72168 177.164 -4.20802 177.343 -3.74771ZM175.662 -5.909C175.803 -5.75491 176.02 -5.70354 176.188 -5.84974C176.357 -5.99395 176.326 -6.21325 176.184 -6.36536C176.043 -6.52144 175.824 -6.5728 175.655 -6.42661C175.487 -6.28041 175.518 -6.0631 175.662 -5.909ZM181.463 -5.25508C181.581 -4.94492 181.879 -4.73551 182.224 -4.85997C182.572 -4.9864 182.649 -5.33411 182.53 -5.64428C182.41 -5.95642 182.114 -6.16583 181.769 -6.03939C181.421 -5.91295 181.342 -5.56723 181.463 -5.25508ZM173.266 -2.25614C173.493 -1.66939 174.049 -1.27427 174.702 -1.51134C175.356 -1.75039 175.503 -2.40431 175.277 -2.99303C175.052 -3.57781 174.494 -3.9749 173.84 -3.73586C173.187 -3.49681 173.039 -2.84289 173.266 -2.25614ZM147.95 9.09163C149.017 8.70047 149.259 7.63365 148.886 6.67549C148.518 5.7193 147.608 5.07329 146.54 5.4605C145.473 5.85167 145.229 6.92046 145.602 7.87665C145.972 8.83481 146.882 9.47885 147.95 9.09163ZM152.61 -1.62593C151.575 -1.24859 151.34 -0.213387 151.702 0.713165C152.06 1.63972 152.941 2.26598 153.975 1.89062C155.01 1.51328 155.245 0.476093 154.883 -0.450455C154.525 -1.37701 153.644 -2.00327 152.61 -1.62593ZM138.656 7.83121C139.863 7.39263 140.128 6.18357 139.707 5.10687C139.287 4.0282 138.263 3.29131 137.055 3.72989C135.848 4.16846 135.584 5.37357 136.006 6.45224C136.427 7.53289 137.449 8.26781 138.656 7.83121ZM155.665 -0.738892C156.001 0.130367 156.823 0.715141 157.793 0.361511C158.761 0.00788116 158.979 -0.960155 158.644 -1.82941C158.309 -2.69867 157.487 -3.28345 156.517 -2.92982C155.549 -2.57619 155.33 -1.60617 155.665 -0.738892ZM148.711 -0.302288C147.625 0.0948067 147.377 1.18336 147.756 2.1593C148.135 3.13524 149.059 3.79113 150.148 3.39404C151.234 2.99694 151.482 1.9084 151.105 0.932457C150.726 -0.0434837 149.798 -0.701355 148.711 -0.302288ZM130.99 10.6326C132.191 10.196 132.443 8.97705 132.025 7.90628C131.604 6.83354 130.574 6.07689 129.375 6.52139C128.174 6.9659 127.976 8.18484 128.386 9.24573C128.798 10.3046 129.789 11.0712 130.99 10.6326ZM134.818 9.25166C136.038 8.80912 136.308 7.58821 135.882 6.49768C135.455 5.40716 134.416 4.66632 133.196 5.10885C131.977 5.55336 131.706 6.77229 132.135 7.86282C132.562 8.95137 133.598 9.69616 134.818 9.25166ZM125.72 7.98728C124.567 8.43574 124.375 9.62307 124.769 10.6543C125.16 11.6816 126.107 12.4205 127.262 11.974C128.415 11.5275 128.626 10.3343 128.23 9.30104C127.835 8.26979 126.873 7.5408 125.72 7.98728ZM137.94 10.6741C138.298 11.6026 139.176 12.2427 140.217 11.8654C141.258 11.488 141.489 10.4449 141.127 9.5144C140.769 8.58588 139.888 7.94777 138.848 8.3251C137.807 8.70047 137.578 9.74358 137.94 10.6741ZM174.9 2.07632C175.137 2.68678 175.716 3.0977 176.396 2.85075C177.077 2.60381 177.231 1.92223 176.996 1.31177C176.759 0.701313 176.18 0.29039 175.499 0.537338C174.819 0.786263 174.665 1.46586 174.9 2.07632ZM144.807 1.01148C143.66 1.4303 143.402 2.57812 143.801 3.6074C144.201 4.63668 145.179 5.33011 146.328 4.90931C147.475 4.49246 147.735 3.34267 147.336 2.31339C146.934 1.28411 145.954 0.590679 144.807 1.01148ZM142.496 6.40285C143.689 5.96625 143.96 4.773 143.541 3.70223C143.125 2.62949 142.107 1.90839 140.912 2.345C139.72 2.7816 139.453 3.97289 139.87 5.04366C140.286 6.11443 141.299 6.83946 142.494 6.40285M144.089 10.5042C145.156 10.117 145.398 9.04619 145.025 8.08803C144.657 7.13185 143.747 6.48583 142.679 6.87502C141.612 7.26224 141.37 8.33103 141.743 9.28919C142.111 10.2454 143.019 10.8934 144.089 10.5042ZM149.363 -3.35852C148.999 -4.2989 148.104 -4.92911 147.055 -4.54585C146.008 -4.16258 145.768 -3.11552 146.135 -2.17514C146.499 -1.23476 147.394 -0.606525 148.443 -0.987816C149.49 -1.3691 149.729 -2.41814 149.363 -3.35852ZM143.133 -3.27752C141.999 -2.86265 141.743 -1.72866 142.138 -0.711235C142.536 0.306194 143.502 0.989746 144.636 0.576851C145.77 0.163952 146.026 -0.973984 145.631 -1.98944C145.235 -3.00687 144.268 -3.69042 143.133 -3.27752ZM139.231 -1.96178C138.038 -1.52715 137.771 -0.335869 138.19 0.732922C138.608 1.79974 139.62 2.52676 140.814 2.09015C142.007 1.65552 142.278 0.462265 141.859 -0.610477C141.443 -1.68125 140.423 -2.40036 139.228 -1.96376M76.2987 -14.2183C75.3204 -14.9611 74.1195 -14.6174 73.3702 -13.7422C72.6208 -12.867 72.6042 -11.7666 73.5387 -11.0278C74.4754 -10.2909 75.6431 -10.5516 76.4007 -11.4011C77.1604 -12.2506 77.2812 -13.4755 76.2987 -14.2183ZM82.5742 -21.9093C83.3006 -21.3621 84.2726 -21.3028 84.997 -21.8935C85.7213 -22.4822 85.6131 -23.3613 84.8971 -23.9501C84.179 -24.5368 83.0821 -24.6 82.3765 -23.954C81.6688 -23.308 81.8478 -22.4585 82.5742 -21.9113M86.1085 -24.9043C86.6913 -24.4045 87.5634 -24.199 88.2315 -24.6791C88.9017 -25.1591 88.7768 -25.9316 88.1816 -26.4551C87.5842 -26.9826 86.6704 -27.1663 86.0086 -26.6448C85.3446 -26.1252 85.5277 -25.4002 86.1085 -24.9043ZM75.2101 -20.1471C74.3172 -20.7476 73.2702 -20.5224 72.6625 -19.6709C72.0568 -18.8195 72.2275 -17.7862 73.1162 -17.1955C74.0029 -16.6048 75.0748 -16.8044 75.6764 -17.6578C76.28 -18.5073 76.1031 -19.5465 75.2122 -20.1471M65.8625 -15.2812C65.1465 -15.7672 64.2556 -15.6625 63.7186 -14.9947C63.1816 -14.325 63.3835 -13.5032 64.0787 -13.0053C64.7739 -12.5075 65.6876 -12.6043 66.2059 -13.2878C66.7221 -13.9714 66.5785 -14.7932 65.8625 -15.2812ZM89.3367 -33.8043C89.6739 -33.5198 90.161 -33.4013 90.5127 -33.7075C90.8624 -34.0117 90.7209 -34.4404 90.4045 -34.7229C90.0881 -35.0055 89.6281 -35.1082 89.2577 -34.8217C88.8892 -34.5353 88.9996 -34.0868 89.3367 -33.8043ZM95.7434 -34.3831C95.862 -34.2132 96.0743 -34.1362 96.2679 -34.2488C96.4594 -34.3594 96.4698 -34.5689 96.3491 -34.7388C96.2304 -34.9087 96.0181 -34.9877 95.8245 -34.8751C95.633 -34.7625 95.6226 -34.5511 95.7434 -34.3812M77.9014 -23.5885C77.0751 -24.12 76.051 -24.0706 75.4266 -23.3021C74.8043 -22.5336 75.0062 -21.5655 75.8325 -21.0203C76.6609 -20.473 77.6433 -20.6686 78.2636 -21.4114C78.8838 -22.1543 78.7298 -23.0591 77.9014 -23.5905M80.934 -26.7554C80.1785 -27.2533 79.1253 -27.2414 78.5029 -26.5677C77.8827 -25.894 78.0284 -25.0564 78.7819 -24.5665C79.5374 -24.0765 80.5323 -24.1615 81.1692 -24.7897C81.8082 -25.416 81.6938 -26.2556 80.934 -26.7554ZM89.9071 -27.6266C90.3109 -27.2335 90.9644 -26.9253 91.5098 -27.2612C92.0551 -27.595 91.9052 -28.166 91.4931 -28.5789C91.081 -28.9898 90.3712 -29.3019 89.828 -28.9305C89.2868 -28.5611 89.5033 -28.0198 89.9071 -27.6266ZM85.9107 -18.8214C86.5414 -18.1557 87.4905 -17.8732 88.321 -18.4184C89.1515 -18.9657 89.0911 -19.9495 88.448 -20.6568C87.8069 -21.366 86.735 -21.6406 85.9315 -21.0282C85.124 -20.4138 85.2821 -19.4892 85.9107 -18.8214ZM72.5875 -16.4843C71.6925 -17.073 70.6102 -16.8913 69.9296 -16.0932C69.2489 -15.295 69.4092 -14.3013 70.2876 -13.6869C71.168 -13.0725 72.2483 -13.2463 72.9247 -14.0563C73.6012 -14.8663 73.4867 -15.8916 72.5896 -16.4843M79.0566 -17.806C78.0763 -18.4777 76.9523 -18.1142 76.3008 -17.237C75.6493 -16.3599 75.7034 -15.2575 76.613 -14.5897C77.5205 -13.924 78.6216 -14.2302 79.296 -15.0836C79.9703 -15.9351 80.039 -17.1343 79.0566 -17.806ZM93.8659 -29.786C94.1011 -29.5054 94.532 -29.3 94.8775 -29.5074C95.2251 -29.7129 95.1731 -30.0961 94.9462 -30.3747C94.7193 -30.6513 94.3155 -30.7777 93.9804 -30.588C93.6474 -30.4004 93.6328 -30.0685 93.8659 -29.786ZM79.5062 -18.4402C80.3846 -17.8751 81.3254 -18.1122 82.0081 -18.857C82.6928 -19.6018 82.6471 -20.5145 81.7916 -21.1566C80.9382 -21.7967 79.833 -21.6288 79.1461 -20.8405C78.4592 -20.0522 78.632 -19.0071 79.5062 -18.4402ZM93.5516 -28.889C93.433 -28.7982 93.4809 -28.6599 93.5745 -28.565C93.6703 -28.4702 93.816 -28.4149 93.9346 -28.5018C94.0532 -28.5907 94.0116 -28.731 93.918 -28.8258C93.8222 -28.9206 93.6723 -28.9799 93.5537 -28.889M82.6679 -15.6447C83.4193 -14.8782 84.4059 -14.9868 85.1822 -15.7119C85.9607 -16.4369 86.0564 -17.4939 85.2801 -18.3019C84.5037 -19.1119 83.3547 -19.181 82.57 -18.3651C81.7833 -17.5511 81.9165 -16.4112 82.6679 -15.6447ZM72.7957 -31.6667C72.2587 -32.0401 71.5718 -31.9571 71.143 -31.4711C70.7143 -30.9851 70.8142 -30.3727 71.3512 -30.0092C71.8903 -29.6457 72.5646 -29.7306 72.9934 -30.2107C73.4243 -30.6908 73.3348 -31.2933 72.7957 -31.6667ZM81.6188 -34.0117C82.1205 -33.67 82.8302 -33.5475 83.3173 -33.9801C83.8022 -34.4148 83.6128 -34.964 83.1112 -35.3216C82.6117 -35.6791 81.8561 -35.7759 81.3649 -35.3334C80.8716 -34.8909 81.1172 -34.3515 81.6188 -34.0117ZM75.9012 -35.0193C75.3766 -35.3709 74.7335 -35.3532 74.2881 -34.9067C73.8426 -34.4602 73.9155 -33.8853 74.4317 -33.5218C74.9479 -33.1583 75.616 -33.2037 76.0656 -33.6502C76.5173 -34.0967 76.4257 -34.6657 75.9012 -35.0193ZM69.8817 -28.2252C69.3384 -28.5769 68.6953 -28.4307 68.331 -27.917C67.9668 -27.4054 68.0792 -26.785 68.6245 -26.4334C69.1678 -26.0837 69.8026 -26.22 70.1627 -26.7337C70.5228 -27.2473 70.4229 -27.8736 69.8817 -28.2252ZM77.4102 -38.0202C77.0106 -37.6113 77.1396 -37.1075 77.6017 -36.7993C78.0638 -36.4891 78.6799 -36.4753 79.0795 -36.8862C79.4791 -37.2932 79.3355 -37.7871 78.8755 -38.0953C78.4176 -38.4054 77.8077 -38.4331 77.4081 -38.0222M82.033 -41.6336C82.1662 -41.5565 82.3286 -41.5605 82.4181 -41.6928C82.5055 -41.8252 82.441 -41.9674 82.3078 -42.0445C82.1746 -42.1215 82.0101 -42.1176 81.9206 -41.9852C81.8311 -41.8528 81.8998 -41.7106 82.033 -41.6336ZM80.4283 -40.952C80.1223 -40.626 80.2576 -40.2171 80.601 -39.9681C80.9465 -39.7172 81.4128 -39.6639 81.7042 -39.9978C81.9956 -40.3297 81.8624 -40.7307 81.5293 -40.9836C81.1963 -41.2404 80.7342 -41.276 80.4283 -40.952ZM76.8607 -29.3158C76.1676 -29.7721 75.2955 -29.6575 74.746 -29.0491C74.1986 -28.4406 74.2943 -27.6879 74.9874 -27.2295C75.6805 -26.7692 76.5631 -26.8759 77.1146 -27.4824C77.6641 -28.0929 77.5559 -28.8535 76.8628 -29.3138M73.9217 -25.975C73.212 -26.4512 72.3211 -26.3563 71.8237 -25.6649C71.3262 -24.9714 71.4594 -24.1516 72.1858 -23.6735C72.9122 -23.1934 73.7615 -23.4009 74.261 -24.0706C74.7626 -24.7403 74.6273 -25.4989 73.9197 -25.975M85.8233 -31.0207C86.2979 -30.6552 87.0243 -30.4794 87.5384 -30.8765C88.0546 -31.2755 87.8652 -31.8346 87.3906 -32.2219C86.914 -32.6071 86.1147 -32.7908 85.6235 -32.3384C85.1302 -31.89 85.3467 -31.3862 85.8254 -31.0207M82.1912 -27.9348C82.8323 -27.4883 83.7044 -27.4271 84.3205 -27.9487C84.9366 -28.4722 84.7763 -29.1478 84.1394 -29.624C83.5025 -30.1001 82.6033 -30.189 81.9914 -29.6259C81.3816 -29.0609 81.5522 -28.3813 82.1933 -27.9329M88.1087 -39.9997C88.3189 -39.816 88.6187 -39.7765 88.831 -39.98C89.0412 -40.1835 88.9871 -40.4581 88.7748 -40.6438C88.5625 -40.8275 88.2627 -40.869 88.0525 -40.6635C87.8402 -40.4601 87.8964 -40.1854 88.1087 -39.9997ZM79.9953 -32.449C79.3751 -32.8619 78.5571 -32.8066 78.0305 -32.2772C77.5018 -31.7497 77.5975 -31.0918 78.2157 -30.6769C78.836 -30.264 79.6519 -30.3194 80.1785 -30.8468C80.703 -31.3743 80.6156 -32.0342 79.9953 -32.449ZM86.9077 -39.1621C86.837 -39.0692 86.8765 -38.9626 86.9723 -38.9013C87.0701 -38.8401 87.1908 -38.8401 87.2616 -38.9329C87.3323 -39.0278 87.2928 -39.1325 87.195 -39.1937C87.0992 -39.2569 86.9785 -39.2569 86.9077 -39.1621ZM84.972 -37.0028C85.3383 -36.7321 85.8649 -36.6294 86.198 -36.9633C86.531 -37.2971 86.3645 -37.7199 86.0252 -37.9925C85.688 -38.2652 85.201 -38.3403 84.843 -38.0222C84.4829 -37.7061 84.6036 -37.2734 84.972 -37.0028ZM63.8518 -6.19942C63.0442 -6.87309 61.9848 -6.73283 61.2438 -6.02556C60.5028 -5.3183 60.4716 -4.31075 61.2667 -3.61732C62.0597 -2.92389 63.1296 -3.1096 63.8248 -3.82871C64.5179 -4.5498 64.6615 -5.52574 63.8539 -6.19942M98.0933 -10.8776C98.3077 -9.90562 99.1527 -9.63101 100.046 -10.1269C100.937 -10.6247 101.478 -11.6757 101.159 -12.5983C100.843 -13.5209 100.091 -13.8765 99.2006 -13.3866C98.3118 -12.8986 97.8789 -11.8516 98.0933 -10.8776ZM102.369 -13.3135C102.643 -12.5806 103.376 -12.4028 104.071 -12.786C104.762 -13.1693 105.072 -13.924 104.756 -14.6174C104.437 -15.3148 103.755 -15.5775 103.057 -15.1943C102.358 -14.811 102.096 -14.0425 102.369 -13.3135ZM97.5209 -10.5457C97.3752 -11.6224 96.6654 -12.2941 95.6081 -11.7034C94.5486 -11.1127 94.2343 -9.7456 94.3613 -8.68076C94.4924 -7.61591 95.1564 -6.89087 96.22 -7.49342C97.2836 -8.094 97.6645 -9.47099 97.5188 -10.5457M93.8513 -13.2957C93.9908 -12.4265 94.6152 -11.9029 95.4686 -12.387C96.322 -12.871 96.6092 -13.9911 96.4094 -14.8347C96.2096 -15.6803 95.556 -16.2611 94.7297 -15.7474C93.9055 -15.2318 93.7098 -14.163 93.8493 -13.2957M97.4293 -15.4669C97.6166 -14.7873 98.1537 -14.3625 98.8593 -14.7438C99.5628 -15.1251 99.7605 -15.9568 99.5503 -16.6562C99.3401 -17.3556 98.7323 -17.7546 98.0496 -17.3635C97.3648 -16.9664 97.2399 -16.1485 97.4293 -15.4669ZM105.362 -19.7184C105.484 -19.5169 105.709 -19.4141 105.938 -19.5228C106.169 -19.6334 106.225 -19.8764 106.105 -20.0898C105.986 -20.3012 105.732 -20.3723 105.507 -20.2616C105.285 -20.149 105.237 -19.9218 105.362 -19.7184ZM106.752 -15.6625C106.966 -15.214 107.46 -15.0579 107.928 -15.2851C108.398 -15.5143 108.567 -15.9983 108.317 -16.4369C108.067 -16.8735 107.587 -17.0513 107.122 -16.8162C106.656 -16.5831 106.54 -16.1129 106.754 -15.6625M101.249 -17.6381C101.413 -17.1876 101.821 -16.9269 102.287 -17.158C102.756 -17.3891 102.831 -17.8949 102.687 -18.3434C102.543 -18.7918 102.146 -19.104 101.663 -18.8669C101.184 -18.6278 101.082 -18.0885 101.247 -17.6381M114.845 -9.71003C115.365 -8.90004 116.354 -8.62939 117.247 -9.03438C118.139 -9.43938 118.364 -10.2711 117.892 -11.089C117.417 -11.9029 116.433 -12.1894 115.544 -11.7884C114.655 -11.3853 114.324 -10.522 114.842 -9.71201M111.279 -17.9186C111.392 -17.7072 111.62 -17.5847 111.858 -17.6875C112.097 -17.7882 112.141 -18.0292 112.03 -18.2406C111.922 -18.454 111.693 -18.5765 111.454 -18.4718C111.217 -18.369 111.169 -18.132 111.279 -17.9186ZM110.232 -7.64752C110.946 -6.70517 112.197 -6.46217 113.271 -6.93631C114.345 -7.41243 114.593 -8.38047 113.97 -9.32282C113.348 -10.2652 112.132 -10.5734 111.071 -10.0992C110.009 -9.62311 109.522 -8.58593 110.234 -7.64752M89.5532 -21.3897C90.0757 -20.8049 90.927 -20.4948 91.6242 -20.963C92.3236 -21.4312 92.182 -22.2155 91.6971 -22.8102C91.2121 -23.4048 90.3462 -23.7545 89.6344 -23.2764C88.9226 -22.7963 89.0308 -21.9745 89.5532 -21.3877M103.565 -9.05611C104.052 -8.04856 105.328 -8.05449 106.248 -8.57407C107.17 -9.09167 107.676 -10.0775 107.112 -11.0001C106.548 -11.9207 105.478 -12.1262 104.527 -11.6007C103.576 -11.0732 103.082 -10.0656 103.565 -9.05809M117.858 -15.9094C117.981 -15.6566 118.273 -15.5499 118.541 -15.6645C118.81 -15.779 118.872 -16.0299 118.758 -16.2769C118.643 -16.5238 118.377 -16.6542 118.106 -16.5436C117.834 -16.433 117.738 -16.1643 117.858 -15.9094ZM108.307 -11.6007C108.777 -10.8756 109.676 -10.6741 110.476 -11.0376C111.275 -11.4011 111.548 -12.1835 111.094 -12.9065C110.64 -13.6316 109.747 -13.8311 108.973 -13.4676C108.194 -13.1021 107.839 -12.3277 108.307 -11.6007ZM113.086 -13.8449C113.381 -13.3254 113.995 -13.1456 114.553 -13.4044C115.111 -13.6632 115.282 -14.1907 114.992 -14.7122C114.705 -15.2298 114.097 -15.4116 113.54 -15.1548C112.984 -14.8979 112.79 -14.3665 113.084 -13.8449M85.0844 -12.1716C85.663 -11.1838 86.5789 -11.0791 87.4718 -11.8239C88.3626 -12.5687 88.6853 -13.8015 88.0816 -14.8347C87.476 -15.866 86.3624 -16.1623 85.4466 -15.3227C84.5287 -14.4831 84.5058 -13.1614 85.0844 -12.1716ZM73.3369 -10.7828C72.3732 -11.577 71.1097 -11.247 70.3729 -10.3561C69.6361 -9.46901 69.5091 -8.24612 70.4603 -7.46774C71.4115 -6.68936 72.5397 -7.07065 73.2973 -7.932C74.0549 -8.79139 74.2985 -9.99057 73.3348 -10.7828M67.3007 -4.01244C68.2082 -3.17874 69.4446 -3.49088 70.2022 -4.34829C70.9599 -5.20569 71.2534 -6.47995 70.2959 -7.27018C69.3343 -8.0624 68.1208 -7.69691 67.3569 -6.84148C66.5951 -5.98605 66.3932 -4.84416 67.3007 -4.01244ZM124.992 -17.4939C125.066 -17.4129 125.183 -17.3872 125.273 -17.4642C125.364 -17.5413 125.347 -17.6578 125.27 -17.7388C125.195 -17.8198 125.079 -17.8455 124.987 -17.7685C124.9 -17.6914 124.915 -17.5768 124.992 -17.4939ZM93.2831 -23.7861C93.6557 -23.3376 94.276 -23.0196 94.8338 -23.3534C95.3916 -23.6853 95.2771 -24.2839 94.9316 -24.7522C94.584 -25.2223 93.9159 -25.5068 93.3601 -25.1651C92.8023 -24.8233 92.9106 -24.2306 93.2831 -23.7841M97.1254 -25.9375C97.2836 -25.7004 97.5709 -25.5088 97.856 -25.6688C98.1412 -25.8289 98.0912 -26.1627 97.9434 -26.4077C97.7956 -26.6507 97.4876 -26.8364 97.2045 -26.6724C96.9215 -26.5085 96.9631 -26.1766 97.1233 -25.9375M79.4916 -11.8042C80.3284 -10.9606 81.4502 -11.2352 82.1975 -12.1124C82.9447 -12.9895 83.2194 -14.3369 82.3536 -15.2733C81.4898 -16.2097 80.2784 -15.7198 79.5832 -14.8406C78.8901 -13.9615 78.6528 -12.6458 79.4895 -11.8022M92.3881 -17.6144C92.8398 -16.9644 93.5079 -16.4685 94.278 -16.9387C95.0482 -17.4089 94.9899 -18.2861 94.6007 -18.9696C94.2094 -19.6532 93.3768 -20.0819 92.6296 -19.6275C91.8844 -19.1771 91.9406 -18.2663 92.3881 -17.6144ZM95.9994 -19.8053C96.2616 -19.3114 96.7404 -18.9163 97.3065 -19.2403C97.8706 -19.5682 97.8935 -20.2518 97.625 -20.7773C97.3585 -21.3048 96.8049 -21.6169 96.2575 -21.2771C95.7101 -20.9393 95.7413 -20.2972 96.0015 -19.8053M99.7855 -20.2281C99.823 -20.149 99.8958 -20.0957 99.9749 -20.1589C100.052 -20.2221 100.042 -20.3347 100.004 -20.4157C99.9666 -20.4948 99.8896 -20.5521 99.8125 -20.4888C99.7355 -20.4236 99.748 -20.3091 99.7855 -20.2281ZM97.2191 -24.6079C97.2295 -24.6178 97.2253 -24.6336 97.2191 -24.6435C97.2108 -24.6534 97.1962 -24.6593 97.1858 -24.6514C97.1754 -24.6415 97.1795 -24.6257 97.1879 -24.6158C97.1941 -24.606 97.2087 -24.6 97.2191 -24.6079ZM88.5541 -15.1508C89.0662 -14.2954 89.9986 -13.9892 90.929 -14.5305C91.8594 -15.0718 92.0946 -16.1346 91.4993 -17.0039C90.902 -17.8732 89.8654 -18.2446 88.9579 -17.642C88.0504 -17.0375 88.0379 -16.0082 88.5541 -15.1528M99.6377 -21.9369C99.7938 -21.6268 100.081 -21.3462 100.454 -21.5102C100.824 -21.6781 100.814 -22.1266 100.672 -22.4486C100.531 -22.7687 100.206 -23.0433 99.8438 -22.8615C99.4795 -22.6817 99.4816 -22.2451 99.6377 -21.9369ZM90.1027 -10.9744C90.392 -9.92537 91.1538 -9.4137 92.1425 -10.036C93.1312 -10.6583 93.4954 -11.9089 93.2831 -12.9737C93.0729 -14.0346 92.1612 -14.5759 91.1413 -13.9615C90.1214 -13.3491 89.8134 -12.0215 90.1027 -10.9744Z" fill="#1D3660"/>
</g>
<path d="M32.7533 27.6109L34.4892 14.4851L41.4266 15.143L40.4316 10.7967L40.9874 9.48096L45.912 19.6216L45.1502 21.6407L46.884 22.2551V30.4222L50.2372 37.5323L45.2418 38.5873L40.2235 34.7665L37.195 33.1426L32.7533 27.6109Z" fill="white"/>
<path d="M29.915 44.3479H15.2264C14.3376 44.3479 13.6154 43.6643 13.6154 42.8188V11.0059C13.6154 10.1623 14.3356 9.47681 15.2264 9.47681H38.8755C39.7643 9.47681 40.4866 10.1604 40.4866 11.0059V18.4025" stroke="#1D3660" stroke-linecap="round" stroke-linejoin="round"/>
<path d="M13.6173 13.5129H40.4864" stroke="#1D3660" stroke-linecap="round" stroke-linejoin="round"/>
<path d="M13.6173 40.3137H29.9148" stroke="#1D3660" stroke-linecap="round" stroke-linejoin="round"/>
<path d="M45.586 21.603H34.4338C33.6923 21.603 33.0912 22.1735 33.0912 22.8773V44.6364C33.0912 45.3402 33.6923 45.9107 34.4338 45.9107H45.586C46.3275 45.9107 46.9285 45.3402 46.9285 44.6364V22.8773C46.9285 22.1735 46.3275 21.603 45.586 21.603Z" stroke="#1D3660" stroke-linecap="round" stroke-linejoin="round"/>
<path d="M40.2014 43.9845C40.2014 43.8837 40.1161 43.8027 40.0099 43.8027C39.9038 43.8027 39.8184 43.8837 39.8184 43.9845C39.8184 44.0852 39.9038 44.1662 40.0099 44.1662C40.1161 44.1662 40.2014 44.0852 40.2014 43.9845Z" stroke="#1D3660" stroke-linecap="round" stroke-linejoin="round"/>
<path d="M33.0912 42.0601H46.9285" stroke="#1D3660" stroke-linecap="round" stroke-linejoin="round"/>
<path d="M33.0912 25.0444H46.9285" stroke="#1D3660" stroke-linecap="round" stroke-linejoin="round"/>
<path d="M38.8901 23.3396H41.1276" stroke="#1D3660" stroke-linecap="round" stroke-linejoin="round"/>
</svg>
