<svg width="58" height="58" viewBox="0 0 58 58" fill="none" xmlns="http://www.w3.org/2000/svg">
<mask id="mask0_1269_45629" style="mask-type:luminance" maskUnits="userSpaceOnUse" x="0" y="0" width="58" height="58">
<path d="M58 0H0V57.9805H58V0Z" fill="white"/>
</mask>
<g mask="url(#mask0_1269_45629)">
<path d="M58 29C58 45.0094 45.005 58 28.9903 58C12.9755 58 0 45.0094 0 29C0 12.9906 12.9755 0 29.0097 0C45.044 0 58.0195 12.9906 58.0195 29" fill="white"/>
</g>
<mask id="mask1_1269_45629" style="mask-type:luminance" maskUnits="userSpaceOnUse" x="0" y="0" width="58" height="58">
<path d="M29.0097 0C12.995 0 0 12.9711 0 29C0 45.0289 12.9365 57.9416 28.8928 58H29.0877C45.0635 57.9416 57.9805 44.9899 57.9805 29C57.9805 13.0101 45.005 0 28.9708 0H29.0097Z" fill="white"/>
</mask>
<g mask="url(#mask1_1269_45629)">
<path d="M37.4262 26.624C37.4262 26.624 37.2119 26.4876 37.1145 26.585C37.0171 26.6824 37.0366 26.7993 37.1145 26.8967C37.1925 26.994 37.3288 27.0135 37.4262 26.9356C37.5237 26.8382 37.5042 26.7214 37.4262 26.624ZM59.4612 2.84359C58.6429 2.00612 57.4739 2.1814 56.6557 2.9215C55.8374 3.66159 55.5646 4.79121 56.3634 5.62868C57.1622 6.46616 58.3312 6.29087 59.1495 5.55078C59.9677 4.81068 60.26 3.68107 59.4417 2.84359M83.4444 -45.7299C83.5418 -45.6131 83.6782 -45.5936 83.7951 -45.691C83.912 -45.7884 83.8925 -45.9247 83.7951 -46.0416C83.6977 -46.1389 83.5613 -46.1779 83.4444 -46.0805C83.3275 -45.9831 83.347 -45.8468 83.4444 -45.7299ZM47.9859 17.8013C47.4404 17.1391 46.5636 17.0807 45.9012 17.587C45.2193 18.0934 45.1414 18.8919 45.6674 19.5541C46.2129 20.2163 47.0702 20.3137 47.7521 19.8073C48.434 19.3009 48.5314 18.4635 47.9859 17.8013ZM60.1431 24.7932C59.3832 23.9363 58.2532 23.8584 57.396 24.6179C56.5388 25.3775 56.5583 26.585 57.2986 27.442C58.0389 28.2989 59.2079 28.4742 60.0457 27.6757C60.8834 26.8772 60.9224 25.6697 60.1431 24.8127M51.5902 15.0941C50.9667 14.354 49.9731 14.2761 49.1938 14.8604C48.4145 15.4447 48.3171 16.3406 48.9405 17.0807C49.564 17.8402 50.5186 17.9376 51.2784 17.3533C52.0383 16.769 52.2136 15.8342 51.5902 15.0941ZM55.9153 6.09611C55.1555 5.29759 54.084 5.41445 53.3241 6.09611C52.5643 6.77778 52.35 7.73211 53.0514 8.55011C53.7333 9.36811 54.8438 9.34863 55.6426 8.64749C56.4414 7.94635 56.6752 6.89463 55.9153 6.09611ZM37.3288 20.3721C37.3288 20.3721 37.173 20.2748 37.095 20.3527C37.0171 20.4111 37.0366 20.5085 37.095 20.5864C37.1535 20.6643 37.2509 20.6838 37.3288 20.6253C37.4068 20.5669 37.3873 20.4695 37.3288 20.3916M59.7339 2.5904C60.5912 3.46683 61.7796 3.23312 62.5979 2.41512C63.4162 1.59712 63.6889 0.370121 62.8122 -0.486832C61.9355 -1.34378 60.747 -1.11007 59.9482 -0.292068C59.1495 0.525928 58.8962 1.71397 59.7534 2.5904M52.2526 9.15387C51.6486 8.45273 50.7134 8.3943 49.9731 8.95911C49.2328 9.50444 49.0769 10.4003 49.6809 11.121C50.2848 11.8416 51.2395 11.8805 51.9603 11.3157C52.7007 10.7704 52.8565 9.87449 52.2526 9.15387ZM62.9876 -0.681595C63.8838 0.175358 65.0722 -0.0778313 65.871 -0.954258C66.6698 -1.83068 66.9036 -3.09663 65.9879 -3.95358C65.0722 -4.81054 63.8837 -4.49892 63.1044 -3.62249C62.3251 -2.76554 62.0913 -1.53854 62.9876 -0.681595ZM41.05 17.5091C40.7968 17.217 40.4266 17.1586 40.1149 17.3728C39.8031 17.587 39.7642 17.9376 40.0174 18.2298C40.2512 18.5219 40.6409 18.5803 40.9526 18.3661C41.2643 18.1519 41.3033 17.8013 41.05 17.5091ZM56.2271 0.272743C55.5841 -0.350494 54.6295 -0.292068 54.006 0.311691C53.3826 0.915451 53.2657 1.75293 53.8891 2.39564C54.5126 3.01888 55.4283 2.9215 56.0712 2.35669C56.7141 1.79188 56.87 0.915455 56.2271 0.272743ZM44.8492 14.8409C44.479 14.393 43.8555 14.2956 43.3685 14.6461C42.8814 14.9967 42.823 15.542 43.2126 15.99C43.6023 16.438 44.2062 16.5353 44.6933 16.1848C45.1609 15.8342 45.2388 15.2889 44.8492 14.8409ZM48.5509 11.9584C48.0443 11.3547 47.2455 11.3157 46.6416 11.7831C46.0181 12.2506 45.9207 13.0491 46.4273 13.6334C46.9338 14.2371 47.7131 14.2956 48.3366 13.8087C48.96 13.3412 49.0574 12.5427 48.5509 11.939M50.6355 27.4809C50.09 26.8577 49.2522 26.6435 48.5898 27.2277C47.9274 27.7925 48.0054 28.6495 48.5509 29.2922C49.0964 29.9155 49.9536 30.0907 50.5771 29.5065C51.2005 28.9222 51.181 28.1236 50.6355 27.5004M57.2791 21.5407C56.5193 20.6838 55.3503 20.4695 54.4541 21.2486C53.5579 22.0276 53.6164 23.2351 54.3762 24.1116C55.136 24.988 56.305 25.1633 57.1817 24.3842C58.0779 23.6052 58.0195 22.4171 57.2596 21.5602M53.9865 24.4426C53.3241 23.6831 52.2721 23.5078 51.4928 24.1895C50.7134 24.8711 50.7719 25.9618 51.4538 26.7019C52.1357 27.442 53.1293 27.5783 53.8891 26.8967C54.649 26.215 54.649 25.1827 53.9671 24.4426M46.739 37.1021C46.5441 36.8879 46.2519 36.81 46.0181 37.0243C45.7843 37.219 45.8233 37.5306 46.0181 37.7449C46.2129 37.9591 46.5052 38.037 46.7195 37.8228C46.9533 37.628 46.9143 37.3164 46.7195 37.1021M55.3114 12.1532C54.571 11.2573 53.4021 11.2183 52.4864 11.9195C51.5707 12.6012 51.4148 13.7308 52.1552 14.6461C52.8955 15.5615 53.9476 15.6199 54.8633 14.9188C55.7789 14.2177 56.0517 13.0491 55.3114 12.1532ZM50.1874 33.947C49.8172 33.5185 49.2522 33.4212 48.8236 33.8107C48.395 34.2002 48.434 34.7845 48.8236 35.213C49.1938 35.6414 49.7588 35.7388 50.1874 35.3493C50.616 34.9598 50.5771 34.356 50.1874 33.947ZM53.5579 30.7919C53.0319 30.1881 52.2331 30.0907 51.6291 30.6555C51.0252 31.2204 51.0641 32.0578 51.6096 32.6616C52.1552 33.2654 52.954 33.3627 53.5384 32.7979C54.1424 32.2331 54.1034 31.3956 53.5579 30.7919ZM56.8895 27.7925C56.2465 27.0525 55.2529 26.8966 54.4931 27.5783C53.7333 28.26 53.7917 29.2533 54.4346 29.9934C55.0971 30.7335 56.0712 30.8698 56.8115 30.2076C57.5519 29.5259 57.5324 28.5326 56.8895 27.7925ZM44.0114 26.9356C43.6412 26.5071 43.0567 26.3708 42.6086 26.7603C42.1605 27.1498 42.219 27.7341 42.6086 28.1626C42.9788 28.5911 43.5633 28.7274 44.0114 28.3379C44.4595 27.9484 44.4011 27.3641 44.0114 26.9356ZM40.7188 30.0323C40.5435 29.8375 40.2902 29.7596 40.0759 29.9544C39.8616 30.1297 39.9005 30.4024 40.0759 30.5971C40.2512 30.7919 40.524 30.8503 40.7188 30.675C40.9331 30.4997 40.8942 30.2271 40.7188 30.0323ZM47.1676 30.4803C46.7779 30.0323 46.174 29.8765 45.7064 30.2855C45.2388 30.6945 45.2973 31.2983 45.6869 31.7462C46.0766 32.1942 46.6805 32.3305 47.1481 31.9215C47.6157 31.5125 47.5572 30.9087 47.1676 30.4608M47.4988 23.9557C46.9728 23.352 46.1545 23.1572 45.5116 23.7026C44.8686 24.2479 44.9466 25.0854 45.4726 25.6891C45.9986 26.2929 46.8169 26.4876 47.4598 25.9423C48.1028 25.397 48.0248 24.5595 47.4988 23.9557ZM43.6217 33.538C43.4269 33.3238 43.1347 33.2459 42.9009 33.4406C42.6671 33.6354 42.7061 33.947 42.9009 34.1613C43.0957 34.3755 43.3879 34.4534 43.6217 34.2586C43.8555 34.0639 43.8166 33.7523 43.6217 33.538ZM50.8303 21.0538C50.2069 20.3332 49.2912 20.1579 48.5119 20.7617C47.7326 21.3849 47.8495 22.3977 48.4729 23.0988C49.0964 23.7999 50.051 24.0531 50.8109 23.3909C51.5512 22.7288 51.4733 21.7549 50.8303 21.0343M54.3177 18.2298C53.6748 17.3923 52.5838 17.2949 51.746 17.9571C50.8888 18.6193 50.694 19.6905 51.4148 20.5279C52.1357 21.3654 53.2852 21.5991 54.1229 20.8785C54.9412 20.1579 54.9607 19.0672 54.3177 18.2298ZM40.7383 23.5273C40.4655 23.2157 40.0369 23.1183 39.7057 23.3909C39.3745 23.6636 39.4135 24.1116 39.6862 24.4232C39.959 24.7348 40.3876 24.8517 40.7188 24.5595C41.05 24.2674 41.0111 23.8389 40.7383 23.5273ZM58.1753 -18.4633C58.1753 -18.4633 58.0195 -18.5023 57.9805 -18.4244C57.9415 -18.3465 57.9805 -18.288 58.0389 -18.2491C58.0974 -18.2101 58.1948 -18.2101 58.2338 -18.288C58.2727 -18.3659 58.2338 -18.4244 58.1753 -18.4633ZM64.8384 -23.5661C65.3644 -23.196 65.9879 -23.2934 66.3581 -23.8387C66.7282 -24.3646 66.6113 -25.0073 66.0853 -25.3579C65.5593 -25.7279 64.9163 -25.6111 64.5462 -25.0852C64.176 -24.5594 64.3124 -23.9361 64.8189 -23.5661M57.961 -14.607C57.6493 -14.8797 57.2596 -14.8797 57.0064 -14.5486C56.7531 -14.2175 56.831 -13.828 57.1233 -13.5553C57.435 -13.3021 57.8246 -13.2827 58.0779 -13.6138C58.3312 -13.9449 58.2533 -14.3344 57.961 -14.607ZM60.5327 -21.9106C60.3769 -22.008 60.182 -22.008 60.0651 -21.8522C59.9482 -21.6964 60.0457 -21.5211 60.2015 -21.4432C60.3574 -21.3458 60.5522 -21.3458 60.6691 -21.5016C60.786 -21.6574 60.6886 -21.8327 60.5327 -21.9106ZM63.6694 -20.1967C64.0201 -20.6641 63.9032 -21.2289 63.4162 -21.5795C62.9291 -21.9106 62.3446 -21.8522 61.9744 -21.3847C61.6238 -20.9173 61.7407 -20.333 62.2277 -20.0019C62.7148 -19.6708 63.2993 -19.7293 63.6694 -20.1967ZM60.9224 -16.7299C61.2341 -17.1389 61.1367 -17.6064 60.7081 -17.8985C60.2795 -18.1907 59.7729 -18.0543 59.4807 -17.6648C59.1884 -17.2558 59.2663 -16.7884 59.695 -16.5157C60.1236 -16.243 60.6301 -16.3404 60.9419 -16.7299M82.0221 -44.6198C82.2559 -44.425 82.5677 -44.4056 82.7625 -44.6198C82.9573 -44.8535 82.8989 -45.1457 82.6651 -45.3404C82.4313 -45.5352 82.1196 -45.5547 81.9247 -45.3209C81.7299 -45.0872 81.8078 -44.7951 82.0221 -44.6003M72.3392 -38.6211C72.5341 -38.8938 72.4172 -39.1665 72.1444 -39.3223C71.8717 -39.4781 71.5405 -39.4586 71.3651 -39.2054C71.1703 -38.9522 71.2872 -38.6601 71.5599 -38.5043C71.8327 -38.3485 72.1639 -38.368 72.3392 -38.6211ZM52.6422 3.4084C52.0967 2.86307 51.2979 2.9215 50.7134 3.38892C50.1484 3.85635 50.0705 4.5575 50.5965 5.10283C51.1031 5.62868 51.8824 5.66764 52.4864 5.20021C53.0709 4.73278 53.2072 3.95373 52.6422 3.4084ZM68.3258 -20.6057C69.0661 -20.0993 69.9429 -20.3136 70.4299 -21.0342C70.9365 -21.7743 70.8001 -22.6702 70.0598 -23.1766C69.3194 -23.6829 68.4427 -23.4687 67.9361 -22.7286C67.4296 -21.9885 67.566 -21.0926 68.3063 -20.5862M65.0527 -28.8246C64.78 -28.9804 64.4488 -28.961 64.2734 -28.6883C64.0981 -28.4156 64.2344 -28.1235 64.5072 -27.9677C64.78 -27.8119 65.1112 -27.8314 65.2865 -28.104C65.4618 -28.3767 65.3255 -28.6688 65.0527 -28.8246ZM62.8122 -25.3579C62.5784 -25.4942 62.2862 -25.4942 62.1303 -25.241C61.9744 -25.0073 62.0913 -24.7541 62.3251 -24.6178C62.5589 -24.4815 62.8512 -24.4815 63.007 -24.7346C63.1629 -24.9684 63.046 -25.2215 62.8122 -25.3579ZM67.566 -31.5513C67.7608 -31.8434 67.6244 -32.1551 67.3322 -32.3303C67.04 -32.5056 66.6698 -32.4667 66.4749 -32.1745C66.2801 -31.8824 66.4165 -31.5513 66.7087 -31.3955C67.001 -31.2397 67.3712 -31.2592 67.566 -31.5513ZM69.9234 -35.0765C70.1182 -35.3686 70.0013 -35.6997 69.7091 -35.875C69.4168 -36.0503 69.0467 -36.0113 68.8324 -35.7192C68.6375 -35.4271 68.7544 -35.1154 69.0467 -34.9402C69.3389 -34.7649 69.7091 -34.8038 69.9234 -35.096M74.7161 -42.1269C74.872 -42.3411 74.7551 -42.5748 74.5408 -42.7111C74.3265 -42.8475 74.0537 -42.828 73.8979 -42.6138C73.7615 -42.3995 73.8589 -42.1658 74.0732 -42.0295C74.2875 -41.8931 74.5603 -41.9126 74.6966 -42.1269M63.3577 -7.05029C64.1565 -6.36863 65.2281 -6.58287 65.8905 -7.36191C66.5724 -8.14096 66.6308 -9.23162 65.7541 -9.89381C64.8969 -10.556 63.8643 -10.3223 63.2019 -9.52377C62.52 -8.74472 62.5589 -7.73196 63.3577 -7.05029ZM66.2606 -10.5171C67.1179 -9.83538 68.1699 -10.147 68.8129 -10.9845C69.4558 -11.822 69.4558 -12.8737 68.5791 -13.5553C67.7024 -14.237 66.6113 -14.0033 66.0074 -13.1269C65.4034 -12.2504 65.3839 -11.1987 66.2412 -10.5171M40.4655 11.2573C40.3681 11.1404 40.2123 11.1015 40.0954 11.2183C39.9785 11.3352 39.998 11.491 40.0954 11.6079C40.1928 11.7247 40.3487 11.7637 40.485 11.6468C40.6019 11.53 40.5824 11.3741 40.485 11.2573M57.0843 -0.584209C57.8246 0.07798 58.7988 -0.0194016 59.4807 -0.720543C60.1626 -1.40221 60.2794 -2.37602 59.5391 -3.05768C58.7988 -3.73935 57.7857 -3.60302 57.1038 -2.92135C56.4024 -2.23969 56.3634 -1.26588 57.1038 -0.603687M55.8569 -5.45325C55.3893 -5.84277 54.7464 -5.84277 54.2983 -5.4143C53.8502 -4.98582 53.9086 -4.30416 54.3762 -3.91463C54.8438 -3.50563 55.4867 -3.56406 55.9153 -3.99254C56.3439 -4.42101 56.3245 -5.06372 55.8569 -5.45325ZM48.9405 6.31035C48.5119 5.88187 47.9079 5.84292 47.4598 6.21297C47.0117 6.60249 46.9143 7.12835 47.3235 7.5763C47.7326 8.00478 48.356 8.02425 48.8236 7.67368C49.2912 7.32311 49.3497 6.7583 48.9405 6.32982M45.2193 9.2123C44.9466 8.92015 44.5374 8.90068 44.2257 9.13439C43.914 9.36811 43.875 9.75763 44.1283 10.0498C44.4011 10.3419 44.8102 10.3614 45.1024 10.1277C45.4142 9.89396 45.4726 9.50444 45.1998 9.2123M45.1219 4.16797C45.1219 4.16797 45.005 4.10955 44.966 4.16797C44.9076 4.20692 44.9271 4.28483 44.966 4.32378C45.005 4.36274 45.0829 4.38221 45.1414 4.32378C45.1804 4.28483 45.1804 4.20692 45.1414 4.16797M54.5515 -8.31625C54.3567 -8.47206 54.1034 -8.51101 53.9281 -8.31625C53.7527 -8.12149 53.8307 -7.90725 54.006 -7.77091C54.1814 -7.63458 54.4541 -7.59563 54.6295 -7.77091C54.8048 -7.9462 54.7269 -8.17991 54.5321 -8.31625M52.5448 -2.16178C52.1941 -2.49287 51.7265 -2.45392 51.3953 -2.12283C51.0641 -1.79173 51.0447 -1.34378 51.3953 -1.03216C51.7265 -0.701065 52.1941 -0.740021 52.5448 -1.05164C52.8955 -1.36325 52.915 -1.83068 52.5448 -2.16178ZM51.5512 -5.43377C51.5512 -5.43377 51.4343 -5.47272 51.3759 -5.43377C51.3369 -5.39482 51.3369 -5.31692 51.3759 -5.27797C51.4343 -5.23901 51.4928 -5.23901 51.5512 -5.27797C51.5902 -5.31692 51.5902 -5.39482 51.5512 -5.43377ZM62.2667 -10.3028C62.8317 -10.9455 62.6953 -11.783 62.0329 -12.3089C61.3705 -12.8347 60.5132 -12.7763 59.9872 -12.1141C59.4612 -11.4519 59.5586 -10.7118 60.2015 -10.186C60.8444 -9.6601 61.7017 -9.6601 62.2667 -10.3028ZM59.1689 -7.16715C59.656 -7.73196 59.5976 -8.4331 59.0326 -8.92001C58.4676 -9.40691 57.6883 -9.40691 57.1817 -8.8421C56.6752 -8.29677 56.7531 -7.51772 57.3376 -7.03082C57.922 -6.54391 58.6819 -6.60234 59.1884 -7.16715M49.0379 0.993359C48.8236 0.798595 48.5314 0.798595 48.3366 0.993359C48.1417 1.18812 48.1222 1.42183 48.3366 1.61659C48.5314 1.81136 48.8236 1.7724 49.0379 1.61659C49.2328 1.44131 49.2717 1.2076 49.0574 1.01283M65.6956 -16.9637C66.4165 -16.4768 67.2932 -16.5936 67.8387 -17.2948C68.3843 -17.9764 68.2089 -18.8723 67.488 -19.3592C66.7672 -19.8656 65.871 -19.7293 65.345 -19.0281C64.8189 -18.327 64.9943 -17.4506 65.6956 -16.9637ZM44.3036 20.6059C43.875 20.0995 43.2126 19.9826 42.6866 20.4111C42.1605 20.8396 42.18 21.5017 42.6086 22.0081C43.0373 22.5145 43.6997 22.6508 44.2062 22.2029C44.7323 21.7744 44.7128 21.1122 44.3036 20.6059ZM134.879 11.3352C134.548 10.4198 133.729 9.81606 132.775 10.1861C131.82 10.5561 131.606 11.5689 131.937 12.4843C132.268 13.3997 133.086 14.0034 134.041 13.6529C134.996 13.2828 135.21 12.2701 134.879 11.3547M131.606 17.6844C131.528 17.4897 131.352 17.3533 131.158 17.4312C130.943 17.5091 130.904 17.7429 130.963 17.9376C131.041 18.1324 131.216 18.2687 131.43 18.1908C131.645 18.1129 131.684 17.8987 131.606 17.6844ZM135.677 16.1263C135.522 15.7368 135.171 15.4641 134.762 15.6199C134.333 15.7758 134.255 16.2237 134.392 16.6132C134.528 17.0028 134.879 17.2754 135.307 17.1196C135.736 16.9638 135.814 16.5159 135.677 16.1263ZM147.601 11.5494C147.328 10.8093 146.666 10.3224 145.886 10.6146C145.107 10.9067 144.932 11.7442 145.205 12.4843C145.477 13.2244 146.14 13.7113 146.919 13.4191C147.698 13.127 147.874 12.2895 147.601 11.5494ZM143.685 13.0686C143.451 12.4064 142.847 11.9584 142.146 12.2311C141.444 12.5038 141.289 13.2439 141.522 13.906C141.756 14.5682 142.36 15.0162 143.061 14.7435C143.763 14.4709 143.919 13.7308 143.685 13.0686ZM139.691 14.5877C139.496 14.0424 139.009 13.6723 138.425 13.906C137.84 14.1203 137.723 14.7435 137.918 15.2889C138.113 15.8342 138.6 16.2042 139.184 15.9705C139.769 15.7563 139.886 15.1525 139.691 14.5877ZM115.591 19.1646C115.532 19.0088 115.377 18.8725 115.201 18.9699C115.026 19.0478 114.987 19.2425 115.065 19.3983C115.123 19.5736 115.279 19.671 115.454 19.5931C115.63 19.5152 115.669 19.3204 115.591 19.1646ZM130.982 12.8349C130.67 12.0169 129.93 11.4326 129.053 11.7637C128.177 12.0948 128.001 13.0296 128.313 13.8476C128.625 14.6656 129.346 15.2499 130.222 14.9188C131.099 14.5877 131.274 13.6529 130.982 12.8154M151.478 10.0498C151.186 9.25125 150.465 8.7254 149.627 9.03701C148.789 9.36811 148.595 10.2445 148.887 11.0431C149.179 11.8416 149.9 12.3674 150.738 12.0558C151.575 11.7247 151.77 10.8483 151.478 10.0498ZM118.63 12.6985C118.26 11.7637 117.403 11.121 116.409 11.53C115.415 11.939 115.24 13.0101 115.61 13.945C115.98 14.8799 116.838 15.5226 117.831 15.1136C118.825 14.7046 119 13.6334 118.63 12.6985ZM127.105 14.3345C126.852 13.6334 126.228 13.127 125.488 13.4191C124.748 13.7113 124.611 14.5293 124.865 15.2304C125.118 15.9316 125.741 16.4185 126.482 16.1458C127.222 15.8537 127.358 15.0551 127.105 14.354M123.267 15.8731C123.072 15.3083 122.585 14.9188 121.981 15.1525C121.397 15.3862 121.28 16.0484 121.475 16.5938C121.669 17.1586 122.157 17.5481 122.76 17.3144C123.345 17.0807 123.462 16.438 123.267 15.8731ZM119.39 17.4702C119.254 17.0807 118.922 16.808 118.513 16.9833C118.104 17.1586 118.026 17.587 118.163 17.9766C118.299 18.3661 118.65 18.6193 119.039 18.4635C119.448 18.3077 119.526 17.8597 119.39 17.4897M122.39 11.1404C122.02 10.1082 121.065 9.40706 119.994 9.85501C118.903 10.303 118.728 11.4715 119.117 12.4843C119.507 13.4971 120.403 14.2177 121.494 13.7892C122.585 13.3412 122.78 12.1727 122.41 11.1404M182.962 3.01888C182.787 2.55145 182.378 2.23983 181.871 2.43459C181.384 2.62935 181.267 3.13573 181.442 3.60316C181.618 4.07059 182.027 4.38221 182.533 4.18745C183.02 3.99268 183.137 3.48631 182.962 3.01888ZM186.274 2.57093C186.683 2.41512 186.781 1.98664 186.625 1.59712C186.488 1.2076 186.138 0.954403 185.729 1.11021C185.319 1.26602 185.241 1.6945 185.378 2.08402C185.514 2.47355 185.865 2.72673 186.274 2.57093ZM172.928 11.9974C172.831 11.7247 172.578 11.53 172.285 11.6468C171.993 11.7637 171.915 12.0753 172.032 12.348C172.13 12.6206 172.383 12.8154 172.675 12.6985C172.967 12.5817 173.045 12.2701 172.928 11.9974ZM180.624 9.01754C180.507 8.66697 180.176 8.43325 179.825 8.56958C179.455 8.70591 179.377 9.09544 179.494 9.44601C179.63 9.79658 179.942 10.0303 180.293 9.89396C180.663 9.75763 180.741 9.36811 180.624 9.01754ZM185.923 8.02425C185.787 7.67368 185.475 7.43997 185.105 7.5763C184.735 7.71264 184.638 8.10215 184.774 8.43325C184.91 8.78382 185.222 9.01754 185.592 8.8812C185.962 8.74487 186.06 8.35535 185.923 8.00478M179.299 4.42116C179.104 3.87583 178.598 3.50578 178.033 3.72002C177.448 3.93426 177.332 4.5575 177.526 5.10283C177.721 5.64816 178.208 6.01821 178.793 5.78449C179.377 5.57026 179.494 4.94702 179.299 4.40168M155.316 8.56958C155.024 7.75158 154.283 7.20625 153.426 7.53735C152.569 7.86844 152.374 8.76434 152.666 9.58234C152.959 10.4003 153.699 10.9457 154.556 10.6146C155.413 10.2835 155.608 9.3681 155.316 8.56958ZM49.8952 40.9195C49.8952 40.9195 49.8172 40.8805 49.7783 40.9195C49.7393 40.9584 49.7393 40.9974 49.7783 41.0363C49.8172 41.0753 49.8562 41.0753 49.8952 41.0363C49.9341 40.9974 49.9341 40.9584 49.8952 40.9195ZM156.368 13.2633C156.193 12.8154 155.803 12.5038 155.316 12.6985C154.829 12.8933 154.732 13.3802 154.887 13.8476C155.043 14.2956 155.472 14.6072 155.94 14.4319C156.427 14.2371 156.524 13.7502 156.368 13.2828M160.304 11.7637C160.109 11.2378 159.622 10.8678 159.057 11.082C158.492 11.2962 158.355 11.9 158.55 12.4259C158.745 12.9517 159.232 13.3218 159.797 13.1075C160.362 12.8933 160.498 12.2895 160.284 11.7637M152.394 14.802C152.277 14.4709 151.965 14.2371 151.614 14.3735C151.264 14.5098 151.186 14.8799 151.303 15.211C151.42 15.5421 151.731 15.7758 152.082 15.6394C152.433 15.5031 152.511 15.1331 152.394 14.802ZM167.999 8.78382C167.785 8.18006 167.239 7.77106 166.597 8.02425C165.954 8.27744 165.817 8.93963 166.032 9.54339C166.246 10.1472 166.791 10.5562 167.434 10.303C168.077 10.0692 168.214 9.38758 167.999 8.78382ZM171.798 7.32311C171.584 6.71935 171.039 6.31035 170.396 6.56354C169.753 6.81673 169.616 7.47892 169.831 8.08268C170.045 8.68644 170.59 9.09544 171.233 8.84225C171.876 8.58906 172.013 7.92687 171.798 7.32311ZM164.161 10.264C163.947 9.67973 163.421 9.30968 162.817 9.52392C162.213 9.75763 162.057 10.4003 162.271 10.9846C162.486 11.5689 163.012 11.9584 163.616 11.7247C164.22 11.491 164.356 10.8483 164.161 10.264ZM175.578 5.8624C175.364 5.27811 174.838 4.86911 174.214 5.1223C173.591 5.35602 173.454 6.01821 173.669 6.60249C173.883 7.18678 174.409 7.59578 175.033 7.34259C175.656 7.10887 175.792 6.44668 175.578 5.8624ZM176.805 10.4977C176.689 10.1666 176.377 9.93291 176.026 10.0692C175.675 10.2056 175.598 10.5756 175.714 10.9067C175.831 11.2378 176.143 11.4715 176.494 11.3352C176.844 11.1989 176.922 10.8288 176.805 10.4977ZM65.3255 33.5185C65.9294 32.8563 65.9684 31.902 65.3839 31.2204C64.7994 30.5387 63.9617 30.5776 63.3577 31.2204C62.7538 31.8825 62.7148 32.8369 63.2993 33.4991C63.8838 34.1613 64.7215 34.1613 65.3255 33.4991M74.1706 27.5394C74.833 28.4353 75.7877 28.3963 76.4891 27.5588C77.1904 26.7214 77.3268 25.4749 76.6644 24.5595C76.002 23.6636 75.0279 23.7415 74.3265 24.5595C73.6056 25.397 73.5082 26.6435 74.1706 27.5199M84.2821 21.6381C83.6977 20.7617 82.7625 20.6643 82.0416 21.4628C81.3208 22.2418 81.2818 23.4688 81.8858 24.3453C82.4702 25.2217 83.3665 25.2996 84.0678 24.5011C84.7692 23.7026 84.8861 22.534 84.3016 21.6381M62.2862 36.4594C62.7732 35.9531 62.7538 35.1935 62.2862 34.6871C61.8381 34.1807 61.1951 34.1807 60.7276 34.6676C60.2405 35.1545 60.26 35.8752 60.7276 36.401C61.1757 36.9074 61.8186 36.9853 62.3057 36.4789M73.6835 30.5387C74.307 29.7986 74.3654 28.7858 73.781 28.0068C73.1965 27.2277 72.3198 27.2472 71.6768 27.9678C71.0339 28.669 71.0144 29.7207 71.5989 30.4803C72.1834 31.2204 73.0601 31.2788 73.6835 30.5582M56.1881 41.6596C56.1881 41.6596 56.0322 41.5622 55.9543 41.6206C55.8764 41.679 55.8958 41.7764 55.9543 41.8543C56.0127 41.9322 56.1102 41.9517 56.1881 41.8933C56.266 41.8349 56.2465 41.7375 56.1881 41.6596ZM70.6832 33.3822C71.1898 32.8174 71.2482 31.9994 70.7611 31.3956C70.2741 30.7919 69.5337 30.8308 69.0272 31.3956C68.5206 31.9604 68.4817 32.7785 68.9882 33.3627C69.4948 33.947 70.1767 33.947 70.6832 33.3627M59.0131 38.037C58.7403 37.7254 58.3507 37.667 58.0389 37.9591C57.7272 38.2513 57.7662 38.6797 58.0389 38.9913C58.3117 39.303 58.7208 39.3614 59.0131 39.0692C59.3248 38.7771 59.2858 38.3486 59.0131 38.037ZM56.3829 34.2976C55.9348 33.7912 55.2529 33.6938 54.7464 34.1807C54.2398 34.6676 54.2788 35.3883 54.7464 35.8946C55.1945 36.401 55.8569 36.4984 56.3634 36.0115C56.87 35.5246 56.831 34.804 56.3634 34.2976M53.0319 37.5112C52.7591 37.1995 52.3305 37.1022 51.9993 37.3943C51.6681 37.6864 51.7071 38.1149 51.9798 38.446C52.2526 38.7771 52.7007 38.8745 53.0319 38.5823C53.3631 38.2902 53.3436 37.8423 53.0514 37.5112M59.695 31.2009C59.091 30.5387 58.2143 30.3829 57.5129 31.0061C56.831 31.6294 56.8895 32.5642 57.4739 33.2459C58.0779 33.9275 58.9741 34.0444 59.6365 33.4017C60.2989 32.759 60.2794 31.8631 59.6755 31.1814M62.8707 27.8899C62.1108 27.0914 61.0588 27.1888 60.3379 27.9678C59.5976 28.7469 59.5781 29.8181 60.2989 30.6166C61.0393 31.4151 62.0719 31.3956 62.8122 30.5971C63.5331 29.7986 63.6305 28.6885 62.8707 27.8899ZM91.7245 19.5541C91.2569 18.7556 90.4582 18.444 89.7568 19.1257C89.0749 19.8073 89.0554 20.9369 89.523 21.7355C89.9711 22.5535 90.7699 22.7677 91.4713 22.1055C92.1726 21.4628 92.1921 20.3332 91.7245 19.5347M68.3453 30.5776C69.0467 29.7986 69.1441 28.6495 68.4427 27.8315C67.7413 27.0135 66.7672 27.0719 66.0658 27.8315C65.3644 28.6105 65.2865 29.7402 65.9684 30.5582C66.6503 31.3762 67.6439 31.3567 68.3453 30.5582M88.8606 22.495C88.4709 21.8134 87.828 21.677 87.263 22.2613C86.7175 22.8456 86.6395 23.761 87.0292 24.4426C87.4188 25.1243 88.0813 25.2607 88.6268 24.6764C89.1723 24.0921 89.2307 23.1767 88.8606 22.495ZM93.1662 23.8973C92.9909 23.5857 92.6792 23.4688 92.3869 23.7415C92.1142 23.9947 92.0947 24.4232 92.27 24.7348C92.4454 25.0464 92.7571 25.1633 93.0299 24.8906C93.3026 24.6374 93.3221 24.2089 93.1468 23.8973M103.102 15.9121C102.654 15.0162 101.739 14.6267 100.881 15.211C100.024 15.7952 99.8293 16.8275 100.297 17.7234C100.764 18.6193 101.661 18.9114 102.537 18.3856C103.414 17.8597 103.551 16.808 103.102 15.9121ZM67.6439 34.8819C67.3127 34.4923 66.8451 34.4729 66.4944 34.8624C66.1437 35.2324 66.1243 35.7973 66.4555 36.1868C66.7867 36.5763 67.2543 36.5763 67.6049 36.1868C67.9556 35.8167 67.9556 35.2714 67.6439 34.8819ZM106.765 13.7308C106.317 12.6985 105.284 12.2311 104.291 12.8154C103.297 13.3997 103.141 14.6072 103.609 15.581C104.077 16.5743 104.992 17.1196 106.005 16.5353C106.999 15.951 107.213 14.7435 106.765 13.7308ZM114.85 14.3151C114.539 13.5165 113.818 12.8933 112.98 13.3218C112.142 13.7502 112.045 14.7825 112.357 15.581C112.668 16.3795 113.37 16.8664 114.208 16.4769C115.045 16.0874 115.162 15.1136 114.85 14.3151ZM115.318 6.50511C115.766 6.07663 115.942 5.47287 115.942 4.84964C116.351 5.31706 116.896 5.58973 117.5 5.58973C117.013 6.05716 116.838 6.71935 116.916 7.40102C116.526 6.87516 115.961 6.52459 115.338 6.52459M111.753 8.19954C112.181 7.71264 112.357 7.0894 112.337 6.42721C112.727 6.85568 113.233 7.10887 113.798 7.10887C113.331 7.59578 113.175 8.29692 113.292 9.01754C112.922 8.4722 112.376 8.12163 111.753 8.19954ZM108.304 10.3614C108.811 9.85501 109.045 9.2123 109.006 8.51115C109.434 8.8812 109.941 9.03701 110.506 8.93963C109.921 9.66025 109.882 10.673 110.214 11.5689C109.863 10.6925 109.142 10.1666 108.304 10.3614ZM113.74 1.94769C114.11 1.51921 114.247 0.973885 114.188 0.409073C114.617 0.818073 115.123 1.09074 115.688 1.11021C115.279 1.53869 115.104 2.1035 115.104 2.70726C114.734 2.27879 114.266 1.98664 113.72 1.94769M110.214 3.68107C110.506 3.25259 110.642 2.74621 110.623 2.20088C110.973 2.53197 111.402 2.74621 111.889 2.78516C111.577 3.19416 111.441 3.72002 111.461 4.26535C111.11 3.91478 110.681 3.70054 110.214 3.70054M106.726 5.82344C106.999 5.41444 107.135 4.94702 107.096 4.46011C107.486 4.67435 107.915 4.79121 108.363 4.77173C108.09 5.21968 107.954 5.74554 107.993 6.29087C107.622 5.99873 107.213 5.82344 106.746 5.82344M102.908 8.08268C103.141 7.67368 103.258 7.22573 103.2 6.77777C103.628 6.99201 104.116 7.0894 104.603 7.05045C104.349 7.47892 104.271 7.9853 104.33 8.49168C103.901 8.19954 103.395 8.04372 102.888 8.08268M99.2643 10.6146C99.5176 10.1861 99.615 9.6992 99.5566 9.19282C99.9852 9.38758 100.453 9.44601 100.92 9.36811C100.667 9.85501 100.609 10.3809 100.706 10.9262C100.277 10.6341 99.7709 10.5172 99.2643 10.5951M95.8938 13.1854C96.1861 12.6985 96.264 12.1532 96.1666 11.6079C96.5952 11.8416 97.0433 11.939 97.5304 11.8611C97.2381 12.4259 97.1992 13.0686 97.4135 13.6918C96.9849 13.2633 96.4393 13.0491 95.8743 13.1854M107.837 -0.233639C108.051 -0.623161 108.071 -1.03216 107.895 -1.46064C108.46 -1.2464 109.064 -1.14902 109.649 -1.20745C109.395 -0.837399 109.395 -0.408924 109.493 0.0585022C109.006 -0.214165 108.421 -0.292068 107.837 -0.233639ZM103.882 2.06455C104.057 1.6945 104.096 1.30498 103.979 0.915455C104.525 1.09074 105.09 1.12969 105.655 1.05179C105.44 1.44131 105.362 1.86979 105.421 2.29826C104.934 2.08402 104.408 2.00612 103.882 2.06455ZM85.2563 17.8792C85.5095 17.3339 85.607 16.7301 85.529 16.1263C85.8992 16.3016 86.3083 16.3406 86.698 16.1848C86.5032 16.8275 86.5421 17.5286 86.7954 18.1518C86.3278 17.7429 85.7823 17.6455 85.2563 17.8792ZM89.2892 13.3218C89.1333 13.8087 89.1138 14.3345 89.2307 14.8604C88.8801 14.6267 88.4709 14.5488 88.0813 14.6656C88.2371 14.1982 88.2956 13.7113 88.2371 13.2244C88.5683 13.3802 88.919 13.3997 89.2892 13.3412M92.0168 10.712C91.8804 11.121 91.8804 11.5689 91.9583 12.0169C91.6466 11.8221 91.2959 11.7637 90.9452 11.8026C91.0816 11.4131 91.1206 10.9846 91.0621 10.5756C91.3544 10.712 91.6856 10.7509 91.9973 10.712M94.8028 8.31639C94.6664 8.66697 94.6274 9.03701 94.6859 9.42653C94.3742 9.25125 94.0235 9.19282 93.6728 9.2123C93.7897 8.84225 93.8092 8.45273 93.7507 8.06321C94.0819 8.23849 94.4326 8.31639 94.7833 8.31639M104.154 -3.27192C104.544 -3.81725 104.583 -4.45996 104.213 -5.12215C104.914 -4.57682 105.811 -4.49892 106.668 -4.73264C106.161 -4.26521 105.986 -3.66145 106.181 -3.05768C105.538 -3.31087 104.817 -3.38878 104.135 -3.27192M77.5411 20.6643C77.7944 20.1189 77.8723 19.4957 77.7944 18.9114C78.1646 19.0478 78.5737 19.0283 78.9439 18.8725C78.7685 19.4762 78.788 20.1189 79.0218 20.7032C78.5542 20.3916 78.0087 20.3916 77.5411 20.6643ZM69.2415 24.1895C69.6506 23.5662 69.8065 22.8456 69.6311 22.1445C70.1182 22.3782 70.6637 22.3782 71.1508 22.1445C70.8975 22.8066 70.878 23.5468 71.2092 24.1895C70.6053 23.7026 69.8844 23.761 69.2415 24.1895ZM73.781 19.0672C73.6251 19.5736 73.6056 20.1189 73.742 20.6253C73.3134 20.4306 72.8653 20.4695 72.4561 20.6643C72.651 20.1579 72.7094 19.632 72.6315 19.1062C73.0017 19.2425 73.4108 19.223 73.781 19.0672ZM75.6123 15.6979C75.9241 15.7952 76.2358 15.7952 76.5475 15.6979C76.4111 16.1458 76.3916 16.6132 76.4696 17.0612C76.1384 16.9443 75.7877 16.9638 75.4565 17.0807C75.6123 16.6327 75.6708 16.1458 75.6123 15.6784M78.4373 12.4259C78.7296 12.5427 79.0413 12.5427 79.353 12.4648C79.2556 12.8543 79.2361 13.2633 79.2946 13.6723C78.9828 13.5555 78.6711 13.5555 78.3399 13.6529C78.4568 13.2633 78.4958 12.8543 78.4568 12.4453M81.2039 9.23177C81.4766 9.32915 81.7689 9.32915 82.0611 9.25125C81.9832 9.64077 81.9637 10.0303 82.0221 10.4198C81.7299 10.3224 81.4182 10.303 81.1259 10.3809C81.2234 10.0108 81.2428 9.6213 81.2039 9.23177ZM67.0205 20.7811C67.2932 20.2553 67.3712 19.6905 67.2348 19.1451C67.6829 19.3204 68.1505 19.3009 68.5986 19.1257C68.4037 19.6515 68.3453 20.2163 68.4817 20.7422C68.0141 20.5279 67.5075 20.5669 67.0205 20.7811ZM70.391 15.8926C70.7417 16.0095 71.0923 16.0095 71.443 15.8926C71.2872 16.36 71.2482 16.8469 71.3067 17.3144C70.9365 17.1975 70.5468 17.217 70.1767 17.3728C70.3715 16.9054 70.4494 16.399 70.3715 15.8926M73.4108 12.4648C73.703 12.5622 74.0148 12.5622 74.3265 12.4453C74.2096 12.8738 74.1706 13.3023 74.2096 13.7308C73.8979 13.6334 73.5667 13.6334 73.2549 13.7502C73.3913 13.3218 73.4498 12.8933 73.4108 12.4648ZM76.2553 9.05648C76.528 9.15387 76.8203 9.17334 77.1125 9.09544C76.9956 9.48496 76.9566 9.89396 76.9956 10.303C76.7034 10.1861 76.3916 10.1861 76.0994 10.303C76.2163 9.91344 76.2747 9.48496 76.2553 9.07596M60.6496 21.268C61.1757 20.5864 61.39 19.7489 61.0393 19.0088C61.6432 19.3983 62.3251 19.3983 62.9681 19.1257C62.6369 19.7489 62.5784 20.4306 62.8707 21.0733C62.1693 20.6643 61.312 20.7617 60.6496 21.268ZM69.2025 12.6401C69.0467 13.1075 68.9882 13.5944 69.0662 14.0813C68.6765 13.945 68.2479 13.984 67.8387 14.1592C68.0336 13.6723 68.1115 13.166 68.0336 12.6791C68.4232 12.8154 68.8324 12.7959 69.222 12.6596M71.1703 9.25125C71.521 9.3681 71.8911 9.34863 72.2418 9.23177C72.1055 9.66025 72.047 10.1082 72.1054 10.5367C71.7742 10.4393 71.4236 10.4393 71.0729 10.5562C71.2092 10.1277 71.2482 9.67972 71.1898 9.23177M74.2291 5.74554C74.5408 5.84292 74.8525 5.84292 75.1642 5.74554C75.0084 6.17402 74.9499 6.62197 74.9694 7.06992C74.6772 6.97254 74.3654 6.97254 74.0537 7.06992C74.1901 6.64145 74.2485 6.19349 74.2096 5.76502M77.171 2.25931C77.4827 2.37616 77.7944 2.37616 78.1061 2.25931C77.9503 2.70726 77.8918 3.15521 77.9308 3.62264C77.6385 3.50578 77.3268 3.50578 77.0151 3.62264C77.1515 3.17469 77.2099 2.72673 77.171 2.25931ZM61.7796 14.7046C62.1303 14.1008 62.2472 13.3997 62.0329 12.757C62.5589 13.0491 63.1434 13.0296 63.7084 12.757C63.4356 13.3218 63.3188 13.945 63.4551 14.5293C62.9291 14.3345 62.3446 14.4124 61.7991 14.7046M66.8646 9.38758C66.6503 9.89396 66.5724 10.4393 66.6698 10.9652C66.2217 10.8288 65.7346 10.8872 65.2865 11.1015C65.5203 10.5756 65.6177 9.99134 65.4813 9.44601C65.9294 9.64077 66.436 9.58234 66.8841 9.36811M68.696 6.03768C69.1051 6.19349 69.5532 6.15454 69.9818 5.95978C69.787 6.42721 69.7091 6.91411 69.7675 7.40102C69.3584 7.28416 68.9298 7.34259 68.5206 7.53735C68.7155 7.05045 68.8129 6.52459 68.7155 6.01821M71.9301 2.49302C72.3198 2.64883 72.7289 2.60988 73.1185 2.43459C72.9432 2.90202 72.8458 3.4084 72.9042 3.89531C72.5341 3.77845 72.1249 3.83688 71.7548 4.01217C71.9496 3.52526 72.0275 2.9994 71.9496 2.49302M74.9499 -1.18797C75.3591 -1.01268 75.8072 -1.05164 76.2163 -1.26588C76.002 -0.740021 75.9241 -0.175213 75.963 0.370121C75.5929 0.233788 75.1837 0.272739 74.7746 0.448025C74.9694 -0.0778313 75.0473 -0.642639 74.9304 -1.1685M62.52 8.33587C62.9486 7.63473 63.046 6.81673 62.6758 6.09611C63.2798 6.52459 64.0006 6.50511 64.6631 6.17402C64.3319 6.77777 64.176 7.49839 64.3708 8.16058C63.7863 7.90739 63.1239 8.00478 62.5394 8.35535M67.8777 2.78516C67.5855 3.36945 67.4296 4.01217 67.5465 4.61592C67.0399 4.42116 66.4749 4.53802 65.9489 4.83016C66.2801 4.18745 66.3775 3.44735 66.0658 2.80464C66.6308 3.15521 67.2932 3.11626 67.8777 2.80464M69.2805 -0.681595C69.8455 -0.350498 70.4689 -0.428402 71.0339 -0.778973C70.7806 -0.214165 70.6637 0.409073 70.7806 0.993359C70.2741 0.837547 69.748 0.993359 69.2415 1.2855C69.5337 0.642788 69.5727 -0.0583572 69.2805 -0.681595ZM72.3392 -4.44049C72.9432 -4.07044 73.6056 -4.22625 74.1706 -4.63525C73.8589 -3.99254 73.7225 -3.25245 73.8784 -2.57078C73.3523 -2.78502 72.7873 -2.66816 72.3003 -2.31758C72.612 -2.99925 72.6704 -3.75883 72.3392 -4.42102M75.1253 -8.4331C75.8461 -7.75144 76.7034 -7.86829 77.4047 -8.4331C76.9761 -7.75144 76.7813 -6.89449 76.9956 -6.13491C76.4501 -6.44653 75.8072 -6.34915 75.2617 -5.95963C75.6708 -6.77763 75.7487 -7.71249 75.1253 -8.45258M78.9439 -3.07716C78.5542 -3.2914 78.1061 -3.25245 77.697 -3.05768C77.9308 -3.66145 78.0087 -4.30416 77.8528 -4.90792C78.3009 -4.61578 78.8075 -4.61578 79.2946 -4.84949C79.0413 -4.30416 78.9049 -3.68092 78.9634 -3.07716M82.5092 -8.47206C82.1001 -7.80987 81.9247 -7.01134 82.0027 -6.25177C81.5935 -6.56339 81.1065 -6.58287 80.6194 -6.34916C80.9506 -7.0503 81.048 -7.86829 80.7752 -8.58891C81.2818 -8.10201 81.9052 -8.08253 82.5092 -8.47206ZM87.0487 -7.45929C86.6395 -6.85553 86.4642 -6.07649 86.5032 -5.3364C86.172 -5.68697 85.7628 -5.86225 85.3147 -5.74539C85.6459 -6.42706 85.7433 -7.2061 85.5875 -7.96568C85.9576 -7.42034 86.4837 -7.18663 87.0682 -7.43982M82.5677 -2.8824C82.782 -3.42773 82.8599 -4.01202 82.8015 -4.57682C83.1327 -4.30416 83.5223 -4.24573 83.9315 -4.38206C83.6977 -3.8562 83.6002 -3.27192 83.6392 -2.70711C83.3275 -2.92135 82.9573 -2.97978 82.5871 -2.86292M80.7752 0.331169C80.4635 0.175358 80.1323 0.155884 79.7816 0.272743C79.9375 -0.214161 80.0154 -0.720543 79.957 -1.20745C80.2687 -1.03216 80.6194 -0.99321 80.9701 -1.09059C80.8142 -0.623161 80.7363 -0.136261 80.7558 0.350643M91.0816 -5.35587C90.6919 -4.84949 90.5556 -4.1873 90.5751 -3.52511C90.3023 -3.8562 89.9516 -4.07044 89.562 -4.03149C89.8347 -4.63525 89.9126 -5.3364 89.8542 -5.99858C90.1269 -5.4922 90.5361 -5.21954 91.0816 -5.3364M87.263 -3.27192C87.5358 -2.99926 87.8475 -2.84344 88.2176 -2.8824C88.0228 -2.45392 87.9644 -1.96702 87.9838 -1.48011C87.7111 -1.69435 87.3799 -1.79173 87.0487 -1.77226C87.224 -2.23969 87.302 -2.76554 87.263 -3.29139M85.4511 -0.292068C85.2952 0.116932 85.2368 0.545406 85.2563 0.973881C85.003 0.837547 84.7108 0.798595 84.438 0.857025C84.5744 0.428551 84.6328 -0.0388794 84.6133 -0.506306C84.8666 -0.33102 85.1589 -0.253117 85.4706 -0.311546M82.6261 3.89531C82.3533 3.75897 82.0806 3.72002 81.7883 3.77845C81.9247 3.38893 81.9832 2.97993 81.9637 2.55145C82.217 2.68779 82.5092 2.72674 82.782 2.66831C82.6651 3.05783 82.6066 3.46683 82.6261 3.87583M65.9489 17.6649C65.4424 17.4702 64.8968 17.5286 64.3903 17.7623C64.6825 17.2365 64.78 16.6327 64.6631 16.0484C65.1306 16.2432 65.6177 16.2042 66.0853 16.0095C65.871 16.5548 65.8125 17.1196 65.9489 17.6649ZM79.8206 7.01149C79.5478 6.91411 79.2751 6.89463 79.0023 6.95306C79.1387 6.56354 79.1972 6.13506 79.1777 5.70659C79.4309 5.80397 79.7037 5.82344 79.9765 5.74554C79.8596 6.15454 79.8011 6.56354 79.8206 6.99202M92.4064 -0.895828C92.2506 -0.564735 92.2311 -0.175213 92.309 0.194836C92.0168 0.0195503 91.705 -0.116783 91.3933 -0.116783C91.5102 -0.486828 91.5297 -0.915306 91.4713 -1.32431C91.744 -1.07112 92.0557 -0.93478 92.4064 -0.915306M84.7692 6.2714C84.6718 6.62197 84.6328 7.01149 84.6718 7.38154C84.399 7.26468 84.1263 7.22573 83.834 7.26468C83.9314 6.91411 83.9704 6.54406 83.9315 6.17402C84.2042 6.29087 84.477 6.32983 84.7692 6.2714ZM89.0944 0.915455C89.3282 1.09074 89.6009 1.16864 89.8932 1.16864C89.7763 1.51921 89.7373 1.88926 89.7957 2.27878C89.5425 2.12297 89.2697 2.04507 88.997 2.06455C89.1138 1.6945 89.1333 1.32445 89.1138 0.934929M87.3409 3.52526C87.2435 3.87583 87.2045 4.26535 87.2435 4.65488C86.9902 4.51854 86.7175 4.47959 86.4642 4.49907C86.5616 4.12902 86.6006 3.7395 86.5616 3.34998C86.8149 3.48631 87.0682 3.54473 87.3604 3.52526M95.0756 -2.76554C94.8028 -2.37602 94.7443 -1.94754 94.8807 -1.51907C94.53 -1.7333 94.1599 -1.86964 93.7897 -1.85016C93.9456 -2.29811 93.9261 -2.80449 93.8287 -3.31087C94.1404 -2.90187 94.569 -2.66816 95.0756 -2.76554ZM92.2116 4.77173C92.1142 5.10283 92.0947 5.43392 92.1726 5.78449C91.8804 5.64816 91.5881 5.58973 91.2764 5.60921C91.3738 5.25864 91.3738 4.90807 91.3154 4.53802C91.6076 4.69383 91.8999 4.75226 92.2116 4.77173ZM95.0366 2.70726C94.9197 3.01888 94.9197 3.3305 94.9781 3.66159C94.6469 3.52526 94.3352 3.44735 93.9845 3.46683C94.0625 3.13573 94.0625 2.80464 93.9845 2.45407C94.3157 2.62936 94.6664 2.70726 95.0171 2.70726M98.1538 0.486977C98.0174 0.818073 97.998 1.16864 98.1149 1.51921C97.6862 1.38288 97.2576 1.3634 96.829 1.42183C96.9069 1.05178 96.829 0.68174 96.6731 0.311691C97.1407 0.486977 97.6473 0.545406 98.1343 0.467499M100.161 -0.915306C100.355 -1.3243 100.375 -1.77225 100.2 -2.22021C100.842 -2.00597 101.544 -1.9865 102.206 -2.1423C101.914 -1.73331 101.836 -1.28535 101.972 -0.817924C101.388 -0.99321 100.745 -1.03216 100.161 -0.915306ZM81.7104 15.7758C81.574 16.2432 81.5546 16.7496 81.6325 17.2365C81.2818 17.0417 80.9116 17.0222 80.522 17.1196C80.6973 16.6717 80.7558 16.2042 80.7168 15.7368C81.048 15.8537 81.3792 15.8537 81.7104 15.7563M84.2821 12.718C84.1847 13.1465 84.1652 13.575 84.2237 14.0034C83.9314 13.8671 83.6197 13.8476 83.3275 13.9255C83.4444 13.5165 83.5028 13.0881 83.4444 12.6596C83.7171 12.7764 83.9899 12.7959 84.2821 12.7375M88.6657 7.01149C88.9385 7.14782 89.2502 7.20625 89.562 7.18678C89.4645 7.53735 89.445 7.90739 89.5035 8.25797C89.2113 8.12163 88.8995 8.0632 88.5878 8.10215C88.6852 7.75158 88.7242 7.38154 88.6657 7.01149ZM86.8344 9.83553C86.737 10.2056 86.698 10.5951 86.7564 10.9652C86.4837 10.8483 86.1914 10.8093 85.9187 10.8678C86.0161 10.4977 86.0551 10.1082 86.0356 9.71867C86.2889 9.83553 86.5811 9.87449 86.8539 9.83553M98.0759 5.95978C97.92 6.31035 97.8811 6.69987 97.9395 7.06992C97.5693 6.91411 97.1797 6.85568 96.79 6.87516C96.9264 6.52459 96.9459 6.13506 96.868 5.76502C97.2576 5.92083 97.6668 5.97926 98.0759 5.9403M101.602 3.50578C101.446 3.85635 101.407 4.24588 101.485 4.6354C101.057 4.47959 100.609 4.44064 100.161 4.49907C100.297 4.12902 100.297 3.73949 100.18 3.36945C100.628 3.52526 101.115 3.56421 101.602 3.52526M113.623 -3.05768C113.175 -2.62921 113.039 -2.0644 113.156 -1.48011C112.668 -1.88911 112.084 -2.10335 111.461 -2.08387C111.792 -2.51235 111.831 -3.01873 111.616 -3.54459C112.22 -3.15506 112.922 -2.9603 113.623 -3.05768ZM119.37 -0.408924C118.903 0.0195503 118.728 0.642788 118.786 1.2855C118.377 0.818073 117.831 0.506454 117.208 0.506454C117.637 0.0585022 117.773 -0.525784 117.675 -1.14902C118.124 -0.662117 118.728 -0.369972 119.37 -0.389446M123.325 -2.08387C122.585 -1.6554 122.351 -0.93478 122.449 -0.136261C122.001 -0.681591 121.358 -0.99321 120.656 -0.954258C121.182 -1.46064 121.28 -2.20073 121.085 -2.9603C121.63 -2.25916 122.429 -1.85016 123.325 -2.0644M121.143 4.03164C120.656 4.49907 120.462 5.16125 120.52 5.8624C120.111 5.31707 119.526 4.98597 118.864 4.98597C119.351 4.53802 119.546 3.89531 119.507 3.23312C119.916 3.73949 120.481 4.05111 121.124 4.03164M124.904 2.45407C124.319 2.9215 124.105 3.64212 124.183 4.40168C123.754 3.83688 123.17 3.46683 122.488 3.48631C122.994 3.01888 123.209 2.31774 123.15 1.61659C123.579 2.1814 124.202 2.5125 124.904 2.45407ZM129.112 0.798595C128.177 1.22707 127.845 2.14245 127.982 3.0773C127.534 2.37616 126.832 1.90874 126.014 1.98664C126.676 1.48026 126.91 0.662262 126.754 -0.175213C127.261 0.62331 128.118 1.09074 129.092 0.798595M113.818 10.3614C114.363 11.1989 115.26 11.6663 116.292 11.2378C117.266 10.8288 117.617 9.93291 117.539 8.99806C118.104 9.73816 118.981 10.1472 119.955 9.73815C120.929 9.34863 121.28 8.45273 121.202 7.51787C121.767 8.25797 122.624 8.62801 123.598 8.23849C124.592 7.82949 124.923 6.93359 124.826 5.97925C125.371 6.71935 126.228 7.10887 127.203 6.73883C128.255 6.32983 128.625 5.33654 128.469 4.30431C129.014 5.14178 129.911 5.60921 130.943 5.21968C132.151 4.75225 132.443 3.50578 132.073 2.35669C132.521 3.42788 133.534 4.14849 134.703 3.70054C135.911 3.23312 136.184 1.94769 135.755 0.798595C135.327 -0.350498 134.294 -1.12954 133.067 -0.662117C131.898 -0.214165 131.606 0.993359 131.956 2.1035C131.508 1.03231 130.534 0.331169 129.385 0.68174C130.515 0.155884 130.787 -1.09059 130.339 -2.22021C129.872 -3.38878 128.781 -4.16782 127.534 -3.68092C126.501 -3.27192 126.15 -2.31759 126.326 -1.32431C125.8 -2.12283 124.923 -2.57078 123.968 -2.33706C124.904 -2.90187 125.098 -4.01202 124.611 -5.02478C124.085 -6.15439 122.916 -6.83606 121.708 -6.36863C120.676 -5.95963 120.345 -5.02478 120.578 -4.07044C119.955 -4.92739 118.922 -5.4143 117.87 -4.96635C116.935 -4.55735 116.662 -3.75882 116.818 -2.92135C116.292 -3.44721 115.571 -3.70039 114.85 -3.62249C115.532 -4.24573 115.552 -5.21954 114.928 -6.07648C114.169 -7.14767 112.746 -7.57615 111.519 -7.01134C110.545 -6.58287 110.175 -5.72592 110.486 -4.90792C109.746 -5.39482 108.791 -5.60906 107.915 -5.39482C108.597 -6.01806 108.733 -6.91396 108.09 -7.77091C107.311 -8.8421 105.888 -9.17319 104.719 -8.54996C103.687 -8.00463 103.102 -6.95292 103.57 -5.95963C102.674 -6.68025 101.407 -6.66077 100.355 -6.17387C101.291 -6.85553 101.739 -7.9462 101.252 -9.03686C100.726 -10.2249 99.654 -10.556 98.563 -9.89381C97.4719 -9.23162 96.7316 -7.96568 97.2187 -6.66077C97.6473 -5.51168 98.7188 -5.37535 99.6929 -5.80382C98.9526 -5.25849 98.4655 -4.44049 98.6604 -3.66144C97.9785 -3.93411 97.1797 -3.97306 96.4783 -3.75883C97.1018 -4.57682 97.394 -5.72592 97.1212 -6.6413C96.7316 -7.86829 95.738 -8.33572 94.6274 -7.67353C93.7897 -7.16715 93.3221 -6.13491 93.3026 -5.16111C93.0299 -5.70644 92.6207 -6.13492 92.0557 -6.03754C92.6987 -6.81658 92.8156 -8.02411 92.6792 -8.95896C92.5233 -10.0886 91.7245 -10.9066 90.6335 -10.2444C89.7568 -9.71853 89.4256 -8.54996 89.484 -7.5372C89.1528 -8.17991 88.5878 -8.53048 87.9449 -8.27729C88.5683 -9.11477 88.7242 -10.2833 88.4319 -11.2961C88.0813 -12.4841 87.0487 -13.01 86.0551 -12.153C85.2173 -11.4324 84.964 -10.1665 85.1589 -9.11477C84.7108 -9.77696 84.0289 -9.89381 83.3665 -9.44587C83.912 -10.3612 84.0678 -11.5688 83.5223 -12.5426C82.8599 -13.7111 81.6325 -13.458 80.8532 -12.4841C80.1908 -11.6467 79.879 -10.4391 80.2492 -9.46534C79.6258 -10.0107 78.827 -9.85486 78.1646 -9.32901C78.6906 -10.2054 78.788 -11.3156 78.0282 -12.1336C77.132 -13.0879 75.9825 -12.64 75.2227 -11.7246C74.4823 -10.8481 74.1901 -9.54324 74.9889 -8.62786C74.0732 -9.50429 72.8653 -9.15372 72.086 -8.21886C71.3846 -7.38139 71.1118 -6.21282 71.6184 -5.25849C70.7417 -5.80382 69.7091 -5.37535 69.0272 -4.53787C68.3648 -3.71987 68.0336 -2.59026 68.4817 -1.63593C67.6244 -2.1423 66.6113 -1.79173 65.8905 -1.01269C65.1696 -0.214165 64.8579 0.895977 65.2865 1.85031C64.4293 1.32445 63.3967 1.63607 62.6369 2.39564C61.8576 3.17469 61.5069 4.32378 62.0134 5.27811C61.1757 4.67435 60.0846 4.90807 59.2858 5.64816C58.3701 6.50511 58.1169 7.86844 58.9741 8.90068C59.656 9.71867 60.6301 9.77711 61.4679 9.30968C61.0393 9.97187 60.8639 10.8093 61.1172 11.5494C60.3574 11.1015 59.4417 11.2768 58.6819 11.8805C59.5001 11.0431 59.7339 9.87449 58.9546 8.93963C58.1364 7.94635 56.87 8.12163 55.9543 8.93963C55.0386 9.73815 54.7464 10.9457 55.5452 11.939C56.3245 12.8933 57.4739 12.8738 58.3896 12.1532C57.5908 12.9712 57.2791 14.1592 57.8441 15.172C57.0648 14.4319 55.9348 14.4319 55.0581 15.1136C54.084 15.8537 53.8502 17.0222 54.61 17.996C55.3503 18.9699 56.6557 19.0867 57.6298 18.3661C58.526 17.7039 58.7793 16.6327 58.2533 15.6979C58.8962 16.3211 59.7145 16.3406 60.4548 15.99C60.0846 16.6522 59.9677 17.4507 60.2989 18.1324C59.5001 17.6065 58.4676 17.7818 57.6103 18.444C56.5777 19.223 56.4998 20.4695 57.357 21.4433C58.1558 22.3587 59.3053 22.4561 60.1431 21.7549C59.4807 22.6508 59.4222 23.8194 60.221 24.6764C61.0977 25.6307 62.3057 25.4749 63.1824 24.579C63.9032 23.8584 64.137 22.8651 63.7474 21.9887C64.3708 22.3587 65.0722 22.3587 65.7151 22.0471C65.3255 22.8261 65.345 23.722 65.91 24.4621C65.1306 23.6441 64.0006 23.7999 63.2019 24.6179C62.3836 25.4554 62.3057 26.7019 63.1239 27.5588C63.9422 28.4353 65.0527 28.3768 65.832 27.5199C66.5724 26.7019 66.7477 25.5528 66.0853 24.6569C66.8062 25.4359 67.7608 25.4359 68.5401 24.8711C68.0141 25.6891 67.9946 26.7408 68.657 27.5394C69.4363 28.4742 70.5858 28.4353 71.3651 27.5394C72.047 26.7798 72.2223 25.7281 71.7742 24.8517C72.5536 25.4944 73.5667 25.3386 74.307 24.5011C74.9304 23.7999 75.1448 22.8651 74.911 22.0081C75.4175 22.2613 75.9825 22.2029 76.4696 21.8913C76.1384 22.7093 76.1968 23.6636 76.7618 24.4037C77.4827 25.3775 78.5737 25.2996 79.3335 24.3842C79.9375 23.6441 80.1518 22.6119 79.8401 21.7355C80.5415 22.2613 81.3403 22.125 82.0416 21.3654C82.6456 20.7032 82.8989 19.8073 82.743 18.9504C83.1911 19.223 83.7171 19.223 84.2042 18.9504C83.8535 19.7294 83.9315 20.6643 84.4185 21.4238C85.0614 22.3977 86.1135 22.4756 86.9123 21.6186C87.5942 20.898 87.7695 19.8463 87.3994 18.9504C88.0618 19.5736 88.8995 19.6126 89.6204 18.853C90.2244 18.2103 90.3997 17.3144 90.2244 16.4769C90.7699 16.8859 91.4323 16.9443 92.0557 16.5548C91.5102 17.2949 91.5492 18.3271 92.0168 19.1451C92.5623 20.08 93.478 20.3527 94.3352 19.6126C95.1924 18.8725 95.3288 17.6065 94.7249 16.6717C94.2183 15.8537 93.4195 15.5615 92.6597 15.99C93.1273 15.4057 93.2831 14.6656 93.1662 13.945C93.6143 14.2177 94.1014 14.2956 94.608 14.1398C94.2183 14.8799 94.3352 15.8147 94.7833 16.5743C95.3873 17.5676 96.4199 17.996 97.394 17.2365C98.1928 16.6132 98.3292 15.62 98.0174 14.7241C98.7188 15.4447 99.7319 15.581 100.667 14.9188C101.485 14.354 101.856 13.4581 101.719 12.5622C102.421 13.127 103.356 13.2633 104.252 12.7375C105.09 12.2311 105.46 11.3936 105.401 10.4977C105.927 10.9262 106.57 11.121 107.252 10.9067C106.609 11.6079 106.531 12.6596 106.902 13.536C107.35 14.6072 108.304 15.2304 109.376 14.6072C110.428 13.984 110.603 12.6985 110.214 11.6273C110.642 12.7375 111.616 13.3218 112.727 12.718C113.643 12.2311 113.935 11.2573 113.779 10.3224M99.4981 18.3856C99.128 17.7039 98.4461 17.4118 97.7836 17.9181C97.1407 18.4245 97.0823 19.3204 97.4524 20.0216C97.8226 20.7227 98.5045 20.9954 99.1669 20.489C99.8293 19.9826 99.8488 19.0867 99.4786 18.405M76.9956 30.2855C77.4437 30.8698 78.0866 30.8698 78.5347 30.2855C79.0023 29.7207 79.0608 28.9027 78.6127 28.3184C78.1646 27.7341 77.5216 27.7731 77.0541 28.3184C76.5865 28.8832 76.5475 29.6817 76.9956 30.266M65.7151 39.5756C65.5593 39.4003 65.3255 39.3419 65.1306 39.4977C64.9358 39.6535 64.9748 39.9067 65.1306 40.082C65.2865 40.2573 65.5203 40.3157 65.7151 40.1599C65.8905 40.0041 65.871 39.7509 65.7151 39.5756ZM81.3402 27.3446C81.9247 26.6629 81.9832 25.6112 81.4571 24.8711C80.9311 24.1116 80.1713 24.1116 79.5868 24.8127C79.0023 25.5138 78.9244 26.5656 79.4504 27.3056C79.9765 28.0652 80.7363 28.0457 81.3208 27.3641M83.1132 29.0196C82.9183 28.7274 82.6066 28.6885 82.3728 28.9611C82.139 29.2338 82.139 29.6428 82.3339 29.9349C82.5287 30.2271 82.8404 30.266 83.0742 29.9934C83.308 29.7207 83.308 29.3117 83.1132 29.0196ZM85.8797 27.3446C86.2889 26.8772 86.2499 26.1566 85.9382 25.6502C85.6264 25.1438 85.1199 25.0464 84.7302 25.5138C84.3406 25.9813 84.3406 26.6629 84.6523 27.1498C84.964 27.6562 85.4511 27.812 85.8797 27.3446ZM72.8653 35.583C72.7289 35.4272 72.5341 35.3688 72.3782 35.5246C72.2223 35.6804 72.2418 35.9141 72.3782 36.0894C72.5146 36.2647 72.7094 36.3036 72.8848 36.1478C73.0601 35.992 73.0211 35.7583 72.8848 35.6025M75.6708 33.1485C75.9825 32.7785 76.002 32.2331 75.7098 31.8631C75.4175 31.4735 74.9694 31.4735 74.6772 31.8631C74.3654 32.2331 74.346 32.7785 74.6382 33.1485C74.9304 33.538 75.3591 33.5185 75.6708 33.1485ZM96.264 20.9954C95.9912 20.45 95.4457 20.2748 94.9587 20.7032C94.4911 21.1317 94.4716 21.8134 94.7444 22.3392C95.0171 22.8651 95.5237 23.1183 96.0302 22.7093C96.5173 22.3003 96.5368 21.5602 96.264 20.9954ZM155.725 -6.89449C155.92 -6.32968 156.427 -5.95963 157.031 -6.19334C157.615 -6.40758 157.751 -7.0503 157.557 -7.59563C157.342 -8.16043 156.855 -8.53048 156.251 -8.29677C155.667 -8.06306 155.53 -7.43982 155.725 -6.89449ZM151.653 -5.3364C151.926 -4.5963 152.588 -4.1094 153.348 -4.40154C154.128 -4.69368 154.303 -5.51168 154.03 -6.25177C153.757 -6.99187 153.095 -7.47877 152.335 -7.18663C151.556 -6.89449 151.381 -6.07649 151.653 -5.3364ZM142.38 -6.85553C142.652 -6.09597 143.334 -5.60906 144.133 -5.9012C144.932 -6.21282 145.107 -7.0503 144.834 -7.79039C144.562 -8.54996 143.88 -9.03687 143.081 -8.74472C142.282 -8.4331 142.107 -7.59563 142.38 -6.85553ZM159.875 -8.49153C160.011 -8.14096 160.304 -7.90725 160.674 -8.04358C161.044 -8.17991 161.122 -8.56944 161.005 -8.92001C160.869 -9.27058 160.557 -9.50429 160.187 -9.36796C159.817 -9.23162 159.739 -8.8421 159.875 -8.49153ZM147.62 -3.7783C147.952 -2.90187 148.731 -2.31759 149.647 -2.66816C150.562 -3.01873 150.777 -3.99254 150.465 -4.86897C150.134 -5.74539 149.354 -6.32968 148.439 -5.97911C147.504 -5.62854 147.309 -4.65472 147.62 -3.7783ZM150.679 -10.0496C150.796 -9.71853 151.088 -9.50429 151.439 -9.64062C151.77 -9.77695 151.848 -10.1275 151.731 -10.4586C151.614 -10.7897 151.322 -11.004 150.971 -10.8676C150.621 -10.7313 150.562 -10.3807 150.679 -10.0496ZM146.49 -8.4331C146.705 -7.86829 147.192 -7.49825 147.796 -7.73196C148.38 -7.96568 148.517 -8.58891 148.322 -9.13424C148.107 -9.69905 147.62 -10.0691 147.016 -9.83538C146.432 -9.60167 146.296 -8.97844 146.49 -8.4331ZM183.741 -2.39549C183.878 -2.02545 184.209 -1.77225 184.599 -1.92807C184.988 -2.08387 185.086 -2.49287 184.949 -2.86292C184.813 -3.23297 184.482 -3.48616 184.092 -3.33035C183.702 -3.17454 183.605 -2.76554 183.741 -2.39549ZM179.806 -0.87635C179.981 -0.408924 180.39 -0.0973053 180.877 -0.292068C181.364 -0.486832 181.481 -0.99321 181.306 -1.46064C181.131 -1.92807 180.722 -2.23969 180.234 -2.04492C179.747 -1.85016 179.63 -1.34378 179.806 -0.87635ZM163.187 -1.2464C162.369 -0.93478 162.174 -0.0583534 162.466 0.701218C162.758 1.48026 163.44 2.00612 164.259 1.67502C165.077 1.36341 165.272 0.486977 164.979 -0.272591C164.687 -1.05164 164.005 -1.5775 163.168 -1.2464M160.966 -3.81725C161.219 -3.13559 161.843 -2.66816 162.564 -2.94083C163.284 -3.21349 163.46 -3.99254 163.207 -4.6742C162.953 -5.35587 162.33 -5.8233 161.609 -5.55063C160.869 -5.27797 160.713 -4.49892 160.966 -3.81725ZM169.09 -6.95292C169.227 -6.60234 169.538 -6.34916 169.928 -6.50496C170.298 -6.66077 170.396 -7.05029 170.259 -7.42034C170.123 -7.77091 169.811 -8.0241 169.422 -7.88777C169.051 -7.73196 168.954 -7.34244 169.09 -6.97239M156.972 -2.27864C157.264 -1.46064 158.005 -0.915306 158.862 -1.2464C159.719 -1.5775 159.914 -2.4734 159.622 -3.29139C159.329 -4.10939 158.589 -4.65473 157.732 -4.32363C156.875 -3.99254 156.68 -3.09664 156.972 -2.27864ZM164.999 -5.37535C165.194 -4.83001 165.681 -4.45996 166.265 -4.6742C166.83 -4.88844 166.967 -5.51168 166.772 -6.05701C166.577 -6.60234 166.071 -6.97239 165.506 -6.75815C164.941 -6.54391 164.804 -5.92068 164.999 -5.37535ZM138.308 -5.27797C138.658 -4.38206 139.477 -3.7783 140.431 -4.14835C141.386 -4.51839 141.6 -5.53115 141.269 -6.42706C140.938 -7.34244 140.1 -7.92672 139.145 -7.55667C138.191 -7.18663 137.957 -6.17387 138.308 -5.27797ZM133.71 -20.5278C133.71 -20.5278 133.71 -20.5473 133.71 -20.5667C133.71 -20.5667 133.69 -20.5667 133.671 -20.5667C133.671 -20.5667 133.671 -20.5473 133.671 -20.5278C133.671 -20.5278 133.69 -20.5278 133.71 -20.5278ZM123.306 -9.52377C123.637 -8.74472 124.416 -8.27729 125.254 -8.60839C126.092 -8.93948 126.306 -9.77695 125.975 -10.595C125.644 -11.3935 124.845 -11.822 124.007 -11.4909C123.17 -11.1598 122.975 -10.3223 123.306 -9.52377ZM131.995 -12.9905C132.132 -12.6594 132.424 -12.4647 132.775 -12.601C133.125 -12.7373 133.203 -13.0879 133.086 -13.419C132.95 -13.7501 132.658 -13.9449 132.307 -13.8085C131.956 -13.6722 131.878 -13.3216 131.995 -12.9905ZM127.612 -11.2377C127.865 -10.6534 128.43 -10.3223 129.034 -10.5755C129.638 -10.8287 129.813 -11.4519 129.579 -12.0362C129.326 -12.6205 128.761 -12.9516 128.157 -12.6984C127.553 -12.4452 127.358 -11.822 127.612 -11.2377ZM117.403 -12.1336C117.753 -11.4909 118.435 -11.1987 119.117 -11.4909C119.799 -11.783 120.013 -12.4257 119.682 -13.0879C119.351 -13.7306 118.611 -13.9838 117.929 -13.7111C117.247 -13.419 117.052 -12.7763 117.403 -12.153M119.059 -7.86829C119.585 -6.95291 120.481 -6.36863 121.514 -6.77763C122.546 -7.18663 122.76 -8.17991 122.332 -9.17319C121.903 -10.147 120.832 -10.6144 119.819 -10.2054C118.805 -9.77696 118.552 -8.80315 119.078 -7.88777M115.649 -8.70577C114.539 -8.19939 114.285 -7.05029 114.928 -6.07648C115.591 -5.10268 116.701 -4.53787 117.831 -4.98582C118.961 -5.45325 119.234 -6.68025 118.611 -7.71248C117.987 -8.74472 116.76 -9.21215 115.63 -8.70577M128.898 -6.7192C129.307 -5.80382 130.164 -5.21954 131.138 -5.58958C132.112 -5.95963 132.326 -6.97239 131.956 -7.90725C131.586 -8.8421 130.69 -9.40691 129.696 -9.01739C128.722 -8.62786 128.469 -7.63458 128.878 -6.7192M131.372 -5.0053C130.203 -4.55735 129.95 -3.33035 130.378 -2.23969C130.807 -1.14902 131.8 -0.38945 132.989 -0.837402C134.177 -1.28535 134.45 -2.53183 134.002 -3.64197C133.573 -4.75211 132.541 -5.47273 131.372 -5.02478M136.71 -2.43445C137.801 -2.84344 138.054 -3.99254 137.645 -5.0053C137.236 -6.01806 136.301 -6.69972 135.21 -6.29073C134.138 -5.88173 133.905 -4.73263 134.294 -3.71987C134.684 -2.70711 135.619 -2.00597 136.71 -2.43445ZM141.425 -11.5882C141.542 -11.2766 141.815 -11.0819 142.146 -11.1987C142.477 -11.3156 142.555 -11.6661 142.438 -11.9778C142.321 -12.2894 142.048 -12.5036 141.717 -12.3673C141.386 -12.231 141.308 -11.8999 141.425 -11.5882ZM175.851 0.642788C176.046 1.18812 176.552 1.57764 177.156 1.34393C177.741 1.11021 177.877 0.48698 177.682 -0.0583534C177.468 -0.603683 176.981 -0.99321 176.377 -0.759495C175.792 -0.525784 175.656 0.0974541 175.851 0.642788ZM125.663 -7.71248C124.553 -7.26453 124.28 -6.13491 124.767 -5.10268C125.254 -4.05096 126.306 -3.42773 127.436 -3.87568C128.547 -4.32364 128.8 -5.45325 128.313 -6.48549C127.826 -7.51772 126.774 -8.16043 125.663 -7.71248ZM133.028 -8.31625C133.32 -7.55667 134.002 -7.06977 134.801 -7.38139C135.6 -7.69301 135.794 -8.53048 135.502 -9.29005C135.21 -10.0496 134.509 -10.5365 133.71 -10.2249C132.911 -9.91329 132.716 -9.07582 133.008 -8.31625M137.197 -9.93277C137.411 -9.36796 137.918 -9.01739 138.502 -9.23162C139.087 -9.46534 139.243 -10.0886 139.029 -10.6339C138.814 -11.1987 138.308 -11.5493 137.723 -11.335C137.139 -11.1013 136.983 -10.4781 137.197 -9.93277ZM121.903 -13.9838C122.118 -13.5553 122.546 -13.3411 122.994 -13.5359C123.442 -13.7111 123.559 -14.1591 123.364 -14.5876C123.17 -15.016 122.721 -15.2303 122.273 -15.0355C121.825 -14.8602 121.669 -14.4123 121.884 -13.9838M162.135 7.67368C162.992 7.34259 163.187 6.44668 162.895 5.64816C162.603 4.84964 161.882 4.30431 161.024 4.6354C160.167 4.9665 159.972 5.8624 160.284 6.66092C160.576 7.45944 161.297 8.00478 162.154 7.67368M165.915 6.15454C166.733 5.84292 166.908 4.98597 166.636 4.2264C166.363 3.44735 165.661 2.94097 164.843 3.25259C164.025 3.56421 163.849 4.42116 164.122 5.20021C164.395 5.95978 165.096 6.48563 165.915 6.17402M156.466 8.12163C156.758 8.93963 157.498 9.48496 158.355 9.15387C159.213 8.82277 159.407 7.90739 159.115 7.10887C158.823 6.29087 158.083 5.74554 157.225 6.07664C156.368 6.40773 156.173 7.30363 156.466 8.12163ZM160.518 3.27207C161.395 2.94098 161.609 2.00612 161.297 1.16864C160.986 0.331169 160.245 -0.233639 159.349 0.0974579C158.472 0.428551 158.258 1.36341 158.57 2.20088C158.881 3.03836 159.622 3.60316 160.518 3.25259M169.655 4.5575C170.396 4.26535 170.571 3.48631 170.298 2.78516C170.045 2.08402 169.402 1.61659 168.662 1.90874C167.921 2.20088 167.746 2.97993 168.019 3.68107C168.272 4.38221 168.915 4.84964 169.655 4.57697M153.017 6.42721C154.03 6.03769 154.264 4.9665 153.913 4.01217C153.563 3.05783 152.705 2.39564 151.673 2.78516C150.66 3.17469 150.426 4.24588 150.777 5.20021C151.127 6.15454 151.985 6.81673 153.017 6.42721ZM149.237 7.94635C150.27 7.55682 150.504 6.44668 150.153 5.4534C149.783 4.46012 148.906 3.79792 147.854 4.20692C146.802 4.59645 146.568 5.70659 146.938 6.6804C147.289 7.67368 148.185 8.33587 149.237 7.92687M156.758 4.84964C157.712 4.47959 157.927 3.48631 157.596 2.5904C157.264 1.6945 156.446 1.09074 155.511 1.44131C154.576 1.79188 154.361 2.76569 154.654 3.66159C154.615 3.66159 154.556 3.70054 154.517 3.73949C154.361 3.87583 154.381 4.09007 154.517 4.24588C154.654 4.40168 154.829 4.44064 154.985 4.30431C155.394 4.84964 156.037 5.1223 156.758 4.84964ZM166.382 -0.79845C166.636 -0.0973091 167.278 0.370121 168.019 0.0974579C168.759 -0.194687 168.934 -0.973732 168.662 -1.67487C168.408 -2.37601 167.766 -2.84344 167.025 -2.57078C166.285 -2.27864 166.109 -1.49959 166.363 -0.79845M169.811 -3.7004C169.811 -3.7004 169.753 -3.54459 169.811 -3.46668C169.87 -3.38877 169.967 -3.3693 170.045 -3.44721C170.123 -3.50563 170.103 -3.60302 170.045 -3.68092C169.987 -3.75882 169.889 -3.7783 169.811 -3.7004ZM86.737 -48.6124C86.737 -48.6124 86.737 -48.6319 86.737 -48.6514C86.737 -48.6514 86.7175 -48.6514 86.698 -48.6514C86.698 -48.6514 86.698 -48.6319 86.698 -48.6124C86.698 -48.6124 86.7175 -48.6124 86.737 -48.6124ZM174.351 -3.87568C174.526 -3.40825 174.955 -3.07716 175.461 -3.27192C175.968 -3.46668 176.085 -3.99254 175.909 -4.47944C175.734 -4.94687 175.305 -5.27796 174.799 -5.0832C174.292 -4.88844 174.175 -4.36259 174.351 -3.87568ZM172.695 -6.11544C172.831 -5.95963 173.045 -5.9012 173.221 -6.05701C173.377 -6.21282 173.357 -6.42706 173.221 -6.58287C173.084 -6.73867 172.87 -6.7971 172.695 -6.6413C172.519 -6.48549 172.558 -6.27125 172.695 -6.09596M178.384 -5.43377C178.5 -5.10268 178.793 -4.88844 179.143 -5.02478C179.475 -5.16111 179.553 -5.51168 179.436 -5.84277C179.319 -6.17387 179.027 -6.3881 178.695 -6.25177C178.364 -6.11544 178.267 -5.76487 178.403 -5.43377M170.337 -2.31758C170.552 -1.71383 171.097 -1.30483 171.74 -1.53854C172.383 -1.79173 172.519 -2.4734 172.305 -3.07716C172.091 -3.68092 171.545 -4.08992 170.902 -3.83673C170.259 -3.58354 170.123 -2.90187 170.337 -2.29811M145.438 9.42653C146.49 9.01754 146.724 7.92687 146.354 6.93359C145.984 5.9403 145.088 5.27811 144.055 5.66763C143.003 6.07663 142.769 7.18678 143.139 8.16058C143.51 9.15387 144.406 9.81606 145.438 9.42653ZM150.036 -1.67487C149.023 -1.28535 148.789 -0.214161 149.14 0.74017C149.491 1.6945 150.348 2.35669 151.381 1.96717C152.394 1.57764 152.627 0.506454 152.277 -0.467354C151.926 -1.42168 151.069 -2.0644 150.036 -1.67487ZM136.301 8.12163C137.489 7.67368 137.743 6.40773 137.334 5.29759C136.924 4.18745 135.911 3.4084 134.723 3.87583C133.534 4.32378 133.281 5.57026 133.69 6.69987C134.099 7.82949 135.112 8.58906 136.301 8.12163ZM153.037 -0.759495C153.368 0.136406 154.167 0.74017 155.121 0.389599C156.076 0.0195503 156.29 -0.973732 155.959 -1.88911C155.628 -2.78502 154.829 -3.38877 153.874 -3.01873C152.92 -2.64868 152.705 -1.6554 153.037 -0.759495ZM146.198 -0.311546C145.127 0.0974541 144.893 1.22707 145.263 2.23983C145.633 3.25259 146.549 3.93426 147.62 3.52526C148.692 3.11626 148.926 1.98664 148.556 0.973881C148.185 -0.0388794 147.27 -0.720543 146.198 -0.311546ZM128.781 11.0236C129.95 10.5756 130.203 9.30968 129.794 8.19954C129.385 7.0894 128.371 6.31035 127.183 6.7583C125.995 7.22573 125.8 8.4722 126.209 9.58234C126.618 10.673 127.592 11.4715 128.761 11.0236M132.541 9.58234C133.749 9.11491 134.002 7.86844 133.593 6.73883C133.164 5.60921 132.151 4.84964 130.963 5.29759C129.755 5.76502 129.501 7.03097 129.911 8.16058C130.339 9.2902 131.352 10.0498 132.541 9.60182M123.598 8.27744C122.468 8.74487 122.273 9.97187 122.663 11.0431C123.053 12.1142 123.988 12.8738 125.118 12.4064C126.248 11.939 126.462 10.712 126.073 9.64077C125.683 8.56958 124.748 7.81001 123.598 8.27744ZM135.6 11.0625C135.95 12.0169 136.807 12.6791 137.84 12.2895C138.853 11.9 139.087 10.8288 138.736 9.85501C138.386 8.90068 137.528 8.23849 136.496 8.62801C135.463 9.01754 135.249 10.0887 135.6 11.0625ZM171.935 2.16193C172.169 2.78516 172.734 3.21364 173.415 2.96045C174.078 2.70726 174.234 2.00612 174 1.36341C173.766 0.720692 173.201 0.311695 172.519 0.564884C171.857 0.818073 171.701 1.51921 171.935 2.16193ZM142.36 1.05179C141.23 1.48026 140.977 2.66831 141.366 3.73949C141.756 4.81068 142.711 5.5313 143.86 5.08335C144.99 4.65488 145.243 3.46683 144.854 2.39564C144.464 1.32445 143.49 0.603836 142.36 1.05179ZM140.081 6.64144C141.25 6.19349 141.522 4.94702 141.113 3.85635C140.704 2.74621 139.71 2.00612 138.522 2.45407C137.353 2.90202 137.08 4.12902 137.489 5.23916C137.899 6.3493 138.892 7.10887 140.061 6.64144M141.639 10.8872C142.691 10.4782 142.925 9.38758 142.555 8.3943C142.185 7.40102 141.308 6.73882 140.256 7.14782C139.204 7.55682 138.97 8.64749 139.34 9.64077C139.71 10.6341 140.587 11.2962 141.639 10.9067M146.841 -3.46668C146.49 -4.44049 145.594 -5.0832 144.581 -4.69368C143.549 -4.30416 143.315 -3.21349 143.685 -2.23969C144.036 -1.26588 144.932 -0.623165 145.945 -1.01269C146.977 -1.40221 147.211 -2.49287 146.841 -3.46668ZM140.704 -3.38878C139.594 -2.9603 139.34 -1.79173 139.73 -0.740021C140.12 0.311695 141.074 1.01284 142.185 0.584362C143.295 0.155884 143.549 -1.01269 143.159 -2.0644C142.769 -3.11611 141.815 -3.81725 140.704 -3.38878ZM136.866 -2.02544C135.697 -1.57749 135.424 -0.350494 135.833 0.759647C136.243 1.86979 137.236 2.60988 138.425 2.16193C139.594 1.71398 139.866 0.467503 139.457 -0.642639C139.048 -1.75278 138.054 -2.49287 136.866 -2.04492M75.0084 -14.7044C74.0537 -15.4835 72.8653 -15.1134 72.1249 -14.2175C71.3846 -13.3021 71.3651 -12.1725 72.2808 -11.413C73.1965 -10.6534 74.346 -10.926 75.0863 -11.8025C75.8266 -12.6789 75.9435 -13.9449 74.9889 -14.7239M81.1844 -22.6702C81.9052 -22.1054 82.8599 -22.0469 83.5613 -22.6702C84.2821 -23.2739 84.1652 -24.1893 83.4639 -24.7931C82.7625 -25.3968 81.6715 -25.4747 80.9896 -24.7931C80.2882 -24.1309 80.4635 -23.235 81.1844 -22.6702ZM84.6523 -25.7669C85.2173 -25.2605 86.0745 -25.0268 86.737 -25.5332C87.3994 -26.0395 87.2825 -26.8381 86.6785 -27.3639C86.094 -27.9093 85.1978 -28.104 84.5354 -27.5587C83.873 -27.0134 84.0678 -26.2733 84.6328 -25.7474M73.9368 -20.8589C73.0601 -21.4821 72.0275 -21.2484 71.4236 -20.372C70.8196 -19.4956 70.9949 -18.4244 71.8717 -17.8011C72.7484 -17.1974 73.8004 -17.3921 74.3849 -18.288C74.9694 -19.1645 74.8135 -20.2357 73.9368 -20.8589ZM64.741 -15.8146C64.0396 -16.3209 63.1629 -16.2041 62.6369 -15.5224C62.1108 -14.8213 62.3057 -13.9838 62.9876 -13.458C63.6694 -12.9321 64.5656 -13.049 65.0722 -13.7501C65.5787 -14.4512 65.4424 -15.3082 64.741 -15.8146ZM87.828 -34.9986C88.1592 -34.7064 88.6463 -34.5896 88.9775 -34.9012C89.3282 -35.2128 89.1723 -35.6608 88.8801 -35.9529C88.5683 -36.2451 88.1202 -36.3619 87.7501 -36.0503C87.3799 -35.7582 87.4968 -35.2907 87.828 -34.9986ZM94.1209 -35.5829C94.2378 -35.4076 94.4521 -35.3297 94.6274 -35.4465C94.8223 -35.5634 94.8223 -35.7776 94.7054 -35.9529C94.5885 -36.1282 94.3742 -36.2061 94.1988 -36.0892C94.004 -35.9724 94.004 -35.7582 94.1209 -35.5829ZM76.5865 -24.423C75.7682 -24.9684 74.7746 -24.9294 74.1511 -24.1309C73.5277 -23.3324 73.742 -22.3391 74.5408 -21.7743C75.3591 -21.2095 76.3137 -21.4042 76.9372 -22.1833C77.5411 -22.9623 77.4047 -23.8972 76.5865 -24.4425M79.5673 -27.695C78.827 -28.2014 77.7944 -28.2014 77.171 -27.5003C76.567 -26.7991 76.7034 -25.9422 77.4437 -25.4358C78.1841 -24.9294 79.1582 -25.0073 79.7816 -25.6695C80.4051 -26.3122 80.2882 -27.1886 79.5478 -27.695M88.393 -28.5909C88.7826 -28.1819 89.4256 -27.8703 89.9711 -28.2209C90.5166 -28.5714 90.3607 -29.1557 89.9711 -29.5842C89.562 -30.0127 88.8606 -30.3243 88.3345 -29.9543C87.8085 -29.5647 88.0228 -29.0194 88.4125 -28.6104M84.4575 -19.4761C85.0809 -18.7944 86.0161 -18.5023 86.8344 -19.0671C87.6526 -19.6319 87.5942 -20.6447 86.9513 -21.3847C86.3278 -22.1248 85.2758 -22.3975 84.477 -21.7743C83.6782 -21.1316 83.834 -20.1772 84.477 -19.4956M71.3651 -17.061C70.4884 -17.6648 69.4168 -17.4895 68.7544 -16.652C68.092 -15.834 68.2479 -14.8018 69.1051 -14.1591C69.9624 -13.5164 71.0339 -13.7111 71.6963 -14.5486C72.3587 -15.3861 72.2418 -16.4573 71.3651 -17.061ZM77.7165 -18.4244C76.7618 -19.1255 75.6513 -18.736 75.0084 -17.8401C74.3654 -16.9247 74.4239 -15.7951 75.3201 -15.0939C76.2163 -14.4123 77.2878 -14.7239 77.9503 -15.6003C78.6127 -16.4768 78.6711 -17.7232 77.7165 -18.4244ZM92.27 -30.8307C92.5038 -30.5385 92.9325 -30.3243 93.2637 -30.5385C93.5949 -30.7528 93.5559 -31.1423 93.3221 -31.4344C93.1078 -31.7266 92.6987 -31.8629 92.3675 -31.6487C92.0363 -31.4539 92.0362 -31.1033 92.2506 -30.8112M78.1646 -19.0866C79.0218 -18.5023 79.957 -18.7555 80.6194 -19.515C81.3013 -20.2941 81.2428 -21.2289 80.4051 -21.8911C79.5673 -22.5533 78.4763 -22.378 77.8139 -21.56C77.132 -20.742 77.3073 -19.6708 78.1646 -19.0671M91.9778 -29.8958C91.8609 -29.7984 91.8999 -29.6621 91.9973 -29.5647C92.0947 -29.4674 92.2311 -29.4089 92.348 -29.5063C92.4649 -29.6037 92.4259 -29.74 92.348 -29.8374C92.2506 -29.9348 92.1142 -29.9932 91.9973 -29.8958M81.2623 -16.1846C82.0027 -15.3861 82.9768 -15.5029 83.7366 -16.2625C84.4964 -17.0221 84.5939 -18.1128 83.834 -18.9502C83.0742 -19.7877 81.9442 -19.8656 81.1649 -19.0087C80.3856 -18.1712 80.522 -16.9831 81.2623 -16.1846ZM71.5599 -32.7783C71.0339 -33.1678 70.352 -33.0704 69.9429 -32.5835C69.5143 -32.0772 69.6117 -31.4539 70.1377 -31.0644C70.6637 -30.6944 71.3261 -30.7723 71.7548 -31.2786C72.1834 -31.785 72.086 -32.4083 71.5599 -32.7783ZM80.2297 -35.2128C80.7168 -34.8622 81.4182 -34.7259 81.9053 -35.1739C82.3728 -35.6218 82.1975 -36.1866 81.7104 -36.5567C81.2234 -36.9267 80.483 -37.0241 79.9959 -36.5567C79.5089 -36.0892 79.7621 -35.5439 80.2492 -35.1933M74.6187 -36.2451C74.1122 -36.6151 73.4692 -36.5956 73.0406 -36.1282C72.5925 -35.6608 72.6705 -35.0765 73.177 -34.687C73.6836 -34.3169 74.346 -34.3559 74.7746 -34.8233C75.2227 -35.2907 75.1253 -35.875 74.6187 -36.2451ZM68.696 -29.2142C68.1699 -29.5842 67.527 -29.4284 67.1763 -28.9025C66.8256 -28.3767 66.9231 -27.734 67.4686 -27.3639C68.0141 -26.9939 68.6375 -27.1497 68.9882 -27.6755C69.3389 -28.2014 69.2415 -28.8636 68.7155 -29.2142M76.0994 -39.3612C75.7098 -38.9328 75.8266 -38.4069 76.2942 -38.0953C76.7423 -37.7642 77.3463 -37.7642 77.7554 -38.1927C78.1451 -38.6211 78.0087 -39.1275 77.5606 -39.4391C77.1125 -39.7702 76.5085 -39.7897 76.1189 -39.3612M80.6389 -43.1007C80.7752 -43.0228 80.9311 -43.0228 81.009 -43.1591C81.087 -43.2954 81.0285 -43.4512 80.8921 -43.5291C80.7558 -43.607 80.5999 -43.607 80.5025 -43.4707C80.4246 -43.3344 80.5025 -43.1786 80.6194 -43.1007M79.0608 -42.3995C78.7685 -42.0684 78.8854 -41.64 79.2361 -41.3868C79.5673 -41.1336 80.0349 -41.0751 80.3271 -41.4257C80.6194 -41.7763 80.483 -42.1853 80.1518 -42.4385C79.8206 -42.7111 79.3725 -42.7501 79.0608 -42.3995ZM75.5539 -30.3438C74.872 -30.8112 74.0148 -30.6943 73.4692 -30.0711C72.9237 -29.4479 73.0211 -28.6688 73.703 -28.1819C74.3849 -27.7145 75.2422 -27.8119 75.7877 -28.4546C76.3332 -29.0778 76.2163 -29.8764 75.5344 -30.3438M72.6704 -26.877C71.9691 -27.3639 71.0924 -27.2665 70.6053 -26.5654C70.1182 -25.8448 70.2546 -25.0073 70.956 -24.5009C71.6768 -23.9946 72.5146 -24.2088 73.0017 -24.9099C73.4887 -25.6111 73.3718 -26.3901 72.6704 -26.877ZM84.3796 -32.1161C84.8471 -31.7461 85.5485 -31.5513 86.0745 -31.9603C86.5811 -32.3693 86.3863 -32.9536 85.9382 -33.3431C85.4706 -33.7521 84.6913 -33.9274 84.2042 -33.46C83.7171 -32.9925 83.9314 -32.4667 84.399 -32.0966M80.7947 -28.922C81.4182 -28.4546 82.2754 -28.3962 82.8794 -28.922C83.4833 -29.4674 83.3275 -30.1685 82.704 -30.6554C82.0806 -31.1423 81.1844 -31.2397 80.5999 -30.6554C79.9959 -30.0711 80.1713 -29.37 80.7947 -28.9025M86.6201 -41.4062C86.8344 -41.2115 87.1266 -41.1725 87.3409 -41.3868C87.5552 -41.601 87.4968 -41.8737 87.2825 -42.0684C87.0682 -42.2632 86.7759 -42.3021 86.5616 -42.0879C86.3473 -41.8737 86.4058 -41.5815 86.6201 -41.4062ZM78.6322 -33.5963C78.0282 -34.0248 77.2099 -33.9663 76.7034 -33.421C76.1773 -32.8757 76.2747 -32.194 76.8787 -31.7655C77.4827 -31.3371 78.3009 -31.3955 78.8075 -31.9408C79.314 -32.4862 79.2361 -33.1678 78.6322 -33.5963ZM85.4316 -40.5298C85.4316 -40.5298 85.4121 -40.3156 85.4901 -40.2571C85.5875 -40.1987 85.7044 -40.1987 85.7823 -40.2961C85.8602 -40.3935 85.8213 -40.5103 85.7239 -40.5688C85.6264 -40.6272 85.5095 -40.6272 85.4316 -40.5298ZM83.5418 -38.3095C83.912 -38.0369 84.4185 -37.92 84.7497 -38.2706C85.0809 -38.6211 84.9056 -39.0496 84.5744 -39.3418C84.2432 -39.6339 83.7561 -39.7118 83.4054 -39.3807C83.0547 -39.0496 83.1716 -38.6017 83.5223 -38.329M62.7732 -6.40758C61.9744 -7.10872 60.9419 -6.95291 60.2015 -6.2323C59.4807 -5.4922 59.4417 -4.45997 60.221 -3.73935C61.0003 -3.01873 62.0524 -3.21349 62.7343 -3.95358C63.4162 -4.69368 63.5525 -5.70644 62.7732 -6.40758ZM96.4393 -11.2571C96.6537 -10.2444 97.4719 -9.97172 98.3486 -10.4781C99.2254 -10.9845 99.7514 -12.0751 99.4397 -13.0295C99.128 -13.9838 98.3876 -14.3539 97.5109 -13.8475C96.6342 -13.3411 96.2056 -12.2504 96.4199 -11.2571M100.628 -13.7696C100.901 -13.01 101.622 -12.8347 102.304 -13.2242C102.986 -13.6138 103.297 -14.3928 102.986 -15.1134C102.674 -15.834 101.992 -16.1067 101.31 -15.7172C100.628 -15.3277 100.375 -14.5291 100.628 -13.7696ZM95.8743 -10.9066C95.738 -12.0167 95.0366 -12.7179 93.9845 -12.1141C92.9519 -11.5103 92.6402 -10.0886 92.7571 -8.97843C92.8935 -7.86829 93.5364 -7.1282 94.5885 -7.75144C95.6405 -8.37467 96.0107 -9.79644 95.8743 -10.9066ZM92.27 -13.7501C92.4064 -12.8542 93.0299 -12.3089 93.8676 -12.8152C94.7054 -13.3216 94.9976 -14.4707 94.7833 -15.3471C94.5885 -16.2236 93.9456 -16.8273 93.1273 -16.3015C92.309 -15.7756 92.1337 -14.6655 92.27 -13.7696M95.7769 -16.0093C95.9718 -15.3082 96.4978 -14.8602 97.1797 -15.2692C97.8616 -15.6588 98.0759 -16.5157 97.8616 -17.2558C97.6473 -17.9764 97.0628 -18.3854 96.3809 -17.9959C95.699 -17.5869 95.5821 -16.7299 95.7769 -16.0288M103.57 -20.4109C103.687 -20.1967 103.921 -20.0993 104.135 -20.2162C104.369 -20.333 104.427 -20.5862 104.291 -20.8005C104.174 -21.0147 103.921 -21.0926 103.706 -20.9757C103.492 -20.8589 103.434 -20.6252 103.57 -20.4109ZM104.953 -16.2041C105.168 -15.7367 105.655 -15.5809 106.103 -15.8146C106.57 -16.0483 106.726 -16.5547 106.492 -17.0026C106.259 -17.4506 105.772 -17.6453 105.323 -17.3921C104.875 -17.1584 104.758 -16.6715 104.953 -16.2041ZM99.5371 -18.2491C99.693 -17.7817 100.102 -17.509 100.55 -17.7622C101.018 -17.9959 101.096 -18.5218 100.94 -18.9892C100.803 -19.4566 100.414 -19.7682 99.9267 -19.5345C99.4592 -19.2813 99.3618 -18.736 99.5176 -18.2686M112.902 -10.0496C113.409 -9.21215 114.383 -8.92001 115.26 -9.34848C116.136 -9.77695 116.351 -10.6339 115.903 -11.4714C115.435 -12.3089 114.461 -12.6205 113.604 -12.192C112.727 -11.783 112.396 -10.8871 112.922 -10.0496M109.395 -18.5412C109.512 -18.327 109.727 -18.1907 109.96 -18.3075C110.194 -18.4049 110.233 -18.6581 110.136 -18.8723C110.038 -19.0866 109.804 -19.2229 109.571 -19.106C109.337 -18.9892 109.298 -18.7555 109.395 -18.5412ZM108.363 -7.90725C109.064 -6.93344 110.292 -6.68025 111.344 -7.16715C112.396 -7.65406 112.649 -8.66681 112.026 -9.64062C111.422 -10.6144 110.214 -10.926 109.181 -10.4391C108.129 -9.95224 107.661 -8.88105 108.363 -7.90725ZM88.0423 -22.1443C88.5488 -21.5406 89.3866 -21.2095 90.088 -21.6964C90.7699 -22.1833 90.6335 -22.9818 90.1659 -23.605C89.6983 -24.2283 88.8411 -24.5788 88.1397 -24.0919C87.4383 -23.5856 87.5357 -22.7481 88.0618 -22.1443M101.817 -9.36796C102.304 -8.31625 103.551 -8.33572 104.447 -8.86158C105.362 -9.40691 105.849 -10.4197 105.304 -11.374C104.758 -12.3283 103.706 -12.5426 102.752 -11.9972C101.817 -11.4519 101.329 -10.4002 101.797 -9.36796M115.864 -16.4573C115.98 -16.1846 116.273 -16.0872 116.526 -16.2041C116.799 -16.3209 116.857 -16.5741 116.74 -16.8468C116.623 -17.1 116.37 -17.2363 116.097 -17.1195C115.825 -17.0026 115.727 -16.7299 115.864 -16.4573ZM106.473 -11.9972C106.941 -11.2571 107.817 -11.0429 108.597 -11.413C109.376 -11.783 109.649 -12.601 109.201 -13.3411C108.752 -14.1007 107.876 -14.2954 107.116 -13.9254C106.356 -13.5553 106.005 -12.7373 106.453 -11.9972M111.168 -14.3344C111.461 -13.789 112.064 -13.6138 112.61 -13.8669C113.155 -14.1396 113.331 -14.6849 113.039 -15.2108C112.746 -15.7561 112.162 -15.9314 111.616 -15.6782C111.071 -15.4056 110.876 -14.8602 111.168 -14.3149M83.6392 -12.601C84.2042 -11.5688 85.1004 -11.4714 85.9966 -12.231C86.8733 -13.01 87.1851 -14.2759 86.6006 -15.3471C85.9966 -16.4183 84.9056 -16.7299 84.0094 -15.8535C83.1132 -14.9771 83.0742 -13.6138 83.6587 -12.601M72.086 -11.1598C71.1313 -11.9778 69.9039 -11.6467 69.1636 -10.7118C68.4427 -9.79643 68.3063 -8.53048 69.261 -7.71248C70.1961 -6.91396 71.3067 -7.30349 72.047 -8.19939C72.7873 -9.09529 73.0406 -10.3223 72.086 -11.1598ZM66.1632 -4.14835C67.0594 -3.2914 68.2674 -3.60302 69.0272 -4.49892C69.7675 -5.39482 70.0598 -6.69972 69.1246 -7.51772C68.1699 -8.33572 66.9815 -7.96568 66.2412 -7.06977C65.5008 -6.17387 65.2865 -5.0053 66.1827 -4.14835M122.877 -18.1128C122.877 -18.1128 123.072 -17.9959 123.15 -18.0933C123.228 -18.1712 123.228 -18.288 123.15 -18.3854C123.072 -18.4633 122.955 -18.5023 122.877 -18.4049C122.799 -18.3075 122.799 -18.2101 122.877 -18.1128ZM91.705 -24.6178C92.0752 -24.1504 92.6792 -23.8193 93.2247 -24.1698C93.7702 -24.5204 93.6533 -25.1242 93.3221 -25.6111C92.9909 -26.098 92.3285 -26.3901 91.783 -26.0395C91.2375 -25.689 91.3349 -25.0657 91.705 -24.6178ZM95.4847 -26.8381C95.6405 -26.5849 95.9328 -26.3901 96.2056 -26.5654C96.4783 -26.7212 96.4393 -27.0718 96.2835 -27.325C96.1276 -27.5782 95.8354 -27.7729 95.5626 -27.5976C95.2899 -27.4224 95.3288 -27.0913 95.4847 -26.8381ZM78.1451 -12.2115C78.9634 -11.3351 80.0739 -11.6272 80.8142 -12.5231C81.5546 -13.4385 81.8078 -14.8213 80.9701 -15.7951C80.1323 -16.7689 78.9244 -16.2625 78.2425 -15.3471C77.5606 -14.4318 77.3268 -13.0684 78.1451 -12.2115ZM90.8283 -18.2296C91.2764 -17.5479 91.9388 -17.0416 92.6792 -17.5285C93.439 -18.0154 93.3806 -18.9308 92.9909 -19.6319C92.6012 -20.333 91.783 -20.781 91.0621 -20.3136C90.3218 -19.8461 90.3802 -18.9113 90.8283 -18.2296ZM94.3742 -20.4888C94.6274 -19.9825 95.095 -19.5735 95.66 -19.9046C96.2055 -20.2357 96.2445 -20.9563 95.9718 -21.5016C95.7185 -22.0469 95.173 -22.378 94.6274 -22.008C94.0819 -21.6574 94.1209 -20.9952 94.3742 -20.4888ZM98.0954 -20.9368C98.0954 -20.9368 98.2123 -20.8005 98.2902 -20.8589C98.3681 -20.9173 98.3486 -21.0342 98.3097 -21.1316C98.2707 -21.2095 98.1928 -21.2679 98.1149 -21.2095C98.0369 -21.151 98.0564 -21.0147 98.0954 -20.9368ZM95.5821 -25.4747C95.5821 -25.4747 95.5821 -25.4942 95.5821 -25.5137C95.5821 -25.5137 95.5626 -25.5137 95.5431 -25.5137C95.5431 -25.5137 95.5431 -25.4942 95.5431 -25.4747C95.5431 -25.4747 95.5431 -25.4747 95.5821 -25.4747ZM87.0487 -15.6782C87.5552 -14.7823 88.4709 -14.4707 89.3866 -15.0355C90.3023 -15.6003 90.5361 -16.691 89.9516 -17.6064C89.3671 -18.5023 88.354 -18.8918 87.4578 -18.2686C86.5616 -17.6453 86.5616 -16.5741 87.0682 -15.6977M97.959 -22.7091C98.1149 -22.3975 98.3876 -22.1054 98.7578 -22.2612C99.128 -22.4365 99.1085 -22.9039 98.9721 -23.235C98.8357 -23.5661 98.5045 -23.8582 98.1538 -23.6635C97.8031 -23.4687 97.8031 -23.0207 97.959 -22.7091ZM88.5683 -11.3545C88.8606 -10.2639 89.6009 -9.73801 90.5751 -10.3807C91.5492 -11.0234 91.8999 -12.3283 91.705 -13.419C91.4907 -14.5097 90.5945 -15.0745 89.6009 -14.4512C88.6073 -13.8085 88.2956 -12.4452 88.5878 -11.3545" fill="#1C3660"/>
</g>
<path d="M32.8478 25.6116L35.7508 22.0864L37.7575 21.2295L39.7252 19.3013L38.6342 16.7889L41.089 14.666L42.1801 23.8782L47.2456 28.6499L42.5892 30.8312L45.5311 35.2523L41.0306 35.7392L37.0561 31.9608L36.5301 31.3376L32.8478 25.6116Z" fill="white"/>
<mask id="mask2_1269_45629" style="mask-type:luminance" maskUnits="userSpaceOnUse" x="0" y="0" width="58" height="58">
<path d="M58 0H0V57.9805H58V0Z" fill="white"/>
</mask>
<g mask="url(#mask2_1269_45629)">
<path d="M29.6917 16.0483C22.0739 16.0483 15.8784 22.2418 15.8784 29.8569C15.8784 34.2585 18.0215 38.4264 21.5868 41.0168C21.7232 41.1142 21.8012 41.2505 21.8206 41.4063L22.1908 44.8536L25.0937 43.0812C25.2301 43.0033 25.4055 42.9839 25.5613 43.0228C26.9056 43.4513 28.2889 43.6655 29.7111 43.6655C37.3289 43.6655 43.5244 37.4721 43.5244 29.8569C43.5244 22.2418 37.3289 16.0483 29.7111 16.0483H29.6917Z" stroke="#1C3660" stroke-linecap="round" stroke-linejoin="round"/>
<path d="M25.2106 24.2089C25.0158 24.2089 24.8405 24.2868 24.7041 24.4232L24.0417 25.0854C23.9443 25.1827 23.8663 25.2996 23.8468 25.4359C23.126 28.5521 24.0612 31.7657 26.3211 34.0249C28.5811 36.2841 31.7958 37.219 34.913 36.4984C35.0494 36.4594 35.1663 36.401 35.2637 36.3036L35.9261 35.6414C36.2184 35.3493 36.2184 34.9013 35.9261 34.6092L34.0363 32.72C33.7635 32.4473 33.2765 32.4473 33.0037 32.72C32.2829 33.4406 31.0944 33.4406 30.3735 32.72L27.5875 29.9349C26.8667 29.2143 26.8667 28.0263 27.5875 27.3056C27.8798 27.033 27.8798 26.5655 27.5875 26.2734L25.7172 24.4037C25.5808 24.2674 25.4055 24.1895 25.2106 24.1895V24.2089Z" stroke="#1C3660" stroke-linecap="round" stroke-linejoin="round"/>
</g>
</svg>
