<svg width="58" height="58" viewBox="0 0 58 58" fill="none" xmlns="http://www.w3.org/2000/svg">
<path d="M29 58C45.0163 58 58 45.0163 58 29C58 12.9837 45.0163 0 29 0C12.9837 0 0 12.9837 0 29C0 45.0163 12.9837 58 29 58Z" fill="white"/>
<mask id="mask0_1269_27312" style="mask-type:luminance" maskUnits="userSpaceOnUse" x="0" y="0" width="58" height="58">
<path d="M29 58C45.0163 58 58 45.0163 58 29C58 12.9837 45.0163 0 29 0C12.9837 0 0 12.9837 0 29C0 45.0163 12.9837 58 29 58Z" fill="white"/>
</mask>
<g mask="url(#mask0_1269_27312)">
<path d="M37.4158 26.6224C37.3319 26.5282 37.203 26.4935 37.1028 26.5835C37.0025 26.6735 37.0189 26.8045 37.1028 26.9006C37.1867 26.9968 37.3156 27.0275 37.4158 26.9395C37.5181 26.8495 37.4997 26.7185 37.4158 26.6224ZM59.4651 2.84412C58.6466 2.00111 57.4783 2.18731 56.6659 2.91983C55.8536 3.6544 55.5794 4.79205 56.3774 5.63506C57.1775 6.47807 58.3417 6.30415 59.1663 5.55936C59.993 4.81251 60.2835 3.68713 59.463 2.84412M83.4356 -45.7539C83.5298 -45.6475 83.673 -45.6127 83.7835 -45.7109C83.894 -45.8091 83.8756 -45.9544 83.7814 -46.0608C83.6894 -46.1651 83.5461 -46.202 83.4356 -46.1017C83.3252 -46.0035 83.3415 -45.8582 83.4356 -45.7539ZM47.9821 17.7892C47.4419 17.1303 46.5703 17.0648 45.895 17.5743C45.2219 18.0859 45.1277 18.8798 45.67 19.5366C46.2101 20.1934 47.0695 20.3039 47.7529 19.7903C48.4343 19.2747 48.5264 18.448 47.9842 17.7892M60.1464 24.7992C59.3832 23.946 58.2558 23.856 57.3923 24.6171C56.5289 25.3783 56.5473 26.5814 57.288 27.4347C58.0307 28.2859 59.195 28.4639 60.04 27.6679C60.8851 26.8699 60.9097 25.6545 60.1464 24.7992ZM51.5874 15.0821C50.9613 14.3394 49.9689 14.2657 49.1975 14.8448C48.4282 15.4259 48.3218 16.3221 48.9397 17.071C49.5576 17.8199 50.5152 17.9283 51.2805 17.3431C52.0458 16.7559 52.2135 15.8249 51.5895 15.0821M55.9191 6.08522C55.1682 5.28722 54.096 5.40794 53.3266 6.07703C52.5593 6.74817 52.3629 7.71804 53.0484 8.53649C53.7359 9.357 54.8387 9.33449 55.6408 8.63676C56.445 7.93698 56.67 6.88321 55.9191 6.08522ZM37.336 20.3612C37.2746 20.2916 37.1805 20.265 37.1048 20.3325C37.0311 20.398 37.0414 20.4942 37.1048 20.5658C37.1662 20.6353 37.2603 20.6599 37.336 20.5944C37.4097 20.529 37.3995 20.4307 37.336 20.3612ZM59.7372 2.57608C60.5884 3.44569 61.7731 3.21038 62.5977 2.39806C63.4203 1.58574 63.6822 0.360104 62.8044 -0.495186C61.9245 -1.35048 60.7398 -1.12131 59.9336 -0.300804C59.1295 0.519703 58.884 1.70851 59.7352 2.57812M52.2585 9.14011C51.6508 8.4301 50.7158 8.38303 49.9812 8.93549C49.2466 9.48795 49.0829 10.3739 49.6886 11.088C50.2922 11.8021 51.2396 11.8451 51.9721 11.2926C52.7046 10.7422 52.8642 9.84807 52.2585 9.14011ZM62.9906 -0.697754C63.8827 0.167763 65.0715 -0.100281 65.8756 -0.973984C66.6798 -1.84769 66.9151 -3.11834 65.9923 -3.96749C65.0735 -4.81869 63.8868 -4.50563 63.1093 -3.64216C62.3297 -2.77664 62.0964 -1.56327 62.9906 -0.697754ZM41.0436 17.5129C40.7981 17.2265 40.4093 17.1671 40.0983 17.384C39.7873 17.5989 39.7505 17.9529 39.996 18.2373C40.2395 18.5217 40.6283 18.581 40.9413 18.3662C41.2503 18.1513 41.2871 17.7973 41.0436 17.5129ZM56.2301 0.255749C55.5917 -0.374462 54.6403 -0.311031 54.0182 0.294624C53.3962 0.898239 53.2693 1.74534 53.8996 2.3776C54.5277 3.00986 55.4424 2.90551 56.0787 2.33258C56.713 1.75966 56.8706 0.88596 56.2301 0.255749ZM44.8433 14.8366C44.4627 14.3885 43.8489 14.2964 43.364 14.6381C42.879 14.9839 42.8258 15.5404 43.2085 15.9865C43.589 16.4346 44.2111 16.5287 44.6878 16.185C45.1646 15.8371 45.226 15.2806 44.8433 14.8366ZM48.5489 11.9617C48.0414 11.3643 47.2455 11.3213 46.6296 11.7899C46.0178 12.2584 45.9053 13.0523 46.4189 13.6478C46.9304 14.2452 47.71 14.3087 48.3279 13.8299C48.9479 13.3531 49.0563 12.5572 48.5468 11.9617M50.6319 27.4756C50.0917 26.8454 49.2405 26.6449 48.5816 27.2198C47.9207 27.7907 48.0067 28.6501 48.5468 29.2824C49.0891 29.9146 49.9444 30.0742 50.5725 29.4911C51.2007 28.91 51.1761 28.1079 50.6339 27.4777M57.2798 21.5316C56.5186 20.664 55.3523 20.4532 54.4602 21.241C53.5701 22.0267 53.6254 23.2278 54.3824 24.0954C55.1395 24.965 56.3038 25.1512 57.1938 24.3675C58.0819 23.5859 58.041 22.3991 57.2798 21.5316ZM53.9834 24.4514C53.3185 23.6923 52.2811 23.5163 51.4933 24.2059C50.7076 24.8954 50.7792 25.984 51.4585 26.7247C52.1378 27.4654 53.1323 27.5984 53.8975 26.915C54.6628 26.2336 54.6464 25.2085 53.9814 24.4514M46.7299 37.0986C46.5396 36.8797 46.2449 36.8101 46.0178 37.0127C45.7907 37.2132 45.8193 37.514 46.0117 37.7309C46.1999 37.9498 46.4946 38.0194 46.7217 37.8168C46.9488 37.6163 46.9202 37.3176 46.7299 37.0986ZM55.3032 12.1459C54.5605 11.2456 53.4044 11.221 52.4877 11.9065C51.5731 12.594 51.4135 13.7235 52.1481 14.6381C52.8847 15.5548 53.9487 15.6121 54.8612 14.9164C55.7738 14.2207 56.046 13.0462 55.3032 12.1459ZM50.1858 33.9557C49.8093 33.5322 49.2487 33.436 48.8149 33.8268C48.3811 34.2197 48.4302 34.8069 48.8026 35.2305C49.175 35.652 49.7438 35.7604 50.1715 35.3615C50.5971 34.9624 50.5623 34.3773 50.1858 33.9557ZM53.564 30.7904C53.0299 30.1868 52.2381 30.0865 51.6406 30.6594C51.0431 31.2323 51.0779 32.0672 51.614 32.6687C52.1501 33.2723 52.9481 33.3746 53.5394 32.8038C54.1328 32.2329 54.098 31.3919 53.564 30.7904ZM56.8808 27.7989C56.2363 27.0623 55.2398 26.9088 54.4786 27.58C53.7154 28.2531 53.7686 29.2639 54.4234 29.9985C55.0822 30.7351 56.0603 30.8763 56.8051 30.2072C57.5499 29.5361 57.5274 28.5355 56.8808 27.7989ZM44.0146 26.9272C43.6422 26.5016 43.0693 26.3605 42.6192 26.7492C42.1711 27.138 42.2304 27.7252 42.6028 28.1508C42.9752 28.5764 43.5481 28.7176 43.9983 28.3288C44.4464 27.9401 44.387 27.3528 44.0146 26.9272ZM40.7224 30.0292C40.5505 29.8328 40.2866 29.7673 40.0799 29.9494C39.8732 30.1315 39.908 30.4036 40.0799 30.598C40.2538 30.7945 40.5178 30.8579 40.7244 30.6758C40.9311 30.4957 40.8963 30.2236 40.7224 30.0292ZM47.1637 30.4712C46.7749 30.0251 46.1733 29.8778 45.7027 30.287C45.2341 30.6942 45.2935 31.306 45.6822 31.7521C46.071 32.1981 46.6726 32.3434 47.1432 31.9362C47.6097 31.529 47.5524 30.9193 47.1637 30.4712ZM47.491 23.946C46.9631 23.3404 46.1467 23.1398 45.5083 23.6882C44.8699 24.2366 44.9477 25.0632 45.4756 25.6668C46.0035 26.2725 46.8179 26.473 47.4583 25.9246C48.0967 25.3783 48.0169 24.5496 47.491 23.946ZM43.6218 33.5342C43.4335 33.3174 43.1368 33.2457 42.9097 33.4442C42.6785 33.6447 42.7092 33.9435 42.9015 34.1604C43.0918 34.3773 43.3865 34.4489 43.6136 34.2524C43.8448 34.0519 43.8141 33.7532 43.6218 33.5342ZM50.8283 21.0425C50.1981 20.3243 49.2875 20.1381 48.5121 20.7581C47.7345 21.3801 47.8491 22.393 48.4691 23.101C49.0891 23.8089 50.0528 24.0504 50.7997 23.3956C51.5465 22.7388 51.4585 21.7607 50.8283 21.0425ZM54.3252 18.2168C53.6868 17.382 52.6003 17.2919 51.7511 17.9488C50.902 18.6076 50.7035 19.6798 51.4258 20.5208C52.1501 21.3638 53.3021 21.597 54.1308 20.8727C54.9595 20.1484 54.9656 19.0516 54.3272 18.2148M40.7326 23.5266C40.4605 23.2114 40.0349 23.1132 39.6952 23.3915C39.3576 23.6698 39.4026 24.1036 39.6748 24.4187C39.951 24.7338 40.3766 24.8381 40.7081 24.5537C41.0375 24.2693 41.0007 23.8417 40.7306 23.5266M58.1719 -18.4869C58.1023 -18.5258 58.0184 -18.5217 57.9693 -18.4521C57.9243 -18.3826 57.9571 -18.3089 58.0266 -18.27C58.0962 -18.2312 58.1801 -18.2373 58.2292 -18.3069C58.2742 -18.3764 58.2415 -18.4481 58.1719 -18.4869ZM64.8444 -23.59C65.3702 -23.2258 66.0025 -23.324 66.3688 -23.856C66.7391 -24.3839 66.6245 -25.0203 66.0946 -25.3824C65.5667 -25.7467 64.9303 -25.63 64.562 -25.1062C64.1958 -24.5804 64.3185 -23.9542 64.8423 -23.59M57.9571 -14.6115C57.6501 -14.8796 57.2532 -14.8796 57.0015 -14.5522C56.7478 -14.2289 56.8235 -13.8238 57.1263 -13.566C57.4292 -13.3061 57.8343 -13.2938 58.0839 -13.6273C58.3315 -13.9568 58.266 -14.3435 57.9571 -14.6115ZM60.5372 -21.9347C60.3817 -22.0268 60.1812 -22.0247 60.0748 -21.8651C59.9664 -21.7035 60.0482 -21.5377 60.2058 -21.4477C60.3613 -21.3556 60.5598 -21.3577 60.6682 -21.5173C60.7766 -21.6769 60.6928 -21.8447 60.5372 -21.9347ZM63.676 -20.22C64.0321 -20.6927 63.9093 -21.2615 63.4284 -21.595C62.9476 -21.9306 62.3501 -21.8672 61.9921 -21.3904C61.634 -20.9178 61.7568 -20.3469 62.2396 -20.0154C62.7205 -19.6839 63.32 -19.7433 63.676 -20.22ZM60.9137 -16.7457C61.2186 -17.1508 61.1245 -17.6255 60.6969 -17.9099C60.2713 -18.1943 59.7699 -18.0757 59.4692 -17.6664C59.1684 -17.2592 59.2523 -16.7948 59.6758 -16.5267C60.0973 -16.2566 60.6109 -16.3426 60.9137 -16.7457ZM82.0259 -44.6346C82.253 -44.4464 82.566 -44.4198 82.7727 -44.6551C82.9773 -44.8883 82.9016 -45.183 82.6724 -45.3712C82.4453 -45.5574 82.1323 -45.5861 81.9256 -45.3508C81.721 -45.1155 81.7967 -44.8229 82.0259 -44.6346ZM72.3455 -38.6476C72.5317 -38.9095 72.4213 -39.196 72.1573 -39.3535C71.8913 -39.5131 71.5619 -39.4906 71.3757 -39.2267C71.1895 -38.9647 71.3 -38.6783 71.5639 -38.5228C71.8299 -38.3632 72.1593 -38.3836 72.3455 -38.6476ZM52.635 3.39658C52.0826 2.8564 51.2805 2.9096 50.7137 3.36998C50.149 3.83241 50.0774 4.55061 50.5889 5.08465C51.1004 5.61869 51.8862 5.65143 52.4714 5.18287C53.0565 4.71225 53.1855 3.93472 52.635 3.39658ZM68.329 -20.617C69.0738 -20.1054 69.9454 -20.3141 70.4426 -21.0528C70.9419 -21.7915 70.815 -22.6897 70.0682 -23.1992C69.3234 -23.7107 68.4517 -23.502 67.9525 -22.7634C67.4553 -22.0247 67.5801 -21.1285 68.329 -20.617ZM65.049 -28.8384C64.7789 -28.9918 64.4433 -28.9816 64.2674 -28.7013C64.0914 -28.423 64.2346 -28.1345 64.5027 -27.979C64.7728 -27.8255 65.1083 -27.8358 65.2843 -28.114C65.4623 -28.3923 65.3211 -28.6829 65.049 -28.8384ZM62.8207 -25.3783C62.5895 -25.5134 62.2949 -25.5073 62.1414 -25.2679C61.988 -25.0264 62.1107 -24.7788 62.344 -24.6438C62.5773 -24.5108 62.8699 -24.5149 63.0233 -24.7563C63.1788 -24.9957 63.054 -25.2453 62.8207 -25.3783ZM67.5576 -31.5741C67.7479 -31.8708 67.6067 -32.1859 67.3141 -32.3537C67.0215 -32.5214 66.6593 -32.4948 66.467 -32.1981C66.2767 -31.8974 66.4158 -31.5864 66.7084 -31.4186C67.0031 -31.2508 67.3652 -31.2774 67.5576 -31.5741ZM69.925 -35.1037C70.1296 -35.3983 70.0048 -35.7196 69.7081 -35.8914C69.4114 -36.0654 69.0431 -36.0326 68.8385 -35.738C68.6338 -35.4433 68.7566 -35.1221 69.0553 -34.9523C69.352 -34.7783 69.7203 -34.809 69.925 -35.1037ZM74.717 -42.1588C74.8664 -42.3777 74.76 -42.611 74.5472 -42.7399C74.3324 -42.8708 74.0602 -42.8606 73.9129 -42.6417C73.7656 -42.4248 73.8699 -42.1895 74.0848 -42.0606C74.2976 -41.9317 74.5697 -41.9419 74.717 -42.1588ZM63.3507 -7.05922C64.1569 -6.38194 65.2127 -6.60088 65.8879 -7.37841C66.5631 -8.15595 66.6184 -9.25064 65.7549 -9.90336C64.8914 -10.5581 63.8745 -10.3228 63.1972 -9.54119C62.52 -8.75956 62.5425 -7.73854 63.3487 -7.05922M66.2624 -10.5356C67.1258 -9.86244 68.1755 -10.1632 68.8221 -11.0021C69.4666 -11.839 69.4625 -12.8928 68.5909 -13.5721C67.7192 -14.2514 66.6225 -14.0161 66.023 -13.1404C65.4214 -12.2626 65.3989 -11.2088 66.2624 -10.5356ZM40.4728 11.2538C40.3705 11.1392 40.2149 11.0983 40.0942 11.2067C39.9735 11.3152 39.9919 11.4748 40.0942 11.5893C40.1965 11.7039 40.352 11.7428 40.4748 11.6364C40.5955 11.528 40.5751 11.3684 40.4728 11.2538ZM57.0875 -0.587261C57.8282 0.0838737 58.8021 -0.026619 59.4855 -0.718216C60.1689 -1.40981 60.2815 -2.3756 59.5367 -3.05696C58.7919 -3.73833 57.7852 -3.59714 57.0915 -2.91168C56.3979 -2.22827 56.3467 -1.26044 57.0854 -0.58931M55.8618 -5.46322C55.3973 -5.85813 54.7508 -5.85404 54.3108 -5.4223C53.873 -4.99057 53.9282 -4.32352 54.3906 -3.92043C54.851 -3.5153 55.4956 -3.56236 55.9232 -4.00228C56.3467 -4.44015 56.3283 -5.06627 55.8618 -5.46322ZM48.9397 6.30824C48.5202 5.8806 47.9023 5.83559 47.4501 6.21207C46.9938 6.59266 46.9099 7.13284 47.3233 7.56867C47.7366 8.0045 48.3545 8.01677 48.8292 7.65461C49.3019 7.29448 49.3571 6.73793 48.9397 6.30824ZM45.2116 9.20559C44.9436 8.91094 44.5384 8.88639 44.2254 9.12783C43.9123 9.36928 43.8653 9.74577 44.1292 10.0425C44.3952 10.3371 44.8024 10.3617 45.1134 10.1202C45.4244 9.87877 45.4756 9.50228 45.2116 9.20559ZM45.1175 4.16593C45.0725 4.12091 45.0029 4.10864 44.9538 4.15775C44.9047 4.20276 44.9129 4.27028 44.9579 4.31734C45.005 4.36441 45.0725 4.37464 45.1236 4.32758C45.1728 4.28052 45.1625 4.21299 45.1175 4.16593ZM54.5461 -8.31964C54.3599 -8.46901 54.098 -8.50584 53.9303 -8.3176C53.7604 -8.12935 53.8259 -7.91041 54.01 -7.77127C54.1942 -7.63214 54.4582 -7.59326 54.6341 -7.76719C54.8121 -7.94111 54.7323 -8.17232 54.5441 -8.31964M52.5511 -2.16689C52.1992 -2.48813 51.7347 -2.46153 51.4012 -2.1362C51.0697 -1.81086 51.0493 -1.36275 51.3889 -1.04151C51.7286 -0.720261 52.1931 -0.748909 52.5348 -1.06401C52.8765 -1.37912 52.9051 -1.84359 52.5511 -2.16689ZM51.5424 -5.43867C51.4933 -5.47755 51.4237 -5.48164 51.3746 -5.43662C51.3255 -5.39161 51.3398 -5.33023 51.3889 -5.29135C51.438 -5.25247 51.5097 -5.24838 51.5588 -5.29339C51.6058 -5.33841 51.5915 -5.3998 51.5424 -5.43867ZM62.2683 -10.3146C62.8351 -10.9551 62.7 -11.794 62.033 -12.3117C61.3659 -12.8314 60.5066 -12.7905 59.9868 -12.1255C59.4671 -11.4625 59.5633 -10.7218 60.2017 -10.196C60.838 -9.66805 61.7015 -9.67419 62.2683 -10.3146ZM59.1745 -7.18813C59.6717 -7.759 59.6063 -8.45878 59.0374 -8.93758C58.4666 -9.41842 57.6931 -9.41637 57.1775 -8.86187C56.6619 -8.30737 56.7478 -7.53392 57.3248 -7.04898C57.9059 -6.5661 58.6753 -6.6193 59.1745 -7.18813ZM49.04 0.975994C48.8272 0.781609 48.5428 0.787746 48.3381 0.982132C48.1356 1.18061 48.1192 1.41182 48.3238 1.6062C48.5284 1.7965 48.819 1.77194 49.0216 1.58984C49.2262 1.40568 49.2569 1.17242 49.042 0.978039M65.7017 -16.983C66.4117 -16.4899 67.3038 -16.6229 67.842 -17.3104C68.3822 -17.9979 68.2041 -18.8818 67.488 -19.377C66.7698 -19.8742 65.8736 -19.7535 65.3498 -19.0476C64.826 -18.3437 64.9917 -17.4761 65.7017 -16.983ZM44.3052 20.5944C43.8837 20.0952 43.2187 19.9744 42.6887 20.398C42.1567 20.8195 42.1731 21.4845 42.6069 21.9858C43.0386 22.4871 43.6995 22.6222 44.2152 22.1843C44.7308 21.7485 44.7287 21.0957 44.3072 20.5944M134.868 11.3356C134.536 10.4271 133.718 9.8092 132.754 10.1775C131.792 10.5438 131.579 11.5607 131.913 12.4692C132.248 13.3777 133.063 13.9956 134.027 13.6293C134.988 13.2631 135.199 12.2441 134.868 11.3356ZM131.608 17.6869C131.536 17.4884 131.36 17.3513 131.152 17.4331C130.941 17.5129 130.896 17.738 130.968 17.9344C131.039 18.1329 131.215 18.2659 131.426 18.1861C131.635 18.1063 131.682 17.8833 131.608 17.6869ZM135.676 16.1318C135.53 15.7369 135.176 15.4647 134.757 15.6264C134.338 15.788 134.243 16.23 134.391 16.629C134.534 17.0239 134.888 17.294 135.307 17.1344C135.727 16.9727 135.821 16.5308 135.678 16.1318M147.597 11.5423C147.324 10.8057 146.659 10.3085 145.88 10.6072C145.1 10.908 144.922 11.7305 145.192 12.4671C145.465 13.2058 146.13 13.703 146.909 13.4043C147.689 13.1035 147.865 12.2809 147.597 11.5423ZM143.68 13.0544C143.437 12.3914 142.839 11.9433 142.137 12.2134C141.436 12.4835 141.278 13.2242 141.52 13.8872C141.763 14.5501 142.361 14.9982 143.062 14.7281C143.764 14.458 143.922 13.7173 143.68 13.0544ZM139.696 14.589C139.496 14.0468 139.005 13.6744 138.43 13.8953C137.853 14.1143 137.724 14.724 137.924 15.2683C138.125 15.8105 138.614 16.1829 139.191 15.962C139.768 15.743 139.897 15.1333 139.696 14.589ZM115.589 19.156C115.521 18.9902 115.374 18.8736 115.2 18.9514C115.024 19.0291 114.993 19.2235 115.057 19.3892C115.12 19.555 115.27 19.6655 115.446 19.5898C115.621 19.5161 115.656 19.3197 115.589 19.156ZM130.972 12.8314C130.667 12.0088 129.926 11.4236 129.046 11.7633C128.164 12.1029 128.003 13.036 128.306 13.8585C128.61 14.6811 129.339 15.2663 130.219 14.9287C131.099 14.591 131.277 13.658 130.97 12.8314M151.484 10.0445C151.192 9.2506 150.478 8.71451 149.637 9.0378C148.798 9.36109 148.607 10.245 148.898 11.0389C149.191 11.8349 149.905 12.3689 150.746 12.0456C151.585 11.7244 151.775 10.8384 151.484 10.0445ZM118.623 12.6984C118.257 11.7612 117.391 11.1228 116.397 11.5341C115.401 11.9433 115.218 13.0176 115.591 13.9506C115.963 14.8857 116.823 15.5282 117.817 15.1169C118.811 14.7077 118.991 13.6355 118.623 12.6984ZM127.094 14.3291C126.84 13.6314 126.221 13.1137 125.476 13.4145C124.731 13.7153 124.598 14.5174 124.852 15.2172C125.103 15.9169 125.721 16.4162 126.466 16.1256C127.213 15.8371 127.348 15.0289 127.094 14.3291ZM123.258 15.8781C123.057 15.3195 122.57 14.9225 121.979 15.164C121.388 15.4054 121.281 16.052 121.482 16.6085C121.682 17.1671 122.169 17.5641 122.76 17.3226C123.352 17.0812 123.458 16.4367 123.258 15.8781ZM119.393 17.472C119.253 17.0894 118.916 16.8152 118.513 16.9809C118.106 17.1467 118.032 17.5845 118.169 17.9672C118.306 18.3519 118.646 18.6199 119.049 18.4542C119.454 18.2884 119.532 17.8546 119.393 17.472ZM122.386 11.1433C122.008 10.1182 121.066 9.41634 119.986 9.8624C118.904 10.3064 118.713 11.4829 119.104 12.4937C119.495 13.5066 120.397 14.2309 121.482 13.791C122.564 13.349 122.769 12.1704 122.388 11.1453M182.96 3.00372C182.788 2.53925 182.371 2.22618 181.878 2.41443C181.387 2.60268 181.276 3.12035 181.446 3.58483C181.618 4.0493 182.035 4.3644 182.528 4.17616C183.019 3.98792 183.132 3.4682 182.96 3.00372ZM186.267 2.55766C186.674 2.4042 186.766 1.97246 186.625 1.58779C186.484 1.20311 186.136 0.945301 185.731 1.10081C185.325 1.25631 185.233 1.686 185.375 2.07068C185.516 2.45535 185.862 2.71317 186.267 2.55766ZM172.916 11.9863C172.813 11.706 172.564 11.5198 172.269 11.6323C171.974 11.7448 171.907 12.0559 172.009 12.3362C172.113 12.6145 172.363 12.8027 172.658 12.6902C172.952 12.5756 173.02 12.2646 172.916 11.9863ZM180.619 9.01325C180.49 8.6654 180.177 8.4301 179.811 8.57128C179.445 8.71246 179.361 9.09919 179.488 9.44703C179.617 9.79487 179.93 10.0302 180.296 9.889C180.662 9.74781 180.746 9.35905 180.619 9.01325ZM185.919 8.01268C185.788 7.66074 185.469 7.43158 185.098 7.56867C184.728 7.70576 184.634 8.08634 184.761 8.43623C184.89 8.78817 185.211 9.01734 185.579 8.88025C185.952 8.7452 186.046 8.36257 185.919 8.01268ZM179.293 4.41761C179.093 3.87129 178.602 3.50298 178.027 3.72396C177.45 3.94699 177.319 4.55675 177.519 5.10102C177.72 5.64529 178.211 6.0136 178.788 5.79262C179.365 5.57164 179.496 4.96188 179.293 4.41761ZM155.309 8.56923C155.012 7.75691 154.281 7.20855 153.42 7.54002C152.563 7.86945 152.366 8.77589 152.667 9.58821C152.964 10.4005 153.694 10.9489 154.556 10.6174C155.413 10.288 155.609 9.37951 155.309 8.56923ZM49.8871 40.9147C49.8564 40.8799 49.8093 40.8697 49.7725 40.9024C49.7357 40.9352 49.7397 40.9822 49.7725 41.019C49.8032 41.0538 49.8502 41.0641 49.8871 41.0313C49.9239 40.9986 49.9178 40.9515 49.8871 40.9147ZM156.37 13.2631C156.203 12.8109 155.798 12.504 155.317 12.6902C154.838 12.8743 154.729 13.3797 154.897 13.834C155.063 14.2862 155.47 14.591 155.949 14.4069C156.43 14.2227 156.536 13.7153 156.37 13.2631ZM160.297 11.7489C160.101 11.2149 159.622 10.8568 159.059 11.0737C158.494 11.2906 158.365 11.884 158.562 12.418C158.758 12.95 159.237 13.3102 159.802 13.0933C160.367 12.8764 160.493 12.2809 160.297 11.7489ZM152.383 14.8018C152.258 14.4662 151.957 14.2411 151.603 14.3782C151.249 14.5153 151.169 14.8898 151.292 15.2233C151.417 15.5589 151.715 15.7839 152.069 15.6468C152.423 15.5098 152.503 15.1353 152.383 14.8018ZM167.999 8.77794C167.78 8.17638 167.238 7.77124 166.601 8.01473C165.965 8.26027 165.82 8.92936 166.041 9.53092C166.262 10.1325 166.804 10.5397 167.44 10.2941C168.076 10.0506 168.22 9.37951 167.999 8.77794ZM171.794 7.3129C171.575 6.71133 171.031 6.30415 170.397 6.54969C169.76 6.79523 169.615 7.46432 169.836 8.06588C170.057 8.66745 170.599 9.07259 171.236 8.8291C171.872 8.58356 172.015 7.91447 171.794 7.3129ZM164.164 10.2573C163.951 9.68233 163.432 9.29357 162.824 9.52683C162.214 9.76214 162.075 10.4046 162.288 10.9796C162.499 11.5546 163.018 11.9474 163.628 11.7121C164.238 11.4768 164.375 10.8343 164.164 10.2573ZM175.569 5.854C175.353 5.26471 174.823 4.86776 174.201 5.1092C173.576 5.3486 173.435 6.00336 173.65 6.59266C173.867 7.18195 174.397 7.5789 175.021 7.3395C175.645 7.10011 175.784 6.44124 175.569 5.854ZM176.801 10.4844C176.68 10.1489 176.378 9.92378 176.024 10.0609C175.67 10.198 175.59 10.5724 175.713 10.9059C175.833 11.2415 176.136 11.4666 176.49 11.3295C176.844 11.1944 176.924 10.8179 176.801 10.4844ZM65.3252 33.5117C65.9207 32.8549 65.9616 31.8953 65.3805 31.216C64.7973 30.5346 63.9502 30.5714 63.3568 31.2262C62.7635 31.883 62.7103 32.8406 63.2995 33.5097C63.8929 34.1808 64.7278 34.1706 65.3252 33.5117ZM74.1748 27.537C74.8398 28.425 75.7974 28.4005 76.4992 27.5615C77.2031 26.7226 77.3381 25.4704 76.6691 24.568C76 23.6636 75.0342 23.7475 74.3242 24.5762C73.6121 25.407 73.5098 26.651 74.1748 27.537ZM84.2828 21.64C83.6955 20.754 82.7686 20.6701 82.0402 21.4599C81.3138 22.2477 81.2892 23.4754 81.8806 24.3471C82.4719 25.2187 83.3599 25.2944 84.0556 24.5026C84.7513 23.7087 84.8679 22.528 84.2807 21.638M62.2806 36.4602C62.7594 35.9569 62.743 35.2019 62.2867 34.6924C61.8304 34.1849 61.2002 34.1788 60.7194 34.6637C60.2365 35.1466 60.2549 35.8812 60.703 36.3886C61.1511 36.9002 61.8038 36.9636 62.2806 36.4602ZM73.6755 30.5428C74.2976 29.8123 74.3487 28.781 73.7717 28.0076C73.1967 27.2362 72.3067 27.2464 71.6744 27.9605C71.0422 28.6726 71.0074 29.7161 71.5905 30.4691C72.1757 31.22 73.0556 31.2733 73.6755 30.5428ZM56.1912 41.6718C56.1278 41.6022 56.0316 41.5776 55.96 41.6431C55.8843 41.7086 55.8966 41.8068 55.96 41.8764C56.0214 41.948 56.1155 41.9705 56.1912 41.905C56.2649 41.8395 56.2526 41.7413 56.1912 41.6718ZM70.682 33.3828C71.1977 32.8222 71.2468 31.9935 70.7536 31.4001C70.2626 30.8047 69.5321 30.8272 69.0226 31.396C68.5152 31.9648 68.4845 32.7813 68.9837 33.3665C69.483 33.9517 70.1664 33.9435 70.682 33.3828ZM59.0149 38.0337C58.7448 37.7227 58.3417 37.6613 58.0369 37.956C57.734 38.2486 57.7565 38.6742 58.0266 38.9831C58.2967 39.2941 58.6978 39.3555 59.0026 39.0609C59.3096 38.7703 59.283 38.3427 59.0149 38.0337ZM56.3856 34.3077C55.9355 33.7921 55.2623 33.7 54.7569 34.189C54.2535 34.678 54.2924 35.3921 54.7446 35.9057C55.1948 36.4213 55.8659 36.5155 56.3713 36.0264C56.8747 35.5374 56.8358 34.8233 56.3856 34.3077ZM53.03 37.5079C52.7496 37.1866 52.324 37.0966 51.9864 37.3871C51.6488 37.6736 51.6856 38.1176 51.9619 38.4389C52.2381 38.7621 52.6739 38.8665 53.0074 38.5718C53.3389 38.2772 53.3103 37.8311 53.03 37.5099M59.6881 31.1935C59.0906 30.5223 58.1985 30.3791 57.513 31.0052C56.8255 31.6313 56.8869 32.5726 57.4824 33.2478C58.0778 33.921 58.9801 34.0437 59.6472 33.4094C60.3142 32.7751 60.2856 31.8666 59.6881 31.1955M62.876 27.8992C62.1169 27.1032 61.0733 27.2014 60.3388 27.979C59.6042 28.7585 59.5776 29.8287 60.306 30.6267C61.0365 31.4267 62.0903 31.396 62.8146 30.6021C63.5389 29.8082 63.6331 28.6931 62.876 27.8971M91.7246 19.5448C91.2662 18.7508 90.4519 18.4337 89.7664 19.1192C89.083 19.8067 89.0728 20.9239 89.525 21.7321C89.9792 22.5424 90.7608 22.7592 91.4627 22.1086C92.1624 21.4558 92.1809 20.3407 91.7225 19.5448M68.3494 30.5817C69.0533 29.798 69.1413 28.646 68.4476 27.8296C67.754 27.0132 66.7759 27.0664 66.068 27.8439C65.36 28.6235 65.2843 29.7427 65.9677 30.5632C66.6511 31.3837 67.6435 31.3653 68.3494 30.5796M88.8559 22.4953C88.4692 21.8119 87.8124 21.6871 87.2619 22.2641C86.7115 22.8411 86.646 23.7557 87.0348 24.4391C87.4195 25.1205 88.0845 25.2555 88.6288 24.6744C89.1771 24.0892 89.2447 23.1787 88.8559 22.4953ZM93.1569 23.8908C92.9789 23.5736 92.6638 23.4713 92.3855 23.7271C92.1072 23.9828 92.1011 24.4023 92.2729 24.7215C92.4469 25.0407 92.7599 25.143 93.0402 24.8872C93.3206 24.6335 93.3369 24.2079 93.1569 23.8908ZM103.103 15.9026C102.657 15.0146 101.736 14.6258 100.877 15.2049C100.014 15.786 99.8232 16.8254 100.3 17.7094C100.777 18.5953 101.667 18.8982 102.54 18.3703C103.414 17.8424 103.551 16.7906 103.105 15.9026M67.6415 34.8765C67.3141 34.4837 66.8353 34.4755 66.4915 34.854C66.1478 35.2325 66.1294 35.7809 66.4588 36.1738C66.7882 36.5666 67.2629 36.5666 67.6108 36.1901C67.9566 35.8157 67.9688 35.2694 67.6415 34.8765ZM106.753 13.7255C106.307 12.6984 105.282 12.2359 104.284 12.8191C103.281 13.4022 103.14 14.6095 103.611 15.5937C104.079 16.5799 104.996 17.1262 105.998 16.539C106.997 15.9497 107.2 14.7506 106.756 13.7255M114.854 14.3066C114.541 13.5086 113.823 12.8825 112.98 13.3183C112.135 13.7521 112.045 14.7711 112.364 15.5773C112.681 16.3855 113.383 16.8684 114.218 16.4755C115.051 16.0847 115.167 15.1026 114.854 14.3066ZM115.306 6.49445C115.75 6.06066 115.941 5.46524 115.928 4.83298C116.34 5.29131 116.876 5.57572 117.486 5.56345C117.003 6.02996 116.823 6.68883 116.892 7.37838C116.493 6.85252 115.941 6.50877 115.306 6.49649M111.748 8.19684C112.176 7.70985 112.358 7.08169 112.339 6.42897C112.732 6.85456 113.234 7.11647 113.809 7.11238C113.336 7.60754 113.191 8.30528 113.297 9.0153C112.921 8.46284 112.378 8.11704 111.748 8.19684ZM108.294 10.3514C108.812 9.85421 109.031 9.19945 109 8.50376C109.426 8.86593 109.943 9.03166 110.506 8.92322C109.931 9.63732 109.89 10.6604 110.205 11.5546C109.851 10.6768 109.135 10.153 108.294 10.3514ZM113.737 1.94586C114.101 1.51617 114.253 0.973946 114.191 0.407166C114.613 0.816395 115.124 1.09467 115.689 1.11308C115.276 1.53459 115.1 2.10342 115.114 2.70908C114.744 2.28553 114.275 1.99497 113.739 1.94382M110.22 3.66463C110.516 3.23084 110.651 2.72135 110.635 2.18322C110.993 2.51265 111.421 2.7234 111.898 2.75614C111.578 3.1715 111.449 3.69327 111.468 4.23755C111.12 3.88766 110.694 3.6769 110.22 3.66463ZM106.719 5.80694C106.991 5.39362 107.12 4.9271 107.081 4.44625C107.476 4.66314 107.901 4.77568 108.339 4.75727C108.061 5.20947 107.94 5.73942 107.961 6.27755C107.601 5.98086 107.175 5.81512 106.719 5.80694ZM102.907 8.06997C103.15 7.66484 103.253 7.21878 103.208 6.76044C103.645 6.97733 104.128 7.07759 104.617 7.04076C104.372 7.47659 104.29 7.96971 104.349 8.48125C103.926 8.18047 103.422 8.03724 102.907 8.06997ZM99.2708 10.6051C99.5224 10.1714 99.6247 9.68234 99.5674 9.19331C99.993 9.3836 100.455 9.44703 100.924 9.37746C100.678 9.85626 100.605 10.3923 100.713 10.9284C100.284 10.6338 99.7802 10.5274 99.2708 10.6051ZM95.8844 13.1812C96.1667 12.7004 96.2486 12.1479 96.1627 11.5975C96.5821 11.8287 97.0486 11.9208 97.5274 11.8431C97.2348 12.4017 97.2062 13.0503 97.4169 13.6826C96.9893 13.2508 96.445 13.0421 95.8844 13.1812ZM107.836 -0.239418C108.045 -0.626141 108.061 -1.0456 107.895 -1.46915C108.454 -1.24612 109.057 -1.15405 109.651 -1.22157C109.405 -0.849171 109.391 -0.413342 109.491 0.051136C109.008 -0.221004 108.423 -0.306942 107.836 -0.239418ZM103.885 2.0584C104.063 1.69214 104.1 1.29928 103.985 0.910515C104.527 1.0783 105.102 1.12331 105.663 1.04351C105.446 1.42819 105.368 1.85788 105.428 2.29371C104.943 2.08296 104.413 2.0052 103.885 2.0584ZM85.2608 17.869C85.5207 17.3267 85.6107 16.7108 85.5309 16.1072C85.8972 16.2914 86.3023 16.318 86.6972 16.1707C86.4967 16.8111 86.5315 17.517 86.8016 18.135C86.3371 17.7216 85.7846 17.6214 85.2608 17.869ZM89.2897 13.3122C89.126 13.8012 89.1117 14.3312 89.2324 14.8468C88.8784 14.6095 88.4814 14.5378 88.0845 14.6504C88.2502 14.1879 88.2993 13.6887 88.2339 13.2017C88.5694 13.3511 88.9254 13.3859 89.2876 13.3122M92.0213 10.6972C91.8924 11.1146 91.8821 11.5607 91.966 12.0027C91.653 11.8165 91.3113 11.7408 90.9593 11.7899C91.0964 11.397 91.1394 10.9775 91.08 10.5601C91.3808 10.6952 91.7 10.7402 92.0192 10.6972M94.804 8.30733C94.6731 8.65517 94.6362 9.02961 94.6956 9.40611C94.3764 9.23423 94.0326 9.16466 93.6848 9.19945C93.7973 8.83319 93.8239 8.44237 93.7605 8.0536C94.0838 8.22753 94.4378 8.31347 94.804 8.30528M104.153 -3.27999C104.544 -3.82222 104.574 -4.47493 104.218 -5.1297C104.916 -4.58952 105.825 -4.50768 106.672 -4.74503C106.166 -4.27237 106.001 -3.66671 106.195 -3.07128C105.554 -3.33319 104.838 -3.40685 104.153 -3.27999ZM77.5448 20.6681C77.7903 20.1177 77.8824 19.51 77.7903 18.9186C78.1648 19.0598 78.5617 19.0332 78.9485 18.8716C78.7704 19.4752 78.795 20.1279 79.0323 20.7111C78.5617 20.4041 78.0277 20.398 77.5448 20.6681ZM69.2415 24.1956C69.6569 23.5798 69.8104 22.8411 69.6262 22.1536C70.1193 22.3971 70.6595 22.3807 71.1526 22.1434C70.8907 22.8083 70.8723 23.5429 71.2099 24.1875C70.6125 23.7087 69.8779 23.7537 69.2415 24.1956ZM73.7717 19.0619C73.6203 19.5734 73.5957 20.1074 73.741 20.6128C73.3195 20.4246 72.8714 20.4492 72.4479 20.6558C72.6463 20.1586 72.7036 19.6225 72.6177 19.1007C72.9942 19.2399 73.387 19.2194 73.7717 19.0619ZM75.601 15.6898C75.9099 15.7901 76.2271 15.7921 76.5422 15.6857C76.4153 16.1338 76.3908 16.6024 76.4644 17.0587C76.135 16.9441 75.7892 16.9543 75.4495 17.0832C75.5989 16.631 75.6562 16.1563 75.601 15.6898ZM78.439 12.4201C78.7357 12.5265 79.0426 12.5449 79.3475 12.461C79.2492 12.8539 79.2308 13.2631 79.2799 13.6621C78.971 13.5516 78.6497 13.5414 78.3305 13.6314C78.4451 13.2385 78.484 12.8273 78.439 12.418M81.1992 9.23423C81.4775 9.32835 81.7701 9.33449 82.0627 9.25469C81.9788 9.63732 81.9686 10.0322 82.0218 10.4189C81.7312 10.3146 81.4243 10.3003 81.1194 10.3842C81.2135 10.0077 81.2381 9.62095 81.1992 9.23423ZM67.0276 20.7786C67.2936 20.2568 67.3755 19.6839 67.2363 19.1355C67.6824 19.3176 68.153 19.2992 68.6011 19.1069C68.4006 19.6368 68.3412 20.1995 68.4865 20.7336C68.02 20.5167 67.5105 20.5494 67.0276 20.7765M70.3956 15.8822C70.7393 16.007 71.0994 16.007 71.4493 15.8822C71.3 16.3466 71.2488 16.8357 71.3184 17.3063C70.9542 17.1815 70.5674 17.204 70.191 17.3554C70.3792 16.8827 70.459 16.3773 70.3956 15.8822ZM73.4034 12.459C73.7042 12.5551 74.0111 12.549 74.316 12.4365C74.1912 12.858 74.1543 13.2938 74.2075 13.7235C73.8945 13.6253 73.5712 13.6294 73.254 13.746C73.3891 13.3265 73.4402 12.8907 73.4034 12.459ZM76.2537 9.05417C76.534 9.15853 76.8266 9.1708 77.1192 9.08895C77.0026 9.48386 76.9596 9.89309 76.9944 10.2962C76.7018 10.1898 76.3969 10.1816 76.0961 10.2757C76.223 9.87877 76.2762 9.4634 76.2516 9.05212M60.6559 21.2594C61.1797 20.5678 61.3966 19.7453 61.0467 19.0046C61.6442 19.3954 62.3399 19.3995 62.9742 19.113C62.6509 19.733 62.5814 20.4266 62.876 21.0589C62.168 20.6579 61.323 20.7479 60.6559 21.2594ZM69.2006 12.6329C69.0472 13.0994 68.9919 13.5925 69.0615 14.0713C68.6645 13.9424 68.2389 13.9792 67.8256 14.147C68.02 13.6641 68.0957 13.1546 68.0118 12.6574C68.3985 12.7925 68.8057 12.7782 69.2006 12.6329ZM71.1711 9.24037C71.5209 9.34881 71.8831 9.34268 72.2351 9.21786C72.098 9.64551 72.0468 10.0936 72.0898 10.5315C71.7542 10.423 71.4002 10.4312 71.0565 10.5581C71.1936 10.1284 71.2365 9.67825 71.1711 9.23832M74.2198 5.74147C74.5288 5.84172 74.848 5.83968 75.1631 5.72714C75.0178 6.15479 74.9544 6.60289 74.9789 7.04076C74.6863 6.94255 74.3774 6.9446 74.0725 7.05099C74.2116 6.62335 74.2628 6.17525 74.2198 5.74147ZM77.1622 2.24051C77.467 2.36532 77.7862 2.36737 78.1014 2.24665C77.9561 2.68861 77.8926 3.149 77.9213 3.60324C77.6266 3.4948 77.3156 3.4907 77.0067 3.5971C77.1499 3.15923 77.2051 2.6968 77.1622 2.24051ZM61.7772 14.7015C62.1251 14.0918 62.2437 13.4022 62.0248 12.7495C62.5507 13.0442 63.142 13.0155 63.6904 12.7597C63.4182 13.3245 63.2955 13.9424 63.4325 14.5297C62.9026 14.3271 62.3154 14.4171 61.7772 14.6995M66.866 9.37541C66.6573 9.88286 66.5734 10.4292 66.6655 10.955C66.2133 10.8118 65.7304 10.8793 65.2741 11.1024C65.5155 10.5704 65.6055 9.99131 65.4582 9.44908C65.9145 9.63937 66.4056 9.58821 66.8639 9.37541M68.6891 6.0402C69.1045 6.19366 69.5464 6.1466 69.9679 5.96654C69.7797 6.4351 69.6937 6.93027 69.7531 7.41726C69.3418 7.29858 68.9142 7.35792 68.5008 7.55434C68.7034 7.06327 68.7914 6.53946 68.687 6.0402M71.9302 2.47786C72.3169 2.62518 72.7261 2.5904 73.1149 2.41648C72.9328 2.89323 72.8448 3.39249 72.8939 3.88152C72.5195 3.77307 72.1246 3.82218 71.7419 3.99815C71.9322 3.50707 72.0202 2.97917 71.9302 2.47786ZM74.9544 -1.20724C75.3698 -1.02514 75.8117 -1.07629 76.2291 -1.28909C76.0245 -0.767323 75.9283 -0.204636 75.9795 0.341686C75.603 0.198456 75.1958 0.23938 74.7989 0.419441C74.9973 -0.110512 75.0751 -0.673199 74.9523 -1.20724M62.5159 8.32165C62.9415 7.62596 63.0438 6.79728 62.6611 6.07294C63.2648 6.50672 63.9911 6.48831 64.6398 6.15069C64.3022 6.76249 64.161 7.47659 64.3431 8.12931C63.7558 7.8715 63.1052 7.9779 62.5159 8.3196M67.8665 2.78478C67.5698 3.3577 67.4123 4.00429 67.5371 4.60995C67.0215 4.41965 66.4588 4.53219 65.9432 4.82684C66.2808 4.18435 66.3647 3.44978 66.0618 2.79297C66.6307 3.14081 67.2813 3.09784 67.8665 2.78478ZM69.2702 -0.687523C69.837 -0.356049 70.461 -0.437897 71.0176 -0.787785C70.7577 -0.221004 70.6391 0.403072 70.7618 0.992363C70.2646 0.828671 69.7183 0.97599 69.2272 1.28086C69.5116 0.646561 69.5669 -0.057312 69.2702 -0.687523ZM72.3394 -4.4422C72.9451 -4.07594 73.608 -4.22326 74.1789 -4.64272C73.8658 -4.00023 73.7267 -3.26157 73.8924 -2.5843C73.3727 -2.80733 72.81 -2.67638 72.3067 -2.33876C72.6115 -3.02626 72.6873 -3.78539 72.3394 -4.4422ZM75.1201 -8.43627C75.8424 -7.759 76.6957 -7.87358 77.4036 -8.43013C76.976 -7.73854 76.7795 -6.89348 76.9903 -6.12208C76.4481 -6.43924 75.8056 -6.32874 75.2531 -5.94816C75.6542 -6.75843 75.7442 -7.70171 75.1201 -8.43627ZM78.9382 -3.09174C78.5474 -3.3025 78.1054 -3.27385 77.6839 -3.06514C77.9151 -3.66057 77.9929 -4.30511 77.8354 -4.91077C78.2855 -4.62226 78.7909 -4.62431 79.2738 -4.8637C79.0139 -4.30716 78.8891 -3.69126 78.9362 -3.09379M82.5067 -8.47924C82.1057 -7.8122 81.9154 -7.01215 81.9993 -6.25508C81.59 -6.57224 81.099 -6.58451 80.6202 -6.34921C80.9434 -7.05513 81.0498 -7.87154 80.7818 -8.59383C81.2954 -8.10684 81.9195 -8.09047 82.5087 -8.48129M87.0512 -7.47049C86.6358 -6.87097 86.4701 -6.09344 86.4987 -5.35273C86.1693 -5.71081 85.7539 -5.88473 85.3058 -5.77015C85.6271 -6.44333 85.7253 -7.23518 85.5759 -7.98817C85.9463 -7.43366 86.466 -7.21063 87.0512 -7.47049ZM82.5742 -2.88713C82.7809 -3.42322 82.8689 -4.01046 82.7993 -4.58543C83.1349 -4.31943 83.5236 -4.26214 83.9247 -4.39923C83.6873 -3.87746 83.5993 -3.29636 83.6321 -2.72344C83.3129 -2.94442 82.9487 -2.99762 82.5742 -2.88713ZM80.7654 0.315086C80.4524 0.155487 80.1188 0.139118 79.7792 0.255749C79.9429 -0.223049 80.0063 -0.730492 79.9572 -1.22975C80.2744 -1.04765 80.6202 -1.01286 80.9721 -1.1213C80.8064 -0.660923 80.7347 -0.169849 80.7654 0.315086ZM91.0862 -5.36705C90.6933 -4.86779 90.5562 -4.2028 90.5869 -3.54189C90.3086 -3.87132 89.9669 -4.08413 89.5802 -4.05753C89.8544 -4.65091 89.9219 -5.35682 89.8626 -6.02182C90.1409 -5.52665 90.5542 -5.24429 91.0862 -5.36705ZM87.2537 -3.27999C87.5238 -2.99967 87.8451 -2.8503 88.2032 -2.88918C88.0067 -2.45335 87.9413 -1.96637 87.972 -1.47734C87.6916 -1.69014 87.3745 -1.79244 87.0389 -1.76379C87.2231 -2.23441 87.2865 -2.75822 87.2517 -3.27999M85.4572 -0.306942C85.3099 0.0981941 85.2424 0.534023 85.2669 0.967808C85.0071 0.828667 84.7268 0.79184 84.4403 0.847084C84.5774 0.413303 84.6347 -0.047081 84.6101 -0.511555C84.8639 -0.331493 85.1524 -0.263973 85.4572 -0.306942ZM82.6254 3.88152C82.3573 3.75056 82.0709 3.71373 81.7824 3.77307C81.9113 3.38021 81.9686 2.96689 81.9522 2.55357C82.2121 2.69066 82.4903 2.73159 82.7747 2.67429C82.6561 3.06511 82.6029 3.47433 82.6254 3.87947M65.9554 17.6603C65.4541 17.472 64.9058 17.5191 64.3963 17.7523C64.6807 17.2183 64.7891 16.6167 64.6664 16.0418C65.1268 16.2361 65.6199 16.1973 66.0905 16.007C65.8818 16.5431 65.8122 17.1201 65.9575 17.6603M79.8283 7.01007C79.5664 6.90981 79.2881 6.89344 79.0078 6.96096C79.1387 6.56197 79.196 6.14046 79.1797 5.72509C79.4395 5.82535 79.7117 5.84172 79.9858 5.76806C79.861 6.17319 79.8099 6.5947 79.8303 7.01007M92.3978 -0.904415C92.2463 -0.566799 92.23 -0.188267 92.3016 0.194363C92.0131 0.0102119 91.7062 -0.110508 91.3931 -0.110508C91.5077 -0.491093 91.522 -0.902367 91.4627 -1.31364C91.7328 -1.06401 92.054 -0.916691 92.3978 -0.904415ZM84.7697 6.27142C84.6695 6.63154 84.6347 7.01007 84.6654 7.38656C84.3994 7.2597 84.115 7.22083 83.8285 7.27198C83.9226 6.918 83.9574 6.54764 83.9288 6.17934C84.1968 6.30006 84.4812 6.32666 84.7697 6.27346M89.0912 0.904377C89.3326 1.07421 89.6027 1.1581 89.883 1.15401C89.7685 1.5039 89.7337 1.88243 89.7807 2.25892C89.527 2.10751 89.259 2.02771 88.9807 2.03794C89.0891 1.67782 89.126 1.29314 89.0912 0.904377ZM87.3438 3.51935C87.2394 3.87742 87.2046 4.258 87.2476 4.64268C86.998 4.50763 86.7299 4.45853 86.4598 4.49127C86.5581 4.12091 86.5908 3.7342 86.554 3.34747C86.8016 3.48457 87.0696 3.54185 87.3458 3.51935M95.068 -2.76845C94.7877 -2.36945 94.7385 -1.9459 94.8654 -1.52439C94.5155 -1.73106 94.1513 -1.86815 93.7789 -1.85382C93.9446 -2.29784 93.916 -2.81551 93.826 -3.32091C94.1349 -2.90145 94.5564 -2.68251 95.0659 -2.76845M92.2075 4.77364C92.1072 5.09488 92.0949 5.43864 92.1625 5.78648C91.878 5.64939 91.5752 5.588 91.2703 5.61256C91.3563 5.26676 91.3747 4.90664 91.3133 4.55061C91.5957 4.69588 91.8985 4.77159 92.2075 4.77364ZM95.0393 2.70703C94.9288 3.01395 94.9186 3.3352 94.9923 3.65849C94.671 3.51935 94.3375 3.44978 94.004 3.46001C94.0879 3.13672 94.0879 2.78888 94.0101 2.44717C94.3334 2.617 94.6833 2.70498 95.0393 2.70498M98.1536 0.470596C98.0124 0.810253 98.0001 1.16219 98.1188 1.51208C97.6973 1.38522 97.2614 1.35248 96.8399 1.41182C96.9197 1.04965 96.8543 0.671116 96.6885 0.313042C97.153 0.484917 97.6604 0.544254 98.1556 0.472641M100.151 -0.924877C100.349 -1.34229 100.37 -1.78221 100.187 -2.22009C100.828 -1.9991 101.53 -1.99297 102.197 -2.14643C101.908 -1.73924 101.83 -1.28704 101.97 -0.832798C101.378 -1.00877 100.748 -1.0456 100.151 -0.926922M81.7189 15.7717C81.5818 16.2484 81.5532 16.7518 81.6432 17.2367C81.2933 17.0464 80.9128 17.0137 80.5322 17.1283C80.702 16.6863 80.7736 16.2177 80.7306 15.7533C81.0519 15.874 81.3875 15.8781 81.7189 15.7737M84.2868 12.7127C84.1825 13.1321 84.1682 13.57 84.2316 14.0038C83.9431 13.8667 83.6341 13.8381 83.3272 13.9179C83.4479 13.5045 83.495 13.0728 83.452 12.6452C83.7201 12.7618 84.0024 12.7802 84.2868 12.7147M88.6615 7.01212C88.9398 7.15535 89.2426 7.21468 89.5475 7.18808C89.4534 7.53798 89.4329 7.90219 89.4881 8.26845C89.1955 8.12727 88.8866 8.07202 88.5776 8.10885C88.6758 7.75282 88.7045 7.38247 88.6595 7.01212M86.8343 9.83784C86.732 10.2082 86.7033 10.5908 86.7524 10.9734C86.4783 10.8527 86.1939 10.822 85.9074 10.8752C86.0117 10.5008 86.0506 10.11 86.0179 9.72121C86.2757 9.83989 86.554 9.87672 86.8343 9.8358M98.0738 5.95631C97.9203 6.31234 97.8712 6.69088 97.9326 7.0776C97.5684 6.92209 97.1816 6.85661 96.7929 6.88935C96.9259 6.53127 96.9525 6.14865 96.8747 5.77216C97.2574 5.92152 97.6666 5.987 98.0738 5.95631ZM101.591 3.48866C101.436 3.8406 101.401 4.22322 101.479 4.61199C101.053 4.45239 100.599 4.40738 100.149 4.47285C100.282 4.1025 100.29 3.71578 100.177 3.33929C100.633 3.48661 101.114 3.54186 101.591 3.48866ZM113.61 -3.06924C113.158 -2.64978 113.035 -2.08299 113.144 -1.48347C112.659 -1.8927 112.069 -2.11573 111.449 -2.09527C111.773 -2.51883 111.816 -3.03241 111.609 -3.55827C112.209 -3.16131 112.91 -2.96898 113.612 -3.06924M119.36 -0.415386C118.899 0.0183983 118.728 0.630192 118.768 1.27473C118.355 0.797977 117.809 0.497192 117.191 0.491055C117.612 0.0490875 117.756 -0.548386 117.668 -1.17246C118.122 -0.689568 118.711 -0.386742 119.36 -0.413342M123.325 -2.08709C122.595 -1.65944 122.355 -0.928967 122.445 -0.14325C121.993 -0.689568 121.357 -1.01081 120.659 -0.969894C121.189 -1.48347 121.287 -2.22622 121.083 -2.97921C121.621 -2.26919 122.433 -1.87634 123.325 -2.08913M121.146 4.02884C120.651 4.49536 120.463 5.16035 120.526 5.85195C120.113 5.31586 119.538 4.9762 118.879 4.98234C119.358 4.53219 119.558 3.89788 119.528 3.2288C119.943 3.72805 120.504 4.04725 121.144 4.02884M124.897 2.43898C124.314 2.90755 124.101 3.63598 124.183 4.38487C123.761 3.81809 123.168 3.45183 122.482 3.47229C122.998 2.99554 123.2 2.31212 123.141 1.59802C123.577 2.15866 124.191 2.50241 124.899 2.43898M129.11 0.79184C128.181 1.21948 127.847 2.13411 127.986 3.07943C127.538 2.37556 126.838 1.91517 126.022 1.98679C126.683 1.47525 126.914 0.664978 126.767 -0.175987C127.282 0.630192 128.132 1.09671 129.11 0.79184ZM113.809 10.3535C114.357 11.1863 115.245 11.6589 116.28 11.2354C117.252 10.8364 117.614 9.93811 117.524 9.00097C118.087 9.74577 118.957 10.1386 119.937 9.73758C120.909 9.33858 121.267 8.44851 121.179 7.51957C121.744 8.25208 122.607 8.63471 123.575 8.23776C124.559 7.83262 124.907 6.92413 124.803 5.98086C125.355 6.72157 126.198 7.11647 127.178 6.73794C128.23 6.33075 128.598 5.3261 128.445 4.30916C128.979 5.14604 129.879 5.62074 130.912 5.22583C132.122 4.7634 132.418 3.5173 132.046 2.36942C132.5 3.44569 133.499 4.15161 134.671 3.7035C135.891 3.23698 136.159 1.952 135.731 0.802071C135.305 -0.347862 134.266 -1.12745 133.048 -0.660923C131.878 -0.21077 131.59 0.990314 131.95 2.10546C131.498 1.03533 130.524 0.327362 129.374 0.689529C130.507 0.167763 130.771 -1.08243 130.325 -2.216C129.863 -3.39048 128.77 -4.15983 127.522 -3.68103C126.48 -3.27999 126.143 -2.31216 126.319 -1.32388C125.793 -2.12597 124.917 -2.56793 123.96 -2.34081C124.899 -2.90145 125.085 -4.00637 124.604 -5.03762C124.07 -6.17528 122.918 -6.85665 121.692 -6.37171C120.669 -5.96658 120.336 -5.03149 120.563 -4.07594C119.937 -4.93327 118.914 -5.42639 117.85 -4.96396C116.923 -4.56292 116.651 -3.75674 116.794 -2.90759C116.266 -3.42322 115.558 -3.69331 114.826 -3.60737C115.507 -4.22531 115.517 -5.19313 114.901 -6.06479C114.144 -7.13083 112.718 -7.56257 111.496 -7.00397C110.533 -6.5661 110.16 -5.71695 110.459 -4.8903C109.714 -5.38342 108.769 -5.58804 107.889 -5.37933C108.579 -5.99931 108.697 -6.88939 108.063 -7.76104C107.279 -8.83527 105.87 -9.16265 104.695 -8.53244C103.662 -7.97998 103.081 -6.93645 103.547 -5.94202C102.659 -6.65612 101.389 -6.64999 100.343 -6.16505C101.276 -6.85256 101.728 -7.94315 101.243 -9.03374C100.719 -10.2144 99.6411 -10.5458 98.5464 -9.88494C97.4497 -9.22404 96.7213 -7.95134 97.2021 -6.64385C97.6236 -5.50415 98.6937 -5.35887 99.6841 -5.78038C98.9516 -5.22792 98.4543 -4.40741 98.6569 -3.62988C97.9694 -3.89997 97.1837 -3.93271 96.4839 -3.73014C97.11 -4.54451 97.4067 -5.69853 97.1162 -6.60702C96.7213 -7.84289 95.7268 -8.30737 94.624 -7.64441C93.7912 -7.14516 93.3267 -6.10981 93.294 -5.12766C93.0198 -5.67807 92.6065 -6.09548 92.0397 -5.99727C92.6822 -6.76662 92.8049 -7.97794 92.6699 -8.91507C92.5082 -10.0486 91.7184 -10.8569 90.6258 -10.2001C89.7439 -9.66805 89.4227 -8.50789 89.4718 -7.49709C89.1321 -8.1314 88.5776 -8.49152 87.931 -8.23166C88.5469 -9.07262 88.7127 -10.2451 88.418 -11.2456C88.062 -12.4406 87.0246 -12.9644 86.0383 -12.1111C85.2015 -11.3848 84.9498 -10.1243 85.1503 -9.07467C84.6961 -9.72944 84.0147 -9.84402 83.3559 -9.41433C83.8981 -10.3249 84.0618 -11.5382 83.5073 -12.5122C82.8402 -13.6846 81.6187 -13.4186 80.8452 -12.4529C80.1761 -11.618 79.8631 -10.4149 80.2334 -9.42865C79.6134 -9.98111 78.8093 -9.81537 78.1505 -9.28951C78.6722 -10.1612 78.7807 -11.2866 78.0236 -12.0907C77.1213 -13.0442 75.9713 -12.6063 75.2142 -11.6917C74.4797 -10.8057 74.1912 -9.50436 74.9748 -8.59587C74.0643 -9.46957 72.8591 -9.12787 72.0734 -8.1846C71.3798 -7.34977 71.1015 -6.16914 71.613 -5.22792C70.7373 -5.7681 69.706 -5.35478 69.0165 -4.50972C68.3453 -3.68717 68.022 -2.55565 68.4661 -1.60419C67.6149 -2.11982 66.5938 -1.76789 65.8756 -0.973984C65.1595 -0.18008 64.8362 0.947346 65.2741 1.89062C64.4249 1.36681 63.3732 1.68396 62.6264 2.43285C61.8488 3.21243 61.501 4.35418 62.0043 5.31177C61.1572 4.69998 60.0789 4.93733 59.2748 5.69031C58.352 6.55378 58.0942 7.91651 58.9556 8.93344C59.6431 9.74577 60.6089 9.80715 61.4416 9.34677C61.014 10.0179 60.8421 10.8445 61.0897 11.5873C60.3326 11.1433 59.4119 11.3152 58.6568 11.9167C59.4692 11.0839 59.7086 9.9115 58.931 8.96618C58.1085 7.96357 56.8378 8.14364 55.9334 8.95187C55.027 9.75805 54.716 10.9591 55.5283 11.9576C56.2997 12.905 57.4537 12.8989 58.3663 12.1807C57.5601 12.9991 57.2552 14.1818 57.8282 15.1906C57.0547 14.4478 55.9232 14.4539 55.0474 15.1271C54.0796 15.8658 53.8464 17.0321 54.5912 18.0081C55.3359 18.9862 56.6312 19.1028 57.6113 18.3805C58.4993 17.7257 58.7653 16.6495 58.2353 15.7144C58.8717 16.3262 59.7024 16.3671 60.439 16.0029C60.0585 16.6761 59.9521 17.4556 60.2917 18.1452C59.4835 17.6255 58.4604 17.8035 57.6072 18.4501C56.5821 19.2256 56.4982 20.4819 57.3616 21.4599C58.1617 22.3664 59.3055 22.4646 60.1567 21.773C59.4896 22.6631 59.4344 23.8294 60.2365 24.6949C61.1102 25.6423 62.3194 25.4868 63.2034 24.6008C63.9216 23.8826 64.161 22.88 63.7599 22.0165C64.3799 22.3787 65.094 22.3787 65.7304 22.0738C65.3477 22.8472 65.3682 23.7496 65.9207 24.4923C65.1493 23.68 64.0116 23.8376 63.2136 24.6458C62.3911 25.4806 62.3113 26.7267 63.1318 27.5943C63.9502 28.4639 65.0551 28.4127 65.8368 27.5656C66.5836 26.7554 66.7514 25.5932 66.0884 24.6929C66.8128 25.4683 67.7581 25.4806 68.5479 24.9097C68.018 25.7282 67.9954 26.7779 68.6686 27.5738C69.4523 28.5028 70.59 28.4659 71.3798 27.5841C72.0611 26.8229 72.233 25.7732 71.7849 24.8995C72.5686 25.5461 73.5855 25.3804 74.318 24.5455C74.9339 23.8457 75.1549 22.9086 74.9135 22.0595C75.4291 22.3091 75.9775 22.2559 76.4788 21.9428C76.1514 22.7613 76.2169 23.7189 76.7673 24.4576C77.4977 25.4356 78.5883 25.3619 79.3413 24.4371C79.9429 23.7025 80.1618 22.6672 79.8488 21.7812C80.5465 22.2989 81.3404 22.1761 82.0463 21.4088C82.6561 20.7438 82.8955 19.8517 82.7522 18.9923C83.2065 19.2583 83.7221 19.2644 84.2152 18.9984C83.8674 19.7841 83.937 20.7192 84.4301 21.464C85.0828 22.4421 86.1161 22.5096 86.9243 21.6502C87.6036 20.9279 87.7735 19.8803 87.4093 18.9902C88.0702 19.6164 88.907 19.6512 89.6273 18.8839C90.237 18.2352 90.413 17.3451 90.2432 16.5062C90.7833 16.9155 91.4402 16.9748 92.0786 16.5819C91.5261 17.3288 91.567 18.3641 92.0479 19.1764C92.6003 20.1095 93.5149 20.3837 94.3641 19.643C95.2153 18.9023 95.3503 17.6459 94.7631 16.7047C94.2557 15.8883 93.4556 15.5957 92.7026 16.0254C93.1692 15.4402 93.3288 14.6995 93.2203 13.9792C93.6561 14.2514 94.1554 14.3312 94.6567 14.1695C94.2741 14.9143 94.3805 15.8556 94.8306 16.6044C95.4322 17.603 96.4675 18.0327 97.4354 17.2735C98.2293 16.6535 98.3623 15.655 98.0676 14.7609C98.7756 15.4852 99.7761 15.61 100.709 14.9553C101.522 14.3844 101.9 13.4882 101.763 12.6001C102.473 13.1649 103.398 13.2979 104.288 12.7679C105.129 12.2687 105.493 11.4195 105.436 10.5315C105.962 10.9673 106.608 11.1474 107.294 10.9366C106.657 11.6323 106.58 12.6861 106.95 13.5741C107.398 14.6524 108.347 15.2622 109.416 14.6381C110.467 14.0222 110.639 12.7352 110.25 11.6507C110.684 12.7618 111.644 13.3449 112.755 12.7454C113.672 12.2502 113.952 11.2906 113.809 10.3412M99.4938 18.3825C99.1214 17.6909 98.4359 17.4045 97.7853 17.914C97.1366 18.4214 97.0896 19.3156 97.464 20.0092C97.8364 20.7029 98.5239 20.9852 99.1746 20.4757C99.8273 19.9704 99.8662 19.0741 99.4938 18.3825ZM76.9923 30.2829C77.4404 30.864 78.0788 30.8579 78.5392 30.2972C78.9996 29.7366 79.0671 28.9161 78.619 28.3268C78.1709 27.7375 77.5182 27.7743 77.0517 28.3329C76.5852 28.8915 76.5442 29.7039 76.9903 30.2809M65.7119 39.5786C65.5585 39.4046 65.3191 39.3432 65.1349 39.5069C64.9508 39.6727 64.9815 39.9141 65.137 40.0901C65.2904 40.2661 65.5278 40.3254 65.714 40.1617C65.8981 39.998 65.8675 39.7545 65.7119 39.5786ZM81.3322 27.3426C81.9154 26.651 81.9767 25.6116 81.4591 24.8586C80.9394 24.1077 80.1721 24.0933 79.5909 24.7931C79.0098 25.4949 78.93 26.5426 79.46 27.2894C79.9899 28.0383 80.7491 28.0322 81.3322 27.3406M83.1164 29.0286C82.918 28.7381 82.6172 28.6931 82.3819 28.9672C82.1445 29.2414 82.1466 29.6486 82.3451 29.9433C82.5456 30.2359 82.8484 30.2788 83.0837 30.0046C83.319 29.7305 83.317 29.3212 83.1164 29.0286ZM85.8828 27.3467C86.2962 26.8822 86.2614 26.1661 85.9504 25.6566C85.6373 25.1451 85.1339 25.0571 84.7349 25.5174C84.3359 25.9778 84.3523 26.6612 84.6613 27.1605C84.9703 27.6618 85.4695 27.8132 85.8828 27.3467ZM72.8612 35.5763C72.7302 35.4106 72.5236 35.3512 72.3701 35.5108C72.2166 35.6704 72.2289 35.8975 72.3619 36.0674C72.4929 36.2372 72.6934 36.2802 72.8591 36.1308C73.0269 35.9814 72.9921 35.7441 72.8612 35.5763ZM75.6787 33.1475C75.9959 32.7854 76.0102 32.237 75.7094 31.8564C75.4066 31.4758 74.9789 31.4738 74.6679 31.8462C74.3549 32.2165 74.3303 32.7588 74.6352 33.1414C74.938 33.524 75.3595 33.5117 75.6787 33.1475ZM96.2711 20.9852C95.9928 20.4328 95.4424 20.2711 94.9739 20.6906C94.5032 21.1101 94.4848 21.8017 94.7672 22.3275C95.0496 22.8513 95.5529 23.1091 96.044 22.6917C96.5351 22.2764 96.5473 21.5357 96.2691 20.9852M155.732 -6.91394C155.937 -6.35534 156.438 -5.97885 157.029 -6.20802C157.621 -6.4331 157.754 -7.05717 157.549 -7.61372C157.342 -8.17232 156.841 -8.54881 156.252 -8.32169C155.66 -8.09457 155.525 -7.47254 155.732 -6.91394ZM151.654 -5.34046C151.922 -4.60794 152.579 -4.11481 153.354 -4.41355C154.128 -4.71024 154.302 -5.5287 154.034 -6.25917C153.764 -6.9917 153.107 -7.48481 152.333 -7.18608C151.56 -6.88939 151.384 -6.07298 151.654 -5.34046ZM142.371 -6.86279C142.649 -6.11185 143.324 -5.6085 144.118 -5.91338C144.914 -6.2203 145.096 -7.05717 144.818 -7.80811C144.542 -8.55904 143.862 -9.06034 143.068 -8.75343C142.273 -8.4465 142.09 -7.61372 142.371 -6.86279ZM159.869 -8.51198C159.996 -8.16413 160.307 -7.93088 160.676 -8.07411C161.042 -8.21529 161.126 -8.60201 160.999 -8.94986C160.87 -9.29565 160.557 -9.53096 160.191 -9.38773C159.824 -9.24655 159.74 -8.85983 159.869 -8.51198ZM147.623 -3.78539C147.944 -2.91168 148.734 -2.3224 149.657 -2.68047C150.582 -3.03445 150.793 -4.01046 150.471 -4.88621C150.15 -5.75992 149.36 -6.34921 148.436 -5.99113C147.511 -5.6351 147.3 -4.65909 147.623 -3.78539ZM150.672 -10.0691C150.791 -9.74581 151.081 -9.52892 151.423 -9.65987C151.765 -9.79082 151.84 -10.1509 151.72 -10.4722C151.603 -10.7934 151.31 -11.0124 150.971 -10.8814C150.629 -10.7505 150.553 -10.3903 150.67 -10.0691M146.488 -8.45264C146.692 -7.89404 147.196 -7.5196 147.787 -7.74672C148.378 -7.97384 148.513 -8.59587 148.307 -9.15447C148.1 -9.71307 147.599 -10.0896 147.007 -9.86039C146.416 -9.63327 146.281 -9.01124 146.488 -8.45264ZM183.746 -2.40628C183.883 -2.03389 184.216 -1.78426 184.611 -1.93567C185.006 -2.08709 185.094 -2.50245 184.959 -2.87485C184.822 -3.24725 184.489 -3.49893 184.092 -3.34547C183.699 -3.19405 183.609 -2.77868 183.746 -2.40628ZM179.801 -0.881908C179.971 -0.417431 180.39 -0.10437 180.881 -0.292618C181.374 -0.480862 181.485 -1.00058 181.313 -1.46506C181.143 -1.92953 180.724 -2.24259 180.233 -2.05435C179.739 -1.8661 179.629 -1.34638 179.801 -0.881908ZM163.186 -1.25635C162.368 -0.941246 162.182 -0.0757256 162.468 0.69976C162.752 1.47525 163.45 1.99702 164.269 1.68191C165.087 1.36681 165.275 0.501286 164.991 -0.2742C164.706 -1.04765 164.009 -1.57146 163.188 -1.25635M160.96 -3.82631C161.212 -3.13676 161.832 -2.67433 162.56 -2.9526C163.291 -3.23293 163.452 -4.00228 163.2 -4.68774C162.949 -5.37729 162.329 -5.84176 161.6 -5.56144C160.87 -5.28112 160.708 -4.51381 160.96 -3.82631ZM169.087 -6.96305C169.22 -6.60293 169.544 -6.36148 169.924 -6.50676C170.305 -6.65203 170.391 -7.05513 170.26 -7.41525C170.127 -7.77332 169.803 -8.01682 169.423 -7.87154C169.042 -7.72422 168.956 -7.32113 169.087 -6.96305ZM156.964 -2.28352C157.261 -1.4712 157.993 -0.922832 158.852 -1.25431C159.712 -1.58374 159.906 -2.49018 159.609 -3.3025C159.313 -4.11481 158.58 -4.66318 157.721 -4.33171C156.862 -4.00228 156.667 -3.09584 156.964 -2.28352ZM164.989 -5.38138C165.189 -4.83506 165.68 -4.4688 166.257 -4.68978C166.832 -4.91077 166.963 -5.52052 166.763 -6.06479C166.562 -6.61111 166.071 -6.97942 165.494 -6.75843C164.919 -6.5354 164.786 -5.92566 164.989 -5.38138ZM138.295 -5.28521C138.647 -4.38286 139.469 -3.78539 140.427 -4.15369C141.384 -4.51995 141.601 -5.5287 141.264 -6.43514C140.924 -7.34158 140.093 -7.93497 139.134 -7.56257C138.176 -7.19222 137.941 -6.18551 138.295 -5.28521ZM133.709 -20.5433C133.72 -20.5515 133.718 -20.5679 133.709 -20.5781C133.699 -20.5863 133.685 -20.5904 133.675 -20.5801C133.666 -20.572 133.666 -20.5576 133.675 -20.5474C133.685 -20.5372 133.699 -20.5351 133.709 -20.5433ZM123.309 -9.54528C123.646 -8.75343 124.42 -8.29304 125.253 -8.62861C126.088 -8.96418 126.309 -9.80924 125.969 -10.6093C125.629 -11.4114 124.833 -11.8431 124 -11.5014C123.166 -11.1597 122.973 -10.3351 123.307 -9.54324M131.995 -13.0053C132.126 -12.68 132.426 -12.4795 132.768 -12.6125C133.11 -12.7455 133.194 -13.1015 133.071 -13.4268C132.944 -13.7522 132.641 -13.9547 132.3 -13.8197C131.958 -13.6867 131.868 -13.3286 131.995 -13.0053ZM127.616 -11.2559C127.862 -10.6686 128.43 -10.3412 129.044 -10.5888C129.656 -10.8344 129.83 -11.4605 129.586 -12.0498C129.341 -12.6391 128.772 -12.9644 128.158 -12.7189C127.546 -12.4733 127.366 -11.8451 127.616 -11.2559ZM117.41 -12.148C117.762 -11.5137 118.451 -11.219 119.131 -11.5034C119.81 -11.7858 120.025 -12.4426 119.689 -13.0953C119.35 -13.7481 118.615 -13.9997 117.94 -13.7133C117.265 -13.4248 117.058 -12.7843 117.41 -12.148ZM119.061 -7.88177C119.579 -6.96305 120.477 -6.3758 121.508 -6.78094C122.54 -7.18813 122.756 -8.19278 122.321 -9.17493C121.885 -10.155 120.819 -10.6236 119.806 -10.2021C118.793 -9.78059 118.543 -8.79844 119.061 -7.88177ZM115.652 -8.70841C114.535 -8.2071 114.281 -7.04899 114.938 -6.07502C115.595 -5.10106 116.718 -4.53018 117.846 -4.99057C118.971 -5.4489 119.245 -6.68273 118.625 -7.70784C118.005 -8.73296 116.767 -9.20972 115.652 -8.70636M128.885 -6.7257C129.298 -5.81516 130.151 -5.21973 131.133 -5.60032C132.115 -5.9809 132.318 -6.98555 131.952 -7.92474C131.59 -8.86187 130.679 -9.42047 129.697 -9.02556C128.715 -8.63475 128.471 -7.63419 128.885 -6.72365M131.365 -5.01103C130.19 -4.55883 129.949 -3.33523 130.378 -2.23645C130.81 -1.13767 131.809 -0.378555 132.985 -0.828709C134.166 -1.27886 134.436 -2.52087 134.002 -3.62783C133.566 -4.73684 132.539 -5.46323 131.365 -5.01103ZM136.713 -2.44925C137.8 -2.86462 138.049 -4.00637 137.648 -5.02739C137.247 -6.04842 136.3 -6.71956 135.215 -6.30419C134.133 -5.88678 133.908 -4.75526 134.307 -3.74242C134.704 -2.72753 135.627 -2.0298 136.715 -2.44721M141.425 -11.5955C141.54 -11.2845 141.822 -11.0799 142.152 -11.2068C142.481 -11.3336 142.557 -11.6774 142.44 -11.9884C142.326 -12.2994 142.045 -12.5061 141.714 -12.3792C141.387 -12.2503 141.309 -11.9065 141.425 -11.5955ZM175.852 0.640427C176.056 1.19698 176.558 1.57551 177.149 1.34634C177.74 1.12127 177.873 0.497192 177.669 -0.0614052C177.464 -0.617954 176.963 -0.99649 176.372 -0.767323C175.78 -0.542248 175.645 0.0818291 175.852 0.640427ZM125.666 -7.71807C124.549 -7.27202 124.293 -6.1405 124.78 -5.09697C125.265 -4.05138 126.325 -3.43345 127.442 -3.87542C128.559 -4.31738 128.811 -5.45095 128.326 -6.49448C127.843 -7.53802 126.785 -8.16413 125.666 -7.71807ZM133.02 -8.32373C133.306 -7.56257 134 -7.06945 134.802 -7.38046C135.604 -7.69352 135.794 -8.5304 135.508 -9.29156C135.224 -10.0548 134.522 -10.5438 133.722 -10.2287C132.92 -9.91564 132.735 -9.08285 133.02 -8.32373ZM137.186 -9.94428C137.397 -9.38159 137.908 -9.01942 138.499 -9.24859C139.091 -9.4798 139.234 -10.0977 139.023 -10.6604C138.812 -11.2231 138.299 -11.5853 137.71 -11.3561C137.118 -11.1249 136.975 -10.507 137.186 -9.94428ZM121.909 -13.9956C122.12 -13.5721 122.558 -13.3593 123.004 -13.5394C123.45 -13.7174 123.571 -14.1675 123.38 -14.5952C123.19 -15.0208 122.746 -15.2336 122.3 -15.0515C121.856 -14.8714 121.701 -14.4192 121.909 -13.9956ZM162.141 7.67507C162.992 7.34768 163.186 6.44738 162.889 5.6412C162.595 4.83502 161.868 4.29279 161.015 4.62017C160.164 4.94756 159.97 5.84786 160.266 6.65405C160.561 7.46022 161.287 8.00245 162.141 7.67507ZM165.91 6.13842C166.722 5.8274 166.906 4.97007 166.624 4.20072C166.341 3.43137 165.648 2.91164 164.835 3.2247C164.023 3.53776 163.839 4.3951 164.121 5.16445C164.404 5.9338 165.095 6.45148 165.91 6.13842ZM156.46 8.12317C156.757 8.93345 157.488 9.48181 158.349 9.15034C159.206 8.82295 159.403 7.91446 159.102 7.10419C158.805 6.29187 158.075 5.74351 157.213 6.07498C156.356 6.40441 156.16 7.31086 156.46 8.12317ZM160.516 3.26358C161.4 2.92392 161.602 1.99088 161.293 1.15401C160.987 0.315086 160.234 -0.249649 159.348 0.0920563C158.464 0.433762 158.263 1.36681 158.57 2.20368C158.879 3.04055 159.63 3.60529 160.516 3.26358ZM169.658 4.54651C170.399 4.2621 170.567 3.48047 170.311 2.77864C170.053 2.07887 169.423 1.6062 168.682 1.89267C167.941 2.17708 167.774 2.95871 168.029 3.65849C168.287 4.35827 168.917 4.83092 169.658 4.54651ZM153.011 6.42897C154.028 6.03815 154.259 4.96392 153.903 4.00428C153.551 3.04464 152.685 2.39397 151.668 2.78478C150.651 3.1756 150.42 4.24982 150.774 5.20947C151.128 6.16911 151.994 6.81773 153.011 6.42897ZM149.234 7.93902C150.277 7.54002 150.51 6.4392 150.15 5.45296C149.788 4.46672 148.9 3.80172 147.858 4.20276C146.815 4.60176 146.58 5.70258 146.942 6.68882C147.302 7.67507 148.192 8.34007 149.234 7.93902ZM156.763 4.84525C157.715 4.48104 157.93 3.47638 157.6 2.57812C157.271 1.67782 156.46 1.07216 155.509 1.43842C154.574 1.79854 154.353 2.77251 154.658 3.65849C154.611 3.66872 154.562 3.69122 154.517 3.7301C154.363 3.87333 154.39 4.08409 154.523 4.23141C154.65 4.37873 154.842 4.42784 154.993 4.29893C155.405 4.83911 156.043 5.12148 156.761 4.84525M166.382 -0.814384C166.64 -0.112556 167.27 0.358055 168.011 0.0736427C168.752 -0.210773 168.921 -0.992401 168.664 -1.69218C168.408 -2.39401 167.776 -2.86462 167.035 -2.58021C166.294 -2.29579 166.126 -1.51416 166.382 -0.814384ZM169.812 -3.70354C169.74 -3.63602 169.752 -3.5378 169.814 -3.46824C169.877 -3.39866 169.967 -3.37411 170.041 -3.43959C170.112 -3.50711 170.1 -3.60533 170.039 -3.6749C169.977 -3.74446 169.885 -3.77106 169.812 -3.70354ZM86.7299 -48.6328C86.7402 -48.641 86.7381 -48.6573 86.7279 -48.6655C86.7197 -48.6757 86.7054 -48.6798 86.6952 -48.6696C86.687 -48.6614 86.687 -48.6471 86.6952 -48.6369C86.7033 -48.6266 86.7197 -48.6246 86.7299 -48.6328ZM174.338 -3.88155C174.512 -3.4048 174.941 -3.08356 175.447 -3.27794C175.952 -3.47233 176.067 -4.00432 175.893 -4.48108C175.717 -4.95987 175.287 -5.28112 174.782 -5.08673C174.276 -4.8903 174.162 -4.35831 174.338 -3.88155ZM172.684 -6.12004C172.824 -5.96044 173.036 -5.90724 173.202 -6.05865C173.368 -6.20802 173.337 -6.43514 173.198 -6.5927C173.059 -6.75434 172.844 -6.80754 172.678 -6.65613C172.512 -6.50471 172.543 -6.27964 172.684 -6.12004ZM178.387 -5.44276C178.504 -5.12152 178.796 -4.90463 179.136 -5.03354C179.478 -5.16449 179.553 -5.52461 179.437 -5.84585C179.318 -6.16914 179.027 -6.38604 178.688 -6.25508C178.346 -6.12413 178.268 -5.76606 178.387 -5.44276ZM170.329 -2.33672C170.552 -1.72901 171.099 -1.31978 171.741 -1.56532C172.384 -1.8129 172.529 -2.49018 172.306 -3.09993C172.085 -3.70559 171.536 -4.11686 170.894 -3.86928C170.251 -3.6217 170.106 -2.94442 170.329 -2.33672ZM145.442 9.41634C146.492 9.0112 146.729 7.90628 146.363 6.9139C146.001 5.92357 145.106 5.25448 144.057 5.65553C143.007 6.06066 142.768 7.16763 143.134 8.15796C143.498 9.15034 144.392 9.81738 145.442 9.41634ZM150.023 -1.68399C149.006 -1.29318 148.775 -0.221001 149.131 0.73864C149.483 1.69828 150.349 2.34691 151.366 1.95814C152.383 1.56733 152.614 0.493103 152.258 -0.466541C151.906 -1.42618 151.04 -2.07481 150.023 -1.68399ZM136.306 8.1109C137.493 7.65665 137.753 6.40441 137.339 5.28926C136.926 4.17207 135.919 3.40886 134.732 3.8631C133.546 4.31734 133.286 5.56549 133.701 6.68269C134.115 7.80193 135.119 8.5631 136.306 8.1109ZM153.027 -0.765278C153.356 0.135025 154.165 0.740685 155.118 0.374424C156.07 0.00816727 156.285 -0.994446 155.955 -1.89475C155.626 -2.79505 154.817 -3.40071 153.864 -3.03445C152.912 -2.66819 152.698 -1.66354 153.027 -0.765278ZM146.191 -0.31308C145.123 0.0981979 144.879 1.22562 145.252 2.23642C145.624 3.24722 146.533 3.92653 147.603 3.51526C148.671 3.10398 148.914 1.97655 148.544 0.965763C148.172 -0.0450325 147.259 -0.726398 146.191 -0.31308ZM128.77 11.0123C129.951 10.5601 130.198 9.29766 129.787 8.18865C129.374 7.07759 128.361 6.29392 127.182 6.7543C126.002 7.21468 125.807 8.47716 126.21 9.57594C126.615 10.6727 127.589 11.4666 128.77 11.0123ZM132.533 9.58208C133.732 9.12374 133.998 7.85922 133.578 6.72975C133.159 5.60028 132.138 4.83297 130.939 5.29131C129.74 5.75169 129.474 7.01416 129.895 8.14363C130.315 9.27106 131.334 10.0425 132.533 9.58208ZM123.589 8.27254C122.456 8.73702 122.267 9.96675 122.654 11.0348C123.039 12.0988 123.97 12.8641 125.105 12.4017C126.239 11.9392 126.446 10.7034 126.057 9.63323C125.668 8.56514 124.723 7.81012 123.589 8.27254ZM135.602 11.0553C135.954 12.017 136.817 12.6799 137.841 12.2891C138.864 11.8983 139.091 10.8179 138.735 9.85421C138.383 8.89252 137.517 8.23162 136.494 8.62243C135.471 9.0112 135.246 10.0916 135.602 11.0553ZM171.935 2.15048C172.169 2.78274 172.738 3.20834 173.407 2.95257C174.076 2.6968 174.227 1.99088 173.996 1.35862C173.763 0.72636 173.194 0.300766 172.525 0.556534C171.856 0.814346 171.704 1.51822 171.935 2.15048ZM142.352 1.04761C141.225 1.48139 140.971 2.6702 141.364 3.73624C141.757 4.80228 142.719 5.52048 143.848 5.08465C144.975 4.65291 145.231 3.46206 144.838 2.39602C144.443 1.32998 143.48 0.611778 142.352 1.04761ZM140.081 6.63153C141.254 6.17934 141.52 4.94347 141.108 3.83446C140.699 2.7234 139.698 1.97655 138.524 2.42875C137.352 2.88095 137.09 4.11478 137.499 5.22379C137.908 6.3328 138.905 7.08373 140.079 6.63153M141.646 10.8793C142.696 10.4783 142.933 9.36927 142.567 8.37689C142.205 7.38656 141.311 6.71747 140.261 7.12056C139.211 7.52161 138.974 8.62857 139.34 9.62095C139.703 10.6113 140.595 11.2824 141.646 10.8793ZM146.831 -3.47847C146.473 -4.45243 145.593 -5.10515 144.562 -4.70819C143.533 -4.31124 143.298 -3.22679 143.658 -2.25282C144.016 -1.27886 144.896 -0.628185 145.927 -1.02309C146.956 -1.418 147.191 -2.5045 146.831 -3.47847ZM140.707 -3.39457C139.592 -2.96488 139.34 -1.7904 139.729 -0.736633C140.12 0.317131 141.069 1.0251 142.185 0.597454C143.3 0.169811 143.551 -1.00877 143.163 -2.06049C142.774 -3.11425 141.822 -3.82222 140.707 -3.39457ZM136.871 -2.03184C135.698 -1.58169 135.436 -0.347862 135.848 0.759102C136.259 1.86402 137.253 2.617 138.428 2.1648C139.6 1.71465 139.866 0.478779 139.455 -0.632278C139.046 -1.74129 138.043 -2.48608 136.869 -2.03389M75.0055 -14.7261C74.0438 -15.4955 72.8632 -15.1394 72.1266 -14.233C71.39 -13.3266 71.3736 -12.1869 72.2923 -11.4216C73.2131 -10.6584 74.361 -10.9285 75.1058 -11.8083C75.8526 -12.6882 75.9713 -13.9568 75.0055 -14.7261ZM81.1747 -22.6918C81.8888 -22.125 82.8443 -22.0636 83.5564 -22.6754C84.2684 -23.2851 84.162 -24.1957 83.4582 -24.8054C82.7522 -25.4131 81.6739 -25.4786 80.9803 -24.8095C80.2846 -24.1404 80.4606 -23.2606 81.1747 -22.6938M84.649 -25.7937C85.2219 -25.276 86.0793 -25.0632 86.7361 -25.5605C87.3949 -26.0577 87.2722 -26.8577 86.687 -27.3999C86.0997 -27.9463 85.2015 -28.1366 84.5508 -27.5964C83.8981 -27.0582 84.0781 -26.3073 84.649 -25.7937ZM73.9354 -20.8666C73.0576 -21.4886 72.0284 -21.2554 71.4309 -20.3735C70.8355 -19.4916 71.0033 -18.4215 71.877 -17.8097C72.7486 -17.1979 73.8024 -17.4045 74.3937 -18.2885C74.9871 -19.1683 74.8132 -20.2446 73.9374 -20.8666M64.7462 -15.8269C64.0423 -16.3303 63.1665 -16.2219 62.6386 -15.5303C62.1107 -14.8366 62.3092 -13.9854 62.9926 -13.4698C63.676 -12.9542 64.5743 -13.0544 65.0838 -13.7624C65.5912 -14.4704 65.45 -15.3215 64.7462 -15.8269ZM87.8226 -35.0116C88.1541 -34.717 88.6329 -34.5942 88.9786 -34.9113C89.3224 -35.2264 89.1833 -35.6705 88.8722 -35.9631C88.5612 -36.2557 88.109 -36.3621 87.7448 -36.0654C87.3827 -35.7687 87.4911 -35.3042 87.8226 -35.0116ZM94.1206 -35.6111C94.2372 -35.4351 94.4459 -35.3553 94.6362 -35.472C94.8245 -35.5866 94.8347 -35.8035 94.716 -35.9794C94.5994 -36.1554 94.3907 -36.2372 94.2004 -36.1206C94.0122 -36.004 94.0019 -35.785 94.1206 -35.6091M76.5811 -24.431C75.7687 -24.9814 74.762 -24.9302 74.1482 -24.1343C73.5364 -23.3383 73.7349 -22.3357 74.5472 -21.771C75.3616 -21.2042 76.3273 -21.4068 76.9371 -22.1761C77.5468 -22.9455 77.3954 -23.8826 76.5811 -24.433M79.5623 -27.711C78.8195 -28.2266 77.7842 -28.2143 77.1724 -27.5166C76.5626 -26.8188 76.7059 -25.9513 77.4466 -25.4438C78.1893 -24.9364 79.1674 -25.0244 79.7935 -25.675C80.4217 -26.3237 80.3091 -27.1933 79.5623 -27.711ZM88.3832 -28.6133C88.7802 -28.2061 89.4227 -27.8869 89.9588 -28.2348C90.4948 -28.5806 90.3475 -29.1719 89.9424 -29.5995C89.5372 -30.0251 88.8395 -30.3484 88.3055 -29.9638C87.7735 -29.5811 87.9863 -29.0205 88.3832 -28.6133ZM84.4546 -19.4936C85.0746 -18.8041 86.0076 -18.5115 86.8241 -19.0762C87.6405 -19.643 87.5811 -20.662 86.9489 -21.3945C86.3187 -22.1291 85.2649 -22.4135 84.4751 -21.7792C83.6812 -21.1428 83.8367 -20.1852 84.4546 -19.4936ZM71.3573 -17.073C70.4774 -17.6828 69.4134 -17.4946 68.7443 -16.6679C68.0752 -15.8413 68.2328 -14.8121 69.0963 -14.1757C69.9618 -13.5394 71.0237 -13.7194 71.6887 -14.5583C72.3537 -15.3973 72.2412 -16.4592 71.3593 -17.073M77.7167 -18.4419C76.7529 -19.1376 75.648 -18.7611 75.0076 -17.8526C74.3671 -16.9441 74.4203 -15.8024 75.3145 -15.1108C76.2066 -14.4212 77.289 -14.7384 77.952 -15.6223C78.6149 -16.5042 78.6825 -17.7462 77.7167 -18.4419ZM92.275 -30.8497C92.5062 -30.5592 92.9297 -30.3464 93.2694 -30.5612C93.6111 -30.774 93.56 -31.171 93.3369 -31.4595C93.1139 -31.746 92.7169 -31.8769 92.3875 -31.6805C92.0601 -31.4861 92.0458 -31.1423 92.275 -30.8497ZM78.1586 -19.0987C79.0221 -18.5135 79.947 -18.7591 80.6181 -19.5305C81.2913 -20.3019 81.2463 -21.2472 80.4053 -21.9122C79.5664 -22.5751 78.4799 -22.4012 77.8047 -21.5848C77.1294 -20.7684 77.2993 -19.686 78.1586 -19.0987ZM91.966 -29.9208C91.8494 -29.8267 91.8965 -29.6834 91.9885 -29.5852C92.0826 -29.487 92.2259 -29.4297 92.3425 -29.5197C92.4591 -29.6118 92.4182 -29.7571 92.3261 -29.8553C92.232 -29.9535 92.0847 -30.0149 91.9681 -29.9208M81.2667 -16.2034C82.0054 -15.4095 82.9753 -15.5221 83.7385 -16.273C84.5037 -17.0239 84.5979 -18.1186 83.8346 -18.9555C83.0714 -19.7944 81.942 -19.866 81.1706 -19.021C80.3971 -18.178 80.5281 -16.9973 81.2667 -16.2034ZM71.5619 -32.7977C71.034 -33.1844 70.3587 -33.0985 69.9372 -32.5951C69.5157 -32.0917 69.6139 -31.4574 70.1418 -31.081C70.6718 -30.7045 71.3348 -30.7924 71.7563 -31.2897C72.1798 -31.7869 72.0918 -32.4109 71.5619 -32.7977ZM80.2355 -35.2264C80.7286 -34.8725 81.4263 -34.7456 81.9051 -35.1937C82.3819 -35.6439 82.1957 -36.2127 81.7026 -36.583C81.2115 -36.9534 80.4687 -37.0536 79.9858 -36.5953C79.5009 -36.137 79.7424 -35.5784 80.2355 -35.2264ZM74.6147 -36.27C74.0991 -36.6342 73.4668 -36.6158 73.029 -36.1533C72.5911 -35.6909 72.6627 -35.0955 73.1701 -34.719C73.6776 -34.3425 74.3344 -34.3896 74.7764 -34.852C75.2204 -35.3144 75.1303 -35.9037 74.6147 -36.27ZM68.6973 -29.2333C68.1632 -29.5975 67.531 -29.4461 67.1729 -28.9141C66.8148 -28.3841 66.9253 -27.7416 67.4614 -27.3774C67.9954 -27.0153 68.6195 -27.1564 68.9735 -27.6884C69.3275 -28.2204 69.2293 -28.8691 68.6973 -29.2333ZM76.0982 -39.3781C75.7053 -38.9545 75.8322 -38.4328 76.2864 -38.1136C76.7407 -37.7923 77.3463 -37.778 77.7392 -38.2036C78.132 -38.6251 77.9909 -39.1366 77.5387 -39.4558C77.0885 -39.7771 76.489 -39.8057 76.0961 -39.3801M80.6427 -43.1205C80.7736 -43.0407 80.9332 -43.0448 81.0212 -43.1819C81.1071 -43.3189 81.0437 -43.4663 80.9128 -43.5461C80.7818 -43.6259 80.6202 -43.6218 80.5322 -43.4847C80.4442 -43.3476 80.5117 -43.2003 80.6427 -43.1205ZM79.0651 -42.4145C78.7643 -42.0769 78.8973 -41.6534 79.2349 -41.3956C79.5746 -41.1357 80.0329 -41.0805 80.3194 -41.4263C80.6058 -41.77 80.4749 -42.1854 80.1475 -42.4473C79.8201 -42.7133 79.3659 -42.7501 79.0651 -42.4145ZM75.558 -30.3628C74.8766 -30.8354 74.0193 -30.7167 73.4791 -30.0865C72.941 -29.4563 73.0351 -28.6767 73.7165 -28.202C74.3978 -27.7253 75.2654 -27.8358 75.8076 -28.4639C76.3478 -29.0962 76.2414 -29.884 75.56 -30.3607M72.6688 -26.9027C71.9711 -27.3958 71.0954 -27.2976 70.6063 -26.5815C70.1173 -25.8633 70.2482 -25.0141 70.9624 -24.519C71.6765 -24.0218 72.5113 -24.2366 73.0024 -24.9302C73.4955 -25.6239 73.3625 -26.4096 72.6668 -26.9027M84.3687 -32.1286C84.8352 -31.75 85.5493 -31.5679 86.0547 -31.9792C86.5622 -32.3925 86.376 -32.9716 85.9094 -33.3726C85.4409 -33.7716 84.6551 -33.9619 84.1723 -33.4934C83.6873 -33.0289 83.9001 -32.5071 84.3707 -32.1286M80.7982 -28.9325C81.4284 -28.4701 82.2857 -28.4066 82.8914 -28.9468C83.497 -29.4891 83.3395 -30.1888 82.7134 -30.682C82.0872 -31.1751 81.2033 -31.2672 80.6017 -30.684C80.0022 -30.0988 80.17 -29.3949 80.8002 -28.9305M86.6154 -41.4283C86.822 -41.238 87.1167 -41.1971 87.3254 -41.4078C87.532 -41.6186 87.4788 -41.903 87.2701 -42.0953C87.0614 -42.2856 86.7668 -42.3286 86.5601 -42.1158C86.3514 -41.9051 86.4066 -41.6206 86.6154 -41.4283ZM78.6395 -33.6079C78.0297 -34.0356 77.2256 -33.9783 76.7079 -33.4299C76.1882 -32.8836 76.2823 -32.2022 76.89 -31.7726C77.4998 -31.3449 78.3019 -31.4022 78.8195 -31.9485C79.3352 -32.4948 79.2492 -33.1783 78.6395 -33.6079ZM85.4347 -40.5607C85.3652 -40.4646 85.404 -40.3541 85.4982 -40.2906C85.5943 -40.2272 85.713 -40.2272 85.7826 -40.3234C85.8521 -40.4216 85.8133 -40.53 85.7171 -40.5935C85.623 -40.659 85.5043 -40.659 85.4347 -40.5607ZM83.5318 -38.3243C83.8919 -38.044 84.4096 -37.9376 84.737 -38.2834C85.0644 -38.6292 84.9007 -39.0671 84.5672 -39.3494C84.2357 -39.6318 83.7569 -39.7095 83.405 -39.3801C83.051 -39.0527 83.1696 -38.6046 83.5318 -38.3243ZM62.7696 -6.42082C61.9757 -7.11856 60.9342 -6.97328 60.2058 -6.24076C59.4773 -5.50824 59.4467 -4.46471 60.2283 -3.74651C61.0079 -3.02831 62.0596 -3.22065 62.743 -3.96545C63.4244 -4.71229 63.5655 -5.72309 62.7716 -6.42082M96.4307 -11.2661C96.6415 -10.2594 97.4722 -9.97497 98.35 -10.4886C99.2257 -11.0042 99.7577 -12.0927 99.4447 -13.0483C99.1337 -14.0038 98.395 -14.3721 97.5193 -13.8647C96.6455 -13.3593 96.22 -12.2748 96.4307 -11.2661ZM100.633 -13.789C100.904 -13.0299 101.624 -12.8457 102.307 -13.2427C102.987 -13.6396 103.291 -14.4212 102.98 -15.1394C102.667 -15.8617 101.996 -16.1339 101.311 -15.7369C100.623 -15.34 100.365 -14.544 100.633 -13.789ZM95.868 -10.9223C95.7248 -12.0375 95.0271 -12.7332 93.9876 -12.1214C92.9461 -11.5096 92.6372 -10.0937 92.762 -8.99078C92.8909 -7.88791 93.5436 -7.13697 94.5892 -7.76104C95.6348 -8.38307 96.0092 -9.80924 95.866 -10.9223M92.2607 -13.7706C92.3978 -12.8703 93.0116 -12.328 93.8505 -12.8293C94.6894 -13.3307 94.9718 -14.4908 94.7754 -15.3645C94.5789 -16.2403 93.9365 -16.8418 93.1241 -16.3098C92.3139 -15.7758 92.1215 -14.6688 92.2586 -13.7706M95.778 -16.0193C95.9621 -15.3154 96.49 -14.8755 97.1837 -15.2704C97.8753 -15.6653 98.0697 -16.5267 97.863 -17.2511C97.6563 -17.9754 97.0589 -18.3887 96.3877 -17.9836C95.7146 -17.5723 95.5918 -16.7252 95.778 -16.0193ZM103.576 -20.4226C103.697 -20.2139 103.918 -20.1075 104.143 -20.22C104.37 -20.3346 104.425 -20.5863 104.306 -20.8073C104.19 -21.0262 103.94 -21.0999 103.719 -20.9853C103.5 -20.8686 103.453 -20.6333 103.576 -20.4226ZM104.943 -16.2219C105.153 -15.7574 105.638 -15.5957 106.099 -15.831C106.561 -16.0684 106.727 -16.5697 106.481 -17.0239C106.236 -17.4761 105.763 -17.6603 105.307 -17.4168C104.849 -17.1754 104.734 -16.6884 104.945 -16.2219M99.5327 -18.268C99.6943 -17.8015 100.095 -17.5314 100.554 -17.7708C101.014 -18.0102 101.088 -18.534 100.947 -18.9985C100.805 -19.4629 100.415 -19.7862 99.9398 -19.5407C99.4692 -19.2931 99.369 -18.7345 99.5306 -18.268M112.898 -10.0568C113.41 -9.2179 114.382 -8.93758 115.259 -9.35704C116.137 -9.7765 116.358 -10.6379 115.894 -11.485C115.427 -12.328 114.459 -12.6247 113.586 -12.2094C112.712 -11.792 112.387 -10.8978 112.896 -10.0589M109.393 -18.5585C109.504 -18.3396 109.729 -18.2128 109.962 -18.3192C110.197 -18.4235 110.24 -18.6731 110.132 -18.8921C110.025 -19.1131 109.8 -19.2399 109.565 -19.1315C109.332 -19.0251 109.285 -18.7795 109.393 -18.5585ZM108.364 -7.92065C109.066 -6.94463 110.295 -6.69296 111.351 -7.18403C112.407 -7.67715 112.65 -8.67976 112.039 -9.65578C111.427 -10.6318 110.232 -10.951 109.188 -10.4599C108.145 -9.96679 107.666 -8.89256 108.366 -7.92065M88.0354 -22.1536C88.549 -21.548 89.3858 -21.2267 90.0713 -21.7117C90.7588 -22.1966 90.6197 -23.0089 90.1429 -23.6248C89.6661 -24.2407 88.815 -24.6029 88.1152 -24.1077C87.4154 -23.6105 87.5218 -22.7593 88.0354 -22.1516M101.81 -9.37954C102.289 -8.33601 103.543 -8.34215 104.447 -8.88028C105.354 -9.41637 105.851 -10.4374 105.297 -11.3929C104.742 -12.3465 103.69 -12.5593 102.755 -12.015C101.82 -11.4687 101.335 -10.4251 101.81 -9.38159M115.861 -16.4776C115.982 -16.2157 116.268 -16.1052 116.532 -16.2239C116.796 -16.3426 116.857 -16.6024 116.745 -16.8582C116.632 -17.114 116.37 -17.249 116.104 -17.1344C115.836 -17.0198 115.742 -16.7416 115.861 -16.4776ZM106.471 -12.015C106.934 -11.264 107.817 -11.0553 108.603 -11.4318C109.389 -11.8083 109.657 -12.6186 109.211 -13.3675C108.765 -14.1184 107.887 -14.3251 107.126 -13.9486C106.361 -13.57 106.011 -12.768 106.471 -12.015ZM111.169 -14.3394C111.46 -13.8013 112.063 -13.6151 112.612 -13.8831C113.16 -14.1512 113.328 -14.6975 113.043 -15.2377C112.761 -15.7737 112.164 -15.962 111.615 -15.696C111.069 -15.43 110.879 -14.8796 111.167 -14.3394M83.6423 -12.6063C84.2111 -11.5832 85.1114 -11.4748 85.9892 -12.2462C86.865 -13.0176 87.1821 -14.2944 86.5888 -15.3645C85.9933 -16.4326 84.8986 -16.7395 83.9983 -15.8699C83.096 -15.0003 83.0735 -13.6314 83.6423 -12.6063ZM72.0939 -11.1679C71.1465 -11.9904 69.9045 -11.6487 69.1802 -10.7259C68.4558 -9.80719 68.331 -8.54063 69.2661 -7.73445C70.2012 -6.92826 71.3102 -7.32317 72.055 -8.21529C72.7998 -9.10536 73.0392 -10.3474 72.0918 -11.1679M66.1601 -4.15574C67.0522 -3.29227 68.2676 -3.61555 69.0124 -4.50358C69.7572 -5.39161 70.0457 -6.71137 69.1045 -7.52983C68.1591 -8.35033 66.9662 -7.9718 66.2153 -7.08582C65.4664 -6.19984 65.2679 -5.01717 66.1601 -4.15574ZM122.873 -18.1186C122.947 -18.0347 123.061 -18.0081 123.149 -18.0879C123.239 -18.1677 123.223 -18.2885 123.147 -18.3723C123.074 -18.4562 122.959 -18.4828 122.869 -18.403C122.783 -18.3232 122.797 -18.2046 122.873 -18.1186ZM91.7021 -24.6356C92.0683 -24.1711 92.6781 -23.8417 93.2264 -24.1875C93.7748 -24.5312 93.6623 -25.1512 93.3226 -25.6362C92.9809 -26.1231 92.3241 -26.4178 91.7778 -26.0638C91.2294 -25.7098 91.3358 -25.096 91.7021 -24.6336M95.4792 -26.8638C95.6348 -26.6183 95.9171 -26.4198 96.1974 -26.5856C96.4778 -26.7513 96.4287 -27.0971 96.2834 -27.3508C96.1381 -27.6025 95.8353 -27.7948 95.557 -27.625C95.2787 -27.4552 95.3196 -27.1114 95.4772 -26.8638M78.1443 -12.2257C78.9669 -11.352 80.0697 -11.6364 80.8043 -12.5449C81.5389 -13.4534 81.809 -14.8489 80.9578 -15.8188C80.1086 -16.7886 78.9178 -16.2812 78.2344 -15.3707C77.553 -14.4601 77.3197 -13.0974 78.1423 -12.2237M90.8222 -18.2434C91.2662 -17.5703 91.9231 -17.0567 92.6801 -17.5437C93.4372 -18.0306 93.3799 -18.9391 92.9973 -19.6471C92.6126 -20.3551 91.7941 -20.7991 91.0596 -20.3285C90.3271 -19.8619 90.3823 -18.9187 90.8222 -18.2434ZM94.3723 -20.5126C94.6301 -20.0011 95.1007 -19.5919 95.6573 -19.9274C96.2118 -20.2671 96.2343 -20.975 95.9703 -21.5193C95.7084 -22.0656 95.1641 -22.3889 94.626 -22.037C94.0879 -21.6871 94.1186 -21.0221 94.3743 -20.5126M98.0942 -20.9505C98.1311 -20.8686 98.2027 -20.8134 98.2804 -20.8789C98.3561 -20.9444 98.3459 -21.061 98.3091 -21.1449C98.2722 -21.2267 98.1965 -21.2861 98.1208 -21.2206C98.0451 -21.1531 98.0574 -21.0344 98.0942 -20.9505ZM95.5713 -25.4868C95.5816 -25.497 95.5775 -25.5134 95.5713 -25.5236C95.5631 -25.5339 95.5488 -25.54 95.5386 -25.5318C95.5284 -25.5216 95.5324 -25.5052 95.5406 -25.495C95.5468 -25.4847 95.5611 -25.4786 95.5713 -25.4868ZM87.0532 -15.6919C87.5566 -14.8059 88.4733 -14.4888 89.3879 -15.0494C90.3025 -15.6101 90.5337 -16.7109 89.9485 -17.6112C89.3613 -18.5115 88.3423 -18.8962 87.4502 -18.2721C86.5581 -17.646 86.5458 -16.5799 87.0532 -15.6939M97.9489 -22.7204C98.1024 -22.3992 98.3848 -22.1086 98.751 -22.2784C99.1152 -22.4524 99.105 -22.9168 98.9659 -23.2504C98.8267 -23.5818 98.5075 -23.8662 98.1515 -23.678C97.7934 -23.4918 97.7955 -23.0396 97.9489 -22.7204ZM88.5756 -11.3664C88.86 -10.2799 89.6089 -9.7499 90.5808 -10.3944C91.5527 -11.039 91.9108 -12.3342 91.7021 -13.437C91.4954 -14.5358 90.5992 -15.0965 89.5966 -14.4601C88.594 -13.8258 88.2911 -12.4508 88.5756 -11.3664Z" fill="#1D3660"/>
</g>
<path d="M32.1899 18.6669C32.4232 19.471 32.816 20.4491 33.4708 21.3391C35.0075 23.4282 36.538 24.4902 36.6035 24.5332C36.8899 24.7276 37.2725 24.6477 37.4628 24.3572C37.6531 24.0646 37.5754 23.6676 37.293 23.4733C37.2787 23.463 35.8628 22.4747 34.4611 20.5698C33.2621 18.937 33.0964 16.8847 33.0964 16.8663C33.0739 16.5593 32.8447 16.3158 32.548 16.2811C32.2493 16.2483 31.973 16.4345 31.885 16.7271C31.8605 16.809 31.2589 18.7098 28.8506 19.3237C28.4925 19.4137 28.1426 19.5017 27.8009 19.5856C24.2795 20.4634 21.4988 21.157 20.4757 23.7659C20.3468 24.0912 20.5003 24.4656 20.8195 24.5966C20.8952 24.6273 20.973 24.6457 21.0507 24.6457C21.2963 24.6457 21.5295 24.4943 21.6257 24.2447C22.4094 22.2456 24.7931 21.6501 28.0915 20.8296C28.4352 20.7437 28.7892 20.6578 29.1473 20.5657C30.641 20.1851 31.5965 19.3973 32.192 18.671" fill="#1D3660"/>
<path d="M22.6385 40.8184C22.2968 40.8184 22.0185 41.1048 22.0185 41.4568V42.7274C22.0185 42.9463 21.865 43.1326 21.6563 43.1735L16.6965 44.1024C16.3609 44.1658 16.1358 44.4973 16.1972 44.8431C16.2525 45.1521 16.5123 45.369 16.807 45.369C16.8438 45.369 16.8827 45.3649 16.9195 45.3588L21.8773 44.4298C22.6774 44.2804 23.2564 43.5643 23.2564 42.7274V41.4568C23.2564 41.1048 22.9781 40.8184 22.6364 40.8184" fill="#1D3660"/>
<path d="M41.2973 44.1005L36.3375 43.1715C36.1288 43.1306 35.9753 42.9444 35.9753 42.7255V41.4548C35.9753 41.1029 35.697 40.8164 35.3553 40.8164C35.0136 40.8164 34.7354 41.1029 34.7354 41.4548V42.7255C34.7354 43.5623 35.3144 44.2785 36.1124 44.4278L41.0723 45.3568C41.1091 45.3629 41.148 45.367 41.1848 45.367C41.4774 45.367 41.7393 45.1501 41.7945 44.8412C41.8559 44.4954 41.6309 44.1619 41.2953 44.1005" fill="#1D3660"/>
<path d="M41.8886 29.1841C41.1664 33.3889 39.6645 33.1167 39.1714 33.0267C38.6905 32.9408 38.5698 32.7566 38.5309 32.6973C38.2281 32.239 38.4552 31.1095 38.6946 29.9145C38.7724 29.5237 38.8563 29.1145 38.9299 28.6868C38.932 28.6746 38.934 28.6623 38.9361 28.6459C39.0118 28.206 39.0732 27.7784 39.1304 27.3732C39.3023 26.166 39.464 25.0222 39.8998 24.6989C39.9509 24.6641 40.086 24.5639 40.4236 24.5905C40.4748 24.6109 40.5259 24.6273 40.5812 24.6375C40.6078 24.6396 40.6344 24.6416 40.6589 24.6416C40.6732 24.6416 40.6876 24.6355 40.7039 24.6334C41.2666 24.748 42.5741 25.2104 41.8907 29.1861M31.6477 37.0003C31.0543 37.0003 30.6778 36.7016 30.6778 36.5461C30.6778 36.3906 31.0564 36.0939 31.6477 36.0939C32.239 36.0939 32.6155 36.3906 32.6155 36.5461C32.6155 36.7016 32.239 37.0003 31.6477 37.0003ZM18.8654 27.3732C18.9227 27.7804 18.9821 28.2081 19.0578 28.6459C19.0598 28.6602 19.0619 28.6725 19.066 28.6868C19.1396 29.1124 19.2215 29.5237 19.2992 29.9145C19.5407 31.1095 19.7657 32.239 19.4649 32.6973C19.424 32.7566 19.3033 32.9408 18.8245 33.0267C18.3314 33.1167 16.8275 33.3909 16.1052 29.1841C15.432 25.2534 16.7027 24.7583 17.2756 24.6355C17.3206 24.6396 17.3656 24.6416 17.4147 24.6355C17.472 24.6273 17.5232 24.6109 17.5723 24.5884C17.6091 24.5864 17.648 24.5843 17.6807 24.5843C17.9406 24.5843 18.0511 24.6662 18.094 24.6969C18.5319 25.0202 18.6936 26.1639 18.8654 27.3712M41.3198 23.4896C41.4058 21.8814 41.3546 17.3573 38.488 14.0139C36.36 11.534 33.168 10.2756 28.9979 10.2756C24.8279 10.2756 21.638 11.534 19.51 14.0139C16.6433 17.3553 16.5901 21.8793 16.6761 23.4876C14.5071 24.2467 14.4867 27.0765 14.8857 29.405C15.565 33.3643 17.118 34.3383 18.4808 34.3383C18.6731 34.3383 18.8613 34.3178 19.0434 34.2851C19.2337 34.2503 19.4097 34.1951 19.5713 34.1316C20.9709 38.9728 25.6382 42.6416 28.9979 42.6416C31.0134 42.6416 33.5015 41.3116 35.4985 39.1713C35.7359 38.9176 35.7277 38.5145 35.4822 38.271C35.2346 38.0254 34.8417 38.0336 34.6044 38.2874C32.8611 40.1575 30.6594 41.3648 28.9979 41.3648C26.0065 41.3648 21.6114 37.7247 20.6067 33.1925C21.0425 32.3003 20.8011 31.0686 20.5187 29.6567C20.4389 29.2639 20.3571 28.8526 20.2834 28.4249C20.2814 28.4127 20.2793 28.4004 20.2773 28.3881C20.2057 27.9748 20.1484 27.5717 20.0952 27.1891C19.8742 25.6401 19.6859 24.304 18.8245 23.6636C18.5646 23.4712 18.2577 23.3648 17.916 23.33C17.8546 21.8241 17.9488 17.7543 20.4451 14.8529C22.3296 12.6614 25.2064 11.5524 28.9979 11.5524C32.7894 11.5524 35.6704 12.6614 37.5508 14.8529C40.0471 17.7563 40.1433 21.8241 40.0799 23.33C39.7402 23.3648 39.4333 23.4712 39.1755 23.6636C38.314 24.304 38.1237 25.6401 37.9028 27.1891C37.8475 27.5717 37.7923 27.9748 37.7227 28.3881C37.7186 28.3983 37.7166 28.4127 37.7145 28.4249C37.6409 28.8505 37.559 29.2639 37.4812 29.6547C37.1723 31.1852 36.9083 32.507 37.5038 33.4134C37.6715 33.6672 37.9007 33.8656 38.181 34.0171C37.8107 35.8402 36.892 35.9302 34.0703 35.9118H33.7041C33.3869 35.2672 32.5991 34.8191 31.6497 34.8191C30.4098 34.8191 29.4379 35.5803 29.4379 36.5481C29.4379 37.516 30.4098 38.2792 31.6497 38.2792C32.5971 38.2792 33.3849 37.8311 33.7041 37.1886H34.0642C34.2381 37.1886 34.4059 37.1906 34.5737 37.1906C36.9554 37.1906 38.8092 37.0167 39.3821 34.3322C39.4312 34.3342 39.4803 34.3383 39.5294 34.3383C41.772 34.3383 42.7153 31.7131 43.1122 29.405C43.8018 25.3946 42.6232 23.95 41.3198 23.4896Z" fill="#1D3660"/>
</svg>
