<svg width="60" height="56" viewBox="0 0 60 56" fill="none" xmlns="http://www.w3.org/2000/svg">
<path d="M30 56C46.5685 56 60 43.464 60 28C60 12.536 46.5685 0 30 0C13.4315 0 0 12.536 0 28C0 43.464 13.4315 56 30 56Z" fill="white"/>
<mask id="mask0_1269_89" style="mask-type:luminance" maskUnits="userSpaceOnUse" x="0" y="0" width="60" height="56">
<path d="M30 56C46.5685 56 60 43.464 60 28C60 12.536 46.5685 0 30 0C13.4315 0 0 12.536 0 28C0 43.464 13.4315 56 30 56Z" fill="white"/>
</mask>
<g mask="url(#mask0_1269_89)">
<path d="M38.706 25.7043C38.6192 25.6135 38.4858 25.5799 38.3821 25.6668C38.2784 25.7537 38.2953 25.8802 38.3821 25.973C38.4689 26.0659 38.6023 26.0955 38.706 26.0106C38.8118 25.9236 38.7928 25.7972 38.706 25.7043ZM61.5156 2.74604C60.6689 1.9321 59.4602 2.11188 58.6199 2.81914C57.7796 3.52837 57.4959 4.6268 58.3214 5.44074C59.1491 6.25468 60.3535 6.08676 61.2065 5.36765C62.0617 4.64656 62.3622 3.55998 61.5134 2.74604M86.3127 -44.1761C86.4101 -44.0734 86.5582 -44.0398 86.6725 -44.1346C86.7868 -44.2295 86.7678 -44.3697 86.6704 -44.4725C86.5752 -44.5732 86.427 -44.6088 86.3127 -44.512C86.1984 -44.4172 86.2153 -44.2769 86.3127 -44.1761ZM49.6366 17.1757C49.0778 16.5396 48.1761 16.4764 47.4776 16.9683C46.7812 17.4622 46.6838 18.2287 47.2448 18.8629C47.8036 19.497 48.6926 19.6037 49.3996 19.1079C50.1044 18.61 50.1997 17.8119 49.6387 17.1757M62.2204 23.9441C61.4309 23.1203 60.2646 23.0333 59.3713 23.7683C58.4781 24.5032 58.4971 25.6648 59.2634 26.4887C60.0317 27.3105 61.2361 27.4824 62.1103 26.7139C62.9845 25.9434 63.0099 24.7699 62.2204 23.9441ZM53.3663 14.562C52.7185 13.8449 51.6919 13.7738 50.8939 14.3329C50.0981 14.8939 49.988 15.7592 50.6272 16.4823C51.2665 17.2054 52.2571 17.3101 53.0487 16.7451C53.8404 16.1781 54.014 15.2792 53.3684 14.562M57.8473 5.87537C57.0705 5.10489 55.9613 5.22145 55.1654 5.86747C54.3717 6.51546 54.1685 7.45189 54.8776 8.24212C55.5888 9.03433 56.7297 9.01261 57.5594 8.33893C58.3913 7.66328 58.6241 6.64585 57.8473 5.87537ZM38.6234 19.659C38.5599 19.5919 38.4626 19.5662 38.3842 19.6314C38.308 19.6946 38.3186 19.7875 38.3842 19.8566C38.4477 19.9238 38.5451 19.9475 38.6234 19.8843C38.6996 19.821 38.689 19.7262 38.6234 19.659ZM61.7971 2.48724C62.6776 3.32686 63.9032 3.09967 64.7562 2.31536C65.6071 1.53106 65.8781 0.347679 64.97 -0.478119C64.0598 -1.30391 62.8343 -1.08265 62.0003 -0.290436C61.1684 0.501774 60.9144 1.64959 61.795 2.48922M54.0605 8.82492C53.4319 8.13939 52.4645 8.09396 51.7046 8.62737C50.9447 9.16077 50.7754 10.0162 51.402 10.7057C52.0264 11.3952 53.0064 11.4366 53.7642 10.9032C54.522 10.3718 54.6871 9.50848 54.0605 8.82492ZM65.1626 -0.673702C66.0855 0.161972 67.3153 -0.0968285 68.1472 -0.940403C68.979 -1.78398 69.2225 -3.01082 68.2678 -3.83069C67.3174 -4.65253 66.0897 -4.35027 65.2854 -3.51657C64.4789 -2.6809 64.2376 -1.50938 65.1626 -0.673702ZM42.4589 16.909C42.2049 16.6324 41.8027 16.5752 41.481 16.7846C41.1592 16.992 41.1211 17.3338 41.3751 17.6084C41.627 17.883 42.0292 17.9403 42.3531 17.7328C42.6727 17.5254 42.7108 17.1836 42.4589 16.909ZM58.169 0.246922C57.5086 -0.361557 56.5244 -0.300316 55.8809 0.284458C55.2374 0.867256 55.1062 1.68515 55.7581 2.2956C56.408 2.90606 57.3541 2.80531 58.0124 2.25214C58.6686 1.69898 58.8316 0.855404 58.169 0.246922ZM46.3896 14.325C45.9959 13.8923 45.3609 13.8034 44.8592 14.1333C44.3576 14.4672 44.3025 15.0046 44.6984 15.4352C45.0921 15.8679 45.7355 15.9588 46.2287 15.6269C46.7219 15.291 46.7854 14.7537 46.3896 14.325ZM50.223 11.5493C49.698 10.9724 48.8746 10.9309 48.2375 11.3833C47.6046 11.8357 47.4882 12.6022 48.0195 13.1771C48.5486 13.754 49.3551 13.8153 49.9943 13.353C50.6357 12.8927 50.7479 12.1242 50.2208 11.5493M52.3778 26.5282C51.8189 25.9197 50.9384 25.7261 50.2568 26.2812C49.5731 26.8324 49.662 27.6621 50.2208 28.2726C50.7818 28.8831 51.6665 29.0372 52.3164 28.4741C52.9662 27.913 52.9408 27.1386 52.3799 26.5301M59.2549 20.7891C58.4675 19.9514 57.261 19.7479 56.3381 20.5086C55.4173 21.2672 55.4745 22.4268 56.2577 23.2645C57.0408 24.1041 58.2452 24.2839 59.166 23.5272C60.0847 22.7726 60.0423 21.6267 59.2549 20.7891ZM55.8449 23.6082C55.157 22.8753 54.0838 22.7054 53.2689 23.3712C52.4561 24.0369 52.5302 25.088 53.2329 25.8031C53.9356 26.5183 54.9644 26.6467 55.756 25.9868C56.5477 25.329 56.5307 24.3392 55.8428 23.6082M48.3412 35.8194C48.1444 35.608 47.8395 35.5408 47.6046 35.7364C47.3696 35.93 47.3993 36.2204 47.5982 36.4298C47.793 36.6412 48.0978 36.7084 48.3327 36.5128C48.5677 36.3192 48.5381 36.0307 48.3412 35.8194ZM57.2102 11.7271C56.4418 10.8578 55.2459 10.8341 54.2976 11.4959C53.3514 12.1597 53.1863 13.2502 53.9462 14.1333C54.7082 15.0184 55.8089 15.0737 56.753 14.402C57.697 13.7303 57.9785 12.5963 57.2102 11.7271ZM51.9163 32.7849C51.5268 32.3759 50.9469 32.2831 50.4981 32.6604C50.0494 33.0397 50.1002 33.6067 50.4854 34.0156C50.8707 34.4226 51.4591 34.5273 51.9015 34.1421C52.3418 33.7568 52.3058 33.1918 51.9163 32.7849ZM55.411 29.7286C54.8585 29.1458 54.0394 29.049 53.4213 29.6022C52.8032 30.1553 52.8392 30.9614 53.3938 31.5422C53.9483 32.125 54.7739 32.2238 55.3856 31.6726C55.9994 31.1214 55.9634 30.3094 55.411 29.7286ZM58.8422 26.8403C58.1754 26.1291 57.1446 25.9809 56.3572 26.6289C55.5676 27.2789 55.6227 28.2548 56.3 28.9641C56.9816 29.6753 57.9934 29.8116 58.7638 29.1656C59.5343 28.5176 59.511 27.5515 58.8422 26.8403ZM45.5323 25.9987C45.1471 25.5878 44.5544 25.4515 44.0887 25.8268C43.6252 26.2022 43.6866 26.7692 44.0718 27.1801C44.4571 27.591 45.0497 27.7273 45.5154 27.352C45.979 26.9766 45.9176 26.4096 45.5323 25.9987ZM42.1266 28.9937C41.9488 28.804 41.6757 28.7408 41.4619 28.9166C41.2481 29.0925 41.2841 29.3552 41.4619 29.5429C41.6418 29.7326 41.9149 29.7938 42.1287 29.618C42.3425 29.4441 42.3065 29.1814 42.1266 28.9937ZM48.7899 29.4204C48.3878 28.9897 47.7655 28.8475 47.2786 29.2426C46.7939 29.6358 46.8553 30.2265 47.2575 30.6571C47.6596 31.0878 48.2819 31.2281 48.7688 30.8349C49.2514 30.4418 49.1921 29.8531 48.7899 29.4204ZM49.1286 23.1203C48.5825 22.5355 47.7379 22.3419 47.0775 22.8714C46.4171 23.4008 46.4976 24.1989 47.0437 24.7817C47.5898 25.3665 48.4322 25.5601 49.0948 25.0307C49.7552 24.5032 49.6726 23.7031 49.1286 23.1203ZM45.1259 32.3779C44.9312 32.1685 44.6243 32.0993 44.3893 32.291C44.1501 32.4846 44.1819 32.773 44.3809 32.9824C44.5777 33.1918 44.8825 33.261 45.1175 33.0713C45.3567 32.8777 45.3249 32.5893 45.1259 32.3779ZM52.581 20.3169C51.929 19.6235 50.9871 19.4437 50.1848 20.0423C49.3805 20.6429 49.499 21.6208 50.1404 22.3044C50.7818 22.9879 51.7787 23.221 52.5513 22.5888C53.3239 21.9547 53.2329 21.0104 52.581 20.3169ZM56.1984 17.5886C55.538 16.7826 54.414 16.6957 53.5356 17.3298C52.6572 17.966 52.4518 19.0012 53.199 19.8131C53.9483 20.6271 55.14 20.8523 55.9973 20.1529C56.8546 19.4536 56.8609 18.3947 56.2005 17.5867M42.1372 22.7153C41.8556 22.411 41.4154 22.3162 41.064 22.5849C40.7147 22.8536 40.7613 23.2724 41.0428 23.5766C41.3286 23.8809 41.7688 23.9816 42.1118 23.707C42.4525 23.4324 42.4144 23.0195 42.135 22.7153M60.1778 -17.8495C60.1058 -17.887 60.019 -17.883 59.9682 -17.8159C59.9217 -17.7487 59.9555 -17.6776 60.0275 -17.64C60.0995 -17.6025 60.1863 -17.6084 60.2371 -17.6756C60.2836 -17.7428 60.2498 -17.8119 60.1778 -17.8495ZM67.0804 -22.7766C67.6244 -22.4249 68.2784 -22.5197 68.6573 -23.0334C69.0404 -23.5431 68.9219 -24.1575 68.3737 -24.5072C67.8276 -24.8588 67.1693 -24.7462 66.7883 -24.2405C66.4094 -23.7328 66.5364 -23.1282 67.0782 -22.7766M59.9555 -14.1077C59.638 -14.3665 59.2274 -14.3665 58.967 -14.0504C58.7046 -13.7383 58.7829 -13.3471 59.0962 -13.0982C59.4094 -12.8473 59.8285 -12.8354 60.0868 -13.1574C60.3429 -13.4755 60.2752 -13.8489 59.9555 -14.1077ZM62.6247 -21.1783C62.4638 -21.2672 62.2564 -21.2652 62.1463 -21.1112C62.0341 -20.9551 62.1188 -20.7951 62.2818 -20.7081C62.4427 -20.6192 62.648 -20.6212 62.7602 -20.7753C62.8724 -20.9294 62.7856 -21.0914 62.6247 -21.1783ZM65.8717 -19.5228C66.24 -19.9791 66.113 -20.5284 65.6156 -20.8504C65.1182 -21.1744 64.5001 -21.1131 64.1297 -20.6528C63.7593 -20.1965 63.8863 -19.6453 64.3858 -19.3252C64.8832 -19.0052 65.5034 -19.0625 65.8717 -19.5228ZM63.0142 -16.1682C63.3296 -16.5594 63.2322 -17.0177 62.7898 -17.2923C62.3495 -17.5669 61.8309 -17.4524 61.5198 -17.0572C61.2086 -16.6641 61.2954 -16.2156 61.7336 -15.9568C62.1696 -15.6961 62.7009 -15.779 63.0142 -16.1682ZM84.8543 -43.0955C85.0893 -42.9137 85.4131 -42.8881 85.6269 -43.1152C85.8386 -43.3405 85.7602 -43.6249 85.5232 -43.8067C85.2882 -43.9865 84.9644 -44.0141 84.7506 -43.7869C84.5389 -43.5598 84.6172 -43.2772 84.8543 -43.0955ZM74.8402 -37.3149C75.0328 -37.5678 74.9185 -37.8444 74.6454 -37.9965C74.3703 -38.1506 74.0295 -38.1289 73.8369 -37.874C73.6442 -37.6211 73.7585 -37.3446 74.0316 -37.1944C74.3068 -37.0403 74.6476 -37.0601 74.8402 -37.3149ZM54.45 3.27945C53.8785 2.7579 53.0487 2.80926 52.4624 3.25377C51.8782 3.70025 51.8041 4.39368 52.3333 4.90931C52.8625 5.42493 53.6753 5.45655 54.2807 5.00414C54.886 4.54975 55.0194 3.79903 54.45 3.27945ZM70.6851 -19.906C71.4556 -19.4121 72.3573 -19.6137 72.8717 -20.3268C73.3881 -21.04 73.2569 -21.9073 72.4843 -22.3992C71.7138 -22.8931 70.8121 -22.6916 70.2956 -21.9784C69.7813 -21.2652 69.9104 -20.3999 70.6851 -19.906ZM67.292 -27.844C67.0126 -27.9921 66.6655 -27.9822 66.4834 -27.7116C66.3014 -27.4429 66.4496 -27.1644 66.7269 -27.0142C67.0063 -26.866 67.3534 -26.8759 67.5354 -27.1446C67.7196 -27.4133 67.5736 -27.6938 67.292 -27.844ZM64.9869 -24.5032C64.7478 -24.6336 64.443 -24.6277 64.2842 -24.3966C64.1254 -24.1634 64.2524 -23.9244 64.4937 -23.794C64.7351 -23.6656 65.0377 -23.6695 65.1965 -23.9027C65.3574 -24.1338 65.2282 -24.3748 64.9869 -24.5032ZM69.8871 -30.4853C70.084 -30.7718 69.9379 -31.076 69.6352 -31.238C69.3325 -31.4 68.9579 -31.3743 68.7589 -31.0879C68.562 -30.7975 68.706 -30.4972 69.0087 -30.3352C69.3135 -30.1732 69.6881 -30.1989 69.8871 -30.4853ZM72.3361 -33.8932C72.5478 -34.1777 72.4187 -34.4879 72.1118 -34.6538C71.8048 -34.8217 71.4238 -34.7901 71.2122 -34.5056C71.0005 -34.2212 71.1275 -33.911 71.4365 -33.747C71.7435 -33.5791 72.1245 -33.6087 72.3361 -33.8932ZM77.2934 -40.705C77.448 -40.9164 77.3379 -41.1416 77.1178 -41.2661C76.8955 -41.3925 76.614 -41.3827 76.4616 -41.1713C76.3092 -40.9619 76.4171 -40.7347 76.6394 -40.6102C76.8595 -40.4857 77.141 -40.4956 77.2934 -40.705ZM65.5352 -6.8158C66.3691 -6.16188 67.4614 -6.37327 68.1599 -7.12399C68.8584 -7.87472 68.9155 -8.93166 68.0223 -9.56187C67.129 -10.1941 66.077 -9.96687 65.3764 -9.21219C64.6758 -8.45752 64.6991 -7.4717 65.5331 -6.8158M68.5472 -10.1723C69.4405 -9.52236 70.5263 -9.81277 71.1952 -10.6228C71.862 -11.4308 71.8578 -12.4482 70.956 -13.1041C70.0543 -13.76 68.9198 -13.5328 68.2996 -12.6872C67.6773 -11.8397 67.654 -10.8223 68.5472 -10.1723ZM41.8683 10.8657C41.7625 10.7551 41.6016 10.7156 41.4767 10.8203C41.3519 10.925 41.3709 11.0791 41.4767 11.1897C41.5826 11.3003 41.7434 11.3379 41.8704 11.2351C41.9953 11.1304 41.9742 10.9763 41.8683 10.8657ZM59.0559 -0.567017C59.8222 0.0809746 60.8297 -0.0257072 61.5367 -0.693455C62.2437 -1.3612 62.3601 -2.29368 61.5896 -2.95155C60.8192 -3.60942 59.7777 -3.47311 59.0602 -2.81129C58.3426 -2.15144 58.2897 -1.21699 59.0538 -0.568996M57.788 -5.27485C57.3076 -5.65613 56.6387 -5.65218 56.1836 -5.23533C55.7306 -4.81848 55.7878 -4.17444 56.2661 -3.78525C56.7424 -3.39408 57.4092 -3.43952 57.8515 -3.86427C58.2897 -4.28705 58.2707 -4.89158 57.788 -5.27485ZM50.6272 6.09071C50.1933 5.67781 49.5541 5.63435 49.0863 5.99786C48.6143 6.36532 48.5275 6.88688 48.955 7.30767C49.3847 7.7265 50.0219 7.74032 50.5129 7.39064C51.0019 7.04294 51.059 6.50558 50.6272 6.09071ZM46.7706 8.88815C46.4933 8.60366 46.0742 8.57995 45.7504 8.81307C45.4265 9.04619 45.3778 9.4097 45.6509 9.69616C45.926 9.98064 46.3473 10.0044 46.669 9.77123C46.9907 9.53811 47.0437 9.1746 46.7706 8.88815ZM46.6732 4.02227C46.6267 3.97881 46.5547 3.96695 46.5039 4.01437C46.4531 4.05783 46.4616 4.12302 46.5081 4.16846C46.5568 4.2139 46.6267 4.22378 46.6796 4.17834C46.7304 4.1329 46.7198 4.06771 46.6732 4.02227ZM56.427 -8.03276C56.2344 -8.17698 55.9634 -8.21254 55.7899 -8.03079C55.6142 -7.84903 55.6819 -7.63765 55.8724 -7.50331C56.0629 -7.36897 56.336 -7.33143 56.518 -7.49936C56.7022 -7.66728 56.6196 -7.89052 56.4249 -8.03276M54.3632 -2.09217C53.9991 -2.40234 53.5187 -2.37666 53.1736 -2.06254C52.8307 -1.74842 52.8096 -1.31577 53.1609 -1.0056C53.5123 -0.695431 53.9928 -0.723091 54.3463 -1.02733C54.6998 -1.33157 54.7294 -1.78003 54.3632 -2.09217ZM53.3197 -5.25114C53.2689 -5.28867 53.1969 -5.29262 53.1461 -5.24916C53.0953 -5.2057 53.1101 -5.14643 53.1609 -5.10889C53.2117 -5.07136 53.2858 -5.06741 53.3366 -5.11087C53.3853 -5.15433 53.3705 -5.2136 53.3197 -5.25114ZM64.4154 -9.95896C65.0018 -10.5773 64.8621 -11.3873 64.172 -11.8871C63.482 -12.3889 62.593 -12.3494 62.0553 -11.7074C61.5177 -11.0673 61.6172 -10.3521 62.2776 -9.84438C62.9359 -9.33467 63.8291 -9.3406 64.4154 -9.95896ZM61.215 -6.94027C61.7293 -7.49146 61.6616 -8.1671 61.0732 -8.62939C60.4826 -9.09365 59.6825 -9.09168 59.1491 -8.55629C58.6157 -8.02091 58.7046 -7.27414 59.3015 -6.80592C59.9026 -6.33968 60.6985 -6.39105 61.215 -6.94027ZM50.731 0.942329C50.5108 0.75465 50.2166 0.760578 50.0049 0.948257C49.7954 1.13989 49.7784 1.36313 49.9901 1.55081C50.2018 1.73454 50.5024 1.71083 50.7119 1.53501C50.9236 1.3572 50.9553 1.13198 50.7331 0.944305M67.9673 -16.3974C68.7018 -15.9213 69.6246 -16.0497 70.1813 -16.7135C70.7401 -17.3773 70.556 -18.2307 69.8151 -18.7088C69.0722 -19.1889 68.1451 -19.0723 67.6032 -18.3908C67.0613 -17.7112 67.2328 -16.8735 67.9673 -16.3974ZM45.8329 19.8843C45.3969 19.4022 44.7089 19.2857 44.1607 19.6946C43.6104 20.1016 43.6273 20.7436 44.0761 21.2277C44.5227 21.7117 45.2064 21.8421 45.7398 21.4193C46.2732 20.9985 46.2711 20.3683 45.835 19.8843M139.518 10.9447C139.175 10.0676 138.329 9.47094 137.332 9.82655C136.337 10.1802 136.117 11.162 136.462 12.0392C136.809 12.9164 137.651 13.513 138.648 13.1594C139.643 12.8057 139.861 11.8219 139.518 10.9447ZM136.146 17.077C136.072 16.8853 135.89 16.753 135.674 16.832C135.456 16.909 135.41 17.1263 135.484 17.316C135.558 17.5076 135.74 17.636 135.958 17.559C136.174 17.4819 136.222 17.2666 136.146 17.077ZM140.354 15.5755C140.204 15.1942 139.838 14.9315 139.404 15.0875C138.97 15.2436 138.872 15.6703 139.025 16.0556C139.173 16.4369 139.539 16.6976 139.973 16.5435C140.407 16.3875 140.504 15.9607 140.356 15.5755M152.686 11.1443C152.405 10.433 151.717 9.95299 150.91 10.2414C150.104 10.5318 149.92 11.326 150.199 12.0372C150.481 12.7504 151.168 13.2305 151.975 12.942C152.781 12.6516 152.963 11.8574 152.686 11.1443ZM148.635 12.6042C148.383 11.9641 147.765 11.5315 147.039 11.7923C146.313 12.053 146.15 12.7682 146.399 13.4083C146.651 14.0484 147.269 14.481 147.995 14.2203C148.722 13.9595 148.885 13.2443 148.635 12.6042ZM144.514 14.0859C144.306 13.5624 143.798 13.2028 143.203 13.4162C142.606 13.6276 142.473 14.2163 142.68 14.7418C142.888 15.2653 143.394 15.6249 143.991 15.4115C144.588 15.2001 144.721 14.6114 144.514 14.0859ZM119.575 18.4954C119.505 18.3354 119.352 18.2228 119.172 18.2979C118.99 18.3729 118.959 18.5606 119.024 18.7206C119.09 18.8807 119.244 18.9874 119.426 18.9143C119.608 18.8431 119.644 18.6535 119.575 18.4954ZM135.488 12.3889C135.173 11.5947 134.406 11.0297 133.496 11.3576C132.584 11.6856 132.417 12.5864 132.73 13.3806C133.045 14.1748 133.799 14.7398 134.709 14.4139C135.619 14.0879 135.803 13.187 135.486 12.3889M156.708 9.69814C156.405 8.93161 155.666 8.414 154.796 8.72614C153.929 9.03829 153.732 9.89174 154.032 10.6583C154.335 11.4268 155.074 11.9424 155.944 11.6303C156.812 11.3201 157.008 10.4647 156.708 9.69814ZM122.714 12.2605C122.335 11.3557 121.439 10.7393 120.411 11.1364C119.38 11.5315 119.191 12.5687 119.577 13.4695C119.962 14.3724 120.851 14.9927 121.88 14.5956C122.908 14.2005 123.095 13.1653 122.714 12.2605ZM131.477 13.835C131.214 13.1613 130.573 12.6615 129.802 12.9519C129.032 13.2423 128.894 14.0168 129.157 14.6924C129.417 15.3681 130.056 15.8501 130.827 15.5696C131.6 15.291 131.739 14.5107 131.477 13.835ZM127.508 15.3305C127.3 14.7912 126.797 14.4079 126.185 14.6411C125.573 14.8742 125.463 15.4985 125.671 16.0358C125.878 16.5752 126.382 16.9584 126.994 16.7253C127.605 16.4922 127.715 15.8699 127.508 15.3305ZM123.509 16.8695C123.366 16.5001 123.016 16.2354 122.599 16.3954C122.178 16.5554 122.102 16.9782 122.244 17.3476C122.386 17.719 122.737 17.9778 123.154 17.8178C123.573 17.6578 123.653 17.239 123.509 16.8695ZM126.606 10.759C126.215 9.76926 125.241 9.09163 124.123 9.5223C123.004 9.95101 122.807 11.087 123.211 12.0629C123.615 13.0408 124.549 13.7402 125.671 13.3154C126.79 12.8887 127.002 11.7508 126.608 10.761M189.269 2.90014C189.091 2.45168 188.659 2.14941 188.149 2.33117C187.641 2.51292 187.527 3.01274 187.703 3.4612C187.88 3.90966 188.312 4.2139 188.822 4.03215C189.33 3.85039 189.447 3.3486 189.269 2.90014ZM192.69 2.46946C193.111 2.32129 193.206 1.90444 193.06 1.53303C192.914 1.16162 192.554 0.912697 192.135 1.06284C191.716 1.21299 191.621 1.62786 191.767 1.99927C191.913 2.37068 192.271 2.6196 192.69 2.46946ZM178.878 11.573C178.772 11.3023 178.514 11.1225 178.209 11.2312C177.904 11.3398 177.835 11.6401 177.94 11.9108C178.048 12.1795 178.307 12.3612 178.611 12.2526C178.916 12.1419 178.986 11.8416 178.878 11.573ZM186.848 8.70244C186.714 8.36659 186.39 8.1394 186.011 8.27571C185.633 8.41203 185.546 8.78541 185.677 9.12126C185.81 9.45711 186.134 9.6843 186.513 9.54799C186.892 9.41167 186.979 9.03631 186.848 8.70244ZM192.33 7.73637C192.194 7.39657 191.864 7.17531 191.481 7.30767C191.098 7.44004 191.001 7.8075 191.132 8.14532C191.265 8.48512 191.597 8.70639 191.978 8.57402C192.364 8.44364 192.461 8.0742 192.33 7.73637ZM185.476 4.26527C185.268 3.73779 184.76 3.38218 184.166 3.59554C183.569 3.81088 183.433 4.39961 183.641 4.92512C183.848 5.45062 184.356 5.80623 184.953 5.59286C185.55 5.3795 185.685 4.79078 185.476 4.26527ZM160.664 8.27373C160.357 7.48943 159.601 6.95997 158.71 7.28001C157.823 7.59808 157.62 8.47327 157.931 9.25758C158.238 10.0419 158.994 10.5713 159.885 10.2513C160.772 9.93323 160.975 9.05606 160.664 8.27373ZM51.6073 39.5038C51.5755 39.4702 51.5268 39.4604 51.4887 39.492C51.4506 39.5236 51.4549 39.569 51.4887 39.6046C51.5205 39.6382 51.5692 39.648 51.6073 39.6164C51.6454 39.5848 51.639 39.5394 51.6073 39.5038ZM161.763 12.8057C161.589 12.3691 161.17 12.0728 160.672 12.2526C160.177 12.4304 160.065 12.9183 160.238 13.3569C160.41 13.7935 160.831 14.0879 161.326 13.9101C161.824 13.7323 161.934 13.2423 161.763 12.8057ZM165.824 11.3438C165.621 10.8282 165.126 10.4824 164.544 10.6919C163.96 10.9013 163.826 11.4742 164.03 11.9898C164.233 12.5035 164.728 12.8512 165.312 12.6418C165.896 12.4323 166.028 11.8574 165.824 11.3438ZM157.637 14.2914C157.508 13.9674 157.197 13.7501 156.831 13.8824C156.464 14.0148 156.382 14.3763 156.509 14.6983C156.638 15.0223 156.947 15.2397 157.313 15.1073C157.679 14.9749 157.762 14.6134 157.637 14.2914ZM173.792 8.47525C173.565 7.89442 173.004 7.50325 172.346 7.73835C171.688 7.97542 171.537 8.62144 171.766 9.20226C171.995 9.78308 172.556 10.1762 173.214 9.93916C173.872 9.70406 174.02 9.05607 173.792 8.47525ZM177.718 7.06073C177.492 6.4799 176.929 6.08676 176.273 6.32383C175.614 6.5609 175.464 7.20692 175.693 7.78774C175.921 8.36856 176.482 8.75973 177.14 8.52464C177.799 8.28757 177.947 7.64155 177.718 7.06073ZM169.825 9.90359C169.605 9.34845 169.067 8.97309 168.439 9.19831C167.808 9.42551 167.664 10.0458 167.884 10.601C168.102 11.1561 168.64 11.5354 169.27 11.3082C169.901 11.081 170.043 10.4607 169.825 9.90359ZM181.624 5.65213C181.399 5.08316 180.851 4.69989 180.207 4.93301C179.562 5.16416 179.416 5.79634 179.638 6.36531C179.862 6.93428 180.411 7.31755 181.056 7.08641C181.702 6.85527 181.846 6.21912 181.624 5.65213ZM182.898 10.1229C182.773 9.79889 182.46 9.58157 182.093 9.71394C181.727 9.8463 181.645 10.2078 181.772 10.5299C181.897 10.8539 182.21 11.0712 182.576 10.9388C182.942 10.8084 183.025 10.4449 182.898 10.1229ZM67.5778 32.3561C68.1937 31.722 68.2361 30.7954 67.6349 30.1395C67.0317 29.4817 66.1554 29.5172 65.5415 30.1494C64.9277 30.7816 64.8726 31.7082 65.4822 32.3542C66.0961 33.0022 66.9597 32.9923 67.5778 32.3561ZM76.7325 26.5874C77.4204 27.4448 78.4111 27.4211 79.1371 26.6111C79.8652 25.8011 80.0049 24.5921 79.3128 23.7208C78.6206 22.8476 77.6215 22.9286 76.887 23.7288C76.1504 24.5308 76.0446 25.732 76.7325 26.5874ZM87.189 20.8938C86.5815 20.0384 85.6227 19.9574 84.8691 20.7199C84.1177 21.4805 84.0923 22.6659 84.704 23.5075C85.3157 24.3491 86.2344 24.4222 86.9541 23.6576C87.6737 22.8911 87.7944 21.7512 87.1869 20.8918M64.4281 35.203C64.9234 34.717 64.9065 33.988 64.4345 33.4961C63.9625 33.0061 63.3105 33.0002 62.8131 33.4684C62.3135 33.9346 62.3326 34.6439 62.7962 35.1338C63.2597 35.6277 63.9349 35.689 64.4281 35.203ZM76.216 29.4896C76.8595 28.7843 76.9124 27.7886 76.3155 27.0418C75.7207 26.297 74.8 26.3069 74.1459 26.9964C73.4918 27.6839 73.4559 28.6914 74.0591 29.4184C74.6645 30.1435 75.5747 30.1949 76.216 29.4896ZM58.1288 40.2348C58.0632 40.1676 57.9637 40.1439 57.8896 40.2071C57.8113 40.2703 57.824 40.3652 57.8896 40.4323C57.9531 40.5015 58.0505 40.5232 58.1288 40.46C58.205 40.3968 58.1923 40.302 58.1288 40.2348ZM73.1193 32.2317C73.6527 31.6904 73.7035 30.8903 73.1934 30.3173C72.6854 29.7424 71.9297 29.7642 71.4027 30.3134C70.8777 30.8626 70.846 31.6509 71.3624 32.2159C71.8789 32.7809 72.5859 32.773 73.1193 32.2317ZM61.0499 36.7222C60.7705 36.4219 60.3535 36.3626 60.0381 36.6471C59.7248 36.9296 59.7481 37.3406 60.0275 37.6389C60.3069 37.9392 60.7218 37.9984 61.0372 37.7139C61.3547 37.4334 61.3272 37.0205 61.0499 36.7222ZM58.3299 33.1246C57.8642 32.6268 57.1678 32.5379 56.645 33.0101C56.1243 33.4822 56.1645 34.1717 56.6323 34.6676C57.098 35.1654 57.7923 35.2563 58.3151 34.7841C58.8358 34.312 58.7956 33.6225 58.3299 33.1246ZM54.8585 36.2145C54.5685 35.9043 54.1283 35.8174 53.779 36.0979C53.4298 36.3745 53.4679 36.8032 53.7536 37.1134C54.0394 37.4255 54.4902 37.5263 54.8352 37.2418C55.1781 36.9573 55.1485 36.5266 54.8585 36.2164M61.7463 30.1178C61.1282 29.4698 60.2053 29.3315 59.4962 29.9361C58.785 30.5406 58.8485 31.4494 59.4645 32.1013C60.0804 32.7513 61.0139 32.8698 61.7039 32.2574C62.394 31.6449 62.3643 30.7678 61.7463 30.1198M65.0441 26.9371C64.2588 26.1686 63.1793 26.2634 62.4194 27.0142C61.6595 27.7669 61.632 28.8001 62.3855 29.5706C63.1412 30.343 64.2313 30.3134 64.9806 29.5469C65.7299 28.7803 65.8273 27.7036 65.0441 26.9351M94.8875 18.8708C94.4133 18.1043 93.5709 17.798 92.8618 18.4599C92.1548 19.1237 92.1442 20.2023 92.612 20.9827C93.0819 21.765 93.8905 21.9744 94.6165 21.3462C95.3404 20.716 95.3595 19.6393 94.8853 18.8708M70.7063 29.5271C71.4344 28.7705 71.5254 27.6582 70.8079 26.8699C70.0903 26.0817 69.0785 26.133 68.3461 26.8838C67.6138 27.6365 67.5354 28.7171 68.2424 29.5093C68.9494 30.3015 69.976 30.2838 70.7063 29.5251M91.9198 21.7196C91.5198 21.0597 90.8403 20.9392 90.2709 21.4963C89.7015 22.0535 89.6338 22.9365 90.036 23.5964C90.4339 24.2543 91.1218 24.3847 91.6849 23.8236C92.2522 23.2586 92.322 22.3794 91.9198 21.7196ZM96.3691 23.0669C96.185 22.7607 95.859 22.6619 95.5712 22.9089C95.2833 23.1558 95.2769 23.5608 95.4547 23.869C95.6347 24.1772 95.9585 24.276 96.2485 24.029C96.5385 23.7841 96.5554 23.3731 96.3691 23.0669ZM106.658 15.3542C106.197 14.4968 105.244 14.1215 104.355 14.6806C103.462 15.2416 103.265 16.2452 103.759 17.0987C104.252 17.9541 105.173 18.2465 106.076 17.7368C106.98 17.2271 107.122 16.2116 106.661 15.3542M69.9739 33.6739C69.6352 33.2945 69.1399 33.2867 68.7843 33.6521C68.4287 34.0176 68.4096 34.5471 68.7504 34.9264C69.0912 35.3057 69.5823 35.3057 69.9421 34.9422C70.2999 34.5807 70.3126 34.0532 69.9739 33.6739ZM110.435 13.2522C109.973 12.2605 108.913 11.814 107.88 12.377C106.843 12.9401 106.697 14.1057 107.183 15.0559C107.668 16.0082 108.616 16.5356 109.654 15.9686C110.687 15.3997 110.896 14.242 110.437 13.2522M118.815 13.8133C118.491 13.0428 117.748 12.4383 116.876 12.8591C116.002 13.2779 115.908 14.2617 116.239 15.0401C116.567 15.8205 117.293 16.2867 118.156 15.9074C119.018 15.5301 119.139 14.5818 118.815 13.8133ZM119.282 6.27049C119.742 5.85167 119.939 5.27677 119.926 4.66631C120.351 5.10884 120.906 5.38345 121.537 5.37159C121.037 5.82203 120.851 6.45817 120.923 7.12395C120.51 6.61622 119.939 6.28432 119.282 6.27247M115.601 7.91418C116.044 7.44399 116.232 6.83748 116.213 6.20727C116.62 6.61819 117.138 6.87107 117.733 6.86712C117.244 7.34521 117.094 8.01889 117.204 8.70441C116.814 8.17101 116.253 7.83713 115.601 7.91418ZM112.029 9.99447C112.564 9.5144 112.791 8.88222 112.759 8.21052C113.199 8.5602 113.735 8.72022 114.317 8.61551C113.722 9.30499 113.68 10.2928 114.005 11.1561C113.639 10.3086 112.898 9.80284 112.029 9.99447ZM117.659 1.87876C118.036 1.46388 118.192 0.940357 118.129 0.393116C118.565 0.788235 119.094 1.05692 119.678 1.0747C119.251 1.48167 119.069 2.03088 119.083 2.61565C118.7 2.20671 118.216 1.92617 117.661 1.87678M114.02 3.53825C114.327 3.11943 114.467 2.62751 114.45 2.10793C114.82 2.42599 115.263 2.62948 115.756 2.66109C115.426 3.06213 115.292 3.56591 115.312 4.09142C114.952 3.75359 114.511 3.55011 114.02 3.53825ZM110.399 5.60669C110.68 5.20762 110.814 4.75719 110.773 4.29293C111.182 4.50234 111.622 4.611 112.075 4.59322C111.787 5.02982 111.662 5.5415 111.683 6.06108C111.311 5.77462 110.871 5.61459 110.399 5.60669ZM106.455 7.79169C106.707 7.40052 106.813 6.96984 106.766 6.52731C107.219 6.73672 107.719 6.83353 108.225 6.79797C107.971 7.21877 107.886 7.69489 107.948 8.18879C107.509 7.89837 106.989 7.76008 106.455 7.79169ZM102.694 10.2394C102.954 9.82062 103.06 9.34846 103.001 8.87629C103.441 9.06002 103.919 9.12126 104.404 9.05409C104.15 9.51638 104.074 10.034 104.186 10.5516C103.742 10.2671 103.221 10.1644 102.694 10.2394ZM99.1907 12.7267C99.4828 12.2624 99.5675 11.729 99.4786 11.1976C99.9125 11.4208 100.395 11.5097 100.89 11.4347C100.588 11.974 100.558 12.6003 100.776 13.2107C100.334 12.7939 99.7707 12.5924 99.1907 12.7267ZM111.554 -0.231171C111.77 -0.604553 111.787 -1.00955 111.616 -1.4185C112.194 -1.20316 112.818 -1.11426 113.432 -1.17945C113.178 -0.819893 113.163 -0.399094 113.267 0.049366C112.767 -0.21339 112.162 -0.296364 111.554 -0.231171ZM107.467 1.98742C107.651 1.63379 107.689 1.25447 107.571 0.879112C108.132 1.04111 108.726 1.08457 109.306 1.00753C109.082 1.37894 109.002 1.79381 109.063 2.21461C108.561 2.01112 108.013 1.93605 107.467 1.98742ZM88.2008 17.2528C88.4696 16.7292 88.5628 16.1346 88.4802 15.5518C88.8591 15.7296 89.2782 15.7553 89.6867 15.613C89.4793 16.2314 89.5153 16.913 89.7947 17.5096C89.3142 17.1105 88.7427 17.0137 88.2008 17.2528ZM92.3686 12.8531C92.1992 13.3253 92.1844 13.837 92.3093 14.3348C91.9431 14.1057 91.5325 14.0365 91.1218 14.1452C91.2933 13.6987 91.3441 13.2167 91.2764 12.7465C91.6235 12.8907 91.9918 12.9243 92.3665 12.8531M95.1944 10.3284C95.061 10.7314 95.0504 11.162 95.1372 11.5888C94.8134 11.409 94.4599 11.3359 94.0958 11.3833C94.2376 11.004 94.2821 10.599 94.2207 10.196C94.5319 10.3264 94.8621 10.3698 95.1923 10.3284M98.0731 8.02086C97.9376 8.35671 97.8995 8.71824 97.9609 9.08175C97.6307 8.9158 97.2751 8.84863 96.9153 8.88222C97.0317 8.52859 97.0592 8.15125 96.9936 7.77589C97.328 7.94381 97.6942 8.02679 98.0731 8.01889M107.744 -3.16689C108.149 -3.69042 108.18 -4.32063 107.812 -4.95282C108.534 -4.43127 109.474 -4.35225 110.35 -4.58141C109.827 -4.12505 109.656 -3.54028 109.857 -2.96538C109.194 -3.21826 108.453 -3.28938 107.744 -3.16689ZM80.2187 19.9554C80.4727 19.424 80.568 18.8372 80.4727 18.2663C80.8601 18.4026 81.2707 18.3769 81.6708 18.2208C81.4866 18.8036 81.512 19.4338 81.7576 19.9969C81.2707 19.7005 80.7183 19.6946 80.2187 19.9554ZM71.6291 23.3613C72.0588 22.7666 72.2176 22.0535 72.0271 21.3897C72.5372 21.6248 73.096 21.6089 73.6061 21.3798C73.3352 22.0218 73.3162 22.7311 73.6654 23.3534C73.0473 22.8911 72.2874 22.9346 71.6291 23.3613ZM76.3155 18.4045C76.1589 18.8984 76.1335 19.4141 76.2838 19.902C75.8477 19.7203 75.3842 19.744 74.946 19.9435C75.1513 19.4635 75.2106 18.9459 75.1217 18.4421C75.5112 18.5764 75.9176 18.5567 76.3155 18.4045ZM78.2079 15.1488C78.5275 15.2456 78.8556 15.2476 79.1815 15.1448C79.0503 15.5775 79.0249 16.0299 79.1011 16.4704C78.7603 16.3598 78.4026 16.3697 78.0512 16.4942C78.2057 16.0576 78.265 15.5992 78.2079 15.1488ZM81.1437 11.9918C81.4506 12.0945 81.7681 12.1123 82.0835 12.0313C81.9819 12.4106 81.9629 12.8057 82.0137 13.191C81.6941 13.0843 81.3617 13.0744 81.0315 13.1613C81.1501 12.782 81.1903 12.3849 81.1437 11.9898M83.9991 8.9158C84.287 9.00668 84.5897 9.0126 84.8924 8.93555C84.8056 9.30499 84.795 9.68628 84.8501 10.0597C84.5495 9.95891 84.232 9.94508 83.9166 10.0261C84.014 9.66257 84.0394 9.28918 83.9991 8.9158ZM69.3389 20.0621C69.614 19.5583 69.6987 19.0051 69.5548 18.4757C70.0162 18.6515 70.5031 18.6337 70.9666 18.448C70.7592 18.9597 70.6978 19.503 70.8481 20.0186C70.3655 19.8092 69.8384 19.8408 69.3389 20.0601M72.823 15.3345C73.1786 15.455 73.5511 15.455 73.9131 15.3345C73.7585 15.7829 73.7056 16.2551 73.7776 16.7095C73.4008 16.589 73.0008 16.6107 72.6113 16.7569C72.806 16.3005 72.8886 15.8126 72.823 15.3345ZM75.9345 12.0293C76.2457 12.1222 76.5632 12.1163 76.8786 12.0076C76.7495 12.4146 76.7113 12.8354 76.7664 13.2502C76.4425 13.1554 76.1081 13.1594 75.78 13.272C75.9197 12.867 75.9726 12.4462 75.9345 12.0293ZM78.8831 8.74195C79.1731 8.84271 79.4758 8.85456 79.7784 8.77554C79.6578 9.15682 79.6133 9.55194 79.6493 9.94113C79.3466 9.8384 79.0312 9.83049 78.7201 9.92137C78.8513 9.53811 78.9064 9.13707 78.881 8.73997M62.7475 20.5263C63.2893 19.8586 63.5137 19.0644 63.1518 18.3492C63.7698 18.7266 64.4895 18.7305 65.1457 18.4539C64.8113 19.0525 64.7393 19.7223 65.0441 20.3327C64.3117 19.9455 63.4375 20.0324 62.7475 20.5263ZM71.5868 12.1973C71.4281 12.6477 71.3709 13.1238 71.4429 13.5861C71.0322 13.4616 70.592 13.4972 70.1644 13.6592C70.3655 13.1929 70.4438 12.701 70.357 12.221C70.7571 12.3513 71.1783 12.3375 71.5868 12.1973ZM73.6252 8.92173C73.9872 9.02643 74.3618 9.02051 74.7259 8.9C74.5841 9.31289 74.5311 9.74554 74.5756 10.1683C74.2285 10.0636 73.8623 10.0715 73.5067 10.194C73.6485 9.77913 73.6929 9.34451 73.6252 8.91975M76.7791 5.54348C77.0987 5.64028 77.4289 5.6383 77.7549 5.52964C77.6046 5.94254 77.539 6.37519 77.5644 6.79797C77.2617 6.70314 76.9421 6.70512 76.6267 6.80785C76.7706 6.39495 76.8235 5.9623 76.7791 5.54348ZM79.8229 2.16324C80.1383 2.28375 80.4685 2.28573 80.7945 2.16917C80.6442 2.59589 80.5786 3.04041 80.6082 3.47898C80.3034 3.37428 79.9817 3.37033 79.662 3.47306C79.8102 3.05028 79.8673 2.6038 79.8229 2.16324ZM63.9074 14.1946C64.2673 13.6058 64.39 12.9401 64.1635 12.3099C64.7075 12.5943 65.3193 12.5667 65.8865 12.3197C65.605 12.865 65.478 13.4616 65.6198 14.0286C65.0716 13.833 64.4641 13.92 63.9074 14.1926M69.1717 9.05212C68.9558 9.54206 68.869 10.0695 68.9642 10.5773C68.4964 10.439 67.9969 10.5042 67.5249 10.7195C67.7746 10.2059 67.8678 9.64677 67.7154 9.12324C68.1874 9.30697 68.6954 9.25758 69.1695 9.05212M71.0576 5.83191C71.4873 5.98008 71.9445 5.93464 72.3806 5.76078C72.1858 6.2132 72.0969 6.69129 72.1583 7.16148C71.7329 7.0469 71.2905 7.10419 70.8629 7.29384C71.0725 6.8197 71.1635 6.31395 71.0555 5.83191M74.4105 2.39241C74.8106 2.53465 75.2339 2.50107 75.6361 2.33314C75.4477 2.79345 75.3567 3.2755 75.4075 3.74766C75.0201 3.64296 74.6116 3.69037 74.2158 3.86027C74.4126 3.38613 74.5036 2.87643 74.4105 2.39241ZM77.539 -1.16562C77.9687 -0.989792 78.4259 -1.03918 78.8577 -1.24465C78.646 -0.740871 78.5465 -0.197586 78.5994 0.329899C78.21 0.191605 77.7887 0.231117 77.3781 0.404972C77.5834 -0.106705 77.6639 -0.649994 77.5369 -1.16562M64.6716 8.03469C65.1118 7.36299 65.2177 6.56288 64.8218 5.86352C65.4463 6.28234 66.1977 6.26456 66.8687 5.93859C66.5194 6.52929 66.3734 7.21877 66.5618 7.84898C65.9543 7.60006 65.2812 7.70279 64.6716 8.03271M70.2067 2.68875C69.8998 3.24191 69.7368 3.8662 69.8659 4.45098C69.3325 4.26725 68.7504 4.3759 68.217 4.66039C68.5663 4.04005 68.6531 3.33081 68.3398 2.69665C68.9282 3.0325 69.6013 2.99101 70.2067 2.68875ZM71.6588 -0.663822C72.2451 -0.343777 72.8907 -0.422802 73.4664 -0.760628C73.1976 -0.21339 73.0749 0.389168 73.2019 0.958138C72.6875 0.800087 72.1223 0.942329 71.6143 1.23669C71.9086 0.62426 71.9657 -0.0553436 71.6588 -0.663822ZM74.8338 -4.28903C75.4604 -3.9354 76.1462 -4.07764 76.7367 -4.48264C76.4129 -3.8623 76.269 -3.14911 76.4404 -2.49519C75.9028 -2.71053 75.3207 -2.58409 74.8 -2.25812C75.1154 -2.92192 75.1937 -3.65487 74.8338 -4.28903ZM77.7104 -8.14537C78.4576 -7.49145 79.3403 -7.60209 80.0727 -8.13945C79.6303 -7.47169 79.4271 -6.65578 79.6451 -5.91098C79.0842 -6.2172 78.4195 -6.11052 77.848 -5.74306C78.2629 -6.52539 78.356 -7.43613 77.7104 -8.14537ZM81.6602 -2.98514C81.2559 -3.18863 80.7987 -3.16096 80.3627 -2.95945C80.6018 -3.53435 80.6823 -4.15666 80.5193 -4.74144C80.985 -4.46288 81.5078 -4.46486 82.0073 -4.696C81.7385 -4.15864 81.6094 -3.56398 81.6581 -2.98711M85.3517 -8.18686C84.9369 -7.54282 84.74 -6.77036 84.8268 -6.03939C84.4034 -6.34561 83.8954 -6.35746 83.4001 -6.13027C83.7346 -6.81185 83.8446 -7.60011 83.5673 -8.29749C84.0986 -7.8273 84.7442 -7.8115 85.3538 -8.18884M90.0529 -7.21289C89.6232 -6.63405 89.4518 -5.88332 89.4814 -5.16816C89.1406 -5.51389 88.7109 -5.68182 88.2474 -5.57118C88.5797 -6.22115 88.6813 -6.9857 88.5268 -7.71272C88.9099 -7.17733 89.4475 -6.96199 90.0529 -7.21289ZM85.4216 -2.78758C85.6354 -3.30518 85.7264 -3.87218 85.6544 -4.42732C86.0015 -4.17049 86.4037 -4.11517 86.8186 -4.24754C86.5731 -3.74376 86.482 -3.1827 86.5159 -2.62953C86.1857 -2.8429 85.8089 -2.89426 85.4216 -2.78758ZM83.5504 0.304214C83.2266 0.15012 82.8815 0.134315 82.5302 0.246922C82.6995 -0.215363 82.7651 -0.705311 82.7143 -1.18735C83.0424 -1.01152 83.4001 -0.97794 83.7642 -1.08265C83.5927 -0.638138 83.5187 -0.164001 83.5504 0.304214ZM94.227 -5.18199C93.8206 -4.69995 93.6788 -4.05788 93.7106 -3.41977C93.4227 -3.73783 93.0692 -3.9433 92.6692 -3.91761C92.9528 -4.49054 93.0226 -5.17211 92.9613 -5.81418C93.2491 -5.33609 93.6767 -5.06345 94.227 -5.18199ZM90.2625 -3.16689C90.5419 -2.89624 90.8742 -2.75202 91.2446 -2.78955C91.0414 -2.36876 90.9737 -1.89856 91.0054 -1.4264C90.7154 -1.63186 90.3874 -1.73064 90.0402 -1.70298C90.2307 -2.15737 90.2963 -2.66312 90.2604 -3.16689M88.404 -0.296364C88.2516 0.0948029 88.1818 0.515602 88.2071 0.934425C87.9383 0.800087 87.6483 0.764526 87.352 0.817867C87.4938 0.399044 87.5531 -0.0454636 87.5277 -0.493923C87.7902 -0.320072 88.0886 -0.254875 88.404 -0.296364ZM85.4745 3.74766C85.1972 3.62122 84.9009 3.58566 84.6024 3.64296C84.7358 3.26364 84.795 2.86457 84.7781 2.46551C85.0469 2.59787 85.3348 2.63739 85.629 2.58207C85.5062 2.95941 85.4512 3.35452 85.4745 3.74569M68.2297 17.0513C67.7111 16.8695 67.1439 16.915 66.6168 17.1402C66.911 16.6245 67.0232 16.0437 66.8962 15.4886C67.3725 15.6763 67.8826 15.6387 68.3694 15.455C68.1535 15.9726 68.0816 16.5297 68.2318 17.0513M82.581 6.76834C82.31 6.67153 82.0222 6.65573 81.7322 6.72092C81.8676 6.33569 81.9269 5.92871 81.91 5.52767C82.1788 5.62447 82.4603 5.64027 82.7439 5.56915C82.6148 5.96032 82.5619 6.36729 82.5831 6.76834M95.5839 -0.873234C95.4272 -0.547264 95.4103 -0.181782 95.4844 0.187656C95.1859 0.00985336 94.8684 -0.106705 94.5446 -0.106705C94.6631 -0.474167 94.6779 -0.871258 94.6165 -1.26835C94.8959 -1.02733 95.2282 -0.88509 95.5839 -0.873234ZM87.6928 6.05515C87.5891 6.40285 87.5531 6.76834 87.5848 7.13184C87.3097 7.00936 87.0154 6.97182 86.7191 7.02121C86.8165 6.67944 86.8525 6.32185 86.8228 5.96625C87.1001 6.08281 87.3943 6.10849 87.6928 6.05713M92.1633 0.873184C92.413 1.03716 92.6924 1.11816 92.9824 1.1142C92.8639 1.45203 92.8279 1.81751 92.8766 2.18102C92.6141 2.03483 92.3368 1.95778 92.049 1.96766C92.1611 1.61996 92.1992 1.24855 92.1633 0.873184ZM90.3556 3.39798C90.2477 3.74371 90.2117 4.11117 90.2561 4.48258C89.9979 4.35219 89.7206 4.30478 89.4412 4.33639C89.5428 3.97881 89.5767 3.60542 89.5386 3.23204C89.7947 3.3644 90.072 3.41972 90.3577 3.39798M98.3461 -2.673C98.0562 -2.28775 98.0054 -1.87881 98.1366 -1.47184C97.7746 -1.67137 97.3979 -1.80374 97.0126 -1.78991C97.1841 -2.21861 97.1544 -2.71843 97.0613 -3.2064C97.3809 -2.80141 97.817 -2.59002 98.344 -2.673M95.387 4.60902C95.2833 4.91919 95.2706 5.25109 95.3404 5.58694C95.0462 5.45457 94.7329 5.39531 94.4175 5.41901C94.5065 5.08514 94.5255 4.73743 94.462 4.39368C94.7541 4.53395 95.0674 4.60704 95.387 4.60902ZM98.3165 2.61367C98.2022 2.91002 98.1916 3.22018 98.2678 3.53233C97.9355 3.39799 97.5905 3.33081 97.2455 3.34069C97.3322 3.02855 97.3322 2.6927 97.2518 2.36278C97.5863 2.52675 97.9482 2.6117 98.3165 2.6117M101.538 0.454361C101.392 0.782307 101.379 1.12211 101.502 1.45993C101.066 1.33745 100.615 1.30584 100.179 1.36313C100.262 1.01345 100.194 0.647968 100.023 0.302238C100.503 0.468189 101.028 0.525482 101.54 0.456333M103.604 -0.89299C103.809 -1.29601 103.831 -1.72076 103.642 -2.14354C104.305 -1.93018 105.031 -1.92425 105.721 -2.07242C105.422 -1.67928 105.342 -1.24267 105.486 -0.804089C104.874 -0.973988 104.222 -1.00955 103.604 -0.894966M84.5368 15.2278C84.395 15.6881 84.3653 16.1741 84.4585 16.6423C84.0965 16.4586 83.7028 16.427 83.3091 16.5376C83.4848 16.1109 83.5589 15.6585 83.5144 15.21C83.8467 15.3266 84.1939 15.3305 84.5368 15.2298M87.1932 12.2743C87.0853 12.6793 87.0705 13.1021 87.1361 13.5209C86.8376 13.3885 86.518 13.3609 86.2005 13.4379C86.3254 13.0389 86.3741 12.622 86.3296 12.2091C86.6069 12.3217 86.899 12.3395 87.1932 12.2763M91.7188 6.77031C92.0066 6.9086 92.3199 6.96589 92.6353 6.94021C92.5379 7.27804 92.5168 7.62969 92.5739 7.98332C92.2712 7.847 91.9516 7.79367 91.632 7.82923C91.7336 7.48547 91.7632 7.1279 91.7166 6.77031M89.8285 9.4986C89.7227 9.85618 89.6931 10.2256 89.7439 10.595C89.4602 10.4785 89.166 10.4489 88.8697 10.5002C88.9776 10.1387 89.0178 9.76135 88.984 9.38599C89.2507 9.50057 89.5386 9.53613 89.8285 9.49662M101.456 5.75091C101.297 6.09466 101.246 6.46015 101.31 6.83353C100.933 6.68339 100.533 6.62017 100.131 6.65178C100.268 6.30605 100.296 5.93661 100.215 5.57311C100.611 5.71733 101.034 5.78054 101.456 5.75091ZM105.094 3.36835C104.933 3.70815 104.897 4.07759 104.978 4.45295C104.537 4.29885 104.068 4.25539 103.602 4.31861C103.74 3.96103 103.748 3.58764 103.632 3.22414C104.104 3.36638 104.601 3.41972 105.094 3.36835ZM117.528 -2.96341C117.06 -2.55841 116.933 -2.01117 117.045 -1.43233C116.543 -1.82744 115.934 -2.04279 115.292 -2.02303C115.627 -2.43198 115.671 -2.92785 115.458 -3.43557C116.078 -3.05231 116.804 -2.8666 117.53 -2.96341M123.476 -0.40107C122.999 0.0177536 122.822 0.608456 122.864 1.23077C122.436 0.770454 121.871 0.480042 121.232 0.474113C121.668 0.0473862 121.816 -0.529484 121.725 -1.13203C122.195 -0.665798 122.805 -0.373413 123.476 -0.399094M127.578 -2.01513C126.822 -1.60223 126.574 -0.896942 126.668 -0.138317C126.2 -0.665798 125.542 -0.975967 124.82 -0.936455C125.368 -1.43233 125.47 -2.14946 125.258 -2.87648C125.815 -2.19095 126.655 -1.81164 127.578 -2.0171M125.324 3.8899C124.811 4.34034 124.617 4.9824 124.682 5.65015C124.255 5.13255 123.66 4.8046 122.978 4.81053C123.474 4.3759 123.681 3.76347 123.649 3.11745C124.079 3.59949 124.659 3.90768 125.321 3.8899M129.203 2.35487C128.6 2.80729 128.38 3.51059 128.465 4.23366C128.029 3.68642 127.415 3.33279 126.706 3.35255C127.239 2.89223 127.449 2.23239 127.387 1.54291C127.838 2.08422 128.473 2.41612 129.206 2.35487M133.562 0.764526C132.601 1.17743 132.256 2.06051 132.4 2.97324C131.936 2.29363 131.212 1.84912 130.368 1.91827C131.051 1.42437 131.29 0.64204 131.138 -0.169926C131.671 0.608456 132.55 1.05889 133.562 0.764526ZM117.733 9.99644C118.3 10.8005 119.219 11.2569 120.29 10.8479C121.295 10.4627 121.67 9.59541 121.577 8.69059C122.159 9.4097 123.059 9.78901 124.073 9.4018C125.078 9.01656 125.448 8.15718 125.357 7.26026C125.942 7.96752 126.835 8.33695 127.836 7.95369C128.854 7.56252 129.214 6.68536 129.106 5.77462C129.678 6.48978 130.55 6.87107 131.564 6.50558C132.652 6.11244 133.033 5.14243 132.874 4.16056C133.426 4.96858 134.358 5.42691 135.427 5.04562C136.677 4.59914 136.984 3.39601 136.599 2.2877C137.069 3.32687 138.102 4.00844 139.315 3.57579C140.576 3.12535 140.854 1.88469 140.411 0.774406C139.971 -0.335876 138.896 -1.08857 137.636 -0.638138C136.426 -0.20351 136.127 0.956158 136.5 2.03285C136.032 0.999622 135.024 0.316067 133.835 0.665745C135.007 0.161972 135.28 -1.04511 134.819 -2.13959C134.341 -3.27357 133.21 -4.0164 131.919 -3.55411C130.842 -3.16689 130.492 -2.23244 130.675 -1.27823C130.131 -2.05266 129.225 -2.47939 128.234 -2.2601C129.206 -2.80141 129.398 -3.86823 128.901 -4.86392C128.348 -5.96235 127.157 -6.62022 125.889 -6.152C124.83 -5.76084 124.485 -4.85799 124.72 -3.93539C124.073 -4.76316 123.014 -5.23928 121.913 -4.7928C120.955 -4.40558 120.673 -3.6272 120.821 -2.80733C120.275 -3.30518 119.543 -3.56596 118.785 -3.48299C119.49 -4.07961 119.5 -5.01406 118.863 -5.85567C118.08 -6.88495 116.605 -7.3018 115.341 -6.76246C114.344 -6.33968 113.959 -5.51982 114.268 -4.72168C113.497 -5.1978 112.52 -5.39536 111.609 -5.19384C112.323 -5.79245 112.445 -6.65183 111.789 -7.49343C110.979 -8.53061 109.52 -8.84671 108.305 -8.23822C107.236 -7.70481 106.635 -6.69727 107.118 -5.73713C106.199 -6.42661 104.885 -6.42068 103.803 -5.95247C104.768 -6.61627 105.236 -7.66925 104.734 -8.72224C104.192 -9.86216 103.077 -10.1822 101.945 -9.54409C100.81 -8.90597 100.056 -7.67716 100.554 -6.41476C100.99 -5.31436 102.097 -5.17409 103.121 -5.58106C102.364 -5.04765 101.849 -4.25544 102.059 -3.50472C101.348 -3.7655 100.535 -3.7971 99.8109 -3.60152C100.459 -4.38781 100.766 -5.50203 100.465 -6.3792C100.056 -7.57245 99.0277 -8.02091 97.8868 -7.38082C97.0253 -6.89878 96.5448 -5.89913 96.511 -4.95085C96.2273 -5.48228 95.7998 -5.8853 95.2134 -5.79047C95.8781 -6.53329 96.0051 -7.70284 95.8654 -8.60766C95.6982 -9.70213 94.8811 -10.4825 93.7508 -9.84833C92.8385 -9.33468 92.5062 -8.21452 92.557 -7.23858C92.2056 -7.85101 91.632 -8.19871 90.9631 -7.94781C91.6002 -8.75978 91.7717 -9.89179 91.4669 -10.8579C91.0986 -12.0116 90.0254 -12.5173 89.0051 -11.6935C88.1394 -10.9922 87.8791 -9.77523 88.0865 -8.76176C87.6166 -9.39394 86.9117 -9.50457 86.2302 -9.0897C86.7911 -9.96884 86.9604 -11.1404 86.3868 -12.0807C85.6967 -13.2128 84.4331 -12.9559 83.633 -12.0234C82.9408 -11.2174 82.6169 -10.0558 83.0001 -9.10353C82.3587 -9.63694 81.5268 -9.47692 80.8453 -8.96919C81.385 -9.81079 81.4972 -10.8974 80.714 -11.6738C79.7806 -12.5944 78.591 -12.1716 77.8078 -11.2885C77.0479 -10.4331 76.7495 -9.17663 77.5601 -8.29947C76.6182 -9.14304 75.3715 -8.81312 74.5587 -7.90237C73.8411 -7.09634 73.5532 -5.95642 74.0824 -5.04765C73.1765 -5.56921 72.1096 -5.17014 71.3963 -4.35422C70.702 -3.56003 70.3676 -2.46753 70.8269 -1.54889C69.9464 -2.04673 68.8901 -1.70693 68.1472 -0.940403C67.4063 -0.173878 67.0719 0.914673 67.5249 1.82542C66.6464 1.31967 65.5585 1.62588 64.7859 2.34895C63.9815 3.10165 63.6217 4.20403 64.1424 5.1286C63.2661 4.5379 62.1506 4.76707 61.3187 5.49409C60.3641 6.32779 60.0974 7.64352 60.9885 8.62539C61.6997 9.40969 62.6988 9.46897 63.5603 9.02446C63.1179 9.67245 62.9401 10.4706 63.1962 11.1877C62.413 10.759 61.4605 10.925 60.6795 11.5058C61.5198 10.7017 61.7674 9.56972 60.9631 8.657C60.1122 7.68896 58.7977 7.86282 57.8621 8.64317C56.9244 9.42155 56.6027 10.5812 57.443 11.5453C58.241 12.46 59.4348 12.4541 60.3789 11.7607C59.5449 12.5509 59.2295 13.6928 59.8222 14.6667C59.0221 13.9496 57.8515 13.9555 56.9456 14.6055C55.9444 15.3187 55.7031 16.4448 56.4736 17.3871C57.244 18.3315 58.5839 18.4441 59.5978 17.7467C60.5165 17.1145 60.7916 16.0753 60.2434 15.1725C60.9017 15.7632 61.7611 15.8027 62.5231 15.451C62.1294 16.101 62.0193 16.8537 62.3707 17.5195C61.5346 17.0177 60.4763 17.1896 59.5936 17.8138C58.5331 18.5626 58.4463 19.7756 59.3396 20.7199C60.1672 21.5951 61.3504 21.6899 62.231 21.0222C61.541 21.8816 61.4838 23.0077 62.3136 23.8433C63.2174 24.758 64.4684 24.6079 65.3828 23.7525C66.1257 23.059 66.3734 22.091 65.9585 21.2573C66.5999 21.607 67.3386 21.607 67.9969 21.3126C67.6011 22.0594 67.6222 22.9306 68.1937 23.6478C67.3958 22.8634 66.2189 23.0156 65.3933 23.7959C64.5424 24.602 64.4599 25.8051 65.3087 26.6427C66.1554 27.4824 67.2984 27.433 68.107 26.6151C68.8796 25.8328 69.0531 24.7106 68.3673 23.8414C69.1166 24.5901 70.0945 24.602 70.9116 24.0508C70.3634 24.841 70.3401 25.8545 71.0365 26.623C71.8472 27.5199 73.0241 27.4844 73.8411 26.6329C74.546 25.898 74.7238 24.8845 74.2602 24.0409C75.0709 24.6652 76.1229 24.5052 76.8807 23.6991C77.5178 23.0235 77.7464 22.1187 77.4966 21.2988C78.0301 21.5398 78.5973 21.4884 79.1159 21.1862C78.7772 21.9764 78.845 22.901 79.4144 23.6142C80.17 24.5585 81.2982 24.4874 82.0772 23.5944C82.6995 22.8852 82.926 21.8855 82.6021 21.0301C83.3239 21.5299 84.1452 21.4114 84.8755 20.6705C85.5062 20.0285 85.7539 19.1671 85.6057 18.3374C86.0756 18.5942 86.609 18.6001 87.1192 18.3433C86.7593 19.1019 86.8313 20.0048 87.3414 20.7239C88.0166 21.6682 89.0856 21.7334 89.9217 20.9037C90.6244 20.2063 90.8001 19.1948 90.4233 18.3354C91.107 18.9399 91.9728 18.9735 92.7178 18.2327C93.3486 17.6064 93.5307 16.747 93.355 15.937C93.9138 16.3322 94.5932 16.3894 95.2536 16.0101C94.6821 16.7312 94.7245 17.7309 95.2219 18.5152C95.7934 19.416 96.7396 19.6808 97.618 18.9656C98.4985 18.2505 98.6383 17.0374 98.0308 16.1287C97.5058 15.3404 96.6782 15.0579 95.8992 15.4728C96.3818 14.9078 96.5469 14.1926 96.4348 13.4972C96.8856 13.7599 97.4021 13.837 97.9207 13.6809C97.5249 14.4 97.6349 15.3088 98.1006 16.0319C98.7229 16.996 99.794 17.4108 100.795 16.6779C101.616 16.0793 101.754 15.1152 101.449 14.2519C102.182 14.9512 103.217 15.0717 104.182 14.4395C105.022 13.8884 105.414 13.023 105.272 12.1656C106.006 12.7109 106.963 12.8393 107.884 12.3276C108.754 11.8456 109.131 11.0257 109.071 10.1683C109.615 10.5891 110.284 10.763 110.993 10.5595C110.335 11.2312 110.255 12.2486 110.638 13.106C111.101 14.1472 112.084 14.7359 113.188 14.1333C114.276 13.5387 114.454 12.296 114.052 11.249C114.501 12.3217 115.494 12.8848 116.643 12.3059C117.591 11.8278 117.881 10.9013 117.733 9.98459M102.925 17.7487C102.539 17.0809 101.83 16.8043 101.157 17.2962C100.484 17.7882 100.437 18.6495 100.825 19.3192C101.21 19.989 101.921 20.2616 102.594 19.7697C103.27 19.2817 103.31 18.4164 102.925 17.7487ZM79.6472 29.2387C80.1108 29.7997 80.7712 29.7938 81.2474 29.2525C81.7237 28.7112 81.7935 27.919 81.33 27.35C80.8664 26.781 80.1912 26.8166 79.7086 27.3559C79.226 27.8953 79.1837 28.6796 79.6451 29.2367M67.9778 38.2138C67.8191 38.0458 67.5714 37.9866 67.3809 38.1446C67.1904 38.3046 67.2222 38.5378 67.383 38.7077C67.5418 38.8776 67.7873 38.9349 67.98 38.7768C68.1705 38.6188 68.1387 38.3837 67.9778 38.2138ZM84.1367 26.3997C84.74 25.732 84.8035 24.7284 84.268 24.0014C83.7303 23.2763 82.9366 23.2625 82.3354 23.9382C81.7343 24.6158 81.6517 25.6273 82.2 26.3484C82.7482 27.0714 83.5335 27.0655 84.1367 26.3978M85.9825 28.0276C85.7772 27.7471 85.466 27.7036 85.2226 27.9684C84.9771 28.2331 84.9792 28.6262 85.1845 28.9107C85.3919 29.1932 85.7052 29.2347 85.9486 28.97C86.192 28.7053 86.1899 28.3101 85.9825 28.0276ZM88.8443 26.4037C89.2719 25.9552 89.2359 25.2638 88.9141 24.7719C88.5903 24.278 88.0696 24.193 87.6568 24.6375C87.244 25.082 87.261 25.7419 87.5806 26.2239C87.9002 26.7079 88.4167 26.8541 88.8443 26.4037ZM75.3736 34.3495C75.2381 34.1895 75.0243 34.1322 74.8656 34.2863C74.7068 34.4404 74.7195 34.6597 74.8571 34.8237C74.9926 34.9876 75.2 35.0291 75.3715 34.8849C75.545 34.7407 75.5091 34.5115 75.3736 34.3495ZM78.2883 32.0045C78.6164 31.6548 78.6312 31.1254 78.32 30.7579C78.0068 30.3904 77.5644 30.3885 77.2426 30.748C76.9188 31.1056 76.8934 31.6291 77.2088 31.9986C77.522 32.368 77.9581 32.3561 78.2883 32.0045ZM99.5908 20.2616C99.3029 19.7282 98.7335 19.5721 98.2488 19.9771C97.7619 20.3821 97.7429 21.0499 98.035 21.5576C98.3271 22.0633 98.8478 22.3123 99.3558 21.9092C99.8638 21.5082 99.8765 20.793 99.5886 20.2616M161.102 -6.67553C161.314 -6.1362 161.832 -5.77269 162.444 -5.99396C163.056 -6.21127 163.193 -6.81383 162.982 -7.35119C162.768 -7.89052 162.249 -8.25403 161.64 -8.03474C161.028 -7.81545 160.888 -7.21487 161.102 -6.67553ZM156.884 -5.15631C157.161 -4.44905 157.84 -3.97293 158.642 -4.26137C159.443 -4.54782 159.623 -5.33806 159.345 -6.04335C159.066 -6.75061 158.386 -7.22672 157.586 -6.93829C156.786 -6.65183 156.604 -5.86357 156.884 -5.15631ZM147.28 -6.62614C147.568 -5.9011 148.266 -5.41511 149.088 -5.70947C149.911 -6.00581 150.099 -6.81383 149.812 -7.53887C149.526 -8.26391 148.823 -8.74792 148.002 -8.45159C147.178 -8.15525 146.99 -7.35118 147.28 -6.62614ZM165.382 -8.21847C165.513 -7.88262 165.835 -7.6574 166.216 -7.7957C166.595 -7.93201 166.682 -8.3054 166.55 -8.64125C166.417 -8.97512 166.093 -9.20231 165.714 -9.06402C165.336 -8.92771 165.249 -8.55432 165.382 -8.21847ZM152.714 -3.65486C153.046 -2.81129 153.863 -2.24232 154.818 -2.58805C155.774 -2.92982 155.992 -3.87218 155.66 -4.71773C155.328 -5.56131 154.511 -6.13027 153.554 -5.78455C152.597 -5.44079 152.379 -4.49844 152.714 -3.65486ZM155.868 -9.72189C155.99 -9.40975 156.291 -9.20034 156.644 -9.32677C156.998 -9.45321 157.076 -9.80091 156.951 -10.1111C156.831 -10.4212 156.528 -10.6326 156.177 -10.5062C155.823 -10.3798 155.745 -10.0321 155.865 -9.72189M151.539 -8.16118C151.751 -7.62184 152.271 -7.26031 152.883 -7.4796C153.495 -7.69889 153.634 -8.29947 153.421 -8.83881C153.207 -9.37814 152.688 -9.74165 152.076 -9.52038C151.465 -9.30109 151.325 -8.70051 151.539 -8.16118ZM190.082 -2.32331C190.224 -1.96376 190.569 -1.72274 190.977 -1.86893C191.386 -2.01513 191.477 -2.41617 191.337 -2.77573C191.195 -3.13528 190.85 -3.37828 190.44 -3.23011C190.033 -3.08392 189.94 -2.68287 190.082 -2.32331ZM186.001 -0.851501C186.177 -0.403046 186.61 -0.10078 187.118 -0.282532C187.629 -0.464287 187.743 -0.966087 187.565 -1.41455C187.389 -1.86301 186.955 -2.16527 186.447 -1.98351C185.937 -1.80176 185.823 -1.29996 186.001 -0.851501ZM168.813 -1.21304C167.967 -0.908794 167.774 -0.0731239 168.07 0.675625C168.365 1.42437 169.086 1.92815 169.933 1.62391C170.78 1.31967 170.974 0.483994 170.68 -0.264755C170.386 -1.01152 169.664 -1.51728 168.815 -1.21304M166.51 -3.69437C166.771 -3.0286 167.412 -2.58212 168.166 -2.8508C168.921 -3.12145 169.088 -3.86428 168.828 -4.5261C168.568 -5.19187 167.926 -5.64033 167.173 -5.36967C166.417 -5.09901 166.25 -4.35817 166.51 -3.69437ZM174.918 -6.72295C175.055 -6.37524 175.39 -6.14213 175.784 -6.28239C176.177 -6.42266 176.266 -6.81185 176.131 -7.15955C175.993 -7.50528 175.659 -7.74038 175.265 -7.60011C174.871 -7.45787 174.782 -7.06868 174.918 -6.72295ZM162.376 -2.20478C162.683 -1.42048 163.441 -0.891018 164.33 -1.21106C165.219 -1.52913 165.42 -2.40432 165.113 -3.18863C164.806 -3.97293 164.049 -4.50239 163.16 -4.18234C162.271 -3.86427 162.069 -2.98909 162.376 -2.20478ZM170.678 -5.19582C170.885 -4.66834 171.393 -4.31471 171.99 -4.52807C172.585 -4.74144 172.721 -5.33016 172.513 -5.85567C172.306 -6.38315 171.798 -6.73875 171.201 -6.52539C170.606 -6.31005 170.469 -5.72133 170.678 -5.19582ZM143.064 -5.10297C143.428 -4.23174 144.279 -3.65486 145.269 -4.01047C146.26 -4.3641 146.484 -5.33806 146.135 -6.21325C145.784 -7.08843 144.924 -7.66135 143.931 -7.3018C142.941 -6.94422 142.697 -5.97223 143.064 -5.10297ZM138.32 -19.8349C138.331 -19.8428 138.329 -19.8586 138.32 -19.8685C138.309 -19.8764 138.295 -19.8804 138.284 -19.8705C138.276 -19.8626 138.276 -19.8488 138.284 -19.8389C138.295 -19.829 138.309 -19.827 138.32 -19.8349ZM127.561 -9.21614C127.91 -8.45159 128.71 -8.00708 129.572 -8.33108C130.435 -8.65508 130.664 -9.47099 130.313 -10.2434C129.961 -11.0179 129.138 -11.4347 128.276 -11.1048C127.413 -10.7749 127.214 -9.97872 127.559 -9.21416M136.546 -12.5569C136.682 -12.2427 136.993 -12.0491 137.346 -12.1775C137.7 -12.306 137.787 -12.6497 137.66 -12.9638C137.528 -13.2779 137.215 -13.4735 136.862 -13.3431C136.508 -13.2147 136.415 -12.869 136.546 -12.5569ZM132.017 -10.8677C132.271 -10.3007 132.859 -9.98465 133.494 -10.2237C134.127 -10.4608 134.307 -11.0653 134.055 -11.6343C133.801 -12.2032 133.212 -12.5173 132.577 -12.2803C131.945 -12.0432 131.758 -11.4367 132.017 -10.8677ZM121.458 -11.7291C121.822 -11.1167 122.536 -10.8322 123.239 -11.1068C123.941 -11.3794 124.164 -12.0136 123.816 -12.6438C123.465 -13.274 122.705 -13.517 122.007 -13.2404C121.308 -12.9619 121.094 -12.3435 121.458 -11.7291ZM123.167 -7.60999C123.702 -6.72295 124.631 -6.15596 125.698 -6.54712C126.765 -6.94027 126.989 -7.91028 126.538 -8.85856C126.088 -9.80487 124.985 -10.2573 123.937 -9.8503C122.889 -9.44333 122.631 -8.49505 123.167 -7.60999ZM119.64 -8.40813C118.484 -7.92411 118.222 -6.80592 118.901 -5.86554C119.581 -4.92517 120.743 -4.37398 121.909 -4.81848C123.073 -5.26101 123.357 -6.45229 122.716 -7.44206C122.074 -8.43183 120.794 -8.89214 119.64 -8.40615M133.329 -6.49378C133.756 -5.61464 134.639 -5.03975 135.655 -5.40721C136.671 -5.77467 136.881 -6.74468 136.502 -7.65147C136.127 -8.55629 135.185 -9.09563 134.169 -8.71434C133.153 -8.33701 132.901 -7.37094 133.329 -6.49181M135.894 -4.83824C134.679 -4.40163 134.43 -3.22023 134.874 -2.15934C135.321 -1.09845 136.354 -0.365509 137.571 -0.80014C138.792 -1.23477 139.071 -2.43395 138.623 -3.50274C138.172 -4.57351 137.109 -5.27485 135.894 -4.83824ZM141.427 -2.3648C142.551 -2.76585 142.81 -3.86823 142.395 -4.85404C141.98 -5.83986 141 -6.48785 139.878 -6.08681C138.758 -5.68379 138.525 -4.59129 138.938 -3.61337C139.349 -2.63348 140.303 -1.95981 141.429 -2.36283M146.302 -11.1957C146.421 -10.8954 146.713 -10.6978 147.054 -10.8203C147.394 -10.9428 147.473 -11.2747 147.352 -11.575C147.233 -11.8753 146.943 -12.0748 146.601 -11.9523C146.262 -11.8279 146.181 -11.496 146.302 -11.1957ZM181.916 0.618336C182.127 1.15569 182.646 1.52118 183.258 1.29991C183.869 1.0826 184.007 0.480042 183.795 -0.0592918C183.584 -0.596653 183.065 -0.962135 182.453 -0.740871C181.842 -0.523556 181.702 0.0789986 181.916 0.618336ZM129.999 -7.45194C128.844 -7.02126 128.579 -5.92876 129.083 -4.92122C129.584 -3.91169 130.681 -3.31506 131.837 -3.74179C132.992 -4.17049 133.253 -5.26299 132.751 -6.27054C132.251 -7.27809 131.157 -7.88262 129.999 -7.45194ZM137.607 -8.03671C137.903 -7.3018 138.621 -6.82568 139.45 -7.12597C140.28 -7.42823 140.477 -8.23625 140.181 -8.97117C139.886 -9.70806 139.16 -10.1802 138.333 -9.87599C137.503 -9.57372 137.312 -8.76966 137.607 -8.03671ZM141.916 -9.60138C142.134 -9.05809 142.664 -8.70842 143.275 -8.92968C143.887 -9.15292 144.035 -9.74955 143.817 -10.2928C143.599 -10.8361 143.068 -11.1858 142.458 -10.9645C141.846 -10.7413 141.698 -10.1447 141.916 -9.60138ZM126.113 -13.513C126.331 -13.1041 126.784 -12.8986 127.245 -13.0725C127.707 -13.2444 127.832 -13.679 127.635 -14.0919C127.438 -14.5028 126.979 -14.7083 126.517 -14.5324C126.058 -14.3586 125.897 -13.922 126.113 -13.513ZM167.732 7.4104C168.612 7.09431 168.813 6.22505 168.506 5.44667C168.202 4.66829 167.45 4.14476 166.567 4.46085C165.687 4.77695 165.486 5.64621 165.793 6.42459C166.098 7.20297 166.849 7.7265 167.732 7.4104ZM171.631 5.92674C172.471 5.62645 172.661 4.79868 172.369 4.05586C172.077 3.31304 171.36 2.81123 170.519 3.1135C169.679 3.41576 169.488 4.24354 169.781 4.98636C170.073 5.72918 170.788 6.229 171.631 5.92674ZM161.856 7.84306C162.163 8.62539 162.918 9.15484 163.809 8.8348C164.696 8.5187 164.899 7.64154 164.588 6.85921C164.281 6.0749 163.526 5.54544 162.635 5.86549C161.748 6.18356 161.544 7.05875 161.856 7.84306ZM166.051 3.15104C166.965 2.82309 167.175 1.92222 166.855 1.1142C166.538 0.304214 165.759 -0.241047 164.842 0.0888748C163.928 0.4188 163.72 1.31967 164.038 2.12768C164.358 2.9357 165.134 3.48096 166.051 3.15104ZM175.508 4.38973C176.275 4.11512 176.448 3.36045 176.184 2.68282C175.917 2.00717 175.265 1.55081 174.499 1.82739C173.732 2.102 173.559 2.85667 173.823 3.53233C174.09 4.20798 174.742 4.66433 175.508 4.38973ZM158.287 6.20727C159.339 5.82993 159.578 4.79275 159.21 3.8662C158.846 2.93965 157.95 2.31141 156.898 2.68875C155.846 3.06609 155.607 4.10327 155.973 5.02982C156.34 5.95637 157.235 6.58263 158.287 6.20727ZM154.379 7.66525C155.459 7.28001 155.7 6.21715 155.328 5.26492C154.953 4.31268 154.034 3.67062 152.957 4.05783C151.878 4.44307 151.634 5.50594 152.009 6.45817C152.381 7.4104 153.302 8.05247 154.379 7.66525ZM162.169 4.67817C163.153 4.32651 163.375 3.3565 163.035 2.48922C162.694 1.61996 161.856 1.03518 160.871 1.38881C159.904 1.73652 159.675 2.6769 159.991 3.53233C159.942 3.5422 159.891 3.56393 159.845 3.60147C159.686 3.73976 159.714 3.94325 159.851 4.08549C159.982 4.22773 160.181 4.27515 160.338 4.15068C160.763 4.67224 161.424 4.94487 162.167 4.67817M172.12 -0.786308C172.386 -0.108681 173.038 0.345703 173.804 0.0710945C174.571 -0.20351 174.746 -0.958187 174.48 -1.63384C174.215 -2.31146 173.561 -2.76585 172.795 -2.49124C172.029 -2.21663 171.855 -1.46196 172.12 -0.786308ZM175.667 -3.57584C175.593 -3.51065 175.606 -3.41582 175.669 -3.34864C175.735 -3.28148 175.828 -3.25777 175.904 -3.32099C175.978 -3.38618 175.966 -3.48101 175.902 -3.54818C175.839 -3.61535 175.743 -3.64103 175.667 -3.57584ZM89.7206 -46.9558C89.7312 -46.9637 89.7291 -46.9795 89.7185 -46.9874C89.71 -46.9973 89.6952 -47.0012 89.6846 -46.9913C89.6761 -46.9834 89.6761 -46.9696 89.6846 -46.9597C89.6931 -46.9499 89.71 -46.9479 89.7206 -46.9558ZM180.349 -3.74771C180.529 -3.2874 180.974 -2.97724 181.497 -3.16492C182.019 -3.3526 182.138 -3.86625 181.958 -4.32656C181.776 -4.78885 181.331 -5.09902 180.809 -4.91133C180.286 -4.72168 180.167 -4.20803 180.349 -3.74771ZM178.639 -5.90901C178.783 -5.75491 179.003 -5.70354 179.174 -5.84974C179.346 -5.99396 179.314 -6.21325 179.17 -6.36537C179.026 -6.52144 178.804 -6.5728 178.633 -6.42661C178.461 -6.28042 178.493 -6.0631 178.639 -5.90901ZM184.538 -5.25509C184.659 -4.94492 184.962 -4.73551 185.313 -4.85997C185.666 -4.98641 185.745 -5.33411 185.624 -5.64428C185.501 -5.95642 185.201 -6.16583 184.849 -6.03939C184.496 -5.91296 184.415 -5.56723 184.538 -5.25509ZM176.203 -2.25615C176.433 -1.6694 176.999 -1.27428 177.663 -1.51135C178.328 -1.75039 178.478 -2.40432 178.247 -2.99304C178.019 -3.57781 177.452 -3.97491 176.787 -3.73586C176.122 -3.49681 175.972 -2.8429 176.203 -2.25615ZM150.457 9.09163C151.543 8.70046 151.789 7.63364 151.41 6.67548C151.035 5.7193 150.11 5.07328 149.024 5.4605C147.938 5.85167 147.691 6.92046 148.07 7.87664C148.446 8.8348 149.371 9.47884 150.457 9.09163ZM155.197 -1.62593C154.145 -1.2486 153.905 -0.21339 154.274 0.713161C154.638 1.63971 155.533 2.26598 156.585 1.89061C157.637 1.51328 157.876 0.476093 157.508 -0.450459C157.144 -1.37701 156.249 -2.00327 155.197 -1.62593ZM141.006 7.8312C142.234 7.39262 142.503 6.18356 142.075 5.10686C141.647 4.02819 140.606 3.2913 139.378 3.72988C138.151 4.16846 137.882 5.37357 138.312 6.45224C138.739 7.53289 139.778 8.26781 141.006 7.8312ZM158.304 -0.738895C158.645 0.130363 159.481 0.715137 160.467 0.361507C161.451 0.00787735 161.674 -0.960159 161.333 -1.82942C160.992 -2.69868 160.156 -3.28345 159.17 -2.92982C158.185 -2.57619 157.963 -1.60618 158.304 -0.738895ZM151.232 -0.302292C150.127 0.0948029 149.875 1.18335 150.26 2.15929C150.646 3.13523 151.585 3.79113 152.692 3.39404C153.797 2.99694 154.049 1.90839 153.666 0.932453C153.281 -0.0434875 152.337 -0.701359 151.232 -0.302292ZM133.21 10.6326C134.432 10.196 134.688 8.97704 134.262 7.90628C133.835 6.83353 132.787 6.07688 131.568 6.52139C130.346 6.9659 130.145 8.18483 130.562 9.24572C130.981 10.3046 131.989 11.0712 133.21 10.6326ZM137.103 9.25165C138.343 8.80912 138.618 7.58821 138.185 6.49768C137.751 5.40716 136.694 4.66631 135.454 5.10884C134.214 5.55335 133.938 6.77229 134.375 7.86281C134.808 8.95136 135.863 9.69616 137.103 9.25165ZM127.851 7.98728C126.678 8.43573 126.483 9.62306 126.884 10.6543C127.281 11.6816 128.245 12.4205 129.419 11.974C130.592 11.5275 130.806 10.3343 130.404 9.30104C130.001 8.26978 129.023 7.54079 127.851 7.98728ZM140.278 10.6741C140.642 11.6026 141.535 12.2427 142.594 11.8654C143.652 11.488 143.887 10.4449 143.519 9.5144C143.155 8.58588 142.259 7.94776 141.201 8.3251C140.143 8.70046 139.91 9.74358 140.278 10.6741ZM177.864 2.07632C178.106 2.68677 178.694 3.0977 179.386 2.85075C180.078 2.6038 180.235 1.92222 179.996 1.31176C179.754 0.701309 179.166 0.290386 178.474 0.537334C177.782 0.786259 177.625 1.46586 177.864 2.07632ZM147.261 1.01147C146.095 1.4303 145.832 2.57811 146.239 3.6074C146.645 4.6347 147.64 5.33011 148.808 4.90931C149.975 4.49246 150.239 3.34267 149.833 2.31339C149.424 1.28411 148.427 0.590675 147.261 1.01147ZM144.911 6.40285C146.124 5.96625 146.399 4.77299 145.974 3.70222C145.551 2.62948 144.516 1.90839 143.301 2.345C142.088 2.7816 141.817 3.97289 142.24 5.04365C142.664 6.11442 143.694 6.83945 144.909 6.40285M146.531 10.5042C147.617 10.117 147.862 9.04619 147.483 8.08803C147.109 7.13184 146.184 6.48583 145.098 6.87502C144.012 7.26223 143.766 8.33103 144.145 9.28919C144.52 10.2454 145.443 10.8934 146.531 10.5042ZM151.894 -3.35852C151.524 -4.2989 150.614 -4.92912 149.547 -4.54585C148.482 -4.16259 148.239 -3.11552 148.611 -2.17514C148.982 -1.23477 149.892 -0.606529 150.959 -0.98782C152.024 -1.36911 152.267 -2.41814 151.894 -3.35852ZM145.559 -3.27752C144.406 -2.86265 144.145 -1.72866 144.547 -0.711239C144.952 0.30619 145.934 0.989742 147.087 0.576847C148.241 0.163948 148.501 -0.973988 148.099 -1.98944C147.697 -3.00687 146.713 -3.69042 145.559 -3.27752ZM141.59 -1.96178C140.377 -1.52715 140.107 -0.335873 140.532 0.732918C140.957 1.79974 141.986 2.52675 143.201 2.09015C144.414 1.65552 144.689 0.462261 144.264 -0.610481C143.84 -1.68125 142.803 -2.40036 141.588 -1.96376M77.5919 -14.2183C76.597 -14.9612 75.3757 -14.6174 74.6137 -13.7422C73.8517 -12.867 73.8348 -11.7666 74.7851 -11.0278C75.7377 -10.2909 76.9251 -10.5516 77.6956 -11.4011C78.4682 -12.2506 78.591 -13.4755 77.5919 -14.2183ZM83.9738 -21.9093C84.7125 -21.3621 85.701 -21.3028 86.4376 -21.8935C87.1742 -22.4822 87.0641 -23.3613 86.336 -23.9501C85.6057 -24.5368 84.4902 -24.6 83.7727 -23.954C83.053 -23.308 83.235 -22.4585 83.9738 -21.9113M87.5679 -24.9043C88.1606 -24.4045 89.0475 -24.199 89.7269 -24.6791C90.4085 -25.1591 90.2815 -25.9316 89.6761 -26.4551C89.0686 -26.9826 88.1394 -27.1663 87.4663 -26.6448C86.7911 -26.1252 86.9774 -25.4002 87.5679 -24.9043ZM76.4849 -20.1471C75.5768 -20.7476 74.5121 -20.5224 73.894 -19.6709C73.2781 -18.8195 73.4516 -17.7862 74.3555 -17.1955C75.2572 -16.6048 76.3473 -16.8044 76.959 -17.6578C77.5728 -18.5073 77.3929 -19.5465 76.487 -20.1471M66.9788 -15.2812C66.2506 -15.7672 65.3447 -15.6625 64.7986 -14.9947C64.2524 -14.327 64.4578 -13.5032 65.1647 -13.0053C65.8717 -12.5075 66.801 -12.6043 67.328 -13.2878C67.853 -13.9714 67.7069 -14.7932 66.9788 -15.2812ZM90.8509 -33.8043C91.1938 -33.5198 91.6891 -33.4013 92.0468 -33.7075C92.4025 -34.0117 92.2585 -34.4404 91.9368 -34.7229C91.615 -35.0055 91.1472 -35.1082 90.7705 -34.8217C90.3958 -34.5353 90.508 -34.0868 90.8509 -33.8043ZM97.3661 -34.3832C97.4868 -34.2132 97.7027 -34.1362 97.8995 -34.2488C98.0943 -34.3594 98.1048 -34.5689 97.9821 -34.7388C97.8614 -34.9087 97.6455 -34.9877 97.4487 -34.8751C97.2539 -34.7625 97.2433 -34.5511 97.3661 -34.3812M79.2218 -23.5885C78.3814 -24.12 77.34 -24.0706 76.705 -23.3021C76.0721 -22.5336 76.2774 -21.5655 77.1178 -21.0203C77.9602 -20.473 78.9593 -20.6686 79.5901 -21.4114C80.2208 -22.1543 80.0642 -23.0591 79.2218 -23.5905M82.3058 -26.7554C81.5374 -27.2533 80.4664 -27.2414 79.8335 -26.5677C79.2027 -25.894 79.3509 -25.0564 80.1171 -24.5665C80.8855 -24.0765 81.8973 -24.1615 82.545 -24.7897C83.1948 -25.416 83.0784 -26.2556 82.3058 -26.7554ZM91.4309 -27.6266C91.8415 -27.2335 92.5062 -26.9253 93.0607 -27.2612C93.6153 -27.595 93.4629 -28.166 93.0438 -28.5789C92.6247 -28.9898 91.9029 -29.3019 91.3505 -28.9305C90.8001 -28.5611 91.0202 -28.0198 91.4309 -27.6266ZM87.3668 -18.8214C88.0082 -18.1557 88.9734 -17.8732 89.818 -18.4184C90.6625 -18.9657 90.6011 -19.9495 89.9471 -20.6568C89.2951 -21.366 88.205 -21.6406 87.388 -21.0282C86.5667 -20.4138 86.7276 -19.4892 87.3668 -18.8214ZM73.8178 -16.4843C72.9076 -17.0731 71.807 -16.8913 71.1148 -16.0932C70.4226 -15.295 70.5856 -14.3013 71.4789 -13.6869C72.3742 -13.0725 73.4728 -13.2463 74.1607 -14.0563C74.8486 -14.8663 74.7322 -15.8917 73.8199 -16.4843M80.3965 -17.806C79.3996 -18.4777 78.2565 -18.1142 77.594 -17.237C76.9315 -16.3599 76.9865 -15.2575 77.9115 -14.5897C78.8344 -13.924 79.9541 -14.2302 80.6399 -15.0836C81.3258 -15.9351 81.3956 -17.1343 80.3965 -17.806ZM95.4568 -29.786C95.696 -29.5054 96.1342 -29.3 96.4856 -29.5074C96.8391 -29.7129 96.7861 -30.0961 96.5554 -30.3747C96.3247 -30.6513 95.9141 -30.7777 95.5733 -30.588C95.2346 -30.4004 95.2198 -30.0685 95.4568 -29.786ZM80.8537 -18.4402C81.747 -17.8751 82.7037 -18.1122 83.398 -18.857C84.0944 -19.6018 84.0478 -20.5145 83.1779 -21.1566C82.31 -21.7967 81.1861 -21.6288 80.4875 -20.8405C79.789 -20.0522 79.9647 -19.0072 80.8537 -18.4402ZM95.1372 -28.889C95.0166 -28.7982 95.0653 -28.6599 95.1605 -28.565C95.2579 -28.4702 95.406 -28.4149 95.5267 -28.5018C95.6474 -28.5907 95.605 -28.731 95.5098 -28.8258C95.4124 -28.9206 95.26 -28.9799 95.1393 -28.889M84.069 -15.6447C84.8331 -14.8782 85.8364 -14.9868 86.626 -15.7119C87.4176 -16.4369 87.515 -17.4939 86.7255 -18.3019C85.9359 -19.1119 84.7675 -19.181 83.9695 -18.3651C83.1694 -17.5511 83.3049 -16.4112 84.069 -15.6447ZM74.0295 -31.6667C73.4834 -32.0401 72.7849 -31.9571 72.3488 -31.4711C71.9128 -30.9851 72.0144 -30.3727 72.5605 -30.0092C73.1087 -29.6457 73.7945 -29.7306 74.2306 -30.2107C74.6687 -30.6908 74.5777 -31.2933 74.0295 -31.6667ZM83.0022 -34.0117C83.5123 -33.67 84.2341 -33.5475 84.7294 -33.9801C85.2226 -34.4148 85.03 -34.964 84.5199 -35.3216C84.0118 -35.6791 83.2435 -35.7759 82.7439 -35.3334C82.2423 -34.8909 82.4921 -34.3515 83.0022 -34.0117ZM77.1876 -35.0193C76.6542 -35.3709 76.0001 -35.3532 75.5472 -34.9067C75.0942 -34.4602 75.1683 -33.8853 75.6932 -33.5218C76.2182 -33.1583 76.8976 -33.2037 77.3548 -33.6502C77.8142 -34.0967 77.721 -34.6657 77.1876 -35.0193ZM71.0661 -28.2252C70.5136 -28.5769 69.8596 -28.4307 69.4892 -27.9171C69.1187 -27.4054 69.233 -26.785 69.7876 -26.4334C70.3401 -26.0837 70.9857 -26.22 71.3519 -26.7337C71.718 -27.2473 71.6164 -27.8736 71.0661 -28.2252ZM78.7222 -38.0202C78.3158 -37.6113 78.447 -37.1075 78.9169 -36.7993C79.3869 -36.4891 80.0134 -36.4753 80.4198 -36.8862C80.8262 -37.2932 80.6802 -37.7871 80.2124 -38.0953C79.7467 -38.4054 79.1265 -38.4331 78.7201 -38.0222M83.4234 -41.6336C83.5589 -41.5565 83.724 -41.5605 83.815 -41.6928C83.9039 -41.8252 83.8383 -41.9674 83.7028 -42.0445C83.5673 -42.1215 83.4001 -42.1176 83.3091 -41.9852C83.2181 -41.8528 83.2879 -41.7106 83.4234 -41.6336ZM81.7914 -40.952C81.4803 -40.626 81.6179 -40.2171 81.9671 -39.9681C82.3185 -39.7172 82.7926 -39.6639 83.089 -39.9978C83.3853 -40.3297 83.2498 -40.7307 82.9112 -40.9836C82.5725 -41.2404 82.1026 -41.276 81.7914 -40.952ZM78.1634 -29.3158C77.4585 -29.7721 76.5716 -29.6575 76.0128 -29.0491C75.4561 -28.4406 75.5535 -27.6879 76.2584 -27.2295C76.9632 -26.7692 77.8607 -26.8759 78.4216 -27.4824C78.9804 -28.0929 78.8704 -28.8535 78.1655 -29.3138M75.1746 -25.975C74.4528 -26.4512 73.5469 -26.3563 73.041 -25.6649C72.5351 -24.9715 72.6706 -24.1516 73.4093 -23.6735C74.148 -23.1934 75.0116 -23.4009 75.5196 -24.0706C76.0298 -24.7403 75.8922 -25.4989 75.1725 -25.975M87.2779 -31.0207C87.7605 -30.6552 88.4993 -30.4794 89.0221 -30.8765C89.547 -31.2756 89.3544 -31.8346 88.8718 -32.2219C88.3871 -32.6071 87.5743 -32.7908 87.0747 -32.3384C86.5731 -31.89 86.7932 -31.3862 87.28 -31.0207M83.5843 -27.9348C84.2362 -27.4883 85.1231 -27.4271 85.7497 -27.9487C86.3762 -28.4722 86.2132 -29.1478 85.5655 -29.624C84.9178 -30.1001 84.0034 -30.189 83.3811 -29.6259C82.7609 -29.0609 82.9345 -28.3813 83.5864 -27.9329M89.6021 -39.9997C89.8158 -39.816 90.1206 -39.7765 90.3366 -39.98C90.5503 -40.1835 90.4953 -40.4581 90.2794 -40.6438C90.0635 -40.8275 89.7587 -40.869 89.5449 -40.6635C89.329 -40.4601 89.3862 -40.1855 89.6021 -39.9997ZM81.3512 -32.449C80.7204 -32.8619 79.8885 -32.8066 79.353 -32.2772C78.8154 -31.7497 78.9127 -31.0918 79.5414 -30.6769C80.1722 -30.264 81.0019 -30.3194 81.5374 -30.8468C82.0708 -31.3743 81.9819 -32.0342 81.3512 -32.449ZM88.3807 -39.1621C88.3088 -39.0692 88.349 -38.9626 88.4463 -38.9013C88.5458 -38.8401 88.6686 -38.8401 88.7406 -38.9329C88.8125 -39.0278 88.7723 -39.1325 88.6728 -39.1937C88.5755 -39.2569 88.4527 -39.2569 88.3807 -39.1621ZM86.4122 -37.0028C86.7847 -36.7321 87.3203 -36.6294 87.6589 -36.9633C87.9976 -37.2971 87.8283 -37.7199 87.4832 -37.9925C87.1403 -38.2652 86.645 -38.3403 86.281 -38.0222C85.9148 -37.7061 86.0375 -37.2734 86.4122 -37.0028ZM64.934 -6.19942C64.1127 -6.8731 63.0353 -6.73283 62.2818 -6.02557C61.5282 -5.31831 61.4965 -4.31076 62.3051 -3.61732C63.1115 -2.92389 64.1995 -3.1096 64.9065 -3.82872C65.6114 -4.5498 65.7574 -5.52575 64.9361 -6.19942M99.7559 -10.8776C99.9739 -9.90562 100.833 -9.63101 101.741 -10.1269C102.647 -10.6247 103.198 -11.6757 102.874 -12.5983C102.552 -13.5209 101.788 -13.8765 100.882 -13.3866C99.9781 -12.8986 99.5378 -11.8516 99.7559 -10.8776ZM104.104 -13.3135C104.383 -12.5806 105.128 -12.4028 105.835 -12.786C106.538 -13.1693 106.853 -13.924 106.531 -14.6174C106.208 -15.3148 105.513 -15.5775 104.804 -15.1943C104.093 -14.811 103.826 -14.0425 104.104 -13.3135ZM99.1738 -10.5457C99.0256 -11.6224 98.3038 -12.2941 97.2285 -11.7034C96.1511 -11.1127 95.8315 -9.7456 95.9606 -8.68076C96.094 -7.61592 96.7692 -6.89087 97.8508 -7.49343C98.9325 -8.09401 99.3198 -9.47099 99.1717 -10.5457M95.442 -13.2957C95.5839 -12.4265 96.2189 -11.9029 97.0867 -12.387C97.9546 -12.871 98.2467 -13.9911 98.0435 -14.8347C97.8403 -15.6803 97.1756 -16.2611 96.3353 -15.7474C95.4971 -15.2318 95.2981 -14.163 95.4399 -13.2957M99.0806 -15.4669C99.2711 -14.7873 99.8172 -14.3625 100.535 -14.7438C101.25 -15.1251 101.451 -15.9568 101.238 -16.6562C101.024 -17.3556 100.406 -17.7546 99.7114 -17.3635C99.015 -16.9664 98.888 -16.1485 99.0806 -15.4669ZM107.147 -19.7184C107.272 -19.5169 107.501 -19.4141 107.734 -19.5228C107.969 -19.6334 108.026 -19.8764 107.903 -20.0898C107.782 -20.3012 107.524 -20.3723 107.296 -20.2617C107.069 -20.149 107.02 -19.9218 107.147 -19.7184ZM108.561 -15.6625C108.779 -15.214 109.281 -15.058 109.757 -15.2851C110.236 -15.5143 110.407 -15.9983 110.153 -16.4369C109.899 -16.8735 109.41 -17.0513 108.938 -16.8162C108.464 -16.5831 108.345 -16.1129 108.563 -15.6625M102.965 -17.6381C103.132 -17.1876 103.547 -16.9269 104.021 -17.158C104.497 -17.3891 104.573 -17.8949 104.427 -18.3434C104.281 -18.7918 103.877 -19.104 103.386 -18.8669C102.899 -18.6278 102.795 -18.0885 102.963 -17.6381M116.791 -9.71004C117.32 -8.90005 118.326 -8.62939 119.234 -9.03439C120.142 -9.43938 120.37 -10.2711 119.89 -11.089C119.407 -11.9029 118.406 -12.1894 117.502 -11.7884C116.598 -11.3853 116.262 -10.522 116.789 -9.71201M113.165 -17.9186C113.279 -17.7072 113.512 -17.5847 113.754 -17.6875C113.997 -17.7882 114.041 -18.0292 113.929 -18.2406C113.819 -18.454 113.586 -18.5765 113.343 -18.4718C113.102 -18.369 113.053 -18.132 113.165 -17.9186ZM112.1 -7.64753C112.826 -6.70517 114.099 -6.46217 115.191 -6.93631C116.283 -7.41243 116.535 -8.38047 115.902 -9.32282C115.269 -10.2652 114.033 -10.5734 112.953 -10.0992C111.874 -9.62311 111.379 -8.58593 112.103 -7.64753M91.071 -21.3897C91.6023 -20.8049 92.4681 -20.4948 93.1772 -20.963C93.8884 -21.4312 93.7444 -22.2155 93.2512 -22.8102C92.7581 -23.4048 91.8775 -23.7545 91.1536 -23.2764C90.4297 -22.7963 90.5398 -21.9745 91.071 -21.3877M105.321 -9.05612C105.816 -8.04857 107.114 -8.05449 108.049 -8.57407C108.987 -9.09168 109.501 -10.0775 108.928 -11.0001C108.354 -11.9207 107.266 -12.1262 106.299 -11.6007C105.331 -11.0732 104.83 -10.0656 105.321 -9.05809M119.856 -15.9094C119.981 -15.6566 120.277 -15.5499 120.55 -15.6645C120.823 -15.779 120.887 -16.0299 120.77 -16.2769C120.654 -16.5238 120.383 -16.6542 120.108 -16.5436C119.831 -16.433 119.733 -16.1643 119.856 -15.9094ZM110.143 -11.6007C110.621 -10.8756 111.535 -10.6741 112.348 -11.0376C113.161 -11.4011 113.438 -12.1835 112.977 -12.9065C112.515 -13.6316 111.607 -13.8311 110.82 -13.4676C110.028 -13.1021 109.666 -12.3277 110.143 -11.6007ZM115.002 -13.8449C115.303 -13.3254 115.927 -13.1456 116.495 -13.4044C117.062 -13.6632 117.236 -14.1907 116.941 -14.7122C116.649 -15.2298 116.031 -15.4116 115.464 -15.1548C114.899 -14.8979 114.702 -14.3665 115 -13.8449M86.5265 -12.1716C87.1149 -11.1838 88.0463 -11.0791 88.9543 -11.8239C89.8603 -12.5687 90.1884 -13.8015 89.5745 -14.8347C88.9586 -15.866 87.8261 -16.1623 86.8948 -15.3227C85.9613 -14.4831 85.938 -13.1614 86.5265 -12.1716ZM74.5798 -10.7828C73.5998 -11.577 72.315 -11.247 71.5656 -10.3561C70.8163 -9.46902 70.6872 -8.24613 71.6545 -7.46775C72.6219 -6.68937 73.7691 -7.07065 74.5396 -7.93201C75.3101 -8.79139 75.5577 -9.99057 74.5777 -10.7828M68.4414 -4.01244C69.3643 -3.17875 70.6216 -3.49089 71.3921 -4.34829C72.1626 -5.2057 72.461 -6.47995 71.4873 -7.27019C70.5094 -8.0624 69.2754 -7.69691 68.4985 -6.84148C67.7238 -5.98606 67.5185 -4.84417 68.4414 -4.01244ZM127.11 -17.4939C127.186 -17.4129 127.305 -17.3872 127.396 -17.4642C127.489 -17.5413 127.472 -17.6578 127.394 -17.7388C127.317 -17.8198 127.199 -17.8455 127.106 -17.7685C127.017 -17.6914 127.032 -17.5768 127.11 -17.4939ZM94.8642 -23.7861C95.2431 -23.3376 95.8738 -23.0196 96.4411 -23.3534C97.0084 -23.6853 96.892 -24.2839 96.5406 -24.7522C96.1871 -25.2224 95.5077 -25.5068 94.9425 -25.1651C94.3752 -24.8233 94.4853 -24.2306 94.8642 -23.7841M98.7716 -25.9375C98.9325 -25.7004 99.2246 -25.5088 99.5146 -25.6688C99.8046 -25.8289 99.7537 -26.1627 99.6035 -26.4077C99.4532 -26.6507 99.1399 -26.8364 98.852 -26.6724C98.5642 -26.5085 98.6065 -26.1766 98.7695 -25.9375M80.8389 -11.8042C81.6898 -10.9606 82.8307 -11.2352 83.5906 -12.1124C84.3505 -12.9895 84.6299 -14.3369 83.7494 -15.2733C82.8709 -16.2097 81.639 -15.7198 80.9321 -14.8406C80.2272 -13.9615 79.9859 -12.6458 80.8368 -11.8022M93.954 -17.6144C94.4133 -16.9644 95.0928 -16.4685 95.876 -16.9387C96.6591 -17.4089 96.5999 -18.2861 96.204 -18.9696C95.8061 -19.6532 94.9594 -20.0819 94.1995 -19.6275C93.4417 -19.1771 93.4989 -18.2663 93.954 -17.6144ZM97.6265 -19.8053C97.8932 -19.3114 98.38 -18.9163 98.9558 -19.2403C99.5294 -19.5682 99.5527 -20.2518 99.2796 -20.7773C99.0087 -21.3048 98.4456 -21.6169 97.8889 -21.2771C97.3322 -20.9393 97.364 -20.2972 97.6286 -19.8053M101.477 -20.2281C101.515 -20.149 101.589 -20.0957 101.669 -20.1589C101.748 -20.2221 101.737 -20.3347 101.699 -20.4157C101.661 -20.4948 101.583 -20.5521 101.504 -20.4888C101.426 -20.4237 101.439 -20.3091 101.477 -20.2281ZM98.8669 -24.6079C98.8774 -24.6178 98.8732 -24.6336 98.8669 -24.6435C98.8584 -24.6534 98.8436 -24.6593 98.833 -24.6514C98.8224 -24.6415 98.8266 -24.6257 98.8351 -24.6158C98.8415 -24.606 98.8563 -24.6 98.8669 -24.6079ZM90.055 -15.1508C90.5757 -14.2954 91.524 -13.9892 92.4702 -14.5305C93.4163 -15.0718 93.6555 -16.1346 93.0502 -17.0039C92.4427 -17.8732 91.3886 -18.2446 90.4657 -17.642C89.5428 -17.0375 89.5301 -16.0082 90.055 -15.1528M101.326 -21.9369C101.485 -21.6268 101.777 -21.3462 102.156 -21.5102C102.533 -21.6781 102.522 -22.1266 102.378 -22.4486C102.235 -22.7687 101.904 -23.0433 101.536 -22.8615C101.166 -22.6817 101.168 -22.2451 101.326 -21.9369ZM91.6299 -10.9744C91.9241 -9.92538 92.6988 -9.4137 93.7042 -10.036C94.7097 -10.6583 95.0801 -11.9089 94.8642 -12.9737C94.6504 -14.0346 93.7233 -14.5759 92.6861 -13.9615C91.6489 -13.3491 91.3356 -12.0215 91.6299 -10.9744Z" fill="#1D3660"/>
</g>
<path d="M33.9773 24.7224L36.9915 21.3244L39.0574 20.4907L41.1021 18.6297L39.9739 16.1998L42.5139 14.155L43.6421 23.0452L48.864 27.6562L44.0655 29.7622L47.1008 34.0433L42.4441 34.5036L38.3271 30.8606L37.7874 30.2521L33.9773 24.7224Z" fill="white"/>
<path d="M42.2705 11.8733H17.7506C12.8886 11.8733 8.9494 15.5518 8.9494 20.0878V36.4812C8.9494 39.2253 11.3328 41.4518 14.275 41.4518H14.3279L14.0803 48.7239C14.0697 49.0341 14.4698 49.1961 14.7047 48.9788L21.6475 41.8548C21.9311 41.596 23.1588 41.4498 22.708 41.4498H41.4238C47.1326 41.4498 51.0717 37.7713 51.0717 33.2353V20.0878C51.0717 15.5499 47.1304 11.8733 42.2705 11.8733Z" stroke="#1D3660" stroke-linecap="round" stroke-linejoin="round"/>
<path d="M38.1726 41.4497C37.0296 39.2885 34.8621 37.3879 32.3771 37.3879H27.6314C25.1443 37.3879 22.962 39.4663 21.819 41.6275" stroke="#1D3660" stroke-linecap="round" stroke-linejoin="round"/>
<path d="M35.6729 25.5473C35.6711 24.5741 34.8243 23.7865 33.7815 23.7882C32.7388 23.7899 31.8949 24.5802 31.8967 25.5535L31.9032 29.0088C31.905 29.982 32.7518 30.7696 33.7946 30.7679C34.8373 30.7662 35.6812 29.9759 35.6794 29.0026L35.6729 25.5473Z" fill="#1C355D"/>
<path d="M34.1186 25.1964L33.4518 25.1975L33.453 25.8198L34.1197 25.8187L34.1186 25.1964Z" fill="white"/>
<path d="M34.1209 26.4408L33.4542 26.4419L33.4553 27.0642L34.1221 27.0631L34.1209 26.4408Z" fill="white"/>
<path d="M33.453 25.8197L32.7863 25.8208L32.7874 26.4431L33.4542 26.442L33.453 25.8197Z" fill="white"/>
<path d="M34.7865 25.8175L34.1198 25.8186L34.1209 26.4409L34.7877 26.4398L34.7865 25.8175Z" fill="white"/>
<path d="M24.8035 25.7952L27.6017 28.7052L24.8797 28.7171" stroke="#1D3660" stroke-linecap="round" stroke-linejoin="round"/>
<path d="M39.2733 21.4609C41.1021 23.1481 42.2091 25.341 42.2091 27.7393C42.2091 33.0675 36.7481 37.3881 30.0127 37.3881C23.2774 37.3881 17.8163 33.0675 17.8163 27.7393C17.8163 26.1964 18.2735 24.7384 19.0884 23.4464C19.0884 23.4464 21.3004 19.1594 27.0049 17.7429C31.323 16.6701 32.7454 16.7748 33.8376 16.0774C34.9298 15.3801 36.8518 13.2958 38.1789 13.4934C39.5061 13.6909 40.2512 15.0343 40.357 16.1011C40.4629 17.1699 40.0649 19.108 39.8787 19.6295C39.6924 20.1511 39.2754 21.4589 39.2754 21.4589L39.2733 21.4609Z" stroke="#1D3660" stroke-linecap="round" stroke-linejoin="round"/>
<path d="M38.1726 16.1702C37.9948 15.9687 37.709 15.9489 37.4868 16.105C37.2666 16.2611 37.2349 16.506 37.4127 16.7056C37.5905 16.9071 37.872 16.9407 38.0964 16.7826C38.3207 16.6246 38.3504 16.3717 38.1726 16.1702ZM39.3558 15.3405C39.1505 15.1133 38.8245 15.0896 38.5705 15.2674C38.3186 15.4452 38.2827 15.7198 38.4859 15.9489C38.6891 16.1781 39.0023 16.2117 39.2542 16.0319C39.5061 15.8521 39.5611 15.5657 39.3558 15.3385M35.8929 16.0852C35.8125 15.9983 35.6855 15.9786 35.5817 16.0457C35.4801 16.1109 35.4674 16.2196 35.5479 16.3065C35.6283 16.3934 35.7553 16.4112 35.859 16.346C35.9606 16.2808 35.9733 16.1722 35.8929 16.0852ZM37.1417 15.2654C37.0169 15.1291 36.8158 15.0994 36.657 15.2041C36.4983 15.3108 36.4792 15.4807 36.6062 15.617C36.7311 15.7533 36.9343 15.783 37.0909 15.6783C37.2476 15.5716 37.2687 15.4017 37.1417 15.2654ZM38.3567 14.3843C38.1895 14.2005 37.9292 14.1887 37.726 14.3309C37.5249 14.4751 37.4889 14.7181 37.6561 14.8999C37.8233 15.0836 38.0794 15.1014 38.2826 14.9552C38.4859 14.809 38.5218 14.566 38.3546 14.3823M39.0404 19.1395C38.8626 18.9459 38.5832 18.8847 38.3673 19.0605C38.1514 19.2363 38.1789 19.4991 38.3567 19.6927C38.5345 19.8863 38.8161 19.9357 39.0214 19.7559C39.2267 19.5781 39.2203 19.3311 39.0404 19.1395ZM36.8687 18.9716C36.7459 18.8412 36.5575 18.7977 36.4115 18.9163C36.2654 19.0348 36.2845 19.2146 36.4051 19.345C36.5279 19.4754 36.7163 19.5188 36.8623 19.4003C37.0084 19.2817 36.9893 19.102 36.8687 18.9716ZM37.9016 20.0562C37.7746 19.9199 37.5757 19.8744 37.4233 19.9989C37.2688 20.1233 37.2899 20.311 37.4169 20.4473C37.5439 20.5837 37.7429 20.6291 37.8953 20.5046C38.0477 20.3802 38.0286 20.1925 37.9016 20.0562ZM38.0096 18.0569C37.836 17.8712 37.5672 17.8099 37.3577 17.9779C37.1481 18.1458 37.1735 18.3987 37.3471 18.5844C37.5206 18.7701 37.7873 18.8313 37.999 18.6634C38.2086 18.4955 38.1832 18.2426 38.0096 18.0569ZM39.106 17.1679C38.8986 16.9466 38.6002 16.8913 38.3462 17.0809C38.09 17.2706 38.1281 17.5808 38.3313 17.7981C38.5345 18.0154 38.852 18.0885 39.0976 17.889C39.3431 17.6874 39.3135 17.3891 39.106 17.1679ZM40.2533 16.3026C40.0437 16.0477 39.686 16.0181 39.4087 16.2216C39.1293 16.4231 39.0658 16.753 39.3008 17.0098C39.5379 17.2686 39.9167 17.3397 40.1898 17.1185C40.4628 16.8972 40.4629 16.5614 40.2533 16.3045M35.7913 17.9285C35.7024 17.8317 35.5627 17.802 35.4505 17.887C35.3404 17.9719 35.3553 18.1063 35.4442 18.2011C35.5352 18.2979 35.6749 18.3295 35.7828 18.2426C35.8908 18.1557 35.8781 18.0233 35.7892 17.9285M36.9639 17.0296C36.8264 16.8755 36.6062 16.8399 36.4327 16.9703C36.257 17.0987 36.2633 17.3042 36.4051 17.4563C36.547 17.6104 36.765 17.6519 36.9322 17.5175C37.1015 17.3832 37.1015 17.1837 36.9618 17.0296" fill="#1C355D"/>
<path d="M30.0106 35.3571C35.3296 35.3571 39.6416 31.9464 39.6416 27.7392C39.6416 23.532 35.3296 20.1213 30.0106 20.1213C24.6915 20.1213 20.3796 23.532 20.3796 27.7392C20.3796 31.9464 24.6915 35.3571 30.0106 35.3571Z" stroke="#1D3660" stroke-linecap="round" stroke-linejoin="round"/>
</svg>
