<svg width="36" height="36" viewBox="0 0 36 36" fill="none" xmlns="http://www.w3.org/2000/svg">
<circle cx="18" cy="18" r="18" fill="#244D8C"/>
<path d="M22.7441 9.11816C23.1361 9.18172 23.528 9.29825 23.8988 9.43596C25.689 10.1351 26.6106 11.5122 26.8967 13.366C26.9602 13.7898 26.9814 14.2135 26.9814 14.6372C26.9814 16.883 26.9814 19.1394 26.9814 21.3851C26.9814 22.169 26.8649 22.9317 26.5895 23.6627C25.9115 25.4529 24.545 26.3851 22.7123 26.6923C22.2251 26.7771 21.7272 26.7982 21.2399 26.7982C18.9729 26.8088 16.6954 26.8088 14.4284 26.7982C13.528 26.7982 12.6488 26.6393 11.8225 26.2686C10.1806 25.5271 9.35429 24.1817 9.08946 22.455C9.0259 22.0419 9.00471 21.6288 9.00471 21.205C8.99411 20.1033 9.00471 18.991 9.00471 17.8893H9.0259C9.0259 16.544 8.96234 15.1881 9.04708 13.8427C9.15301 12.0525 9.88395 10.5694 11.5471 9.67961C12.4263 9.20291 13.3903 9.01223 14.3755 9.01223C16.7907 8.99105 19.206 9.00164 21.6212 9.01223C22.0026 9.01223 22.3734 9.04401 22.7335 9.10757M17.9878 10.6966V10.6648C17.7547 10.6648 17.5217 10.6648 17.2886 10.6648C16.1022 10.686 14.9157 10.6648 13.7399 10.7601C12.3734 10.866 11.367 11.5546 10.9221 12.8788C10.7526 13.3766 10.6678 13.9169 10.6573 14.4466C10.6255 16.6923 10.6467 18.9275 10.6573 21.1732C10.6573 21.4699 10.6784 21.7771 10.7102 22.0737C10.9009 23.7792 12.0556 24.9444 13.7717 25.0716C14.8945 25.1563 16.0174 25.1563 17.1509 25.1563C18.8458 25.1563 20.5513 25.1563 22.2462 25.061C23.6128 24.9868 24.6191 24.2665 25.064 22.9423C25.2335 22.4232 25.3183 21.8618 25.3289 21.3216C25.3606 19.1076 25.3394 16.8936 25.3289 14.6796C25.3289 14.3512 25.3077 14.0228 25.2653 13.6944C25.0958 12.222 24.1636 11.1627 22.7229 10.8343C22.3522 10.7495 21.9602 10.7071 21.5683 10.6966C20.3712 10.6754 19.1848 10.6966 17.9878 10.6966Z" fill="#F2F2F2"/>
<path d="M17.9984 13.186C20.6255 13.186 22.7441 15.2941 22.7441 17.9424C22.7441 20.5271 20.6361 22.6458 18.0513 22.6564C15.4136 22.6564 13.295 20.5695 13.2844 17.9636C13.2738 15.3259 15.3712 13.2072 18.009 13.1966L17.9984 13.186ZM14.9475 17.9318C14.9581 19.6267 16.3352 20.9826 18.0195 20.9721C19.7145 20.9615 21.0704 19.5949 21.0598 17.9C21.0492 16.2051 19.6827 14.8492 17.9878 14.8598C16.2928 14.8704 14.9369 16.2475 14.9475 17.9318Z" fill="#F2F2F2"/>
<path d="M22.7653 14.1498C22.2356 14.1498 21.8225 13.7366 21.8225 13.2176C21.8225 12.6879 22.2462 12.2642 22.7865 12.2642C23.3056 12.2642 23.7187 12.6985 23.7187 13.2176C23.7187 13.7366 23.295 14.1498 22.7759 14.1498H22.7653Z" fill="#F2F2F2"/>
</svg>
