<svg width="36" height="36" viewBox="0 0 36 36" fill="none" xmlns="http://www.w3.org/2000/svg">
<circle cx="18" cy="18" r="18" fill="#244D8C"/>
<circle cx="18" cy="18" r="18" fill="#244D8C"/>
<path d="M26.6142 26.3762V20.0415C26.6142 16.6516 24.751 15.0732 22.2668 15.0732C20.2619 15.0732 19.3684 16.1432 18.8672 16.8953V15.3275H15.0864C15.1408 16.3656 15.0864 26.3762 15.0864 26.3762H18.8672V20.211C18.8672 19.8826 18.889 19.5542 18.9871 19.3105C19.2595 18.6538 19.8806 17.9652 20.9266 17.9652C22.2885 17.9652 22.8442 18.9821 22.8442 20.4652V26.3762H26.6251H26.6142Z" fill="#F2F2F2"/>
<path d="M11.1356 10C9.83898 10 9 10.8263 9 11.9068C9 12.9873 9.81719 13.8136 11.092 13.8136H11.1138C12.4322 13.8136 13.2494 12.9661 13.2494 11.9068C13.2276 10.8263 12.4322 10 11.1356 10Z" fill="#F2F2F2"/>
<path d="M12.9937 15.3296H9.21283V26.3783H12.9937V15.3296Z" fill="#F2F2F2"/>
</svg>
